# Blender 4.4.3
# www.blender.org
mtllib danpian.mtl
o Plane.047
v 0.307597 -0.040492 0.318517
v 0.307597 -0.773712 0.144302
v 0.307597 -0.040492 -0.356597
v 0.307597 -0.773712 -0.182382
v 0.307597 0.229838 0.156418
v 0.307597 0.229838 -0.194499
v 0.307597 0.491750 0.211984
v 0.307597 0.491750 -0.250064
v 0.307597 -0.040492 0.050532
v 0.307597 -0.773712 0.050532
v 0.307597 0.229838 0.050532
v 0.307597 0.635494 0.050532
v 0.307597 -0.773712 -0.088765
v 0.307597 -0.040492 -0.088765
v 0.307597 0.229838 -0.088765
v 0.307597 0.631877 -0.088765
vn 1.0000 -0.0000 -0.0000
vt 0.000000 0.750000
vt 1.000000 0.750000
vt 1.000000 1.000000
vt 0.000000 1.000000
vt 0.000000 0.000000
vt 0.000000 0.500000
vt 1.000000 0.000000
vt 1.000000 0.500000
s 0
f 14/1/1 13/2/1 4/3/1 3/4/1
f 14/1/1 3/4/1 6/4/1 15/1/1
f 15/1/1 6/4/1 8/4/1 16/1/1
f 5/5/1 11/6/1 12/6/1 7/5/1
f 1/5/1 9/6/1 11/6/1 5/5/1
f 1/5/1 2/7/1 10/8/1 9/6/1
f 11/6/1 15/1/1 16/1/1 12/6/1
f 9/6/1 14/1/1 15/1/1 11/6/1
f 9/6/1 10/8/1 13/2/1 14/1/1
