# Blender 4.4.3
# www.blender.org
mtllib 2.mtl
o Plane.004
v -0.430874 0.693103 0.370970
v 0.438357 0.693103 0.370970
v -0.430874 0.693103 -0.369096
v 0.438357 0.693103 -0.369096
v 0.006218 0.693103 0.443593
v 0.006218 0.693103 -0.441719
v -0.441315 0.693103 0.000937
v 0.443998 0.693103 0.000937
v 0.006218 0.761259 0.000937
v -0.325112 0.693103 -0.441719
v -0.325112 0.693103 0.443593
v -0.325112 0.718533 0.000937
v 0.347302 0.693103 0.443593
v 0.347302 0.693103 -0.441719
v 0.347302 0.714264 0.000937
v -0.441149 0.693103 0.110448
v -0.439989 0.693103 0.213043
v -0.436840 0.693103 0.301805
v 0.391834 0.693103 0.442440
v 0.418302 0.693103 0.434371
v 0.432012 0.693103 0.412469
v 0.443908 0.693103 -0.108574
v 0.443281 0.693103 -0.211169
v 0.441580 0.693103 -0.299931
v -0.371244 0.693103 -0.440566
v -0.401599 0.693103 -0.432497
v -0.420109 0.693103 -0.410595
v -0.260670 0.693103 0.443593
v -0.180987 0.693103 0.443593
v -0.090534 0.693103 0.443593
v 0.281336 0.693103 -0.441719
v 0.198300 0.693103 -0.441719
v 0.104494 0.693103 -0.441719
v 0.006218 0.755402 -0.109727
v 0.006218 0.739961 -0.220391
v 0.006218 0.718129 -0.331055
v -0.436840 0.693103 -0.299931
v -0.439989 0.693103 -0.211169
v -0.441149 0.693103 -0.108574
v 0.441580 0.693103 0.301805
v 0.443281 0.693103 0.213043
v 0.443908 0.693103 0.110448
v 0.006218 0.718129 0.332929
v 0.006218 0.739961 0.222265
v 0.006218 0.755402 0.111601
v -0.371410 0.708401 0.000937
v -0.402924 0.701504 0.000937
v -0.424583 0.696764 0.000937
v 0.281336 0.728268 0.000937
v 0.198300 0.743416 0.000937
v 0.104494 0.755737 0.000937
v -0.090534 0.693103 -0.441719
v -0.180987 0.693103 -0.441719
v -0.260670 0.693103 -0.441719
v -0.420109 0.693103 0.412469
v -0.401599 0.693103 0.434371
v -0.371244 0.693103 0.442440
v -0.090534 0.757304 0.000937
v -0.180987 0.746351 0.000937
v -0.260670 0.732170 0.000937
v -0.325112 0.702441 0.332929
v -0.325112 0.710586 0.222265
v -0.325112 0.716348 0.111601
v -0.325112 0.716348 -0.109727
v -0.325112 0.710586 -0.220391
v -0.325112 0.702441 -0.331055
v 0.104494 0.693103 0.443593
v 0.198300 0.693103 0.443593
v 0.281336 0.693103 0.443593
v 0.432012 0.693103 -0.410595
v 0.418302 0.693103 -0.432497
v 0.391834 0.693103 -0.440566
v 0.434429 0.695197 0.000937
v 0.419018 0.698569 0.000937
v 0.391923 0.704499 0.000937
v 0.347302 0.700873 0.332929
v 0.347302 0.707651 0.222265
v 0.347302 0.712445 0.111601
v 0.347302 0.712445 -0.109727
v 0.347302 0.707651 -0.220391
v 0.347302 0.700873 -0.331055
v 0.391922 0.703520 -0.109703
v 0.419003 0.698100 -0.109535
v 0.434382 0.695017 -0.109126
v 0.391909 0.700938 -0.220199
v 0.418899 0.696861 -0.218854
v 0.434056 0.694543 -0.215588
v 0.391877 0.697287 -0.330455
v 0.418645 0.695110 -0.326252
v 0.433234 0.693872 -0.315661
v -0.260670 0.728813 -0.109727
v -0.180987 0.741775 -0.109727
v -0.090534 0.751787 -0.109727
v -0.260670 0.719962 -0.220391
v -0.180987 0.729711 -0.220391
v -0.090534 0.737241 -0.220391
v -0.260670 0.707448 -0.331055
v -0.180987 0.712655 -0.331055
v -0.090534 0.716677 -0.331055
v -0.260670 0.707448 0.332929
v -0.180987 0.712655 0.332929
v -0.090534 0.716677 0.332929
v -0.260670 0.719962 0.222265
v -0.180987 0.729711 0.222265
v -0.090534 0.737241 0.222265
v -0.260670 0.728813 0.111601
v -0.180987 0.741775 0.111601
v -0.090534 0.751787 0.111601
v 0.391877 0.697287 0.332329
v 0.418645 0.695110 0.328126
v 0.433233 0.693872 0.317535
v 0.391909 0.700938 0.222073
v 0.418899 0.696861 0.220728
v 0.434056 0.694543 0.217462
v 0.391922 0.703520 0.111577
v 0.419003 0.698100 0.111409
v 0.434382 0.695017 0.111001
v -0.422370 0.694447 0.317535
v -0.402234 0.696188 0.328126
v -0.371324 0.698720 0.332329
v -0.423893 0.695620 0.217462
v -0.402703 0.698879 0.220728
v -0.371382 0.703620 0.222073
v -0.424497 0.696450 0.111001
v -0.402897 0.700782 0.111409
v -0.371406 0.707086 0.111577
v -0.424497 0.696450 -0.109126
v -0.402897 0.700782 -0.109535
v -0.371406 0.707086 -0.109703
v -0.423893 0.695620 -0.215588
v -0.402703 0.698879 -0.218854
v -0.371382 0.703620 -0.220199
v -0.422370 0.694447 -0.315661
v -0.402234 0.696188 -0.326252
v -0.371324 0.698720 -0.330455
v 0.104494 0.716101 0.332929
v 0.198300 0.711577 0.332929
v 0.281336 0.706015 0.332929
v 0.104494 0.736164 0.222265
v 0.198300 0.727693 0.222265
v 0.281336 0.717279 0.222265
v 0.104494 0.750354 0.111601
v 0.198300 0.739092 0.111601
v 0.281336 0.725246 0.111601
v 0.104494 0.750354 -0.109727
v 0.198300 0.739092 -0.109727
v 0.281336 0.725246 -0.109727
v 0.104494 0.736164 -0.220391
v 0.198300 0.727693 -0.220391
v 0.281336 0.717279 -0.220391
v 0.104494 0.716101 -0.331055
v 0.198300 0.711577 -0.331055
v 0.281336 0.706015 -0.331055
v -0.488453 -0.751860 0.500032
v -0.497753 -0.751860 0.490732
v -0.488453 -0.761160 0.490732
v -0.493097 -0.751860 0.498790
v -0.488453 -0.756504 0.498790
v -0.492900 -0.756308 0.497583
v -0.496511 -0.756504 0.490732
v -0.496511 -0.751860 0.495376
v -0.495304 -0.756308 0.495180
v -0.488453 -0.759918 0.495376
v -0.493097 -0.759918 0.490732
v -0.492900 -0.758711 0.495180
v -0.488453 -0.751860 -0.498156
v -0.488453 -0.761161 -0.488855
v -0.497753 -0.751860 -0.488855
v -0.488453 -0.756504 -0.496913
v -0.493097 -0.751860 -0.496913
v -0.492900 -0.756308 -0.495706
v -0.493097 -0.759918 -0.488855
v -0.488453 -0.759918 -0.493499
v -0.492900 -0.758711 -0.493303
v -0.496511 -0.751860 -0.493499
v -0.496511 -0.756504 -0.488855
v -0.495304 -0.756308 -0.493303
v -0.360061 0.759399 0.396276
v -0.347926 0.759399 0.410531
v -0.341461 0.750099 0.401231
v -0.350761 0.750099 0.391931
v -0.358240 0.759399 0.403309
v -0.355500 0.758021 0.394889
v -0.353609 0.757941 0.400190
v -0.345863 0.758023 0.405973
v -0.353848 0.759399 0.408443
v -0.350367 0.757942 0.403886
v -0.346026 0.750099 0.399851
v -0.343524 0.754658 0.402607
v -0.347764 0.754833 0.401044
v -0.352139 0.754661 0.393318
v -0.349381 0.750099 0.396496
v -0.350681 0.754836 0.397894
v 0.500435 -0.751860 0.490732
v 0.491135 -0.751860 0.500032
v 0.491135 -0.761160 0.490732
v 0.499193 -0.751860 0.495376
v 0.499193 -0.756504 0.490732
v 0.497986 -0.756308 0.495180
v 0.491135 -0.756504 0.498790
v 0.495779 -0.751860 0.498790
v 0.495582 -0.756308 0.497583
v 0.495779 -0.759918 0.490732
v 0.491135 -0.759918 0.495376
v 0.495582 -0.758711 0.495180
v 0.491135 -0.751860 -0.498156
v 0.500435 -0.751860 -0.488855
v 0.491135 -0.761161 -0.488855
v 0.495779 -0.751860 -0.496913
v 0.491135 -0.756504 -0.496913
v 0.495582 -0.756308 -0.495706
v 0.499193 -0.756504 -0.488855
v 0.499193 -0.751860 -0.493499
v 0.497986 -0.756308 -0.493303
v 0.491135 -0.759918 -0.493499
v 0.495779 -0.759918 -0.488855
v 0.495582 -0.758711 -0.493303
v 0.353443 0.750099 0.391931
v 0.344143 0.750099 0.401231
v 0.350608 0.759399 0.410531
v 0.362743 0.759399 0.396276
v 0.352063 0.750099 0.396496
v 0.354821 0.754661 0.393318
v 0.353363 0.754836 0.397894
v 0.346206 0.754658 0.402607
v 0.348708 0.750099 0.399851
v 0.350446 0.754833 0.401044
v 0.356530 0.759399 0.408443
v 0.348545 0.758023 0.405973
v 0.353049 0.757942 0.403886
v 0.358182 0.758021 0.394889
v 0.360923 0.759399 0.403309
v 0.356291 0.757941 0.400190
v 0.353443 0.750099 -0.390055
v 0.362743 0.759399 -0.394401
v 0.350608 0.759399 -0.408656
v 0.344143 0.750099 -0.399356
v 0.354821 0.754660 -0.391443
v 0.352063 0.750099 -0.394620
v 0.353363 0.754836 -0.396019
v 0.360922 0.759399 -0.401433
v 0.358182 0.758021 -0.393013
v 0.356291 0.757941 -0.398314
v 0.348545 0.758023 -0.404097
v 0.356530 0.759399 -0.406568
v 0.353049 0.757942 -0.402011
v 0.348708 0.750099 -0.397976
v 0.346206 0.754657 -0.400731
v 0.350446 0.754833 -0.399168
v -0.360061 0.759399 -0.394401
v -0.350761 0.750099 -0.390055
v -0.341461 0.750099 -0.399356
v -0.347926 0.759399 -0.408656
v -0.355500 0.758021 -0.393013
v -0.358240 0.759399 -0.401433
v -0.353609 0.757941 -0.398314
v -0.349381 0.750099 -0.394620
v -0.352139 0.754660 -0.391443
v -0.350681 0.754836 -0.396019
v -0.343524 0.754657 -0.400731
v -0.346026 0.750099 -0.397976
v -0.347764 0.754833 -0.399168
v -0.353848 0.759399 -0.406568
v -0.345863 0.758023 -0.404097
v -0.350367 0.757942 -0.402011
v 0.491135 0.750099 -0.498156
v 0.469927 0.759399 -0.488856
v 0.491135 0.759399 -0.480699
v 0.500435 0.750099 -0.488856
v 0.484398 0.754642 -0.496790
v 0.495700 0.750099 -0.496776
v 0.491961 0.754817 -0.495241
v 0.480533 0.759399 -0.487595
v 0.476664 0.758033 -0.493399
v 0.486977 0.757952 -0.492128
v 0.495691 0.758025 -0.483299
v 0.488238 0.759399 -0.484559
v 0.493236 0.757940 -0.488658
v 0.499055 0.750099 -0.493420
v 0.499061 0.754655 -0.486255
v 0.496866 0.754830 -0.491762
v 0.500435 0.750099 0.490732
v 0.491135 0.759399 0.482575
v 0.469927 0.759399 0.490732
v 0.491135 0.750099 0.500032
v 0.499061 0.754655 0.488132
v 0.499055 0.750099 0.495297
v 0.496866 0.754830 0.493639
v 0.488238 0.759399 0.486435
v 0.495691 0.758025 0.485176
v 0.493236 0.757940 0.490535
v 0.476664 0.758034 0.495275
v 0.480533 0.759399 0.489471
v 0.486977 0.757952 0.494005
v 0.495700 0.750099 0.498652
v 0.484398 0.754642 0.498667
v 0.491961 0.754817 0.497118
v -0.488453 0.750099 0.500032
v -0.467245 0.759399 0.490732
v -0.488453 0.759399 0.482575
v -0.497753 0.750099 0.490732
v -0.481716 0.754642 0.498667
v -0.493018 0.750099 0.498652
v -0.489279 0.754817 0.497118
v -0.477851 0.759399 0.489471
v -0.473982 0.758034 0.495275
v -0.484295 0.757952 0.494004
v -0.493009 0.758025 0.485176
v -0.485556 0.759399 0.486435
v -0.490555 0.757940 0.490535
v -0.496373 0.750099 0.495297
v -0.496379 0.754655 0.488132
v -0.494184 0.754830 0.493639
v -0.488453 0.759399 -0.480699
v -0.467245 0.759399 -0.488856
v -0.488453 0.750099 -0.498156
v -0.497753 0.750099 -0.488856
v -0.485556 0.759399 -0.484559
v -0.493009 0.758025 -0.483299
v -0.490555 0.757940 -0.488658
v -0.473981 0.758033 -0.493399
v -0.477851 0.759399 -0.487595
v -0.484295 0.757952 -0.492128
v -0.493018 0.750099 -0.496776
v -0.481716 0.754642 -0.496790
v -0.489279 0.754817 -0.495241
v -0.496379 0.754655 -0.486255
v -0.496373 0.750099 -0.493420
v -0.494184 0.754830 -0.491763
v 0.344143 0.686574 -0.399356
v 0.344143 0.677274 -0.390055
v 0.353443 0.686574 -0.390055
v 0.344143 0.681930 -0.398113
v 0.348787 0.686574 -0.398113
v 0.348590 0.682126 -0.396906
v 0.348787 0.678516 -0.390055
v 0.344143 0.678516 -0.394699
v 0.348590 0.679723 -0.394503
v 0.352201 0.686574 -0.394699
v 0.352201 0.681930 -0.390055
v 0.350994 0.682126 -0.394503
v 0.344143 0.686574 0.401231
v 0.353443 0.686574 0.391931
v 0.344143 0.677274 0.391931
v 0.348787 0.686574 0.399989
v 0.344143 0.681930 0.399989
v 0.348590 0.682126 0.398782
v 0.352201 0.681930 0.391931
v 0.352201 0.686574 0.396575
v 0.350994 0.682126 0.396378
v 0.344143 0.678516 0.396575
v 0.348787 0.678516 0.391931
v 0.348590 0.679723 0.396378
v -0.341461 0.686574 0.401231
v -0.341461 0.677274 0.391931
v -0.350761 0.686574 0.391931
v -0.341461 0.681930 0.399989
v -0.346105 0.686574 0.399989
v -0.345908 0.682126 0.398782
v -0.346105 0.678516 0.391931
v -0.341461 0.678516 0.396575
v -0.345908 0.679723 0.396378
v -0.349519 0.686574 0.396575
v -0.349519 0.681930 0.391931
v -0.348312 0.682126 0.396378
v -0.341461 0.677274 -0.390055
v -0.341461 0.686574 -0.399356
v -0.350761 0.686574 -0.390055
v -0.341461 0.678516 -0.394699
v -0.346105 0.678516 -0.390055
v -0.345908 0.679723 -0.394503
v -0.346105 0.686574 -0.398113
v -0.341461 0.681930 -0.398113
v -0.345908 0.682126 -0.396906
v -0.349519 0.681930 -0.390055
v -0.349519 0.686574 -0.394699
v -0.348312 0.682126 -0.394503
v -0.501963 0.686176 -0.230405
v -0.507708 0.689996 -0.230405
v -0.501963 0.689996 -0.239079
v -0.506026 0.687295 -0.230405
v -0.505280 0.687791 -0.235413
v -0.506026 0.689996 -0.236538
v -0.501963 0.687295 -0.236538
v -0.507708 0.765603 -0.230405
v -0.501963 0.769701 -0.230405
v -0.501963 0.765603 -0.239079
v -0.506026 0.768501 -0.230405
v -0.505280 0.767969 -0.235413
v -0.501963 0.768501 -0.236538
v -0.506026 0.765603 -0.236538
v -0.337844 0.686176 -0.230405
v -0.337844 0.689996 -0.239079
v -0.331153 0.689996 -0.230405
v -0.337844 0.687295 -0.236538
v -0.333981 0.687791 -0.235413
v -0.333113 0.689996 -0.236538
v -0.333113 0.687295 -0.230405
v -0.337844 0.769701 -0.230405
v -0.331153 0.765603 -0.230405
v -0.337844 0.765603 -0.239079
v -0.333113 0.768501 -0.230405
v -0.333981 0.767969 -0.235413
v -0.333113 0.765603 -0.236538
v -0.337844 0.768501 -0.236538
v -0.501963 0.686176 -0.184550
v -0.501963 0.689996 -0.175876
v -0.507708 0.689996 -0.184550
v -0.501963 0.687295 -0.178416
v -0.505280 0.687791 -0.179542
v -0.506026 0.689996 -0.178416
v -0.506026 0.687295 -0.184550
v -0.501963 0.769701 -0.184550
v -0.507708 0.765603 -0.184550
v -0.501963 0.765603 -0.175876
v -0.506026 0.768501 -0.184550
v -0.505280 0.767969 -0.179542
v -0.506026 0.765603 -0.178416
v -0.501963 0.768501 -0.178416
v -0.337844 0.686176 -0.184550
v -0.331153 0.689996 -0.184550
v -0.337844 0.689996 -0.175876
v -0.333113 0.687295 -0.184550
v -0.333981 0.687791 -0.179542
v -0.333113 0.689996 -0.178416
v -0.337844 0.687295 -0.178416
v -0.337844 0.769701 -0.184550
v -0.337844 0.765603 -0.175876
v -0.331153 0.765603 -0.184550
v -0.337844 0.768501 -0.178416
v -0.333981 0.767969 -0.179542
v -0.333113 0.765603 -0.178416
v -0.333113 0.768501 -0.184550
v -0.501963 0.686176 -0.312821
v -0.507708 0.689996 -0.312821
v -0.501963 0.689996 -0.321494
v -0.506026 0.687295 -0.312821
v -0.505280 0.687791 -0.317828
v -0.506026 0.689996 -0.318954
v -0.501963 0.687295 -0.318954
v -0.507708 0.765603 -0.312821
v -0.501963 0.769701 -0.312821
v -0.501963 0.765603 -0.321494
v -0.506026 0.768501 -0.312821
v -0.505280 0.767969 -0.317828
v -0.501963 0.768501 -0.318954
v -0.506026 0.765603 -0.318954
v -0.337844 0.686176 -0.312821
v -0.337844 0.689996 -0.321494
v -0.331153 0.689996 -0.312821
v -0.337844 0.687295 -0.318954
v -0.333981 0.687791 -0.317828
v -0.333113 0.689996 -0.318954
v -0.333113 0.687295 -0.312821
v -0.337844 0.769701 -0.312821
v -0.331153 0.765603 -0.312821
v -0.337844 0.765603 -0.321494
v -0.333113 0.768501 -0.312821
v -0.333981 0.767969 -0.317828
v -0.333113 0.765603 -0.318954
v -0.337844 0.768501 -0.318954
v -0.501963 0.686176 -0.266965
v -0.501963 0.689996 -0.258292
v -0.507708 0.689996 -0.266965
v -0.501963 0.687295 -0.260832
v -0.505280 0.687791 -0.261957
v -0.506026 0.689996 -0.260832
v -0.506026 0.687295 -0.266965
v -0.501963 0.769701 -0.266965
v -0.507708 0.765603 -0.266965
v -0.501963 0.765603 -0.258292
v -0.506026 0.768501 -0.266965
v -0.505280 0.767969 -0.261957
v -0.506026 0.765603 -0.260832
v -0.501963 0.768501 -0.260832
v -0.337844 0.686176 -0.266965
v -0.331153 0.689996 -0.266965
v -0.337844 0.689996 -0.258291
v -0.333113 0.687295 -0.266965
v -0.333981 0.687791 -0.261957
v -0.333113 0.689996 -0.260832
v -0.337844 0.687295 -0.260832
v -0.337844 0.769701 -0.266965
v -0.337844 0.765603 -0.258291
v -0.331153 0.765603 -0.266965
v -0.337844 0.768501 -0.260832
v -0.333981 0.767969 -0.261957
v -0.333113 0.765603 -0.260832
v -0.333113 0.768501 -0.266965
v -0.501963 0.686176 -0.394206
v -0.507708 0.689996 -0.394206
v -0.501963 0.689996 -0.402879
v -0.506026 0.687295 -0.394206
v -0.505280 0.687791 -0.399214
v -0.506026 0.689996 -0.400339
v -0.501963 0.687295 -0.400339
v -0.507708 0.765603 -0.394206
v -0.501963 0.769701 -0.394206
v -0.501963 0.765603 -0.402879
v -0.506026 0.768501 -0.394206
v -0.505280 0.767969 -0.399214
v -0.501963 0.768501 -0.400339
v -0.506026 0.765603 -0.400339
v -0.337844 0.686176 -0.394206
v -0.337844 0.689996 -0.402879
v -0.331153 0.689996 -0.394206
v -0.337844 0.687295 -0.400339
v -0.333981 0.687791 -0.399214
v -0.333113 0.689996 -0.400339
v -0.333113 0.687295 -0.394206
v -0.337844 0.769701 -0.394206
v -0.331153 0.765603 -0.394206
v -0.337844 0.765603 -0.402879
v -0.333113 0.768501 -0.394206
v -0.333981 0.767969 -0.399214
v -0.333113 0.765603 -0.400339
v -0.337844 0.768501 -0.400339
v -0.501963 0.686176 -0.348351
v -0.501963 0.689996 -0.339677
v -0.507708 0.689996 -0.348351
v -0.501963 0.687295 -0.342217
v -0.505280 0.687791 -0.343343
v -0.506026 0.689996 -0.342217
v -0.506026 0.687295 -0.348351
v -0.501963 0.769701 -0.348351
v -0.507708 0.765603 -0.348351
v -0.501963 0.765603 -0.339677
v -0.506026 0.768501 -0.348351
v -0.505280 0.767969 -0.343343
v -0.506026 0.765603 -0.342217
v -0.501963 0.768501 -0.342217
v -0.337844 0.686176 -0.348351
v -0.331153 0.689996 -0.348351
v -0.337844 0.689996 -0.339677
v -0.333113 0.687295 -0.348351
v -0.333981 0.687791 -0.343343
v -0.333113 0.689996 -0.342217
v -0.337844 0.687295 -0.342217
v -0.337844 0.769701 -0.348351
v -0.337844 0.765603 -0.339677
v -0.331153 0.765603 -0.348351
v -0.337844 0.768501 -0.342217
v -0.333981 0.767969 -0.343343
v -0.333113 0.765603 -0.342217
v -0.333113 0.768501 -0.348351
vn 0.1890 0.9818 -0.0172
vn 0.1896 0.9818 -0.0087
vn 0.1465 0.9891 -0.0157
vn 0.1444 0.9890 -0.0305
vn 0.1905 0.9817 -0.0038
vn 0.1502 0.9886 -0.0072
vn 0.0828 0.9964 -0.0201
vn 0.0789 0.9961 -0.0387
vn 0.0959 0.9953 -0.0097
vn 0.2020 0.9794 -0.0000
vn 0.2050 0.9788 -0.0000
vn 0.1860 0.9821 -0.0309
vn 0.2051 0.9787 -0.0000
vn 0.2053 0.9787 -0.0000
vn 0.2055 0.9787 -0.0000
vn 0.1917 0.9814 -0.0019
vn 0.1605 0.9870 -0.0038
vn 0.1233 0.9924 -0.0055
vn 0.0787 0.9969 -0.0068
vn 0.0610 0.9980 -0.0139
vn 0.0503 0.9984 -0.0254
vn 0.0440 0.9981 -0.0428
vn 0.0764 0.9947 -0.0687
vn 0.0400 0.9965 -0.0737
vn 0.1415 0.9884 -0.0544
vn -0.1684 0.9842 -0.0546
vn -0.1299 0.9888 -0.0732
vn -0.0980 0.9869 -0.1279
vn -0.1277 0.9872 -0.0957
vn -0.0706 0.9937 -0.0874
vn -0.0531 0.9869 -0.1522
vn -0.0525 0.9856 -0.1605
vn -0.0686 0.9903 -0.1206
vn -0.0283 0.9813 -0.1903
vn -0.2017 0.9794 -0.0000
vn -0.1832 0.9831 -0.0000
vn -0.1857 0.9819 -0.0366
vn -0.1415 0.9899 -0.0000
vn -0.0771 0.9970 -0.0000
vn 0.0073 1.0000 -0.0000
vn 0.0067 0.9957 -0.0922
vn 0.0050 0.9871 -0.1602
vn 0.0027 0.9798 -0.2001
vn 0.0014 0.9770 -0.2133
vn -0.0146 0.9791 -0.2029
vn -0.0271 0.9848 -0.1713
vn -0.0355 0.9910 -0.1288
vn -0.0763 0.9938 -0.0813
vn -0.0400 0.9954 -0.0871
vn -0.1413 0.9879 -0.0643
vn -0.0686 0.9903 0.1206
vn -0.0525 0.9856 0.1605
vn -0.0980 0.9869 0.1279
vn -0.1277 0.9872 0.0957
vn -0.0283 0.9813 0.1903
vn -0.0531 0.9869 0.1522
vn -0.1299 0.9888 0.0732
vn -0.1684 0.9842 0.0546
vn -0.0706 0.9937 0.0874
vn -0.0400 0.9954 0.0871
vn -0.0355 0.9910 0.1288
vn -0.0763 0.9938 0.0813
vn -0.0271 0.9848 0.1713
vn -0.0146 0.9791 0.2029
vn 0.0014 0.9770 0.2133
vn 0.0027 0.9798 0.2001
vn 0.0050 0.9871 0.1602
vn 0.0067 0.9957 0.0922
vn -0.1857 0.9819 0.0366
vn -0.1413 0.9879 0.0643
vn 0.0789 0.9961 0.0387
vn 0.0828 0.9964 0.0201
vn 0.1465 0.9891 0.0157
vn 0.1444 0.9890 0.0305
vn 0.0959 0.9953 0.0097
vn 0.1502 0.9886 0.0072
vn 0.1896 0.9818 0.0087
vn 0.1890 0.9818 0.0172
vn 0.1906 0.9817 0.0038
vn 0.0400 0.9965 0.0737
vn 0.0440 0.9981 0.0428
vn 0.0764 0.9947 0.0687
vn 0.0503 0.9984 0.0254
vn 0.0610 0.9980 0.0139
vn 0.0787 0.9969 0.0068
vn 0.1233 0.9924 0.0055
vn 0.1605 0.9870 0.0038
vn 0.1917 0.9814 0.0019
vn 0.1860 0.9821 0.0309
vn 0.1415 0.9884 0.0544
vn -0.0990 0.9950 0.0162
vn -0.0866 0.9958 0.0296
vn -0.1480 0.9887 0.0231
vn -0.1520 0.9883 0.0119
vn -0.0800 0.9955 0.0505
vn -0.1449 0.9887 0.0398
vn -0.1899 0.9817 0.0128
vn -0.1909 0.9816 0.0062
vn -0.1891 0.9817 0.0225
vn -0.0808 0.9967 0.0122
vn -0.0656 0.9976 0.0220
vn -0.1207 0.9926 0.0100
vn -0.0534 0.9979 0.0355
vn -0.0450 0.9975 0.0553
vn -0.2050 0.9788 -0.0000
vn -0.2052 0.9787 -0.0000
vn -0.2054 0.9787 -0.0000
vn -0.1916 0.9815 0.0035
vn -0.2055 0.9787 -0.0000
vn -0.1585 0.9873 0.0070
vn -0.1909 0.9816 -0.0062
vn -0.1899 0.9817 -0.0128
vn -0.1480 0.9887 -0.0231
vn -0.1520 0.9883 -0.0119
vn -0.1891 0.9817 -0.0225
vn -0.1449 0.9887 -0.0398
vn -0.0865 0.9958 -0.0296
vn -0.0990 0.9950 -0.0162
vn -0.0799 0.9955 -0.0505
vn -0.1916 0.9815 -0.0035
vn -0.0450 0.9975 -0.0553
vn -0.0534 0.9979 -0.0355
vn -0.0656 0.9976 -0.0220
vn -0.1207 0.9926 -0.0100
vn -0.0808 0.9967 -0.0122
vn -0.1585 0.9873 -0.0070
vn 0.0328 0.9820 0.1858
vn 0.0551 0.9868 0.1520
vn 0.1029 0.9873 0.1210
vn 0.0615 0.9870 0.1485
vn 0.0695 0.9916 0.1092
vn 0.1294 0.9878 0.0866
vn 0.1362 0.9883 0.0692
vn 0.0817 0.9930 0.0853
vn 0.1706 0.9841 0.0493
vn 0.0169 0.9800 0.1981
vn 0.0284 0.9863 0.1623
vn 0.0360 0.9925 0.1167
vn 0.1855 0.9826 -0.0000
vn 0.1483 0.9889 -0.0000
vn 0.0892 0.9960 -0.0000
vn 0.0817 0.9930 -0.0853
vn 0.1362 0.9883 -0.0692
vn 0.1029 0.9873 -0.1210
vn 0.0615 0.9870 -0.1485
vn 0.1706 0.9841 -0.0493
vn 0.1294 0.9878 -0.0866
vn 0.0551 0.9868 -0.1520
vn 0.0328 0.9820 -0.1858
vn 0.0695 0.9916 -0.1092
vn 0.0360 0.9925 -0.1167
vn 0.0284 0.9863 -0.1623
vn 0.0169 0.9800 -0.1981
vn -0.9825 -0.1297 0.1336
vn -0.9649 0.2020 0.1678
vn -0.9649 0.2020 -0.1678
vn -0.9825 -0.1297 -0.1336
vn -0.1336 -0.1297 -0.9825
vn -0.1525 0.2277 -0.9617
vn 0.1525 0.2277 -0.9617
vn 0.1336 -0.1297 -0.9825
vn -0.1296 -0.9831 -0.1296
vn 0.1296 -0.9831 -0.1296
vn 0.1296 -0.9831 0.1296
vn -0.1296 -0.9831 0.1296
vn -0.9779 0.1618 -0.1322
vn -0.9779 0.1618 0.1322
vn -0.9826 0.1294 0.1336
vn -0.9826 0.1294 -0.1336
vn 0.1302 0.1658 -0.9775
vn -0.1302 0.1658 -0.9775
vn -0.1336 0.1294 -0.9826
vn 0.1336 0.1294 -0.9826
vn 0.1274 0.9917 -0.0187
vn 0.1273 0.9917 0.0187
vn -0.1511 0.9879 -0.0342
vn -0.1511 0.9879 0.0342
vn 0.0240 0.9926 0.1188
vn -0.0240 0.9926 0.1188
vn 0.0040 0.9892 -0.1464
vn -0.0040 0.9892 -0.1464
vn 0.9825 -0.1297 -0.1336
vn 0.9649 0.2020 -0.1678
vn 0.9649 0.2020 0.1678
vn 0.9825 -0.1297 0.1336
vn -0.1302 0.1658 0.9775
vn 0.1302 0.1658 0.9775
vn 0.1336 0.1294 0.9826
vn -0.1336 0.1294 0.9826
vn 0.9779 0.1618 0.1322
vn 0.9779 0.1618 -0.1322
vn 0.9826 0.1294 -0.1336
vn 0.9826 0.1294 0.1336
vn -0.0240 0.9926 -0.1188
vn 0.0240 0.9926 -0.1188
vn -0.0040 0.9892 0.1464
vn 0.0040 0.9892 0.1464
vn -0.1296 0.9831 0.1296
vn 0.1296 0.9831 0.1296
vn 0.1296 0.9831 -0.1296
vn -0.1296 0.9831 -0.1296
vn -0.1274 0.9917 0.0187
vn -0.1273 0.9917 -0.0187
vn 0.1511 0.9879 0.0342
vn 0.1511 0.9879 -0.0342
vn -0.1336 -0.1296 0.9825
vn -0.4951 -0.1214 0.8603
vn -0.4474 -0.4473 0.7744
vn -0.1216 -0.4915 0.8623
vn -0.8603 -0.1214 0.4951
vn -0.7744 -0.4473 0.4474
vn -0.8623 -0.4915 0.1216
vn -0.4916 -0.8623 0.1216
vn -0.4474 -0.7744 0.4474
vn -0.1216 -0.8623 0.4916
vn -0.1216 -0.4915 -0.8623
vn -0.4473 -0.4473 -0.7744
vn -0.4951 -0.1214 -0.8603
vn -0.1216 -0.8623 -0.4916
vn -0.4474 -0.7744 -0.4474
vn -0.4916 -0.8623 -0.1216
vn -0.8623 -0.4915 -0.1216
vn -0.7744 -0.4473 -0.4474
vn -0.8603 -0.1214 -0.4951
vn 0.0968 0.9939 -0.0531
vn 0.3816 0.8980 -0.2191
vn 0.4659 0.8814 -0.0774
vn 0.0602 0.9945 -0.0859
vn 0.2493 0.9037 -0.3480
vn 0.0933 0.8906 -0.4452
vn 0.1482 0.5656 -0.8112
vn 0.4426 0.6188 -0.6490
vn 0.5006 0.2020 -0.8418
vn 0.8482 0.1949 -0.4926
vn 0.6838 0.6054 -0.4074
vn 0.8235 0.5512 -0.1343
vn 0.8603 -0.1214 0.4951
vn 0.7744 -0.4473 0.4474
vn 0.8623 -0.4915 0.1216
vn 0.4951 -0.1214 0.8603
vn 0.4473 -0.4473 0.7744
vn 0.1336 -0.1296 0.9825
vn 0.1216 -0.4915 0.8623
vn 0.1216 -0.8623 0.4916
vn 0.4474 -0.7744 0.4474
vn 0.4916 -0.8623 0.1216
vn 0.4951 -0.1214 -0.8603
vn 0.4473 -0.4474 -0.7744
vn 0.1216 -0.4915 -0.8623
vn 0.8603 -0.1214 -0.4951
vn 0.7744 -0.4473 -0.4474
vn 0.8623 -0.4915 -0.1216
vn 0.4916 -0.8623 -0.1216
vn 0.4474 -0.7744 -0.4474
vn 0.1216 -0.8623 -0.4916
vn -0.8482 0.1949 -0.4926
vn -0.6838 0.6054 -0.4074
vn -0.8235 0.5512 -0.1343
vn -0.5006 0.2020 -0.8418
vn -0.4426 0.6188 -0.6490
vn -0.1482 0.5656 -0.8112
vn -0.0933 0.8906 -0.4452
vn -0.2493 0.9037 -0.3480
vn -0.0602 0.9945 -0.0859
vn -0.0967 0.9939 -0.0531
vn -0.3816 0.8980 -0.2191
vn -0.4659 0.8814 -0.0775
vn -0.8235 0.5512 0.1343
vn -0.6838 0.6054 0.4074
vn -0.8482 0.1949 0.4926
vn -0.4659 0.8815 0.0775
vn -0.3816 0.8980 0.2191
vn -0.0968 0.9939 0.0531
vn -0.0602 0.9945 0.0859
vn -0.2493 0.9037 0.3480
vn -0.0933 0.8906 0.4452
vn -0.1482 0.5656 0.8112
vn -0.4426 0.6188 0.6490
vn -0.5006 0.2020 0.8418
vn 0.4659 0.8814 0.0775
vn 0.3816 0.8980 0.2191
vn 0.0967 0.9939 0.0531
vn 0.8235 0.5512 0.1343
vn 0.6838 0.6054 0.4074
vn 0.8481 0.1949 0.4926
vn 0.5006 0.2020 0.8418
vn 0.4426 0.6188 0.6490
vn 0.1482 0.5656 0.8112
vn 0.0933 0.8906 0.4452
vn 0.2493 0.9037 0.3480
vn 0.0602 0.9945 0.0859
vn 0.0611 0.5664 -0.8219
vn 0.2856 0.6800 -0.6753
vn 0.4835 0.2697 -0.8328
vn 0.0233 0.8682 -0.4957
vn 0.1235 0.9009 -0.4161
vn 0.0283 0.9913 -0.1286
vn 0.0834 0.9915 -0.0995
vn 0.3145 0.9081 -0.2766
vn 0.4811 0.8725 -0.0855
vn 0.8097 0.5717 -0.1323
vn 0.5931 0.6778 -0.4346
vn 0.8155 0.2599 -0.5171
vn 0.8097 0.5717 0.1323
vn 0.5931 0.6778 0.4346
vn 0.8155 0.2599 0.5171
vn 0.4811 0.8725 0.0855
vn 0.3144 0.9081 0.2766
vn 0.0834 0.9915 0.0995
vn 0.0283 0.9913 0.1286
vn 0.1235 0.9009 0.4161
vn 0.0233 0.8682 0.4957
vn 0.0611 0.5664 0.8219
vn 0.2856 0.6800 0.6753
vn 0.1525 0.2277 0.9617
vn 0.4835 0.2697 0.8328
vn -0.1525 0.2277 0.9617
vn -0.0611 0.5664 0.8219
vn -0.2856 0.6800 0.6753
vn -0.4835 0.2697 0.8328
vn -0.0233 0.8682 0.4957
vn -0.1235 0.9009 0.4161
vn -0.0283 0.9913 0.1286
vn -0.0834 0.9915 0.0995
vn -0.3145 0.9081 0.2766
vn -0.4811 0.8725 0.0855
vn -0.8097 0.5717 0.1323
vn -0.5931 0.6778 0.4346
vn -0.8155 0.2599 0.5171
vn -0.0834 0.9915 -0.0995
vn -0.3145 0.9081 -0.2766
vn -0.4811 0.8725 -0.0855
vn -0.0283 0.9913 -0.1286
vn -0.1235 0.9009 -0.4161
vn -0.0233 0.8682 -0.4957
vn -0.0611 0.5664 -0.8219
vn -0.2856 0.6800 -0.6753
vn -0.4835 0.2697 -0.8328
vn -0.8155 0.2599 -0.5171
vn -0.5931 0.6778 -0.4346
vn -0.8097 0.5717 -0.1323
vn -0.1216 0.4915 0.8623
vn -0.4473 0.4474 0.7744
vn -0.4952 0.1205 0.8604
vn -0.1216 0.8623 0.4915
vn -0.4473 0.7744 0.4474
vn -0.4915 0.8623 0.1216
vn -0.8623 0.4915 0.1216
vn -0.7744 0.4473 0.4474
vn -0.8604 0.1205 0.4952
vn -0.4952 0.1205 -0.8604
vn -0.4473 0.4473 -0.7744
vn -0.1216 0.4915 -0.8623
vn -0.8604 0.1205 -0.4952
vn -0.7744 0.4473 -0.4473
vn -0.8623 0.4915 -0.1216
vn -0.4915 0.8623 -0.1216
vn -0.4473 0.7744 -0.4473
vn -0.1216 0.8623 -0.4915
vn 0.1216 0.4915 -0.8623
vn 0.4473 0.4473 -0.7744
vn 0.4952 0.1205 -0.8604
vn 0.1216 0.8623 -0.4915
vn 0.4473 0.7744 -0.4473
vn 0.4915 0.8623 -0.1216
vn 0.8623 0.4915 -0.1216
vn 0.7744 0.4473 -0.4473
vn 0.8604 0.1205 -0.4952
vn 0.1216 0.8623 0.4915
vn 0.4473 0.7744 0.4474
vn 0.4915 0.8623 0.1216
vn 0.1216 0.4915 0.8623
vn 0.4473 0.4474 0.7744
vn 0.4952 0.1205 0.8604
vn 0.8604 0.1205 0.4952
vn 0.7744 0.4473 0.4474
vn 0.8623 0.4915 0.1216
vn -0.9591 -0.2558 0.1211
vn -0.9627 0.2418 0.1215
vn -0.9627 0.2418 -0.1215
vn -0.9591 -0.2558 -0.1211
vn 0.2146 -0.3345 0.9176
vn 0.2156 0.3196 0.9227
vn -0.2435 0.3170 0.9166
vn -0.2424 -0.3317 0.9117
vn 0.1159 0.9892 0.0900
vn 0.1159 0.9892 -0.0900
vn -0.1339 0.9869 -0.0898
vn -0.1339 0.9869 0.0898
vn -0.2424 -0.3317 -0.9117
vn -0.2435 0.3170 -0.9166
vn 0.2156 0.3196 -0.9227
vn 0.2146 -0.3345 -0.9176
vn 0.9482 -0.2860 -0.1384
vn 0.9524 0.2714 -0.1390
vn 0.9524 0.2714 0.1390
vn 0.9482 -0.2860 0.1384
vn -0.1254 -0.9885 -0.0840
vn -0.6052 -0.7901 -0.0971
vn -0.5505 -0.7437 -0.3792
vn -0.1687 -0.8518 -0.4959
vn -0.7581 -0.2825 -0.5878
vn -0.6229 0.7758 -0.1007
vn -0.5656 0.7255 -0.3921
vn -0.7614 0.2684 -0.5901
vn -0.1749 0.8395 -0.5144
vn 0.1085 -0.9905 -0.0842
vn 0.1466 -0.8558 -0.4961
vn 0.5038 -0.7673 -0.3968
vn 0.5655 -0.8182 -0.1036
vn 0.7261 -0.2980 -0.6196
vn 0.5839 0.8047 -0.1075
vn 0.5191 0.7496 -0.4106
vn 0.1523 0.8436 -0.5149
vn 0.7295 0.2837 -0.6223
vn -0.1254 -0.9885 0.0840
vn -0.1687 -0.8518 0.4959
vn -0.5505 -0.7437 0.3792
vn -0.6052 -0.7901 0.0971
vn -0.7581 -0.2825 0.5878
vn -0.6229 0.7758 0.1007
vn -0.5656 0.7255 0.3921
vn -0.1749 0.8395 0.5144
vn -0.7614 0.2684 0.5901
vn 0.1085 -0.9905 0.0842
vn 0.5655 -0.8182 0.1036
vn 0.5038 -0.7673 0.3968
vn 0.1466 -0.8558 0.4961
vn 0.7261 -0.2980 0.6196
vn 0.1523 0.8436 0.5149
vn 0.5191 0.7496 0.4106
vn 0.5839 0.8047 0.1075
vn 0.7295 0.2837 0.6223
vn 0.2147 -0.3345 0.9176
vn -0.1749 0.8395 -0.5143
vn 0.1524 0.8436 -0.5149
vn 0.1524 0.8436 0.5149
vt 0.605595 0.877184
vt 0.601531 0.877209
vt 0.601546 0.860799
vt 0.605597 0.860597
vt 0.599222 0.877270
vt 0.599272 0.861289
vt 0.601585 0.844677
vt 0.605603 0.844046
vt 0.599395 0.846267
vt 0.612292 0.893792
vt 0.605595 0.893792
vt 0.612292 0.877180
vt 0.601528 0.893792
vt 0.599215 0.893792
vt 0.597779 0.893792
vt 0.597793 0.877353
vt 0.597887 0.861952
vt 0.598142 0.848628
vt 0.598626 0.838246
vt 0.599579 0.832016
vt 0.601637 0.828728
vt 0.605610 0.827517
vt 0.612293 0.843956
vt 0.612294 0.827344
vt 0.612293 0.860568
vt 0.703553 0.877180
vt 0.691590 0.877180
vt 0.691592 0.860568
vt 0.703554 0.860568
vt 0.678011 0.877180
vt 0.678013 0.860568
vt 0.691594 0.843956
vt 0.703556 0.843956
vt 0.678015 0.843956
vt 0.713228 0.893792
vt 0.703553 0.893792
vt 0.713228 0.877180
vt 0.691589 0.893792
vt 0.678010 0.893792
vt 0.663486 0.893792
vt 0.663487 0.877180
vt 0.663489 0.860568
vt 0.663492 0.843956
vt 0.663495 0.827344
vt 0.678019 0.827344
vt 0.691597 0.827344
vt 0.703558 0.827344
vt 0.713230 0.843956
vt 0.713231 0.827344
vt 0.713229 0.860568
vt 0.703556 0.943628
vt 0.691594 0.943628
vt 0.691592 0.927016
vt 0.703554 0.927016
vt 0.678015 0.943628
vt 0.678013 0.927016
vt 0.691590 0.910404
vt 0.703553 0.910404
vt 0.678011 0.910404
vt 0.713232 0.960240
vt 0.703558 0.960240
vt 0.713230 0.943628
vt 0.691597 0.960240
vt 0.678019 0.960240
vt 0.663495 0.960240
vt 0.663492 0.943628
vt 0.663489 0.927016
vt 0.663487 0.910404
vt 0.713228 0.910404
vt 0.713229 0.927016
vt 0.605603 0.943538
vt 0.601585 0.942907
vt 0.601546 0.926785
vt 0.605597 0.926987
vt 0.599395 0.941317
vt 0.599272 0.926295
vt 0.601531 0.910375
vt 0.605595 0.910400
vt 0.599222 0.910314
vt 0.612294 0.960240
vt 0.605610 0.960067
vt 0.612293 0.943628
vt 0.601637 0.958855
vt 0.599579 0.955567
vt 0.598626 0.949338
vt 0.598142 0.938956
vt 0.597887 0.925631
vt 0.597793 0.910231
vt 0.612292 0.910404
vt 0.612293 0.927016
vt 0.727831 0.941317
vt 0.724808 0.942907
vt 0.724878 0.926785
vt 0.728059 0.926295
vt 0.720168 0.943538
vt 0.720176 0.926987
vt 0.724907 0.910375
vt 0.728150 0.910314
vt 0.720179 0.910400
vt 0.729107 0.949338
vt 0.727491 0.955567
vt 0.730003 0.938956
vt 0.724713 0.958855
vt 0.720156 0.960067
vt 0.720179 0.893792
vt 0.724911 0.893792
vt 0.728163 0.893792
vt 0.730650 0.910231
vt 0.730675 0.893792
vt 0.730476 0.925631
vt 0.728150 0.877270
vt 0.724907 0.877209
vt 0.724878 0.860799
vt 0.728059 0.861289
vt 0.720179 0.877184
vt 0.720176 0.860597
vt 0.724808 0.844677
vt 0.727831 0.846267
vt 0.720168 0.844046
vt 0.730650 0.877353
vt 0.720156 0.827517
vt 0.724713 0.828728
vt 0.727491 0.832016
vt 0.730003 0.848628
vt 0.729107 0.838246
vt 0.730476 0.861952
vt 0.648740 0.943628
vt 0.634659 0.943628
vt 0.634657 0.927016
vt 0.648737 0.927016
vt 0.622195 0.943628
vt 0.622194 0.927016
vt 0.634655 0.910404
vt 0.648735 0.910404
vt 0.622192 0.910404
vt 0.648743 0.960240
vt 0.634661 0.960240
vt 0.622197 0.960240
vt 0.622192 0.893792
vt 0.634655 0.893792
vt 0.648734 0.893792
vt 0.648735 0.877180
vt 0.634655 0.877180
vt 0.634657 0.860568
vt 0.648737 0.860568
vt 0.622192 0.877180
vt 0.622194 0.860568
vt 0.634659 0.843956
vt 0.648740 0.843956
vt 0.622195 0.843956
vt 0.622197 0.827344
vt 0.634661 0.827344
vt 0.648743 0.827344
vt 0.001210 0.226433
vt 0.001209 0.001222
vt 0.148257 0.001222
vt 0.148257 0.226433
vt 0.300147 0.225883
vt 0.300126 0.001354
vt 0.447170 0.001250
vt 0.447191 0.225778
vt 0.297712 0.826503
vt 0.150670 0.826503
vt 0.150670 0.679456
vt 0.297712 0.679456
vt 0.931473 0.679246
vt 0.931473 0.796631
vt 0.921948 0.796631
vt 0.921948 0.679246
vt 0.909940 0.450417
vt 0.909940 0.347503
vt 0.919436 0.347509
vt 0.919436 0.450423
vt 0.876209 0.811937
vt 0.876209 0.693248
vt 0.895482 0.680293
vt 0.895482 0.824892
vt 0.874387 0.691108
vt 0.769530 0.691108
vt 0.751618 0.679069
vt 0.892299 0.679069
vt 0.150676 0.225899
vt 0.150676 0.001246
vt 0.297723 0.001246
vt 0.297723 0.225899
vt 0.919490 0.121596
vt 0.919490 0.224511
vt 0.909994 0.224517
vt 0.909994 0.121602
vt 0.931474 0.227274
vt 0.931474 0.344659
vt 0.921972 0.344659
vt 0.921972 0.227274
vt 0.769530 0.814077
vt 0.874387 0.814077
vt 0.892299 0.826116
vt 0.751618 0.826116
vt 0.896386 0.452512
vt 0.999303 0.452512
vt 0.999303 0.569897
vt 0.896386 0.569897
vt 0.767708 0.693248
vt 0.767708 0.811937
vt 0.748435 0.824892
vt 0.748435 0.680293
vt 0.447140 0.452442
vt 0.447838 0.452426
vt 0.447810 0.453074
vt 0.447141 0.453120
vt 0.000000 0.226400
vt 0.000512 0.226424
vt 0.000542 0.227082
vt 0.000181 0.227065
vt 0.001210 0.227120
vt 0.298927 0.679456
vt 0.298411 0.679456
vt 0.298383 0.678788
vt 0.298746 0.678788
vt 0.297714 0.678759
vt 0.297718 0.678246
vt 0.298386 0.678427
vt 0.300146 0.226560
vt 0.299477 0.226515
vt 0.299449 0.225866
vt 0.297718 0.827713
vt 0.297714 0.827200
vt 0.298383 0.827171
vt 0.298386 0.827531
vt 0.298411 0.826503
vt 0.298927 0.826503
vt 0.298746 0.827171
vt 0.148954 0.226424
vt 0.148924 0.227082
vt 0.148257 0.227120
vt 0.149466 0.226400
vt 0.149285 0.227065
vt 0.875936 0.812993
vt 0.875241 0.812525
vt 0.875525 0.811729
vt 0.875276 0.813764
vt 0.874754 0.813080
vt 0.874078 0.813393
vt 0.873727 0.812888
vt 0.874364 0.812653
vt 0.909959 0.451101
vt 0.909235 0.451363
vt 0.909240 0.450728
vt 0.931414 0.345848
vt 0.931456 0.345344
vt 0.932181 0.345554
vt 0.932144 0.346027
vt 0.932173 0.344867
vt 0.875021 0.811493
vt 0.874802 0.812180
vt 0.298420 0.225883
vt 0.298391 0.226533
vt 0.297723 0.226578
vt 0.298933 0.225840
vt 0.298752 0.226503
vt 0.300096 0.452338
vt 0.300097 0.453015
vt 0.299431 0.452969
vt 0.299400 0.452320
vt 0.150676 0.678246
vt 0.150672 0.678759
vt 0.150005 0.678788
vt 0.150009 0.678427
vt 0.149974 0.679456
vt 0.149466 0.679456
vt 0.149648 0.678788
vt 0.447887 0.225760
vt 0.447856 0.226409
vt 0.447190 0.226455
vt 0.149466 0.225840
vt 0.149979 0.225883
vt 0.150008 0.226533
vt 0.149648 0.226503
vt 0.150676 0.226578
vt 0.149466 0.826503
vt 0.149974 0.826503
vt 0.150005 0.827171
vt 0.149648 0.827171
vt 0.150672 0.827200
vt 0.150676 0.827713
vt 0.150009 0.827531
vt 0.931464 0.678560
vt 0.932183 0.678350
vt 0.932167 0.679037
vt 0.931440 0.678057
vt 0.932162 0.677878
vt 0.909240 0.347194
vt 0.909235 0.346556
vt 0.909959 0.346816
vt 0.770191 0.812888
vt 0.769839 0.813393
vt 0.769163 0.813080
vt 0.769555 0.812653
vt 0.768641 0.813764
vt 0.767981 0.812993
vt 0.768677 0.812525
vt 0.768393 0.811729
vt 0.768898 0.811493
vt 0.769117 0.812180
vt 0.932167 0.796839
vt 0.932183 0.797526
vt 0.931464 0.797316
vt 0.768898 0.693692
vt 0.768393 0.693456
vt 0.768677 0.692660
vt 0.769117 0.693005
vt 0.767981 0.692192
vt 0.768641 0.691421
vt 0.769163 0.692105
vt 0.769839 0.691792
vt 0.770191 0.692297
vt 0.769555 0.692532
vt 0.919472 0.120910
vt 0.920195 0.120650
vt 0.920191 0.121288
vt 0.931440 0.797820
vt 0.932162 0.797999
vt 0.875525 0.693456
vt 0.875241 0.692660
vt 0.875936 0.692192
vt 0.875021 0.693692
vt 0.874802 0.693005
vt 0.931456 0.226589
vt 0.932181 0.226379
vt 0.932173 0.227065
vt 0.931413 0.226085
vt 0.932144 0.225906
vt 0.920191 0.224822
vt 0.920195 0.225456
vt 0.919472 0.225195
vt 0.873727 0.692297
vt 0.874078 0.691792
vt 0.874754 0.692105
vt 0.874364 0.692532
vt 0.875276 0.691421
vt 0.446158 0.000552
vt 0.447291 0.000504
vt 0.447854 0.001230
vt 0.749447 0.677878
vt 0.750607 0.678387
vt 0.749059 0.678578
vt 0.748312 0.678110
vt 0.750026 0.679258
vt 0.748870 0.679714
vt 0.748120 0.679099
vt 0.747751 0.679903
vt 0.747246 0.679459
vt 0.747575 0.678632
vt 0.149991 0.001228
vt 0.150240 0.000493
vt 0.151066 0.000547
vt 0.448354 0.001184
vt 0.448024 0.000454
vt 0.297333 0.000547
vt 0.298160 0.000493
vt 0.298408 0.001228
vt 0.747246 0.825726
vt 0.747751 0.825282
vt 0.748120 0.826086
vt 0.747575 0.826553
vt 0.748870 0.825471
vt 0.750026 0.825927
vt 0.749059 0.826607
vt 0.750607 0.826798
vt 0.749447 0.827307
vt 0.748312 0.827075
vt 0.300117 0.227809
vt 0.299433 0.227790
vt 0.299996 0.227064
vt 0.301129 0.227112
vt 0.298933 0.227744
vt 0.299263 0.227014
vt 0.447161 0.227914
vt 0.446151 0.227216
vt 0.447288 0.227169
vt 0.447847 0.227896
vt 0.894471 0.827307
vt 0.893310 0.826798
vt 0.894858 0.826607
vt 0.895607 0.827075
vt 0.893891 0.825927
vt 0.895047 0.825471
vt 0.895798 0.826086
vt 0.896166 0.825282
vt 0.896672 0.825726
vt 0.896343 0.826553
vt 0.000524 0.001212
vt 0.000773 0.000487
vt 0.001600 0.000529
vt 0.448354 0.227850
vt 0.448027 0.227120
vt 0.895047 0.679714
vt 0.895798 0.679099
vt 0.896166 0.679903
vt 0.893891 0.679258
vt 0.894858 0.678578
vt 0.893310 0.678387
vt 0.894471 0.677878
vt 0.895607 0.678110
vt 0.299440 0.001336
vt 0.299999 0.000609
vt 0.301136 0.000656
vt 0.298933 0.001291
vt 0.299260 0.000560
vt 0.147866 0.000529
vt 0.148693 0.000487
vt 0.148942 0.001212
vt 0.896672 0.679459
vt 0.896343 0.678632
vt 0.909283 0.121602
vt 0.909296 0.120933
vt 0.909977 0.120904
vt 0.908726 0.121598
vt 0.908904 0.120930
vt 0.895689 0.452512
vt 0.895718 0.451845
vt 0.896386 0.451815
vt 0.920707 0.796631
vt 0.921243 0.796631
vt 0.921264 0.797298
vt 0.920887 0.797298
vt 0.921939 0.797328
vt 0.909930 0.120388
vt 0.909263 0.120569
vt 0.919453 0.346810
vt 0.920134 0.346839
vt 0.920147 0.347508
vt 0.919500 0.346294
vt 0.920167 0.346476
vt 0.921243 0.679246
vt 0.921264 0.678578
vt 0.921939 0.678549
vt 0.920707 0.679246
vt 0.920887 0.678578
vt 0.896386 0.570594
vt 0.895718 0.570565
vt 0.895689 0.569897
vt 0.920704 0.347505
vt 0.920527 0.346837
vt 0.920147 0.450422
vt 0.920134 0.451089
vt 0.919453 0.451119
vt 0.920704 0.450419
vt 0.920527 0.451087
vt 1.000000 0.569897
vt 0.999970 0.570565
vt 0.999303 0.570594
vt 0.920708 0.344659
vt 0.921262 0.344659
vt 0.921276 0.345326
vt 0.920886 0.345326
vt 0.921956 0.345356
vt 0.921913 0.345868
vt 0.921245 0.345687
vt 0.999303 0.451815
vt 0.999970 0.451845
vt 1.000000 0.452512
vt 0.908726 0.224513
vt 0.909283 0.224516
vt 0.909296 0.225182
vt 0.908904 0.225180
vt 0.909977 0.225213
vt 0.921913 0.226064
vt 0.921956 0.226577
vt 0.921276 0.226606
vt 0.921245 0.226245
vt 0.921262 0.227274
vt 0.920708 0.227274
vt 0.920886 0.226606
vt 0.448354 0.452380
vt 0.002044 -0.000000
vt 0.147423 -0.000000
vt 0.298933 0.225820
vt 0.298912 0.001186
vt 0.302294 0.226560
vt 0.444993 0.226662
vt 0.149487 0.001186
vt 0.151510 0.000000
vt 0.296889 -0.000000
vt 0.932719 0.226830
vt 0.932719 0.345103
vt 0.302294 0.000102
vt 0.444993 0.000000
vt 0.932695 0.678802
vt 0.932695 0.797075
vt 0.908691 0.451082
vt 0.908691 0.346846
vt 0.920740 0.120940
vt 0.920740 0.225176
vt 0.910004 0.346309
vt 0.919426 0.120403
vt 0.802847 0.449650
vt 0.802847 0.438313
vt 0.809730 0.438313
vt 0.809730 0.449650
vt 0.793612 0.195353
vt 0.804914 0.195346
vt 0.804914 0.219981
vt 0.793612 0.219988
vt 0.283261 0.828423
vt 0.290144 0.828423
vt 0.290144 0.853059
vt 0.283261 0.853059
vt 0.826894 0.174775
vt 0.815592 0.174768
vt 0.815592 0.150132
vt 0.826894 0.150139
vt 0.820296 0.449633
vt 0.820296 0.438325
vt 0.827180 0.438325
vt 0.827180 0.449633
vt 0.847065 0.150036
vt 0.847065 0.149425
vt 0.847816 0.149536
vt 0.847985 0.150035
vt 0.810651 0.449638
vt 0.810482 0.449963
vt 0.809730 0.450043
vt 0.827263 0.174778
vt 0.827174 0.175277
vt 0.826860 0.175387
vt 0.809730 0.437866
vt 0.810482 0.437941
vt 0.810651 0.438301
vt 0.291065 0.853059
vt 0.290896 0.853557
vt 0.290144 0.853669
vt 0.815557 0.175380
vt 0.815188 0.175269
vt 0.815124 0.174770
vt 0.847065 0.174671
vt 0.847985 0.174670
vt 0.847816 0.175249
vt 0.847065 0.175380
vt 0.826860 0.149432
vt 0.827174 0.149563
vt 0.827263 0.150142
vt 0.820296 0.450013
vt 0.819545 0.449928
vt 0.819376 0.449609
vt 0.290144 0.827713
vt 0.290896 0.827843
vt 0.291065 0.828423
vt 0.819376 0.438300
vt 0.819545 0.437935
vt 0.820296 0.437866
vt 0.815124 0.150135
vt 0.815188 0.149556
vt 0.815557 0.149425
vt 0.840181 0.150036
vt 0.839260 0.150035
vt 0.839429 0.149536
vt 0.840181 0.149425
vt 0.793646 0.220601
vt 0.793332 0.220490
vt 0.793242 0.219991
vt 0.802847 0.450043
vt 0.802095 0.449963
vt 0.801926 0.449638
vt 0.283261 0.853669
vt 0.282509 0.853557
vt 0.282340 0.853059
vt 0.801926 0.438301
vt 0.802095 0.437941
vt 0.802847 0.437866
vt 0.805382 0.219984
vt 0.805318 0.220483
vt 0.804949 0.220594
vt 0.840181 0.174671
vt 0.840181 0.175380
vt 0.839429 0.175249
vt 0.839260 0.174670
vt 0.828100 0.449609
vt 0.827931 0.449928
vt 0.827180 0.450013
vt 0.793242 0.195356
vt 0.793332 0.194777
vt 0.793646 0.194645
vt 0.282340 0.828423
vt 0.282509 0.827843
vt 0.283261 0.827713
vt 0.804949 0.194638
vt 0.805318 0.194770
vt 0.805382 0.195348
vt 0.827180 0.437866
vt 0.827931 0.437935
vt 0.828100 0.438300
vt 0.848367 0.150031
vt 0.848367 0.174666
vt 0.838879 0.174666
vt 0.838879 0.150031
vt 0.794122 0.449650
vt 0.794122 0.438313
vt 0.801005 0.438313
vt 0.801005 0.449650
vt 0.823902 0.408250
vt 0.835204 0.408243
vt 0.835204 0.432878
vt 0.823902 0.432885
vt 0.404158 0.828658
vt 0.411042 0.828658
vt 0.411042 0.853294
vt 0.404158 0.853294
vt 0.837171 0.400685
vt 0.825869 0.400678
vt 0.825869 0.376043
vt 0.837171 0.376050
vt 0.815503 0.194259
vt 0.815503 0.182950
vt 0.822386 0.182950
vt 0.822386 0.194259
vt 0.849462 0.195250
vt 0.849462 0.194638
vt 0.850214 0.194750
vt 0.850383 0.195248
vt 0.801926 0.449638
vt 0.801757 0.449963
vt 0.801005 0.450043
vt 0.837541 0.400688
vt 0.837451 0.401187
vt 0.837137 0.401298
vt 0.801005 0.437866
vt 0.801757 0.437941
vt 0.801926 0.438301
vt 0.411962 0.853294
vt 0.411793 0.853792
vt 0.411042 0.853904
vt 0.825834 0.401291
vt 0.825465 0.401180
vt 0.825401 0.400681
vt 0.849462 0.219885
vt 0.850383 0.219883
vt 0.850214 0.220463
vt 0.849462 0.220594
vt 0.837137 0.375342
vt 0.837451 0.375474
vt 0.837541 0.376053
vt 0.815503 0.194638
vt 0.814751 0.194553
vt 0.814582 0.194234
vt 0.411042 0.827948
vt 0.411793 0.828078
vt 0.411962 0.828658
vt 0.814582 0.182926
vt 0.814751 0.182561
vt 0.815503 0.182492
vt 0.825401 0.376045
vt 0.825465 0.375466
vt 0.825834 0.375335
vt 0.842579 0.195250
vt 0.841658 0.195248
vt 0.841827 0.194750
vt 0.842579 0.194638
vt 0.823937 0.433498
vt 0.823622 0.433387
vt 0.823533 0.432888
vt 0.794122 0.450043
vt 0.793370 0.449963
vt 0.793201 0.449638
vt 0.404158 0.853904
vt 0.403406 0.853792
vt 0.403238 0.853294
vt 0.793201 0.438301
vt 0.793370 0.437941
vt 0.794122 0.437866
vt 0.835672 0.432880
vt 0.835608 0.433380
vt 0.835239 0.433491
vt 0.842579 0.219885
vt 0.842579 0.220594
vt 0.841827 0.220463
vt 0.841658 0.219883
vt 0.823307 0.194234
vt 0.823138 0.194553
vt 0.822386 0.194638
vt 0.823533 0.408252
vt 0.823622 0.407674
vt 0.823937 0.407542
vt 0.403238 0.828658
vt 0.403406 0.828078
vt 0.404158 0.827948
vt 0.835239 0.407535
vt 0.835608 0.407666
vt 0.835672 0.408245
vt 0.822386 0.182492
vt 0.823138 0.182561
vt 0.823307 0.182926
vt 0.850764 0.195245
vt 0.850764 0.219880
vt 0.841277 0.219880
vt 0.841277 0.195245
vt 0.811572 0.449650
vt 0.811572 0.438313
vt 0.818455 0.438313
vt 0.818455 0.449650
vt 0.805751 0.195353
vt 0.817054 0.195346
vt 0.817054 0.219981
vt 0.805751 0.219988
vt 0.731595 0.828054
vt 0.738479 0.828054
vt 0.738479 0.852690
vt 0.731595 0.852690
vt 0.829292 0.219988
vt 0.817989 0.219981
vt 0.817989 0.195346
vt 0.829292 0.195353
vt 0.824228 0.194259
vt 0.824228 0.182950
vt 0.831111 0.182950
vt 0.831111 0.194259
vt 0.595848 0.827649
vt 0.595848 0.827037
vt 0.596600 0.827149
vt 0.596769 0.827647
vt 0.819376 0.449638
vt 0.819207 0.449963
vt 0.818455 0.450043
vt 0.829661 0.219991
vt 0.829572 0.220490
vt 0.829257 0.220601
vt 0.818455 0.437866
vt 0.819207 0.437941
vt 0.819376 0.438301
vt 0.739399 0.852690
vt 0.739231 0.853188
vt 0.738479 0.853300
vt 0.817955 0.220594
vt 0.817586 0.220483
vt 0.817522 0.219984
vt 0.595848 0.852284
vt 0.596769 0.852283
vt 0.596600 0.852862
vt 0.595848 0.852993
vt 0.829257 0.194645
vt 0.829572 0.194777
vt 0.829661 0.195356
vt 0.824228 0.194638
vt 0.823476 0.194553
vt 0.738479 0.827344
vt 0.739231 0.827474
vt 0.739399 0.828054
vt 0.823476 0.182561
vt 0.824228 0.182492
vt 0.817522 0.195348
vt 0.817586 0.194770
vt 0.817955 0.194638
vt 0.588965 0.827649
vt 0.588044 0.827647
vt 0.588213 0.827149
vt 0.588965 0.827037
vt 0.805786 0.220601
vt 0.805471 0.220490
vt 0.805382 0.219991
vt 0.811572 0.450043
vt 0.810820 0.449963
vt 0.810651 0.449638
vt 0.731595 0.853300
vt 0.730844 0.853188
vt 0.730675 0.852690
vt 0.810651 0.438301
vt 0.810820 0.437941
vt 0.811572 0.437866
vt 0.817522 0.219984
vt 0.817457 0.220483
vt 0.817088 0.220594
vt 0.588965 0.852284
vt 0.588965 0.852993
vt 0.588213 0.852862
vt 0.588044 0.852283
vt 0.832032 0.194234
vt 0.831863 0.194553
vt 0.831111 0.194638
vt 0.805382 0.195356
vt 0.805471 0.194777
vt 0.805786 0.194645
vt 0.730675 0.828054
vt 0.730844 0.827474
vt 0.731595 0.827344
vt 0.817088 0.194638
vt 0.817457 0.194770
vt 0.817522 0.195348
vt 0.831111 0.182492
vt 0.831863 0.182561
vt 0.832032 0.182926
vt 0.597150 0.827644
vt 0.597150 0.852279
vt 0.587663 0.852279
vt 0.587663 0.827644
s 1
f 82/1/1 83/2/2 86/3/3 85/4/4
f 83/2/2 84/5/5 87/6/6 86/3/3
f 85/4/4 86/3/3 89/7/7 88/8/8
f 86/3/3 87/6/6 90/9/9 89/7/7
f 15/10/10 75/11/11 82/1/1 79/12/12
f 75/11/11 74/13/13 83/2/2 82/1/1
f 74/13/13 73/14/14 84/5/5 83/2/2
f 73/14/14 8/15/15 22/16/16 84/5/5
f 84/5/5 22/16/16 23/17/17 87/6/6
f 87/6/6 23/17/17 24/18/18 90/9/9
f 90/9/9 24/18/18 4/19/19 70/20/20
f 89/7/7 90/9/9 70/20/20 71/21/21
f 88/8/8 89/7/7 71/21/21 72/22/22
f 81/23/23 88/8/8 72/22/22 14/24/24
f 80/25/25 85/4/4 88/8/8 81/23/23
f 79/12/12 82/1/1 85/4/4 80/25/25
f 91/26/26 92/27/27 95/28/28 94/29/29
f 92/27/27 93/30/30 96/31/31 95/28/28
f 94/29/29 95/28/28 98/32/32 97/33/33
f 95/28/28 96/31/31 99/34/34 98/32/32
f 12/35/35 60/36/36 91/26/26 64/37/37
f 60/36/36 59/38/38 92/27/27 91/26/26
f 59/38/38 58/39/39 93/30/30 92/27/27
f 58/39/39 9/40/40 34/41/41 93/30/30
f 93/30/30 34/41/41 35/42/42 96/31/31
f 96/31/31 35/42/42 36/43/43 99/34/34
f 99/34/34 36/43/43 6/44/44 52/45/45
f 98/32/32 99/34/34 52/45/45 53/46/46
f 97/33/33 98/32/32 53/46/46 54/47/47
f 66/48/48 97/33/33 54/47/47 10/49/49
f 65/50/50 94/29/29 97/33/33 66/48/48
f 64/37/37 91/26/26 94/29/29 65/50/50
f 100/51/51 101/52/52 104/53/53 103/54/54
f 101/52/52 102/55/55 105/56/56 104/53/53
f 103/54/54 104/53/53 107/57/57 106/58/58
f 104/53/53 105/56/56 108/59/59 107/57/57
f 11/60/60 28/61/61 100/51/51 61/62/62
f 28/61/61 29/63/63 101/52/52 100/51/51
f 29/63/63 30/64/64 102/55/55 101/52/52
f 30/64/64 5/65/65 43/66/66 102/55/55
f 102/55/55 43/66/66 44/67/67 105/56/56
f 105/56/56 44/67/67 45/68/68 108/59/59
f 108/59/59 45/68/68 9/40/40 58/39/39
f 107/57/57 108/59/59 58/39/39 59/38/38
f 106/58/58 107/57/57 59/38/38 60/36/36
f 63/69/69 106/58/58 60/36/36 12/35/35
f 62/70/70 103/54/54 106/58/58 63/69/69
f 61/62/62 100/51/51 103/54/54 62/70/70
f 109/71/71 110/72/72 113/73/73 112/74/74
f 110/72/72 111/75/75 114/76/76 113/73/73
f 112/74/74 113/73/73 116/77/77 115/78/78
f 113/73/73 114/76/76 117/79/79 116/77/77
f 13/80/80 19/81/81 109/71/71 76/82/82
f 19/81/81 20/83/83 110/72/72 109/71/71
f 20/83/83 21/84/84 111/75/75 110/72/72
f 21/84/84 2/85/85 40/86/86 111/75/75
f 111/75/75 40/86/86 41/87/87 114/76/76
f 114/76/76 41/87/87 42/88/88 117/79/79
f 117/79/79 42/88/88 8/15/15 73/14/14
f 116/77/77 117/79/79 73/14/14 74/13/13
f 115/78/78 116/77/77 74/13/13 75/11/11
f 78/89/89 115/78/78 75/11/11 15/10/10
f 77/90/90 112/74/74 115/78/78 78/89/89
f 76/82/82 109/71/71 112/74/74 77/90/90
f 118/91/91 119/92/92 122/93/93 121/94/94
f 119/92/92 120/95/95 123/96/96 122/93/93
f 121/94/94 122/93/93 125/97/97 124/98/98
f 122/93/93 123/96/96 126/99/99 125/97/97
f 1/100/100 55/101/101 118/91/91 18/102/102
f 55/101/101 56/103/103 119/92/92 118/91/91
f 56/103/103 57/104/104 120/95/95 119/92/92
f 57/104/104 11/60/60 61/62/62 120/95/95
f 120/95/95 61/62/62 62/70/70 123/96/96
f 123/96/96 62/70/70 63/69/69 126/99/99
f 126/99/99 63/69/69 12/35/35 46/105/105
f 125/97/97 126/99/99 46/105/105 47/106/106
f 124/98/98 125/97/97 47/106/106 48/107/107
f 16/108/108 124/98/98 48/107/107 7/109/109
f 17/110/110 121/94/94 124/98/98 16/108/108
f 18/102/102 118/91/91 121/94/94 17/110/110
f 127/111/111 128/112/112 131/113/113 130/114/114
f 128/112/112 129/115/115 132/116/116 131/113/113
f 130/114/114 131/113/113 134/117/117 133/118/118
f 131/113/113 132/116/116 135/119/119 134/117/117
f 7/109/109 48/107/107 127/111/111 39/120/120
f 48/107/107 47/106/106 128/112/112 127/111/111
f 47/106/106 46/105/105 129/115/115 128/112/112
f 46/105/105 12/35/35 64/37/37 129/115/115
f 129/115/115 64/37/37 65/50/50 132/116/116
f 132/116/116 65/50/50 66/48/48 135/119/119
f 135/119/119 66/48/48 10/49/49 25/121/121
f 134/117/117 135/119/119 25/121/121 26/122/122
f 133/118/118 134/117/117 26/122/122 27/123/123
f 37/124/124 133/118/118 27/123/123 3/125/125
f 38/126/126 130/114/114 133/118/118 37/124/124
f 39/120/120 127/111/111 130/114/114 38/126/126
f 136/127/127 137/128/128 140/129/129 139/130/130
f 137/128/128 138/131/131 141/132/132 140/129/129
f 139/130/130 140/129/129 143/133/133 142/134/134
f 140/129/129 141/132/132 144/135/135 143/133/133
f 5/65/65 67/136/136 136/127/127 43/66/66
f 67/136/136 68/137/137 137/128/128 136/127/127
f 68/137/137 69/138/138 138/131/131 137/128/128
f 69/138/138 13/80/80 76/82/82 138/131/131
f 138/131/131 76/82/82 77/90/90 141/132/132
f 141/132/132 77/90/90 78/89/89 144/135/135
f 144/135/135 78/89/89 15/10/10 49/139/139
f 143/133/133 144/135/135 49/139/139 50/140/140
f 142/134/134 143/133/133 50/140/140 51/141/141
f 45/68/68 142/134/134 51/141/141 9/40/40
f 44/67/67 139/130/130 142/134/134 45/68/68
f 43/66/66 136/127/127 139/130/130 44/67/67
f 145/142/142 146/143/143 149/144/144 148/145/145
f 146/143/143 147/146/146 150/147/147 149/144/144
f 148/145/145 149/144/144 152/148/148 151/149/149
f 149/144/144 150/147/147 153/150/150 152/148/148
f 9/40/40 51/141/141 145/142/142 34/41/41
f 51/141/141 50/140/140 146/143/143 145/142/142
f 50/140/140 49/139/139 147/146/146 146/143/143
f 49/139/139 15/10/10 79/12/12 147/146/146
f 147/146/146 79/12/12 80/25/25 150/147/147
f 150/147/147 80/25/25 81/23/23 153/150/150
f 153/150/150 81/23/23 14/24/24 31/151/151
f 152/148/148 153/150/150 31/151/151 32/152/152
f 151/149/149 152/148/148 32/152/152 33/153/153
f 36/43/43 151/149/149 33/153/153 6/44/44
f 35/42/42 148/145/145 151/149/149 36/43/43
f 34/41/41 145/142/142 148/145/145 35/42/42
f 155/154/154 301/155/155 317/156/156 168/157/157
f 166/158/158 316/159/159 266/160/160 206/161/161
f 167/162/162 208/163/163 196/164/164 156/165/165
f 218/166/166 234/167/167 332/168/168 343/169/169
f 180/170/170 219/171/171 342/172/172 354/173/173
f 178/174/174 250/175/175 314/176/176 300/177/177
f 253/178/178 236/179/179 267/180/180 315/181/181
f 207/182/182 269/183/183 282/184/184 194/185/185
f 237/186/186 252/187/187 367/188/188 330/189/189
f 251/190/190 181/191/191 356/192/192 368/193/193
f 220/194/194 179/195/195 299/196/196 284/197/197
f 331/198/198 366/199/199 355/200/200 344/201/201
f 235/202/202 221/203/203 283/204/204 268/205/205
f 154/206/206 157/207/207 159/208/208 158/209/209
f 157/210/207 161/211/210 162/212/211 159/213/208
f 155/154/154 160/214/212 162/212/211 161/211/210
f 160/215/212 164/216/213 165/217/214 162/218/211
f 156/165/165 163/219/215 165/217/214 164/216/213
f 163/219/215 158/220/209 159/221/208 165/217/214
f 159/221/208 162/218/211 165/217/214
f 166/158/158 169/222/216 171/223/217 170/224/218
f 169/225/216 173/226/219 174/227/220 171/228/217
f 167/162/162 172/229/221 174/227/220 173/226/219
f 172/229/221 176/230/222 177/231/223 174/227/220
f 168/157/157 175/232/224 177/233/223 176/234/222
f 175/232/224 170/235/218 171/236/217 177/233/223
f 171/228/217 174/227/220 177/231/223
f 178/174/174 182/237/225 184/238/226 183/239/227
f 182/237/225 186/240/228 187/241/229 184/238/226
f 179/195/195 185/242/230 187/241/229 186/240/228
f 185/242/230 189/243/231 190/244/232 187/241/229
f 180/170/170 188/245/233 190/246/232 189/247/231
f 188/248/233 192/249/234 193/250/235 190/251/232
f 181/191/191 191/252/236 193/250/235 192/249/234
f 191/253/236 183/239/227 184/238/226 193/254/235
f 184/238/226 187/241/229 190/244/232 193/254/235
f 194/185/185 197/255/237 199/256/238 198/257/239
f 197/255/237 201/258/240 202/259/241 199/256/238
f 195/260/242 200/261/243 202/262/241 201/263/240
f 200/264/243 204/265/244 205/266/245 202/267/241
f 196/164/164 203/268/246 205/266/245 204/265/244
f 203/268/246 198/269/239 199/270/238 205/266/245
f 199/270/238 202/267/241 205/266/245
f 206/161/161 209/271/247 211/272/248 210/273/249
f 209/274/247 213/275/250 214/276/251 211/277/248
f 207/182/182 212/278/252 214/276/251 213/275/250
f 212/279/252 216/280/253 217/281/254 214/282/251
f 208/163/163 215/283/255 217/281/254 216/280/253
f 215/283/255 210/284/249 211/285/248 217/281/254
f 211/285/248 214/282/251 217/281/254
f 218/166/166 222/286/256 224/287/257 223/288/258
f 222/286/256 226/289/259 227/290/260 224/287/257
f 219/171/171 225/291/261 227/292/260 226/293/259
f 225/294/261 229/295/262 230/296/263 227/297/260
f 220/194/194 228/298/264 230/296/263 229/295/262
f 228/298/264 232/299/265 233/300/266 230/296/263
f 221/203/203 231/301/267 233/300/266 232/299/265
f 231/301/267 223/302/258 224/303/257 233/300/266
f 224/303/257 227/297/260 230/296/263 233/300/266
f 234/167/167 238/304/268 240/305/269 239/306/270
f 238/307/268 242/308/271 243/309/272 240/310/269
f 235/202/202 241/311/273 243/309/272 242/308/271
f 241/311/273 245/312/274 246/313/275 243/309/272
f 236/179/179 244/314/276 246/313/275 245/312/274
f 244/314/276 248/315/277 249/316/278 246/313/275
f 237/186/186 247/317/279 249/318/278 248/319/277
f 247/320/279 239/306/270 240/305/269 249/321/278
f 240/310/269 243/309/272 246/313/275 249/316/278
f 250/175/175 254/322/280 256/323/281 255/324/282
f 254/322/280 258/325/283 259/326/284 256/323/281
f 251/190/190 257/327/285 259/328/284 258/329/283
f 257/327/285 261/330/286 262/331/287 259/328/284
f 252/187/187 260/332/288 262/333/287 261/334/286
f 260/335/288 264/336/289 265/337/290 262/338/287
f 253/178/178 263/339/291 265/337/290 264/336/289
f 263/339/291 255/324/282 256/323/281 265/337/290
f 256/323/281 259/326/284 262/338/287 265/337/290
f 266/160/160 270/340/292 272/341/293 271/342/294
f 270/343/292 274/344/295 275/345/296 272/346/293
f 267/180/180 273/347/297 275/345/296 274/344/295
f 273/347/297 277/348/298 278/349/299 275/345/296
f 268/205/205 276/350/300 278/349/299 277/348/298
f 276/350/300 280/351/301 281/352/302 278/349/299
f 269/183/183 279/353/303 281/354/302 280/355/301
f 279/356/303 271/342/294 272/341/293 281/357/302
f 272/346/293 275/345/296 278/349/299 281/352/302
f 282/184/184 286/358/304 288/359/305 287/360/306
f 286/361/304 290/362/307 291/363/308 288/364/305
f 283/204/204 289/365/309 291/363/308 290/362/307
f 289/365/309 293/366/310 294/367/311 291/363/308
f 284/197/197 292/368/312 294/367/311 293/366/310
f 292/368/312 296/369/313 297/370/314 294/367/311
f 285/371/315 295/372/316 297/373/314 296/374/313
f 295/372/316 287/375/306 288/376/305 297/373/314
f 288/364/305 291/363/308 294/367/311 297/370/314
f 298/377/317 302/378/318 304/379/319 303/380/320
f 302/381/318 306/382/321 307/383/322 304/384/319
f 299/196/196 305/385/323 307/383/322 306/382/321
f 305/385/323 309/386/324 310/387/325 307/383/322
f 300/177/177 308/388/326 310/387/325 309/386/324
f 308/388/326 312/389/327 313/390/328 310/387/325
f 301/155/155 311/391/329 313/392/328 312/393/327
f 311/394/329 303/380/320 304/379/319 313/395/328
f 304/384/319 307/383/322 310/387/325 313/390/328
f 314/176/176 318/396/330 320/397/331 319/398/332
f 318/396/330 322/399/333 323/400/334 320/397/331
f 315/181/181 321/401/335 323/400/334 322/399/333
f 321/401/335 325/402/336 326/403/337 323/400/334
f 316/159/159 324/404/338 326/405/337 325/406/336
f 324/404/338 328/407/339 329/408/340 326/405/337
f 317/156/156 327/409/341 329/410/340 328/411/339
f 327/412/341 319/398/332 320/397/331 329/413/340
f 320/397/331 323/400/334 326/403/337 329/413/340
f 330/189/189 333/414/342 335/415/343 334/416/344
f 333/414/342 337/417/345 338/418/346 335/415/343
f 331/198/198 336/419/347 338/420/346 337/421/345
f 336/422/347 340/423/348 341/424/349 338/425/346
f 332/168/168 339/426/350 341/424/349 340/423/348
f 339/427/350 334/416/344 335/415/343 341/428/349
f 335/415/343 338/418/346 341/428/349
f 342/172/172 345/429/351 347/430/352 346/431/353
f 345/429/351 349/432/354 350/433/355 347/430/352
f 343/169/169 348/434/356 350/435/355 349/436/354
f 348/434/356 352/437/357 353/438/358 350/435/355
f 344/201/201 351/439/359 353/440/358 352/441/357
f 351/442/359 346/431/353 347/430/352 353/443/358
f 347/430/352 350/433/355 353/443/358
f 354/173/173 357/444/360 359/445/361 358/446/362
f 357/444/360 361/447/363 362/448/364 359/445/361
f 355/200/200 360/449/365 362/450/364 361/451/363
f 360/452/365 364/453/366 365/454/367 362/455/364
f 356/192/192 363/456/368 365/454/367 364/453/366
f 363/456/368 358/457/362 359/458/361 365/454/367
f 359/458/361 362/455/364 365/454/367
f 366/199/199 369/459/369 371/460/370 370/461/371
f 369/462/369 373/463/372 374/464/373 371/465/370
f 367/188/188 372/466/374 374/464/373 373/463/372
f 372/467/374 376/468/375 377/469/376 374/470/373
f 368/193/193 375/471/377 377/469/376 376/468/375
f 375/471/377 370/472/371 371/473/370 377/469/376
f 371/473/370 374/470/373 377/469/376
f 166/158/158 206/161/161 210/273/249 169/222/216
f 169/225/216 210/284/249 215/283/255 173/226/219
f 173/226/219 215/283/255 208/163/163 167/162/162
f 207/182/182 194/185/185 198/257/239 212/278/252
f 212/279/252 198/269/239 203/268/246 216/280/253
f 216/280/253 203/268/246 196/164/164 208/163/163
f 195/260/242 154/206/206 158/209/209 200/261/243
f 200/264/243 158/220/209 163/219/215 204/265/244
f 204/265/244 163/219/215 156/165/165 196/164/164
f 155/154/154 168/157/157 176/234/222 160/214/212
f 160/215/212 176/230/222 172/229/221 164/216/213
f 164/216/213 172/229/221 167/162/162 156/165/165
f 154/206/206 298/377/317 303/380/320 157/207/207
f 157/207/207 303/380/320 311/394/329 161/474/210
f 161/211/210 311/391/329 301/155/155 155/154/154
f 300/177/177 314/176/176 319/398/332 308/388/326
f 308/475/326 319/476/332 327/409/341 312/393/327
f 312/393/327 327/409/341 317/156/156 301/155/155
f 316/159/159 166/158/158 170/224/218 324/404/338
f 324/404/338 170/224/218 175/477/224 328/407/339
f 328/411/339 175/232/224 168/157/157 317/156/156
f 194/185/185 282/184/184 287/360/306 197/255/237
f 197/255/237 287/360/306 295/478/316 201/258/240
f 201/263/240 295/372/316 285/371/315 195/260/242
f 284/197/197 299/196/196 306/382/321 292/368/312
f 292/479/312 306/480/321 302/378/318 296/374/313
f 296/374/313 302/378/318 298/377/317 285/371/315
f 206/161/161 266/160/160 271/342/294 209/271/247
f 209/274/247 271/481/294 279/353/303 213/275/250
f 213/275/250 279/353/303 269/183/183 207/182/182
f 268/205/205 283/204/204 290/362/307 276/350/300
f 276/482/300 290/483/307 286/358/304 280/355/301
f 280/355/301 286/358/304 282/184/184 269/183/183
f 250/175/175 178/174/174 183/239/227 254/322/280
f 254/484/280 183/485/227 191/252/236 258/329/283
f 258/329/283 191/252/236 181/191/191 251/190/190
f 180/170/170 354/173/173 358/446/362 188/245/233
f 188/248/233 358/457/362 363/456/368 192/249/234
f 192/249/234 363/456/368 356/192/192 181/191/191
f 355/200/200 366/199/199 370/461/371 360/449/365
f 360/452/365 370/472/371 375/471/377 364/453/366
f 364/453/366 375/471/377 368/193/193 356/192/192
f 367/188/188 252/187/187 261/334/286 372/466/374
f 372/467/374 261/330/286 257/327/285 376/468/375
f 376/468/375 257/327/285 251/190/190 368/193/193
f 315/181/181 267/180/180 274/344/295 321/401/335
f 321/486/335 274/487/295 270/340/292 325/406/336
f 325/406/336 270/340/292 266/160/160 316/159/159
f 234/167/167 218/166/166 223/288/258 238/304/268
f 238/304/268 223/288/258 231/488/267 242/489/271
f 242/308/271 231/301/267 221/203/203 235/202/202
f 220/194/194 284/197/197 293/366/310 228/298/264
f 228/298/264 293/366/310 289/365/309 232/299/265
f 232/299/265 289/365/309 283/204/204 221/203/203
f 267/180/180 236/179/179 245/312/274 273/347/297
f 273/347/297 245/312/274 241/311/273 277/348/298
f 277/348/298 241/311/273 235/202/202 268/205/205
f 219/171/171 180/170/170 189/247/231 225/291/261
f 225/291/261 189/247/231 185/490/230 229/491/262
f 229/295/262 185/242/230 179/195/195 220/194/194
f 178/174/174 300/177/177 309/386/324 182/237/225
f 182/237/225 309/386/324 305/385/323 186/240/228
f 186/240/228 305/385/323 299/196/196 179/195/195
f 252/187/187 237/186/186 248/319/277 260/332/288
f 260/332/288 248/319/277 244/492/276 264/493/289
f 264/336/289 244/314/276 236/179/179 253/178/178
f 314/176/176 250/175/175 255/324/282 318/396/330
f 318/396/330 255/324/282 263/339/291 322/399/333
f 322/399/333 263/339/291 253/178/178 315/181/181
f 330/189/189 367/188/188 373/463/372 333/414/342
f 333/414/342 373/463/372 369/462/369 337/417/345
f 337/421/345 369/459/369 366/199/199 331/198/198
f 354/173/173 342/172/172 346/431/353 357/444/360
f 357/444/360 346/431/353 351/442/359 361/447/363
f 361/451/363 351/439/359 344/201/201 355/200/200
f 343/169/169 332/168/168 340/423/348 348/434/356
f 348/434/356 340/423/348 336/422/347 352/437/357
f 352/441/357 336/419/347 331/198/198 344/201/201
f 218/166/166 343/169/169 349/436/354 222/286/256
f 222/494/256 349/432/354 345/429/351 226/293/259
f 226/293/259 345/429/351 342/172/172 219/171/171
f 332/168/168 234/167/167 239/306/270 339/426/350
f 339/427/350 239/495/270 247/317/279 334/416/344
f 334/416/344 247/317/279 237/186/186 330/189/189
f 195/260/242 285/371/315 298/377/317 154/206/206
f 408/496/378 414/497/379 385/498/380 379/499/381
f 422/500/382 428/501/383 415/502/384 407/503/385
f 427/504/386 399/505/387 386/506/388 413/507/389
f 380/508/390 387/509/391 401/510/392 393/511/393
f 394/512/394 400/513/395 429/514/396 421/515/397
f 378/516/398 381/517/399 382/518/400 384/519/401
f 379/499/381 383/520/402 382/521/400 381/522/399
f 380/508/390 384/523/401 382/524/400 383/525/402
f 385/498/380 388/526/403 389/527/404 391/528/405
f 386/506/388 390/529/406 389/530/404 388/531/403
f 387/509/391 391/532/405 389/533/404 390/534/406
f 392/535/407 395/536/408 396/537/409 398/538/410
f 393/511/393 397/539/411 396/540/409 395/541/408
f 394/512/394 398/542/410 396/543/409 397/544/411
f 399/505/387 402/545/412 403/546/413 405/547/414
f 400/513/395 404/548/415 403/549/413 402/550/412
f 401/510/392 405/551/414 403/552/413 404/553/415
f 406/554/416 409/555/417 410/556/418 412/557/419
f 407/503/385 411/558/420 410/559/418 409/560/417
f 408/496/378 412/561/419 410/562/418 411/563/420
f 413/507/389 416/564/421 417/565/422 419/566/423
f 414/497/379 418/567/424 417/568/422 416/569/421
f 415/502/384 419/570/423 417/571/422 418/572/424
f 420/573/425 423/574/426 424/575/427 426/576/428
f 421/515/397 425/577/429 424/578/427 423/579/426
f 422/500/382 426/580/428 424/581/427 425/582/429
f 427/504/386 430/583/430 431/584/431 433/585/432
f 428/501/383 432/586/433 431/587/431 430/588/430
f 429/514/396 433/589/432 431/590/431 432/591/433
f 392/535/407 378/516/398 384/519/401 395/536/408
f 395/536/408 384/519/401 380/592/390 393/593/393
f 379/499/381 385/498/380 391/528/405 383/520/402
f 383/525/402 391/532/405 387/509/391 380/508/390
f 386/506/388 399/505/387 405/547/414 390/529/406
f 390/534/406 405/551/414 401/510/392 387/509/391
f 400/513/395 394/512/394 397/544/411 404/548/415
f 404/553/415 397/539/411 393/511/393 401/510/392
f 420/573/425 392/535/407 398/538/410 423/574/426
f 423/579/426 398/542/410 394/512/394 421/515/397
f 399/505/387 427/504/386 433/585/432 402/545/412
f 402/550/412 433/589/432 429/514/396 400/513/395
f 428/501/383 422/500/382 425/582/429 432/586/433
f 432/591/433 425/577/429 421/515/397 429/514/396
f 406/554/416 420/573/425 426/576/428 409/555/417
f 409/555/417 426/576/428 422/594/382 407/595/385
f 427/504/386 413/507/389 419/566/423 430/583/430
f 430/588/430 419/570/423 415/502/384 428/501/383
f 414/497/379 408/496/378 411/563/420 418/567/424
f 418/572/424 411/558/420 407/503/385 415/502/384
f 378/516/398 406/554/416 412/557/419 381/517/399
f 381/522/399 412/561/419 408/496/378 379/499/381
f 413/507/389 386/506/388 388/531/403 416/564/421
f 416/569/421 388/526/403 385/498/380 414/497/379
f 392/535/407 420/573/425 406/554/416 378/516/398
f 464/596/378 470/597/379 441/598/380 435/599/381
f 478/600/434 484/601/383 471/602/384 463/603/385
f 483/604/386 455/605/387 442/606/388 469/607/389
f 436/608/390 443/609/391 457/610/392 449/611/393
f 450/612/394 456/613/395 485/614/396 477/615/397
f 434/616/398 437/617/399 438/618/400 440/619/401
f 435/599/381 439/620/402 438/621/400 437/622/399
f 436/608/390 440/623/401 438/624/400 439/625/402
f 441/598/380 444/626/403 445/627/404 447/628/405
f 442/606/388 446/629/435 445/630/404 444/631/403
f 443/609/391 447/632/405 445/633/404 446/634/435
f 448/635/407 451/636/408 452/637/409 454/638/410
f 449/611/393 453/639/411 452/640/409 451/641/408
f 450/612/394 454/642/410 452/643/409 453/644/411
f 455/605/387 458/645/412 459/646/413 461/647/436
f 456/613/395 460/648/415 459/649/413 458/650/412
f 457/610/392 461/651/436 459/652/413 460/653/415
f 462/654/416 465/655/417 466/656/418 468/657/419
f 463/603/385 467/658/420 466/659/418 465/660/417
f 464/596/378 468/661/419 466/662/418 467/663/420
f 469/607/389 472/664/421 473/665/422 475/666/423
f 470/597/379 474/667/424 473/668/422 472/669/421
f 471/602/384 475/670/423 473/671/422 474/672/424
f 476/673/425 479/674/426 480/675/427 482/676/428
f 477/615/397 481/677/429 480/678/427 479/679/426
f 478/600/434 482/680/428 480/681/427 481/682/429
f 483/604/386 486/683/437 487/684/431 489/685/432
f 484/601/383 488/686/433 487/687/431 486/688/437
f 485/614/396 489/689/432 487/690/431 488/691/433
f 448/635/407 434/616/398 440/619/401 451/636/408
f 451/636/408 440/619/401 436/692/390 449/693/393
f 435/599/381 441/598/380 447/628/405 439/620/402
f 439/625/402 447/632/405 443/609/391 436/608/390
f 442/606/388 455/605/387 461/647/436 446/629/435
f 446/634/435 461/651/436 457/610/392 443/609/391
f 456/613/395 450/612/394 453/644/411 460/648/415
f 460/653/415 453/639/411 449/611/393 457/610/392
f 476/673/425 448/635/407 454/638/410 479/674/426
f 479/679/426 454/642/410 450/612/394 477/615/397
f 455/605/387 483/604/386 489/685/432 458/645/412
f 458/650/412 489/689/432 485/614/396 456/613/395
f 484/601/383 478/600/434 481/682/429 488/686/433
f 488/691/433 481/677/429 477/615/397 485/614/396
f 462/654/416 476/673/425 482/676/428 465/655/417
f 465/655/417 482/676/428 478/694/434 463/695/385
f 483/604/386 469/607/389 475/666/423 486/683/437
f 486/688/437 475/670/423 471/602/384 484/601/383
f 470/597/379 464/596/378 467/663/420 474/667/424
f 474/672/424 467/658/420 463/603/385 471/602/384
f 434/616/398 462/654/416 468/657/419 437/617/399
f 437/622/399 468/661/419 464/596/378 435/599/381
f 469/607/389 442/606/388 444/631/403 472/664/421
f 472/669/421 444/626/403 441/598/380 470/597/379
f 448/635/407 476/673/425 462/654/416 434/616/398
f 520/696/378 526/697/379 497/698/380 491/699/381
f 534/700/382 540/701/383 527/702/384 519/703/385
f 539/704/386 511/705/387 498/706/388 525/707/389
f 492/708/390 499/709/391 513/710/392 505/711/393
f 506/712/394 512/713/395 541/714/396 533/715/397
f 490/716/398 493/717/399 494/718/400 496/719/401
f 491/699/381 495/720/402 494/721/400 493/722/399
f 492/708/390 496/723/401 494/724/400 495/725/402
f 497/698/380 500/726/403 501/727/404 503/728/405
f 498/706/388 502/729/406 501/730/404 500/731/403
f 499/709/391 503/732/405 501/733/404 502/734/406
f 504/735/407 507/736/408 508/737/409 510/738/410
f 505/711/393 509/739/411 508/740/409 507/741/408
f 506/712/394 510/742/410 508/743/409 509/677/411
f 511/705/387 514/744/412 515/745/413 517/746/436
f 512/713/395 516/691/415 515/747/413 514/748/412
f 513/710/392 517/749/436 515/750/413 516/751/415
f 518/752/416 521/753/417 522/754/418 524/755/419
f 519/703/385 523/756/420 522/757/418 521/758/417
f 520/696/378 524/759/419 522/760/418 523/761/420
f 525/707/389 528/762/421 529/763/422 531/764/423
f 526/697/379 530/765/424 529/766/422 528/767/421
f 527/702/384 531/768/423 529/769/422 530/770/424
f 532/771/425 535/772/426 536/773/427 538/774/428
f 533/715/397 537/775/429 536/776/427 535/777/426
f 534/700/382 538/778/428 536/779/427 537/780/429
f 539/704/386 542/781/437 543/782/431 545/783/432
f 540/701/383 544/784/433 543/785/431 542/786/437
f 541/714/396 545/787/432 543/788/431 544/789/433
f 504/735/407 490/716/398 496/719/401 507/736/408
f 507/736/408 496/719/401 492/790/390 505/791/393
f 491/699/381 497/698/380 503/728/405 495/720/402
f 495/725/402 503/732/405 499/709/391 492/708/390
f 498/706/388 511/705/387 517/746/436 502/729/406
f 502/734/406 517/749/436 513/710/392 499/709/391
f 512/713/395 506/712/394 509/677/411 516/691/415
f 516/751/415 509/739/411 505/711/393 513/710/392
f 532/771/425 504/735/407 510/738/410 535/772/426
f 535/777/426 510/742/410 506/712/394 533/715/397
f 511/705/387 539/704/386 545/783/432 514/744/412
f 514/748/412 545/787/432 541/714/396 512/713/395
f 540/701/383 534/700/382 537/780/429 544/784/433
f 544/789/433 537/775/429 533/715/397 541/714/396
f 518/752/416 532/771/425 538/774/428 521/753/417
f 521/753/417 538/774/428 534/792/382 519/793/385
f 539/704/386 525/707/389 531/764/423 542/781/437
f 542/786/437 531/768/423 527/702/384 540/701/383
f 526/697/379 520/696/378 523/761/420 530/765/424
f 530/770/424 523/756/420 519/703/385 527/702/384
f 490/716/398 518/752/416 524/755/419 493/717/399
f 493/722/399 524/759/419 520/696/378 491/699/381
f 525/707/389 498/706/388 500/731/403 528/762/421
f 528/767/421 500/726/403 497/698/380 526/697/379
f 504/735/407 532/771/425 518/752/416 490/716/398
