# Blender 4.4.3
# www.blender.org
mtllib 1.mtl
o Plane.003
v -0.435460 0.684914 0.371896
v 0.433770 0.684914 0.371896
v -0.435460 0.684914 -0.368170
v 0.433770 0.684914 -0.368170
v 0.001631 0.684914 0.444519
v 0.001631 0.684914 -0.440793
v -0.445901 0.684914 0.001863
v 0.439411 0.684914 0.001863
v 0.001631 0.753070 0.001863
v -0.329699 0.684914 -0.440793
v -0.329699 0.684914 0.444519
v -0.329699 0.710344 0.001863
v 0.342715 0.684914 0.444519
v 0.342715 0.684914 -0.440793
v 0.342715 0.706075 0.001863
v -0.445736 0.684914 0.111374
v -0.444575 0.684914 0.213969
v -0.441427 0.684914 0.302731
v 0.387247 0.684914 0.443366
v 0.413715 0.684914 0.435297
v 0.427425 0.684914 0.413395
v 0.439321 0.684914 -0.107649
v 0.438695 0.684914 -0.210243
v 0.436994 0.684914 -0.299005
v -0.375831 0.684914 -0.439641
v -0.406185 0.684914 -0.431571
v -0.424695 0.684914 -0.409669
v -0.265257 0.684914 0.444519
v -0.185574 0.684914 0.444519
v -0.095121 0.684914 0.444519
v 0.276749 0.684914 -0.440793
v 0.193713 0.684914 -0.440793
v 0.099908 0.684914 -0.440793
v 0.001631 0.747213 -0.108801
v 0.001631 0.731772 -0.219465
v 0.001631 0.709940 -0.330129
v -0.441427 0.684914 -0.299005
v -0.444575 0.684914 -0.210243
v -0.445736 0.684914 -0.107649
v 0.436994 0.684914 0.302731
v 0.438695 0.684914 0.213969
v 0.439321 0.684914 0.111374
v 0.001631 0.709940 0.333855
v 0.001631 0.731772 0.223191
v 0.001631 0.747213 0.112527
v -0.375997 0.700212 0.001863
v -0.407511 0.693315 0.001863
v -0.429170 0.688576 0.001863
v 0.276749 0.720079 0.001863
v 0.193713 0.735227 0.001863
v 0.099908 0.747548 0.001863
v -0.095121 0.684914 -0.440793
v -0.185574 0.684914 -0.440793
v -0.265257 0.684914 -0.440793
v -0.424695 0.684914 0.413395
v -0.406185 0.684914 0.435297
v -0.375831 0.684914 0.443366
v -0.095121 0.749115 0.001863
v -0.185574 0.738162 0.001863
v -0.265257 0.723981 0.001863
v -0.329699 0.694252 0.333855
v -0.329699 0.702397 0.223191
v -0.329699 0.708159 0.112527
v -0.329699 0.708159 -0.108801
v -0.329699 0.702397 -0.219465
v -0.329699 0.694252 -0.330129
v 0.099908 0.684914 0.444519
v 0.193713 0.684914 0.444519
v 0.276749 0.684914 0.444519
v 0.427425 0.684914 -0.409669
v 0.413715 0.684914 -0.431571
v 0.387247 0.684914 -0.439641
v 0.429842 0.687008 0.001863
v 0.414432 0.690381 0.001863
v 0.387337 0.696310 0.001863
v 0.342715 0.692684 0.333855
v 0.342715 0.699462 0.223191
v 0.342715 0.704257 0.112527
v 0.342715 0.704257 -0.108801
v 0.342715 0.699462 -0.219465
v 0.342715 0.692684 -0.330129
v 0.387335 0.695331 -0.108777
v 0.414417 0.689911 -0.108609
v 0.429796 0.686828 -0.108201
v 0.387322 0.692749 -0.219273
v 0.414312 0.688672 -0.217928
v 0.429469 0.686354 -0.214662
v 0.387290 0.689098 -0.329529
v 0.414059 0.686921 -0.325326
v 0.428647 0.685683 -0.314735
v -0.265256 0.720624 -0.108801
v -0.185574 0.733586 -0.108801
v -0.095121 0.743598 -0.108801
v -0.265257 0.711773 -0.219465
v -0.185574 0.721522 -0.219465
v -0.095121 0.729052 -0.219465
v -0.265256 0.699259 -0.330129
v -0.185574 0.704466 -0.330129
v -0.095121 0.708488 -0.330129
v -0.265256 0.699259 0.333855
v -0.185574 0.704466 0.333855
v -0.095121 0.708488 0.333855
v -0.265257 0.711773 0.223191
v -0.185574 0.721522 0.223191
v -0.095121 0.729052 0.223191
v -0.265256 0.720624 0.112527
v -0.185574 0.733586 0.112527
v -0.095121 0.743598 0.112527
v 0.387290 0.689098 0.333254
v 0.414059 0.686921 0.329052
v 0.428647 0.685683 0.318461
v 0.387322 0.692749 0.222999
v 0.414312 0.688672 0.221654
v 0.429469 0.686354 0.218388
v 0.387335 0.695331 0.112503
v 0.414417 0.689911 0.112335
v 0.429796 0.686828 0.111926
v -0.426957 0.686258 0.318461
v -0.406821 0.687999 0.329052
v -0.375910 0.690531 0.333254
v -0.428480 0.687431 0.218388
v -0.407290 0.690690 0.221654
v -0.375969 0.695431 0.222999
v -0.429084 0.688261 0.111926
v -0.407484 0.692593 0.112335
v -0.375993 0.698897 0.112503
v -0.429084 0.688261 -0.108201
v -0.407484 0.692593 -0.108609
v -0.375993 0.698897 -0.108777
v -0.428480 0.687431 -0.214662
v -0.407290 0.690690 -0.217928
v -0.375969 0.695431 -0.219273
v -0.426957 0.686258 -0.314735
v -0.406821 0.687999 -0.325326
v -0.375910 0.690531 -0.329529
v 0.099908 0.707912 0.333855
v 0.193713 0.703388 0.333855
v 0.276749 0.697826 0.333855
v 0.099908 0.727975 0.223191
v 0.193713 0.719504 0.223191
v 0.276749 0.709090 0.223191
v 0.099908 0.742165 0.112527
v 0.193713 0.730903 0.112527
v 0.276749 0.717057 0.112527
v 0.099908 0.742165 -0.108801
v 0.193713 0.730903 -0.108801
v 0.276749 0.717057 -0.108801
v 0.099908 0.727975 -0.219465
v 0.193713 0.719504 -0.219465
v 0.276749 0.709090 -0.219465
v 0.099908 0.707912 -0.330129
v 0.193713 0.703388 -0.330129
v 0.276749 0.697826 -0.330129
v -0.493040 -0.760049 0.500958
v -0.502340 -0.760049 0.491658
v -0.493040 -0.769349 0.491658
v -0.497684 -0.760049 0.499716
v -0.493040 -0.764693 0.499716
v -0.497487 -0.764496 0.498509
v -0.501097 -0.764693 0.491658
v -0.501097 -0.760049 0.496302
v -0.499891 -0.764496 0.496105
v -0.493040 -0.768107 0.496302
v -0.497684 -0.768107 0.491658
v -0.497487 -0.766900 0.496105
v -0.493040 -0.760049 -0.497230
v -0.493040 -0.769350 -0.487930
v -0.502340 -0.760049 -0.487930
v -0.493040 -0.764693 -0.495988
v -0.497684 -0.760049 -0.495988
v -0.497487 -0.764497 -0.494781
v -0.497684 -0.768107 -0.487930
v -0.493040 -0.768107 -0.492574
v -0.497487 -0.766900 -0.492377
v -0.501097 -0.760049 -0.492574
v -0.501097 -0.764693 -0.487930
v -0.499891 -0.764497 -0.492377
v -0.364648 0.751210 0.397202
v -0.352513 0.751210 0.411457
v -0.346048 0.741910 0.402157
v -0.355348 0.741910 0.392856
v -0.362827 0.751210 0.404234
v -0.360087 0.749832 0.395814
v -0.358195 0.749752 0.401115
v -0.350450 0.749834 0.406898
v -0.358434 0.751210 0.409369
v -0.354954 0.749753 0.404812
v -0.350613 0.741910 0.400777
v -0.348110 0.746469 0.403532
v -0.352350 0.746644 0.401969
v -0.356726 0.746472 0.394244
v -0.353968 0.741910 0.397421
v -0.355268 0.746647 0.398820
v 0.495848 -0.760049 0.491658
v 0.486548 -0.760049 0.500958
v 0.486548 -0.769349 0.491658
v 0.494606 -0.760049 0.496302
v 0.494606 -0.764693 0.491658
v 0.493399 -0.764496 0.496105
v 0.486548 -0.764693 0.499716
v 0.491192 -0.760049 0.499716
v 0.490996 -0.764496 0.498509
v 0.491192 -0.768107 0.491658
v 0.486548 -0.768107 0.496302
v 0.490996 -0.766900 0.496105
v 0.486548 -0.760049 -0.497230
v 0.495848 -0.760049 -0.487930
v 0.486548 -0.769350 -0.487930
v 0.491192 -0.760049 -0.495988
v 0.486548 -0.764693 -0.495988
v 0.490996 -0.764497 -0.494781
v 0.494606 -0.764693 -0.487930
v 0.494606 -0.760049 -0.492574
v 0.493399 -0.764497 -0.492377
v 0.486548 -0.768107 -0.492574
v 0.491192 -0.768107 -0.487930
v 0.490996 -0.766900 -0.492377
v 0.348856 0.741910 0.392856
v 0.339556 0.741910 0.402157
v 0.346021 0.751210 0.411457
v 0.358157 0.751210 0.397202
v 0.347476 0.741910 0.397421
v 0.350234 0.746472 0.394244
v 0.348776 0.746647 0.398820
v 0.341619 0.746469 0.403532
v 0.344121 0.741910 0.400777
v 0.345859 0.746644 0.401969
v 0.351943 0.751210 0.409369
v 0.343959 0.749834 0.406898
v 0.348462 0.749753 0.404812
v 0.353595 0.749832 0.395814
v 0.356336 0.751210 0.404234
v 0.351704 0.749752 0.401115
v 0.348856 0.741910 -0.389130
v 0.358157 0.751210 -0.393475
v 0.346021 0.751210 -0.407730
v 0.339556 0.741910 -0.398430
v 0.350234 0.746471 -0.390517
v 0.347476 0.741910 -0.393695
v 0.348776 0.746647 -0.395093
v 0.356336 0.751210 -0.400508
v 0.353595 0.749832 -0.392088
v 0.351704 0.749752 -0.397389
v 0.343959 0.749834 -0.403172
v 0.351943 0.751210 -0.405642
v 0.348462 0.749753 -0.401085
v 0.344121 0.741910 -0.397050
v 0.341619 0.746468 -0.399806
v 0.345859 0.746644 -0.398243
v -0.364648 0.751210 -0.393475
v -0.355348 0.741910 -0.389130
v -0.346048 0.741910 -0.398430
v -0.352513 0.751210 -0.407730
v -0.360087 0.749832 -0.392088
v -0.362827 0.751210 -0.400508
v -0.358195 0.749752 -0.397389
v -0.353968 0.741910 -0.393695
v -0.356726 0.746471 -0.390517
v -0.355268 0.746647 -0.395093
v -0.348110 0.746468 -0.399806
v -0.350613 0.741910 -0.397050
v -0.352350 0.746644 -0.398243
v -0.358434 0.751210 -0.405642
v -0.350450 0.749834 -0.403172
v -0.354954 0.749753 -0.401085
v 0.486548 0.741910 -0.497230
v 0.465340 0.751210 -0.487930
v 0.486548 0.751210 -0.479773
v 0.495848 0.741910 -0.487930
v 0.479811 0.746453 -0.495865
v 0.491113 0.741910 -0.495850
v 0.487374 0.746628 -0.494316
v 0.475946 0.751210 -0.486669
v 0.472077 0.749844 -0.492473
v 0.482390 0.749763 -0.491202
v 0.491104 0.749836 -0.482374
v 0.483651 0.751210 -0.483633
v 0.488650 0.749751 -0.487732
v 0.494468 0.741910 -0.492495
v 0.494474 0.746466 -0.485329
v 0.492279 0.746641 -0.490837
v 0.495848 0.741910 0.491658
v 0.486548 0.751210 0.483501
v 0.465340 0.751210 0.491658
v 0.486548 0.741910 0.500958
v 0.494474 0.746466 0.489057
v 0.494468 0.741910 0.496222
v 0.492279 0.746641 0.494565
v 0.483651 0.751210 0.487361
v 0.491104 0.749836 0.486101
v 0.488650 0.749751 0.491460
v 0.472077 0.749845 0.496201
v 0.475947 0.751210 0.490397
v 0.482390 0.749763 0.494930
v 0.491113 0.741910 0.499578
v 0.479811 0.746453 0.499592
v 0.487374 0.746628 0.498043
v -0.493040 0.741910 0.500958
v -0.471832 0.751210 0.491658
v -0.493040 0.751210 0.483501
v -0.502340 0.741910 0.491658
v -0.486303 0.746453 0.499592
v -0.497604 0.741910 0.499578
v -0.493866 0.746628 0.498043
v -0.482438 0.751210 0.490397
v -0.478568 0.749845 0.496201
v -0.488882 0.749763 0.494930
v -0.497596 0.749836 0.486101
v -0.490142 0.751210 0.487361
v -0.495141 0.749751 0.491460
v -0.500960 0.741910 0.496222
v -0.500966 0.746466 0.489057
v -0.498770 0.746641 0.494565
v -0.493040 0.751210 -0.479773
v -0.471832 0.751210 -0.487930
v -0.493040 0.741910 -0.497230
v -0.502340 0.741910 -0.487930
v -0.490142 0.751210 -0.483633
v -0.497596 0.749836 -0.482374
v -0.495141 0.749751 -0.487732
v -0.478568 0.749844 -0.492473
v -0.482438 0.751210 -0.486669
v -0.488882 0.749763 -0.491202
v -0.497604 0.741910 -0.495850
v -0.486303 0.746453 -0.495865
v -0.493866 0.746628 -0.494316
v -0.500966 0.746466 -0.485329
v -0.500960 0.741910 -0.492495
v -0.498770 0.746641 -0.490837
v 0.339556 0.678385 -0.398430
v 0.339556 0.669085 -0.389130
v 0.348856 0.678385 -0.389130
v 0.339556 0.673741 -0.397188
v 0.344200 0.678385 -0.397188
v 0.344004 0.673937 -0.395981
v 0.344200 0.670327 -0.389130
v 0.339556 0.670327 -0.393774
v 0.344004 0.671534 -0.393577
v 0.347614 0.678385 -0.393774
v 0.347614 0.673741 -0.389130
v 0.346407 0.673937 -0.393577
v 0.339556 0.678385 0.402157
v 0.348856 0.678385 0.392856
v 0.339556 0.669085 0.392856
v 0.344200 0.678385 0.400914
v 0.339556 0.673741 0.400914
v 0.344004 0.673937 0.399707
v 0.347614 0.673741 0.392856
v 0.347614 0.678385 0.397500
v 0.346407 0.673937 0.397304
v 0.339556 0.670327 0.397500
v 0.344200 0.670327 0.392856
v 0.344004 0.671534 0.397304
v -0.346048 0.678385 0.402157
v -0.346048 0.669085 0.392856
v -0.355348 0.678385 0.392856
v -0.346048 0.673741 0.400914
v -0.350692 0.678385 0.400914
v -0.350495 0.673937 0.399707
v -0.350692 0.670327 0.392856
v -0.346048 0.670327 0.397500
v -0.350495 0.671534 0.397304
v -0.354106 0.678385 0.397500
v -0.354106 0.673741 0.392856
v -0.352899 0.673937 0.397304
v -0.346048 0.669085 -0.389130
v -0.346048 0.678385 -0.398430
v -0.355348 0.678385 -0.389130
v -0.346048 0.670327 -0.393774
v -0.350692 0.670327 -0.389130
v -0.350495 0.671534 -0.393577
v -0.350692 0.678385 -0.397188
v -0.346048 0.673741 -0.397188
v -0.350495 0.673937 -0.395981
v -0.354106 0.673741 -0.389130
v -0.354106 0.678385 -0.393774
v -0.352899 0.673937 -0.393577
v 0.330613 0.615380 -0.012129
v 0.330613 0.620634 0.002759
v 0.308139 0.620634 -0.012129
v 0.330613 0.616919 -0.001601
v 0.317638 0.617601 -0.003533
v 0.314721 0.620634 -0.001601
v 0.314721 0.616919 -0.012129
v 0.330613 0.763153 0.002759
v 0.330613 0.768407 -0.012129
v 0.308139 0.763153 -0.012129
v 0.330613 0.766868 -0.001601
v 0.317638 0.766186 -0.003533
v 0.314721 0.766868 -0.012129
v 0.314721 0.763153 -0.001601
v 0.330613 0.615380 -0.437381
v 0.308139 0.620634 -0.437381
v 0.330613 0.620634 -0.454717
v 0.314721 0.616919 -0.437381
v 0.317638 0.617601 -0.447390
v 0.314721 0.620634 -0.449639
v 0.330613 0.616919 -0.449639
v 0.330613 0.768407 -0.437381
v 0.330613 0.763153 -0.454717
v 0.308139 0.763153 -0.437381
v 0.330613 0.766868 -0.449639
v 0.317638 0.766186 -0.447390
v 0.314721 0.763153 -0.449639
v 0.314721 0.766868 -0.437381
v 0.449430 0.615380 -0.012129
v 0.471904 0.620634 -0.012129
v 0.449430 0.620634 0.002759
v 0.465322 0.616919 -0.012129
v 0.462405 0.617601 -0.003533
v 0.465322 0.620634 -0.001601
v 0.449430 0.616919 -0.001601
v 0.449430 0.768407 -0.012129
v 0.449430 0.763153 0.002759
v 0.471904 0.763153 -0.012129
v 0.449430 0.766868 -0.001601
v 0.462405 0.766186 -0.003533
v 0.465322 0.763153 -0.001601
v 0.465322 0.766868 -0.012129
v 0.449430 0.615380 -0.437381
v 0.449430 0.620634 -0.454717
v 0.471904 0.620634 -0.437381
v 0.449430 0.616919 -0.449639
v 0.462405 0.617601 -0.447390
v 0.465322 0.620634 -0.449639
v 0.465322 0.616919 -0.437381
v 0.449430 0.768407 -0.437381
v 0.471904 0.763153 -0.437381
v 0.449430 0.763153 -0.454717
v 0.465322 0.766868 -0.437381
v 0.462405 0.766186 -0.447390
v 0.465322 0.763153 -0.449639
v 0.449430 0.766868 -0.449639
vn 0.1890 0.9818 -0.0172
vn 0.1896 0.9818 -0.0087
vn 0.1465 0.9891 -0.0157
vn 0.1444 0.9890 -0.0305
vn 0.1906 0.9817 -0.0038
vn 0.1502 0.9886 -0.0072
vn 0.0828 0.9964 -0.0201
vn 0.0789 0.9961 -0.0387
vn 0.0959 0.9953 -0.0097
vn 0.2020 0.9794 -0.0000
vn 0.2050 0.9788 -0.0000
vn 0.1860 0.9821 -0.0309
vn 0.2051 0.9787 -0.0000
vn 0.2053 0.9787 -0.0000
vn 0.2055 0.9787 -0.0000
vn 0.1917 0.9814 -0.0019
vn 0.1605 0.9870 -0.0038
vn 0.1233 0.9924 -0.0055
vn 0.0786 0.9969 -0.0068
vn 0.0610 0.9980 -0.0139
vn 0.0503 0.9984 -0.0254
vn 0.0440 0.9981 -0.0428
vn 0.0764 0.9947 -0.0687
vn 0.0400 0.9965 -0.0737
vn 0.1415 0.9884 -0.0544
vn -0.1684 0.9842 -0.0546
vn -0.1299 0.9888 -0.0732
vn -0.0980 0.9869 -0.1279
vn -0.1277 0.9872 -0.0957
vn -0.0706 0.9937 -0.0874
vn -0.0531 0.9869 -0.1522
vn -0.0525 0.9856 -0.1605
vn -0.0686 0.9903 -0.1206
vn -0.0283 0.9813 -0.1903
vn -0.2017 0.9794 -0.0000
vn -0.1832 0.9831 -0.0000
vn -0.1857 0.9819 -0.0366
vn -0.1415 0.9899 -0.0000
vn -0.0771 0.9970 -0.0000
vn 0.0073 1.0000 -0.0000
vn 0.0067 0.9957 -0.0922
vn 0.0050 0.9871 -0.1602
vn 0.0027 0.9798 -0.2001
vn 0.0014 0.9770 -0.2133
vn -0.0146 0.9791 -0.2029
vn -0.0271 0.9848 -0.1713
vn -0.0355 0.9910 -0.1288
vn -0.0763 0.9938 -0.0813
vn -0.0400 0.9954 -0.0871
vn -0.1413 0.9879 -0.0643
vn -0.0686 0.9903 0.1206
vn -0.0525 0.9856 0.1605
vn -0.0980 0.9869 0.1279
vn -0.1277 0.9872 0.0957
vn -0.0283 0.9813 0.1903
vn -0.0531 0.9869 0.1522
vn -0.1299 0.9888 0.0732
vn -0.1684 0.9842 0.0546
vn -0.0706 0.9937 0.0874
vn -0.0400 0.9954 0.0871
vn -0.0355 0.9910 0.1288
vn -0.0763 0.9938 0.0813
vn -0.0271 0.9848 0.1713
vn -0.0146 0.9791 0.2029
vn 0.0014 0.9770 0.2133
vn 0.0027 0.9798 0.2001
vn 0.0050 0.9871 0.1602
vn 0.0067 0.9957 0.0922
vn -0.1857 0.9819 0.0366
vn -0.1413 0.9879 0.0643
vn 0.0789 0.9961 0.0387
vn 0.0828 0.9964 0.0201
vn 0.1465 0.9891 0.0157
vn 0.1444 0.9890 0.0305
vn 0.0959 0.9953 0.0097
vn 0.1502 0.9886 0.0072
vn 0.1896 0.9818 0.0087
vn 0.1890 0.9818 0.0172
vn 0.1906 0.9817 0.0038
vn 0.0400 0.9965 0.0737
vn 0.0440 0.9981 0.0428
vn 0.0764 0.9947 0.0687
vn 0.0503 0.9984 0.0254
vn 0.0610 0.9980 0.0139
vn 0.0787 0.9969 0.0068
vn 0.1233 0.9924 0.0055
vn 0.1605 0.9870 0.0038
vn 0.1917 0.9814 0.0019
vn 0.1860 0.9821 0.0309
vn 0.1415 0.9884 0.0544
vn -0.0990 0.9950 0.0162
vn -0.0866 0.9958 0.0296
vn -0.1480 0.9887 0.0231
vn -0.1520 0.9883 0.0119
vn -0.0799 0.9955 0.0505
vn -0.1449 0.9887 0.0398
vn -0.1899 0.9817 0.0128
vn -0.1909 0.9816 0.0062
vn -0.1891 0.9817 0.0225
vn -0.0808 0.9967 0.0122
vn -0.0656 0.9976 0.0220
vn -0.1206 0.9926 0.0100
vn -0.0534 0.9979 0.0355
vn -0.0450 0.9975 0.0553
vn -0.2050 0.9788 -0.0000
vn -0.2052 0.9787 -0.0000
vn -0.2054 0.9787 -0.0000
vn -0.1916 0.9815 0.0035
vn -0.2055 0.9787 -0.0000
vn -0.1585 0.9873 0.0070
vn -0.1909 0.9816 -0.0062
vn -0.1899 0.9817 -0.0128
vn -0.1480 0.9887 -0.0231
vn -0.1520 0.9883 -0.0119
vn -0.1891 0.9817 -0.0225
vn -0.1449 0.9887 -0.0398
vn -0.0866 0.9958 -0.0296
vn -0.0990 0.9950 -0.0162
vn -0.0799 0.9955 -0.0505
vn -0.1916 0.9815 -0.0035
vn -0.0450 0.9975 -0.0553
vn -0.0534 0.9979 -0.0355
vn -0.0656 0.9976 -0.0220
vn -0.1206 0.9926 -0.0100
vn -0.0808 0.9967 -0.0122
vn -0.1585 0.9873 -0.0070
vn 0.0328 0.9820 0.1858
vn 0.0551 0.9868 0.1520
vn 0.1029 0.9873 0.1210
vn 0.0615 0.9870 0.1485
vn 0.0695 0.9916 0.1092
vn 0.1294 0.9878 0.0866
vn 0.1362 0.9883 0.0692
vn 0.0817 0.9930 0.0853
vn 0.1706 0.9841 0.0493
vn 0.0169 0.9800 0.1981
vn 0.0284 0.9863 0.1623
vn 0.0360 0.9925 0.1167
vn 0.1855 0.9826 -0.0000
vn 0.1483 0.9889 -0.0000
vn 0.0892 0.9960 -0.0000
vn 0.0817 0.9930 -0.0853
vn 0.1362 0.9883 -0.0692
vn 0.1029 0.9873 -0.1210
vn 0.0615 0.9870 -0.1485
vn 0.1706 0.9841 -0.0493
vn 0.1294 0.9878 -0.0866
vn 0.0551 0.9868 -0.1520
vn 0.0328 0.9820 -0.1858
vn 0.0695 0.9916 -0.1092
vn 0.0360 0.9925 -0.1167
vn 0.0284 0.9863 -0.1623
vn 0.0169 0.9800 -0.1981
vn -0.9825 -0.1297 0.1336
vn -0.9649 0.2020 0.1678
vn -0.9649 0.2020 -0.1678
vn -0.9825 -0.1296 -0.1336
vn -0.1336 -0.1297 -0.9825
vn -0.1525 0.2277 -0.9617
vn 0.1525 0.2277 -0.9617
vn 0.1336 -0.1297 -0.9825
vn -0.1296 -0.9831 -0.1296
vn 0.1296 -0.9831 -0.1296
vn 0.1296 -0.9831 0.1296
vn -0.1296 -0.9831 0.1296
vn -0.9779 0.1618 -0.1322
vn -0.9779 0.1618 0.1322
vn -0.9826 0.1294 0.1336
vn -0.9826 0.1294 -0.1336
vn 0.1302 0.1658 -0.9775
vn -0.1302 0.1658 -0.9775
vn -0.1336 0.1294 -0.9826
vn 0.1336 0.1294 -0.9826
vn 0.1273 0.9917 -0.0187
vn 0.1273 0.9917 0.0187
vn -0.1511 0.9879 -0.0342
vn -0.1511 0.9879 0.0342
vn 0.0240 0.9926 0.1188
vn -0.0240 0.9926 0.1188
vn 0.0040 0.9892 -0.1464
vn -0.0040 0.9892 -0.1464
vn 0.9825 -0.1296 -0.1336
vn 0.9649 0.2020 -0.1678
vn 0.9649 0.2020 0.1678
vn 0.9825 -0.1296 0.1336
vn -0.1302 0.1658 0.9775
vn 0.1302 0.1658 0.9775
vn 0.1336 0.1294 0.9826
vn -0.1336 0.1294 0.9826
vn 0.9779 0.1618 0.1322
vn 0.9779 0.1618 -0.1322
vn 0.9826 0.1294 -0.1336
vn 0.9826 0.1294 0.1336
vn -0.0240 0.9926 -0.1188
vn 0.0240 0.9926 -0.1188
vn -0.0040 0.9892 0.1464
vn 0.0040 0.9892 0.1464
vn -0.1296 0.9831 0.1296
vn 0.1296 0.9831 0.1296
vn 0.1296 0.9831 -0.1296
vn -0.1296 0.9831 -0.1296
vn -0.1273 0.9917 0.0187
vn -0.1273 0.9917 -0.0187
vn 0.1511 0.9879 0.0342
vn 0.1511 0.9879 -0.0342
vn -0.1336 -0.1297 0.9825
vn -0.4951 -0.1214 0.8603
vn -0.4474 -0.4473 0.7744
vn -0.1216 -0.4915 0.8623
vn -0.8603 -0.1214 0.4951
vn -0.7744 -0.4473 0.4474
vn -0.8623 -0.4915 0.1216
vn -0.4916 -0.8623 0.1216
vn -0.4474 -0.7744 0.4474
vn -0.1216 -0.8623 0.4915
vn -0.1216 -0.4915 -0.8623
vn -0.4473 -0.4473 -0.7744
vn -0.4951 -0.1214 -0.8603
vn -0.1216 -0.8623 -0.4916
vn -0.4473 -0.7744 -0.4474
vn -0.4915 -0.8623 -0.1216
vn -0.8623 -0.4915 -0.1216
vn -0.7744 -0.4473 -0.4474
vn -0.8603 -0.1214 -0.4951
vn 0.0968 0.9939 -0.0531
vn 0.3816 0.8980 -0.2191
vn 0.4659 0.8815 -0.0775
vn 0.0602 0.9945 -0.0859
vn 0.2493 0.9037 -0.3480
vn 0.0933 0.8906 -0.4452
vn 0.1482 0.5656 -0.8112
vn 0.4426 0.6188 -0.6490
vn 0.5006 0.2020 -0.8418
vn 0.8482 0.1949 -0.4926
vn 0.6838 0.6054 -0.4074
vn 0.8235 0.5512 -0.1343
vn 0.8603 -0.1214 0.4951
vn 0.7744 -0.4473 0.4474
vn 0.8623 -0.4915 0.1216
vn 0.4951 -0.1214 0.8603
vn 0.4474 -0.4473 0.7744
vn 0.1336 -0.1297 0.9825
vn 0.1216 -0.4915 0.8623
vn 0.1216 -0.8623 0.4915
vn 0.4474 -0.7744 0.4474
vn 0.4916 -0.8623 0.1216
vn 0.4951 -0.1214 -0.8603
vn 0.4473 -0.4474 -0.7744
vn 0.1216 -0.4915 -0.8623
vn 0.8603 -0.1214 -0.4951
vn 0.7744 -0.4473 -0.4473
vn 0.8623 -0.4915 -0.1216
vn 0.4915 -0.8623 -0.1216
vn 0.4473 -0.7744 -0.4474
vn 0.1216 -0.8623 -0.4916
vn -0.8482 0.1949 -0.4926
vn -0.6838 0.6054 -0.4074
vn -0.8235 0.5512 -0.1343
vn -0.5006 0.2020 -0.8418
vn -0.4426 0.6188 -0.6490
vn -0.1482 0.5656 -0.8112
vn -0.0933 0.8906 -0.4452
vn -0.2494 0.9037 -0.3480
vn -0.0602 0.9945 -0.0859
vn -0.0968 0.9939 -0.0531
vn -0.3816 0.8980 -0.2191
vn -0.4659 0.8815 -0.0775
vn -0.8235 0.5512 0.1343
vn -0.6838 0.6054 0.4074
vn -0.8482 0.1949 0.4926
vn -0.4659 0.8815 0.0774
vn -0.3816 0.8980 0.2191
vn -0.0967 0.9939 0.0531
vn -0.0602 0.9945 0.0859
vn -0.2493 0.9037 0.3480
vn -0.0933 0.8906 0.4452
vn -0.1482 0.5656 0.8113
vn -0.4426 0.6188 0.6490
vn -0.5006 0.2020 0.8418
vn 0.4659 0.8815 0.0775
vn 0.3816 0.8980 0.2191
vn 0.0967 0.9939 0.0531
vn 0.8235 0.5512 0.1343
vn 0.6838 0.6054 0.4074
vn 0.8482 0.1949 0.4926
vn 0.5006 0.2020 0.8418
vn 0.4426 0.6188 0.6490
vn 0.1482 0.5656 0.8113
vn 0.0933 0.8906 0.4452
vn 0.2493 0.9037 0.3480
vn 0.0602 0.9945 0.0859
vn 0.0611 0.5664 -0.8219
vn 0.2856 0.6800 -0.6753
vn 0.4835 0.2697 -0.8328
vn 0.0233 0.8682 -0.4957
vn 0.1235 0.9009 -0.4161
vn 0.0283 0.9913 -0.1286
vn 0.0834 0.9915 -0.0995
vn 0.3144 0.9081 -0.2766
vn 0.4811 0.8725 -0.0855
vn 0.8097 0.5717 -0.1323
vn 0.5931 0.6778 -0.4346
vn 0.8155 0.2599 -0.5171
vn 0.8097 0.5717 0.1323
vn 0.5931 0.6778 0.4346
vn 0.8155 0.2599 0.5171
vn 0.4811 0.8725 0.0855
vn 0.3145 0.9081 0.2766
vn 0.0834 0.9915 0.0995
vn 0.0283 0.9913 0.1286
vn 0.1235 0.9009 0.4161
vn 0.0233 0.8682 0.4957
vn 0.0611 0.5664 0.8219
vn 0.2856 0.6800 0.6753
vn 0.1525 0.2277 0.9617
vn 0.4835 0.2697 0.8328
vn -0.1525 0.2277 0.9617
vn -0.0611 0.5664 0.8219
vn -0.2856 0.6800 0.6753
vn -0.4835 0.2697 0.8328
vn -0.0233 0.8682 0.4957
vn -0.1235 0.9009 0.4161
vn -0.0283 0.9913 0.1286
vn -0.0834 0.9915 0.0995
vn -0.3145 0.9081 0.2766
vn -0.4811 0.8725 0.0855
vn -0.8097 0.5717 0.1323
vn -0.5931 0.6778 0.4346
vn -0.8155 0.2599 0.5171
vn -0.0834 0.9915 -0.0995
vn -0.3144 0.9081 -0.2766
vn -0.4811 0.8725 -0.0855
vn -0.0283 0.9913 -0.1286
vn -0.1235 0.9009 -0.4161
vn -0.0233 0.8682 -0.4957
vn -0.0611 0.5664 -0.8219
vn -0.2856 0.6800 -0.6753
vn -0.4835 0.2697 -0.8328
vn -0.8155 0.2599 -0.5171
vn -0.5931 0.6778 -0.4346
vn -0.8097 0.5717 -0.1323
vn -0.1216 0.4915 0.8623
vn -0.4473 0.4473 0.7744
vn -0.4952 0.1205 0.8604
vn -0.1216 0.8623 0.4915
vn -0.4473 0.7744 0.4474
vn -0.4915 0.8623 0.1216
vn -0.8623 0.4915 0.1216
vn -0.7744 0.4473 0.4474
vn -0.8604 0.1205 0.4952
vn -0.4952 0.1205 -0.8604
vn -0.4473 0.4473 -0.7744
vn -0.1216 0.4915 -0.8623
vn -0.8604 0.1205 -0.4952
vn -0.7744 0.4473 -0.4473
vn -0.8623 0.4915 -0.1216
vn -0.4915 0.8623 -0.1216
vn -0.4473 0.7744 -0.4473
vn -0.1216 0.8623 -0.4915
vn 0.1216 0.4915 -0.8623
vn 0.4473 0.4473 -0.7744
vn 0.4952 0.1205 -0.8604
vn 0.1216 0.8623 -0.4915
vn 0.4473 0.7744 -0.4473
vn 0.4915 0.8623 -0.1216
vn 0.8623 0.4915 -0.1216
vn 0.7744 0.4473 -0.4474
vn 0.8604 0.1205 -0.4952
vn 0.1216 0.8623 0.4915
vn 0.4473 0.7744 0.4474
vn 0.4915 0.8623 0.1216
vn 0.1216 0.4915 0.8623
vn 0.4473 0.4473 0.7744
vn 0.4952 0.1205 0.8604
vn 0.8604 0.1205 0.4952
vn 0.7744 0.4473 0.4474
vn 0.8623 0.4915 0.1216
vn 0.1163 -0.3923 0.9125
vn 0.1163 0.3922 0.9125
vn -0.1163 0.3922 0.9125
vn -0.1163 -0.3923 0.9125
vn 0.8638 -0.4602 -0.2051
vn 0.8638 0.4602 -0.2051
vn 0.8592 0.4560 0.2319
vn 0.8592 -0.4560 0.2319
vn 0.0453 0.9972 -0.0587
vn -0.0453 0.9972 -0.0587
vn -0.0453 0.9966 0.0682
vn 0.0453 0.9966 0.0682
vn -0.8592 -0.4560 0.2319
vn -0.8592 0.4560 0.2319
vn -0.8638 0.4602 -0.2051
vn -0.8638 -0.4602 -0.2051
vn -0.1324 -0.4220 -0.8969
vn -0.1324 0.4220 -0.8969
vn 0.1324 0.4220 -0.8969
vn 0.1324 -0.4220 -0.8969
vn -0.0453 -0.9966 0.0682
vn -0.0666 -0.8998 0.4312
vn -0.2572 -0.8801 0.3990
vn -0.3272 -0.9382 0.1128
vn -0.5590 -0.4104 0.7205
vn -0.0666 0.8998 0.4312
vn -0.2572 0.8801 0.3990
vn -0.5590 0.4104 0.7205
vn -0.3272 0.9382 0.1128
vn -0.0453 -0.9972 -0.0587
vn -0.3256 -0.9405 -0.0968
vn -0.2668 -0.8965 -0.3536
vn -0.0697 -0.9183 -0.3898
vn -0.5879 -0.4234 -0.6892
vn -0.0697 0.9183 -0.3898
vn -0.2669 0.8965 -0.3536
vn -0.3256 0.9405 -0.0968
vn -0.5880 0.4234 -0.6892
vn 0.0453 -0.9966 0.0682
vn 0.3272 -0.9382 0.1128
vn 0.2572 -0.8801 0.3990
vn 0.0666 -0.8998 0.4312
vn 0.5590 -0.4104 0.7205
vn 0.0666 0.8998 0.4312
vn 0.2572 0.8801 0.3990
vn 0.3272 0.9382 0.1128
vn 0.5590 0.4104 0.7205
vn 0.0453 -0.9972 -0.0587
vn 0.0697 -0.9183 -0.3898
vn 0.2668 -0.8965 -0.3536
vn 0.3256 -0.9405 -0.0968
vn 0.5879 -0.4234 -0.6892
vn 0.3256 0.9405 -0.0968
vn 0.2669 0.8965 -0.3536
vn 0.0697 0.9183 -0.3898
vn 0.5880 0.4234 -0.6892
vt 0.755064 0.877146
vt 0.750998 0.877172
vt 0.751014 0.860762
vt 0.755066 0.860559
vt 0.748689 0.877233
vt 0.748738 0.861252
vt 0.751051 0.844640
vt 0.755070 0.844009
vt 0.748862 0.846230
vt 0.761763 0.893754
vt 0.755064 0.893754
vt 0.761763 0.877142
vt 0.750996 0.893755
vt 0.748682 0.893755
vt 0.747246 0.893755
vt 0.747259 0.877316
vt 0.747353 0.861915
vt 0.747608 0.848591
vt 0.748092 0.838209
vt 0.749045 0.831979
vt 0.751103 0.828691
vt 0.755076 0.827480
vt 0.761761 0.843919
vt 0.761761 0.827307
vt 0.761762 0.860530
vt 0.853028 0.877141
vt 0.841067 0.877141
vt 0.841066 0.860529
vt 0.853027 0.860530
vt 0.827490 0.877140
vt 0.827489 0.860529
vt 0.841065 0.843918
vt 0.853026 0.843918
vt 0.827487 0.843918
vt 0.862700 0.893754
vt 0.853028 0.893753
vt 0.862700 0.877142
vt 0.841068 0.893753
vt 0.827491 0.893752
vt 0.812968 0.893752
vt 0.812967 0.877140
vt 0.812966 0.860529
vt 0.812964 0.843918
vt 0.812961 0.827307
vt 0.827485 0.827307
vt 0.841063 0.827307
vt 0.853024 0.827307
vt 0.862699 0.843919
vt 0.862698 0.827307
vt 0.862699 0.860530
vt 0.853026 0.943590
vt 0.841065 0.943590
vt 0.841066 0.926977
vt 0.853027 0.926978
vt 0.827487 0.943590
vt 0.827489 0.926977
vt 0.841067 0.910365
vt 0.853028 0.910365
vt 0.827490 0.910364
vt 0.862698 0.960203
vt 0.853024 0.960203
vt 0.862699 0.943590
vt 0.841063 0.960203
vt 0.827485 0.960203
vt 0.812961 0.960203
vt 0.812964 0.943590
vt 0.812966 0.926977
vt 0.812967 0.910364
vt 0.862700 0.910366
vt 0.862699 0.926978
vt 0.755070 0.943500
vt 0.751052 0.942869
vt 0.751014 0.926748
vt 0.755066 0.926950
vt 0.748862 0.941280
vt 0.748738 0.926258
vt 0.750998 0.910338
vt 0.755064 0.910363
vt 0.748689 0.910277
vt 0.761761 0.960203
vt 0.755076 0.960029
vt 0.761761 0.943590
vt 0.751103 0.958818
vt 0.749045 0.955530
vt 0.748092 0.949301
vt 0.747609 0.938918
vt 0.747353 0.925594
vt 0.747259 0.910194
vt 0.761763 0.910366
vt 0.761762 0.926978
vt 0.877297 0.941280
vt 0.874275 0.942869
vt 0.874346 0.926748
vt 0.877526 0.926258
vt 0.869635 0.943500
vt 0.869644 0.926949
vt 0.874375 0.910338
vt 0.877617 0.910276
vt 0.869648 0.910363
vt 0.878574 0.949301
vt 0.876958 0.955530
vt 0.879469 0.938918
vt 0.874179 0.958818
vt 0.869623 0.960029
vt 0.869649 0.893754
vt 0.874379 0.893754
vt 0.877630 0.893755
vt 0.880116 0.910194
vt 0.880141 0.893755
vt 0.879942 0.925594
vt 0.877617 0.877233
vt 0.874375 0.877171
vt 0.874346 0.860761
vt 0.877526 0.861252
vt 0.869648 0.877146
vt 0.869644 0.860559
vt 0.874275 0.844640
vt 0.877297 0.846230
vt 0.869635 0.844009
vt 0.880116 0.877316
vt 0.869623 0.827480
vt 0.874179 0.828691
vt 0.876958 0.831979
vt 0.879469 0.848591
vt 0.878574 0.838209
vt 0.879942 0.861915
vt 0.798211 0.943590
vt 0.784129 0.943590
vt 0.784131 0.926977
vt 0.798213 0.926977
vt 0.771664 0.943590
vt 0.771665 0.926978
vt 0.784132 0.910365
vt 0.798214 0.910364
vt 0.771666 0.910365
vt 0.798209 0.960203
vt 0.784128 0.960203
vt 0.771663 0.960203
vt 0.771666 0.893753
vt 0.784132 0.893753
vt 0.798215 0.893752
vt 0.798214 0.877140
vt 0.784132 0.877141
vt 0.784131 0.860529
vt 0.798213 0.860529
vt 0.771666 0.877142
vt 0.771665 0.860530
vt 0.784129 0.843918
vt 0.798211 0.843918
vt 0.771664 0.843919
vt 0.771663 0.827307
vt 0.784128 0.827307
vt 0.798209 0.827307
vt 0.598991 0.677205
vt 0.599003 0.453115
vt 0.746050 0.453076
vt 0.746038 0.677166
vt 0.449564 0.225235
vt 0.449564 0.001265
vt 0.596611 0.001265
vt 0.596611 0.225235
vt 0.447187 0.679691
vt 0.447187 0.826738
vt 0.300141 0.826738
vt 0.300141 0.679691
vt 0.909950 0.344660
vt 0.909950 0.227275
vt 0.919428 0.227278
vt 0.919428 0.344663
vt 0.906443 0.571804
vt 0.906443 0.674721
vt 0.896971 0.674721
vt 0.896971 0.571804
vt 0.128964 0.812648
vt 0.128964 0.693959
vt 0.148237 0.681005
vt 0.148237 0.825603
vt 0.127143 0.691819
vt 0.022285 0.691819
vt 0.004374 0.679780
vt 0.145054 0.679780
vt 0.747431 0.677166
vt 0.747419 0.453076
vt 0.894465 0.453115
vt 0.894477 0.677205
vt 0.930479 0.571623
vt 0.930479 0.674540
vt 0.921006 0.674540
vt 0.921006 0.571623
vt 0.907467 0.001369
vt 0.907467 0.118754
vt 0.897989 0.118757
vt 0.897989 0.001372
vt 0.022285 0.814788
vt 0.127143 0.814788
vt 0.145054 0.826827
vt 0.004374 0.826827
vt 0.000697 0.828716
vt 0.103614 0.828716
vt 0.103614 0.946101
vt 0.000697 0.946101
vt 0.020463 0.693959
vt 0.020463 0.812648
vt 0.001190 0.825603
vt 0.001190 0.681004
vt 0.596591 0.451144
vt 0.597288 0.451122
vt 0.597258 0.451765
vt 0.596591 0.451815
vt 0.597779 0.677129
vt 0.598293 0.677185
vt 0.598322 0.677829
vt 0.597960 0.677789
vt 0.598990 0.677878
vt 0.300139 0.678481
vt 0.300140 0.678994
vt 0.299472 0.679023
vt 0.299471 0.678662
vt 0.299443 0.679691
vt 0.298929 0.679691
vt 0.299110 0.679023
vt 0.449564 0.225906
vt 0.448896 0.225856
vt 0.448867 0.225213
vt 0.448395 0.679691
vt 0.447884 0.679691
vt 0.447854 0.679023
vt 0.448214 0.679023
vt 0.447187 0.678994
vt 0.447185 0.678481
vt 0.447853 0.678662
vt 0.746734 0.677145
vt 0.746704 0.677789
vt 0.746037 0.677839
vt 0.448354 0.225154
vt 0.448535 0.225814
vt 0.128691 0.813704
vt 0.127996 0.813236
vt 0.128280 0.812440
vt 0.128032 0.814475
vt 0.127509 0.813791
vt 0.126833 0.814104
vt 0.126482 0.813599
vt 0.127118 0.813364
vt 0.906420 0.571119
vt 0.907146 0.570858
vt 0.907147 0.571494
vt 0.907388 0.119941
vt 0.907444 0.119439
vt 0.908172 0.119649
vt 0.908123 0.120120
vt 0.908170 0.118963
vt 0.127775 0.812205
vt 0.127556 0.812891
vt 0.895175 0.677185
vt 0.895146 0.677829
vt 0.894478 0.677878
vt 0.895689 0.677129
vt 0.895508 0.677789
vt 0.449543 0.451144
vt 0.449543 0.451815
vt 0.448876 0.451765
vt 0.448846 0.451122
vt 0.298929 0.826738
vt 0.299443 0.826738
vt 0.299472 0.827406
vt 0.299110 0.827406
vt 0.300140 0.827435
vt 0.300139 0.827948
vt 0.299471 0.827766
vt 0.597308 0.225213
vt 0.597279 0.225856
vt 0.596611 0.225906
vt 0.597821 0.225154
vt 0.597640 0.225814
vt 0.747431 0.677839
vt 0.746764 0.677789
vt 0.746734 0.677145
vt 0.447185 0.827948
vt 0.447187 0.827435
vt 0.447854 0.827406
vt 0.447853 0.827766
vt 0.447884 0.826738
vt 0.448395 0.826738
vt 0.448214 0.827406
vt 0.909973 0.345344
vt 0.909245 0.345555
vt 0.909247 0.344868
vt 0.910029 0.345847
vt 0.909294 0.346026
vt 0.907147 0.675030
vt 0.907146 0.675667
vt 0.906420 0.675406
vt 0.022945 0.813599
vt 0.022594 0.814104
vt 0.021918 0.813791
vt 0.022309 0.813364
vt 0.021396 0.814475
vt 0.020737 0.813704
vt 0.021432 0.813236
vt 0.021148 0.812440
vt 0.021652 0.812205
vt 0.021871 0.812891
vt 0.909247 0.227067
vt 0.909245 0.226380
vt 0.909973 0.226589
vt 0.021652 0.694403
vt 0.021148 0.694167
vt 0.021432 0.693371
vt 0.021871 0.693716
vt 0.020737 0.692903
vt 0.021396 0.692132
vt 0.021918 0.692816
vt 0.022594 0.692503
vt 0.022945 0.693009
vt 0.022309 0.693243
vt 0.930456 0.570937
vt 0.931182 0.570677
vt 0.931183 0.571313
vt 0.910029 0.226084
vt 0.909294 0.225906
vt 0.128280 0.694167
vt 0.127996 0.693371
vt 0.128691 0.692903
vt 0.127775 0.694403
vt 0.127556 0.693716
vt 0.907444 0.000684
vt 0.908172 0.000474
vt 0.908170 0.001162
vt 0.907388 0.000179
vt 0.908123 -0.000000
vt 0.931183 0.674849
vt 0.931182 0.675486
vt 0.930456 0.675225
vt 0.126482 0.693009
vt 0.126833 0.692503
vt 0.127509 0.692817
vt 0.127118 0.693243
vt 0.128032 0.692132
vt 0.595600 0.000564
vt 0.596735 0.000511
vt 0.597296 0.001241
vt 0.002201 0.678589
vt 0.003362 0.679098
vt 0.001814 0.679289
vt 0.001066 0.678822
vt 0.002782 0.679969
vt 0.001625 0.680425
vt 0.000875 0.679810
vt 0.000506 0.680614
vt 0.000000 0.680171
vt 0.000330 0.679344
vt 0.746734 0.453053
vt 0.746984 0.452311
vt 0.747810 0.452373
vt 0.597800 0.001184
vt 0.597471 0.000449
vt 0.894076 0.452412
vt 0.894903 0.452350
vt 0.895151 0.453092
vt 0.000000 0.826437
vt 0.000506 0.825993
vt 0.000875 0.826798
vt 0.000330 0.827264
vt 0.001625 0.826182
vt 0.002782 0.826638
vt 0.001814 0.827319
vt 0.003362 0.827509
vt 0.002201 0.828019
vt 0.001066 0.827786
vt 0.449543 0.227171
vt 0.448858 0.227147
vt 0.449419 0.226417
vt 0.450555 0.226470
vt 0.448354 0.227089
vt 0.448683 0.226355
vt 0.596591 0.227171
vt 0.595579 0.226470
vt 0.596714 0.226417
vt 0.597276 0.227147
vt 0.147226 0.828019
vt 0.146065 0.827509
vt 0.147613 0.827319
vt 0.148361 0.827786
vt 0.146646 0.826638
vt 0.147803 0.826182
vt 0.148553 0.826798
vt 0.148921 0.825993
vt 0.149427 0.826437
vt 0.149097 0.827264
vt 0.598317 0.453092
vt 0.598565 0.452350
vt 0.599393 0.452412
vt 0.597779 0.227089
vt 0.597451 0.226355
vt 0.147803 0.680425
vt 0.148553 0.679810
vt 0.148921 0.680614
vt 0.146646 0.679969
vt 0.147613 0.679289
vt 0.146065 0.679098
vt 0.147226 0.678589
vt 0.148361 0.678822
vt 0.448879 0.001241
vt 0.449440 0.000511
vt 0.450575 0.000564
vt 0.448375 0.001184
vt 0.448704 0.000449
vt 0.745659 0.452373
vt 0.746484 0.452311
vt 0.746734 0.453053
vt 0.149427 0.680171
vt 0.149097 0.679344
vt 0.920293 0.571623
vt 0.920301 0.570955
vt 0.920985 0.570925
vt 0.919725 0.571623
vt 0.919901 0.570955
vt -0.000000 0.828716
vt 0.000030 0.828048
vt 0.000697 0.828019
vt 0.920707 0.227277
vt 0.920142 0.227278
vt 0.920132 0.226610
vt 0.920531 0.226609
vt 0.919449 0.226581
vt 0.919505 0.226067
vt 0.920172 0.226248
vt 0.920260 0.570594
vt 0.896949 0.675418
vt 0.896265 0.675388
vt 0.896257 0.674721
vt 0.896890 0.675930
vt 0.896224 0.675749
vt 0.920142 0.344662
vt 0.920132 0.345330
vt 0.919449 0.345359
vt 0.920707 0.344661
vt 0.920531 0.345329
vt 0.000697 0.946798
vt 0.000030 0.946768
vt -0.000000 0.946101
vt 0.895689 0.674721
vt 0.895865 0.675388
vt 0.896257 0.571804
vt 0.896265 0.571136
vt 0.896949 0.571107
vt 0.895689 0.571804
vt 0.895865 0.571136
vt 0.104311 0.946101
vt 0.104282 0.946768
vt 0.103614 0.946798
vt 0.896710 0.118755
vt 0.897275 0.118757
vt 0.897285 0.119424
vt 0.896886 0.119423
vt 0.897968 0.119454
vt 0.896890 0.570594
vt 0.896224 0.570775
vt 0.103614 0.828019
vt 0.104282 0.828048
vt 0.104311 0.828716
vt 0.919725 0.674540
vt 0.920293 0.674540
vt 0.920301 0.675207
vt 0.919901 0.675207
vt 0.920985 0.675237
vt 0.897912 0.000161
vt 0.897968 0.000675
vt 0.897285 0.000704
vt 0.897245 0.000342
vt 0.897275 0.001372
vt 0.896710 0.001371
vt 0.896886 0.000703
vt 0.920260 0.675568
vt 0.597812 0.453037
vt 0.599835 0.451854
vt 0.745214 0.451815
vt 0.895656 0.453037
vt 0.451716 0.225906
vt 0.594418 0.225906
vt 0.748255 0.451815
vt 0.893633 0.451854
vt 0.908727 0.000927
vt 0.908727 0.119200
vt 0.906362 0.570615
vt 0.451736 -0.000000
vt 0.594439 0.000000
vt 0.908690 0.345105
vt 0.908690 0.226833
vt 0.907707 0.571143
vt 0.907707 0.675382
vt 0.931743 0.570962
vt 0.931743 0.675200
vt 0.906362 0.675910
vt 0.815124 0.169646
vt 0.793872 0.169646
vt 0.793872 0.151810
vt 0.815124 0.151810
vt 0.771829 0.377179
vt 0.793092 0.377172
vt 0.793092 0.441007
vt 0.771829 0.441014
vt 0.750620 0.377937
vt 0.768456 0.377937
vt 0.768456 0.441772
vt 0.750620 0.441772
vt 0.793242 0.215104
vt 0.771979 0.215097
vt 0.771979 0.151262
vt 0.793242 0.151269
vt 0.814582 0.192253
vt 0.793330 0.192253
vt 0.793330 0.174417
vt 0.814582 0.174417
vt 0.768497 0.151662
vt 0.768497 0.150081
vt 0.770444 0.150371
vt 0.770882 0.151661
vt 0.768497 0.149425
vt 0.770882 0.150079
vt 0.771870 0.151660
vt 0.793243 0.151810
vt 0.793311 0.149862
vt 0.793797 0.149425
vt 0.770841 0.441772
vt 0.770403 0.443063
vt 0.768455 0.443353
vt 0.771829 0.441773
vt 0.770841 0.443353
vt 0.768497 0.215497
vt 0.770882 0.215496
vt 0.770444 0.216998
vt 0.768497 0.217336
vt 0.771870 0.215494
vt 0.770882 0.217335
vt 0.768497 0.218097
vt 0.768455 0.376097
vt 0.770403 0.376435
vt 0.770841 0.377937
vt 0.768455 0.375335
vt 0.770841 0.376097
vt 0.771829 0.377937
vt 0.750661 0.151662
vt 0.748275 0.151661
vt 0.748713 0.150371
vt 0.750661 0.150081
vt 0.747287 0.151660
vt 0.748275 0.150079
vt 0.750661 0.149425
vt 0.750620 0.443353
vt 0.748672 0.443063
vt 0.748234 0.441772
vt 0.793797 0.172032
vt 0.793311 0.171594
vt 0.793243 0.169646
vt 0.747246 0.441773
vt 0.748234 0.443353
vt 0.750661 0.215497
vt 0.750661 0.217336
vt 0.748713 0.216998
vt 0.748275 0.215496
vt 0.750661 0.218097
vt 0.748275 0.217335
vt 0.747287 0.215494
vt 0.748234 0.377937
vt 0.748672 0.376435
vt 0.750620 0.376097
vt 0.747246 0.377937
vt 0.748234 0.376097
vt 0.750619 0.375335
vt 0.815049 0.149425
vt 0.793134 0.216687
vt 0.771870 0.216680
vt 0.814495 0.194638
vt 0.793242 0.194638
vt 0.771870 0.149425
vt 0.793134 0.149431
vt 0.771938 0.375342
vt 0.793201 0.375335
vt 0.793242 0.172032
vt 0.814495 0.172032
vt 0.815049 0.172032
vt 0.793201 0.442590
vt 0.771938 0.442597
vt 0.768455 0.444008
vt 0.750619 0.444008
s 1
f 82/1/1 83/2/2 86/3/3 85/4/4
f 83/2/2 84/5/5 87/6/6 86/3/3
f 85/4/4 86/3/3 89/7/7 88/8/8
f 86/3/3 87/6/6 90/9/9 89/7/7
f 15/10/10 75/11/11 82/1/1 79/12/12
f 75/11/11 74/13/13 83/2/2 82/1/1
f 74/13/13 73/14/14 84/5/5 83/2/2
f 73/14/14 8/15/15 22/16/16 84/5/5
f 84/5/5 22/16/16 23/17/17 87/6/6
f 87/6/6 23/17/17 24/18/18 90/9/9
f 90/9/9 24/18/18 4/19/19 70/20/20
f 89/7/7 90/9/9 70/20/20 71/21/21
f 88/8/8 89/7/7 71/21/21 72/22/22
f 81/23/23 88/8/8 72/22/22 14/24/24
f 80/25/25 85/4/4 88/8/8 81/23/23
f 79/12/12 82/1/1 85/4/4 80/25/25
f 91/26/26 92/27/27 95/28/28 94/29/29
f 92/27/27 93/30/30 96/31/31 95/28/28
f 94/29/29 95/28/28 98/32/32 97/33/33
f 95/28/28 96/31/31 99/34/34 98/32/32
f 12/35/35 60/36/36 91/26/26 64/37/37
f 60/36/36 59/38/38 92/27/27 91/26/26
f 59/38/38 58/39/39 93/30/30 92/27/27
f 58/39/39 9/40/40 34/41/41 93/30/30
f 93/30/30 34/41/41 35/42/42 96/31/31
f 96/31/31 35/42/42 36/43/43 99/34/34
f 99/34/34 36/43/43 6/44/44 52/45/45
f 98/32/32 99/34/34 52/45/45 53/46/46
f 97/33/33 98/32/32 53/46/46 54/47/47
f 66/48/48 97/33/33 54/47/47 10/49/49
f 65/50/50 94/29/29 97/33/33 66/48/48
f 64/37/37 91/26/26 94/29/29 65/50/50
f 100/51/51 101/52/52 104/53/53 103/54/54
f 101/52/52 102/55/55 105/56/56 104/53/53
f 103/54/54 104/53/53 107/57/57 106/58/58
f 104/53/53 105/56/56 108/59/59 107/57/57
f 11/60/60 28/61/61 100/51/51 61/62/62
f 28/61/61 29/63/63 101/52/52 100/51/51
f 29/63/63 30/64/64 102/55/55 101/52/52
f 30/64/64 5/65/65 43/66/66 102/55/55
f 102/55/55 43/66/66 44/67/67 105/56/56
f 105/56/56 44/67/67 45/68/68 108/59/59
f 108/59/59 45/68/68 9/40/40 58/39/39
f 107/57/57 108/59/59 58/39/39 59/38/38
f 106/58/58 107/57/57 59/38/38 60/36/36
f 63/69/69 106/58/58 60/36/36 12/35/35
f 62/70/70 103/54/54 106/58/58 63/69/69
f 61/62/62 100/51/51 103/54/54 62/70/70
f 109/71/71 110/72/72 113/73/73 112/74/74
f 110/72/72 111/75/75 114/76/76 113/73/73
f 112/74/74 113/73/73 116/77/77 115/78/78
f 113/73/73 114/76/76 117/79/79 116/77/77
f 13/80/80 19/81/81 109/71/71 76/82/82
f 19/81/81 20/83/83 110/72/72 109/71/71
f 20/83/83 21/84/84 111/75/75 110/72/72
f 21/84/84 2/85/85 40/86/86 111/75/75
f 111/75/75 40/86/86 41/87/87 114/76/76
f 114/76/76 41/87/87 42/88/88 117/79/79
f 117/79/79 42/88/88 8/15/15 73/14/14
f 116/77/77 117/79/79 73/14/14 74/13/13
f 115/78/78 116/77/77 74/13/13 75/11/11
f 78/89/89 115/78/78 75/11/11 15/10/10
f 77/90/90 112/74/74 115/78/78 78/89/89
f 76/82/82 109/71/71 112/74/74 77/90/90
f 118/91/91 119/92/92 122/93/93 121/94/94
f 119/92/92 120/95/95 123/96/96 122/93/93
f 121/94/94 122/93/93 125/97/97 124/98/98
f 122/93/93 123/96/96 126/99/99 125/97/97
f 1/100/100 55/101/101 118/91/91 18/102/102
f 55/101/101 56/103/103 119/92/92 118/91/91
f 56/103/103 57/104/104 120/95/95 119/92/92
f 57/104/104 11/60/60 61/62/62 120/95/95
f 120/95/95 61/62/62 62/70/70 123/96/96
f 123/96/96 62/70/70 63/69/69 126/99/99
f 126/99/99 63/69/69 12/35/35 46/105/105
f 125/97/97 126/99/99 46/105/105 47/106/106
f 124/98/98 125/97/97 47/106/106 48/107/107
f 16/108/108 124/98/98 48/107/107 7/109/109
f 17/110/110 121/94/94 124/98/98 16/108/108
f 18/102/102 118/91/91 121/94/94 17/110/110
f 127/111/111 128/112/112 131/113/113 130/114/114
f 128/112/112 129/115/115 132/116/116 131/113/113
f 130/114/114 131/113/113 134/117/117 133/118/118
f 131/113/113 132/116/116 135/119/119 134/117/117
f 7/109/109 48/107/107 127/111/111 39/120/120
f 48/107/107 47/106/106 128/112/112 127/111/111
f 47/106/106 46/105/105 129/115/115 128/112/112
f 46/105/105 12/35/35 64/37/37 129/115/115
f 129/115/115 64/37/37 65/50/50 132/116/116
f 132/116/116 65/50/50 66/48/48 135/119/119
f 135/119/119 66/48/48 10/49/49 25/121/121
f 134/117/117 135/119/119 25/121/121 26/122/122
f 133/118/118 134/117/117 26/122/122 27/123/123
f 37/124/124 133/118/118 27/123/123 3/125/125
f 38/126/126 130/114/114 133/118/118 37/124/124
f 39/120/120 127/111/111 130/114/114 38/126/126
f 136/127/127 137/128/128 140/129/129 139/130/130
f 137/128/128 138/131/131 141/132/132 140/129/129
f 139/130/130 140/129/129 143/133/133 142/134/134
f 140/129/129 141/132/132 144/135/135 143/133/133
f 5/65/65 67/136/136 136/127/127 43/66/66
f 67/136/136 68/137/137 137/128/128 136/127/127
f 68/137/137 69/138/138 138/131/131 137/128/128
f 69/138/138 13/80/80 76/82/82 138/131/131
f 138/131/131 76/82/82 77/90/90 141/132/132
f 141/132/132 77/90/90 78/89/89 144/135/135
f 144/135/135 78/89/89 15/10/10 49/139/139
f 143/133/133 144/135/135 49/139/139 50/140/140
f 142/134/134 143/133/133 50/140/140 51/141/141
f 45/68/68 142/134/134 51/141/141 9/40/40
f 44/67/67 139/130/130 142/134/134 45/68/68
f 43/66/66 136/127/127 139/130/130 44/67/67
f 145/142/142 146/143/143 149/144/144 148/145/145
f 146/143/143 147/146/146 150/147/147 149/144/144
f 148/145/145 149/144/144 152/148/148 151/149/149
f 149/144/144 150/147/147 153/150/150 152/148/148
f 9/40/40 51/141/141 145/142/142 34/41/41
f 51/141/141 50/140/140 146/143/143 145/142/142
f 50/140/140 49/139/139 147/146/146 146/143/143
f 49/139/139 15/10/10 79/12/12 147/146/146
f 147/146/146 79/12/12 80/25/25 150/147/147
f 150/147/147 80/25/25 81/23/23 153/150/150
f 153/150/150 81/23/23 14/24/24 31/151/151
f 152/148/148 153/150/150 31/151/151 32/152/152
f 151/149/149 152/148/148 32/152/152 33/153/153
f 36/43/43 151/149/149 33/153/153 6/44/44
f 35/42/42 148/145/145 151/149/149 36/43/43
f 34/41/41 145/142/142 148/145/145 35/42/42
f 155/154/154 301/155/155 317/156/156 168/157/157
f 166/158/158 316/159/159 266/160/160 206/161/161
f 167/162/162 208/163/163 196/164/164 156/165/165
f 218/166/166 234/167/167 332/168/168 343/169/169
f 180/170/170 219/171/171 342/172/172 354/173/173
f 178/174/174 250/175/175 314/176/176 300/177/177
f 253/178/178 236/179/179 267/180/180 315/181/181
f 207/182/182 269/183/183 282/184/184 194/185/185
f 237/186/186 252/187/187 367/188/188 330/189/189
f 251/190/190 181/191/191 356/192/192 368/193/193
f 220/194/194 179/195/195 299/196/196 284/197/197
f 331/198/198 366/199/199 355/200/200 344/201/201
f 235/202/202 221/203/203 283/204/204 268/205/205
f 154/206/206 157/207/207 159/208/208 158/209/209
f 157/210/207 161/211/210 162/212/211 159/213/208
f 155/154/154 160/214/212 162/212/211 161/211/210
f 160/215/212 164/216/213 165/217/214 162/218/211
f 156/165/165 163/219/215 165/217/214 164/216/213
f 163/219/215 158/220/209 159/221/208 165/217/214
f 159/221/208 162/218/211 165/217/214
f 166/158/158 169/222/216 171/223/217 170/224/218
f 169/225/216 173/226/219 174/227/220 171/228/217
f 167/162/162 172/229/221 174/227/220 173/226/219
f 172/229/221 176/230/222 177/231/223 174/227/220
f 168/157/157 175/232/224 177/233/223 176/234/222
f 175/235/224 170/224/218 171/223/217 177/236/223
f 171/228/217 174/227/220 177/231/223
f 178/174/174 182/237/225 184/238/226 183/239/227
f 182/237/225 186/240/228 187/241/229 184/238/226
f 179/195/195 185/242/230 187/241/229 186/240/228
f 185/242/230 189/243/231 190/244/232 187/241/229
f 180/170/170 188/245/233 190/246/232 189/247/231
f 188/248/233 192/249/234 193/250/235 190/251/232
f 181/191/191 191/252/236 193/250/235 192/249/234
f 191/253/236 183/239/227 184/238/226 193/254/235
f 184/238/226 187/241/229 190/244/232 193/254/235
f 194/185/185 197/255/237 199/256/238 198/257/239
f 197/255/237 201/258/240 202/259/241 199/256/238
f 195/260/242 200/261/243 202/262/241 201/263/240
f 200/264/243 204/265/244 205/266/245 202/267/241
f 196/164/164 203/268/246 205/266/245 204/265/244
f 203/268/246 198/269/239 199/270/238 205/266/245
f 199/270/238 202/267/241 205/266/245
f 206/161/161 209/271/247 211/272/248 210/273/249
f 209/271/247 213/274/250 214/275/251 211/272/248
f 207/182/182 212/276/252 214/277/251 213/278/250
f 212/279/252 216/280/253 217/281/254 214/282/251
f 208/163/163 215/283/255 217/281/254 216/280/253
f 215/283/255 210/284/249 211/285/248 217/281/254
f 211/285/248 214/282/251 217/281/254
f 218/166/166 222/286/256 224/287/257 223/288/258
f 222/286/256 226/289/259 227/290/260 224/287/257
f 219/171/171 225/291/261 227/292/260 226/293/259
f 225/294/261 229/295/262 230/296/263 227/297/260
f 220/194/194 228/298/264 230/296/263 229/295/262
f 228/298/264 232/299/265 233/300/266 230/296/263
f 221/203/203 231/301/267 233/300/266 232/299/265
f 231/301/267 223/302/258 224/303/257 233/300/266
f 224/303/257 227/297/260 230/296/263 233/300/266
f 234/167/167 238/304/268 240/305/269 239/306/270
f 238/307/268 242/308/271 243/309/272 240/310/269
f 235/202/202 241/311/273 243/309/272 242/308/271
f 241/311/273 245/312/274 246/313/275 243/309/272
f 236/179/179 244/314/276 246/313/275 245/312/274
f 244/314/276 248/315/277 249/316/278 246/313/275
f 237/186/186 247/317/279 249/318/278 248/319/277
f 247/320/279 239/306/270 240/305/269 249/321/278
f 240/310/269 243/309/272 246/313/275 249/316/278
f 250/175/175 254/322/280 256/323/281 255/324/282
f 254/322/280 258/325/283 259/326/284 256/323/281
f 251/190/190 257/327/285 259/328/284 258/329/283
f 257/327/285 261/330/286 262/331/287 259/328/284
f 252/187/187 260/332/288 262/333/287 261/334/286
f 260/335/288 264/336/289 265/337/290 262/338/287
f 253/178/178 263/339/291 265/337/290 264/336/289
f 263/339/291 255/324/282 256/323/281 265/337/290
f 256/323/281 259/326/284 262/338/287 265/337/290
f 266/160/160 270/340/292 272/341/293 271/342/294
f 270/343/292 274/344/295 275/345/296 272/346/293
f 267/180/180 273/347/297 275/345/296 274/344/295
f 273/347/297 277/348/298 278/349/299 275/345/296
f 268/205/205 276/350/300 278/349/299 277/348/298
f 276/350/300 280/351/301 281/352/302 278/349/299
f 269/183/183 279/353/303 281/354/302 280/355/301
f 279/356/303 271/342/294 272/341/293 281/357/302
f 272/346/293 275/345/296 278/349/299 281/352/302
f 282/184/184 286/358/304 288/359/305 287/360/306
f 286/361/304 290/362/307 291/363/308 288/364/305
f 283/204/204 289/365/309 291/363/308 290/362/307
f 289/365/309 293/366/310 294/367/311 291/363/308
f 284/197/197 292/368/312 294/367/311 293/366/310
f 292/368/312 296/369/313 297/370/314 294/367/311
f 285/371/315 295/372/316 297/373/314 296/374/313
f 295/372/316 287/375/306 288/376/305 297/373/314
f 288/364/305 291/363/308 294/367/311 297/370/314
f 298/377/317 302/378/318 304/379/319 303/380/320
f 302/381/318 306/382/321 307/383/322 304/384/319
f 299/196/196 305/385/323 307/383/322 306/382/321
f 305/385/323 309/386/324 310/387/325 307/383/322
f 300/177/177 308/388/326 310/387/325 309/386/324
f 308/388/326 312/389/327 313/390/328 310/387/325
f 301/155/155 311/391/329 313/392/328 312/393/327
f 311/394/329 303/380/320 304/379/319 313/395/328
f 304/384/319 307/383/322 310/387/325 313/390/328
f 314/176/176 318/396/330 320/397/331 319/398/332
f 318/396/330 322/399/333 323/400/334 320/397/331
f 315/181/181 321/401/335 323/400/334 322/399/333
f 321/401/335 325/402/336 326/403/337 323/400/334
f 316/159/159 324/404/338 326/405/337 325/406/336
f 324/404/338 328/407/339 329/408/340 326/405/337
f 317/156/156 327/409/341 329/410/340 328/411/339
f 327/412/341 319/398/332 320/397/331 329/413/340
f 320/397/331 323/400/334 326/403/337 329/413/340
f 330/189/189 333/414/342 335/415/343 334/416/344
f 333/414/342 337/417/345 338/418/346 335/415/343
f 331/198/198 336/419/347 338/420/346 337/421/345
f 336/422/347 340/423/348 341/424/349 338/425/346
f 332/168/168 339/426/350 341/424/349 340/423/348
f 339/426/350 334/427/344 335/428/343 341/424/349
f 335/415/343 338/418/346 341/429/349
f 342/172/172 345/430/351 347/431/352 346/432/353
f 345/430/351 349/433/354 350/434/355 347/431/352
f 343/169/169 348/435/356 350/436/355 349/437/354
f 348/435/356 352/438/357 353/439/358 350/436/355
f 344/201/201 351/440/359 353/441/358 352/442/357
f 351/443/359 346/432/353 347/431/352 353/444/358
f 347/431/352 350/434/355 353/444/358
f 354/173/173 357/445/360 359/446/361 358/447/362
f 357/445/360 361/448/363 362/449/364 359/446/361
f 355/200/200 360/450/365 362/451/364 361/452/363
f 360/453/365 364/454/366 365/455/367 362/456/364
f 356/192/192 363/457/368 365/455/367 364/454/366
f 363/458/368 358/447/362 359/446/361 365/459/367
f 359/446/361 362/449/364 365/459/367
f 366/199/199 369/460/369 371/461/370 370/462/371
f 369/463/369 373/464/372 374/465/373 371/466/370
f 367/188/188 372/467/374 374/465/373 373/464/372
f 372/468/374 376/469/375 377/470/376 374/471/373
f 368/193/193 375/472/377 377/470/376 376/469/375
f 375/472/377 370/473/371 371/474/370 377/470/376
f 371/466/370 374/465/373 377/475/376
f 166/158/158 206/161/161 210/273/249 169/222/216
f 169/225/216 210/284/249 215/283/255 173/226/219
f 173/226/219 215/283/255 208/163/163 167/162/162
f 207/182/182 194/185/185 198/257/239 212/276/252
f 212/279/252 198/269/239 203/268/246 216/280/253
f 216/280/253 203/268/246 196/164/164 208/163/163
f 195/260/242 154/206/206 158/209/209 200/261/243
f 200/264/243 158/220/209 163/219/215 204/265/244
f 204/265/244 163/219/215 156/165/165 196/164/164
f 155/154/154 168/157/157 176/234/222 160/214/212
f 160/215/212 176/230/222 172/229/221 164/216/213
f 164/216/213 172/229/221 167/162/162 156/165/165
f 154/206/206 298/377/317 303/380/320 157/207/207
f 157/210/207 303/476/320 311/391/329 161/211/210
f 161/211/210 311/391/329 301/155/155 155/154/154
f 300/177/177 314/176/176 319/398/332 308/388/326
f 308/477/326 319/478/332 327/409/341 312/393/327
f 312/393/327 327/409/341 317/156/156 301/155/155
f 316/159/159 166/158/158 170/224/218 324/404/338
f 324/404/338 170/224/218 175/235/224 328/407/339
f 328/411/339 175/232/224 168/157/157 317/156/156
f 194/185/185 282/184/184 287/360/306 197/255/237
f 197/255/237 287/360/306 295/479/316 201/258/240
f 201/263/240 295/372/316 285/371/315 195/260/242
f 284/197/197 299/196/196 306/382/321 292/368/312
f 292/480/312 306/481/321 302/378/318 296/374/313
f 296/374/313 302/378/318 298/377/317 285/371/315
f 206/161/161 266/160/160 271/342/294 209/271/247
f 209/271/247 271/342/294 279/356/303 213/274/250
f 213/278/250 279/353/303 269/183/183 207/182/182
f 268/205/205 283/204/204 290/362/307 276/350/300
f 276/482/300 290/483/307 286/358/304 280/355/301
f 280/355/301 286/358/304 282/184/184 269/183/183
f 250/175/175 178/174/174 183/239/227 254/322/280
f 254/484/280 183/485/227 191/252/236 258/329/283
f 258/329/283 191/252/236 181/191/191 251/190/190
f 180/170/170 354/173/173 358/447/362 188/245/233
f 188/245/233 358/447/362 363/458/368 192/486/234
f 192/249/234 363/457/368 356/192/192 181/191/191
f 355/200/200 366/199/199 370/462/371 360/450/365
f 360/453/365 370/473/371 375/472/377 364/454/366
f 364/454/366 375/472/377 368/193/193 356/192/192
f 367/188/188 252/187/187 261/334/286 372/467/374
f 372/468/374 261/330/286 257/327/285 376/469/375
f 376/469/375 257/327/285 251/190/190 368/193/193
f 315/181/181 267/180/180 274/344/295 321/401/335
f 321/487/335 274/488/295 270/340/292 325/406/336
f 325/406/336 270/340/292 266/160/160 316/159/159
f 234/167/167 218/166/166 223/288/258 238/304/268
f 238/304/268 223/288/258 231/489/267 242/490/271
f 242/308/271 231/301/267 221/203/203 235/202/202
f 220/194/194 284/197/197 293/366/310 228/298/264
f 228/298/264 293/366/310 289/365/309 232/299/265
f 232/299/265 289/365/309 283/204/204 221/203/203
f 267/180/180 236/179/179 245/312/274 273/347/297
f 273/347/297 245/312/274 241/311/273 277/348/298
f 277/348/298 241/311/273 235/202/202 268/205/205
f 219/171/171 180/170/170 189/247/231 225/291/261
f 225/291/261 189/247/231 185/491/230 229/492/262
f 229/295/262 185/242/230 179/195/195 220/194/194
f 178/174/174 300/177/177 309/386/324 182/237/225
f 182/237/225 309/386/324 305/385/323 186/240/228
f 186/240/228 305/385/323 299/196/196 179/195/195
f 252/187/187 237/186/186 248/319/277 260/332/288
f 260/332/288 248/319/277 244/493/276 264/494/289
f 264/336/289 244/314/276 236/179/179 253/178/178
f 314/176/176 250/175/175 255/324/282 318/396/330
f 318/396/330 255/324/282 263/339/291 322/399/333
f 322/399/333 263/339/291 253/178/178 315/181/181
f 330/189/189 367/188/188 373/464/372 333/414/342
f 333/414/342 373/464/372 369/463/369 337/417/345
f 337/421/345 369/460/369 366/199/199 331/198/198
f 354/173/173 342/172/172 346/432/353 357/445/360
f 357/445/360 346/432/353 351/443/359 361/448/363
f 361/452/363 351/440/359 344/201/201 355/200/200
f 343/169/169 332/168/168 340/423/348 348/435/356
f 348/435/356 340/423/348 336/422/347 352/438/357
f 352/442/357 336/419/347 331/198/198 344/201/201
f 218/166/166 343/169/169 349/437/354 222/286/256
f 222/495/256 349/433/354 345/430/351 226/293/259
f 226/293/259 345/430/351 342/172/172 219/171/171
f 332/168/168 234/167/167 239/306/270 339/426/350
f 339/426/350 239/306/270 247/320/279 334/427/344
f 334/416/344 247/317/279 237/186/186 330/189/189
f 195/260/242 285/371/315 298/377/317 154/206/206
f 408/496/378 414/497/379 385/498/380 379/499/381
f 422/500/382 428/501/383 415/502/384 407/503/385
f 427/504/386 399/505/387 386/506/388 413/507/389
f 380/508/390 387/509/391 401/510/392 393/511/393
f 394/512/394 400/513/395 429/514/396 421/515/397
f 378/516/398 381/517/399 382/518/400 384/519/401
f 379/520/381 383/521/402 382/518/400 381/517/399
f 380/522/390 384/519/401 382/518/400 383/521/402
f 385/498/380 388/523/403 389/524/404 391/525/405
f 386/506/388 390/526/406 389/527/404 388/528/403
f 387/529/391 391/530/405 389/527/404 390/526/406
f 392/531/407 395/532/408 396/533/409 398/534/410
f 393/535/393 397/536/411 396/533/409 395/532/408
f 394/537/394 398/534/410 396/533/409 397/536/411
f 399/505/387 402/538/412 403/539/413 405/540/414
f 400/541/395 404/542/415 403/539/413 402/538/412
f 401/543/392 405/540/414 403/539/413 404/542/415
f 406/544/416 409/545/417 410/546/418 412/547/419
f 407/548/385 411/549/420 410/546/418 409/545/417
f 408/550/378 412/547/419 410/546/418 411/549/420
f 413/507/389 416/551/421 417/552/422 419/553/423
f 414/497/379 418/554/424 417/555/422 416/556/421
f 415/557/384 419/553/423 417/552/422 418/558/424
f 420/559/425 423/560/426 424/561/427 426/562/428
f 421/563/397 425/564/429 424/561/427 423/560/426
f 422/565/382 426/562/428 424/561/427 425/564/429
f 427/504/386 430/566/430 431/567/431 433/568/432
f 428/569/383 432/570/433 431/567/431 430/566/430
f 429/571/396 433/568/432 431/567/431 432/570/433
f 392/531/407 378/516/398 384/519/401 395/532/408
f 395/532/408 384/519/401 380/522/390 393/535/393
f 379/499/381 385/498/380 391/525/405 383/572/402
f 383/573/402 391/574/405 387/509/391 380/508/390
f 386/506/388 399/505/387 405/540/414 390/526/406
f 390/526/406 405/540/414 401/543/392 387/529/391
f 400/513/395 394/512/394 397/575/411 404/576/415
f 404/577/415 397/578/411 393/511/393 401/510/392
f 420/559/425 392/531/407 398/534/410 423/560/426
f 423/560/426 398/534/410 394/537/394 421/563/397
f 399/505/387 427/504/386 433/568/432 402/538/412
f 402/538/412 433/568/432 429/571/396 400/541/395
f 428/501/383 422/500/382 425/579/429 432/580/433
f 432/581/433 425/582/429 421/515/397 429/514/396
f 406/544/416 420/559/425 426/562/428 409/545/417
f 409/545/417 426/562/428 422/565/382 407/548/385
f 427/504/386 413/507/389 419/553/423 430/566/430
f 430/566/430 419/553/423 415/557/384 428/569/383
f 414/497/379 408/496/378 411/583/420 418/554/424
f 418/584/424 411/585/420 407/503/385 415/502/384
f 378/516/398 406/544/416 412/547/419 381/517/399
f 381/517/399 412/547/419 408/550/378 379/520/381
f 413/507/389 386/506/388 388/528/403 416/551/421
f 416/551/421 388/528/403 385/586/380 414/587/379
f 392/531/407 420/559/425 406/544/416 378/516/398
