# Blender 4.4.3
# www.blender.org
mtllib 222.mtl
o Plane.048
v -0.318550 0.738267 -0.022199
v -0.261218 0.005048 -0.186710
v -0.096380 0.738267 -0.659709
v -0.153711 0.005048 -0.495197
v -0.265206 1.008597 -0.175268
v -0.149724 1.008597 -0.506639
v -0.283491 1.270509 -0.122798
v -0.131438 1.270509 -0.559109
v -0.230360 0.738267 -0.275257
v -0.230360 0.005048 -0.275257
v -0.230360 1.008597 -0.275257
v -0.230360 1.414253 -0.275257
v -0.184519 0.005048 -0.406794
v -0.184520 0.738267 -0.406794
v -0.184520 1.008597 -0.406794
v -0.184520 1.410636 -0.406794
v 0.307597 0.722031 0.318517
v 0.307597 -0.011189 0.144302
v 0.307597 0.722031 -0.356597
v 0.307597 -0.011189 -0.182382
v 0.307597 0.992361 0.156418
v 0.307597 0.992361 -0.194499
v 0.307597 1.254273 0.211984
v 0.307597 1.254273 -0.250064
v 0.307597 0.722031 0.050532
v 0.307597 -0.011189 0.050532
v 0.307597 0.992361 0.050532
v 0.307597 1.398017 0.050532
v 0.307597 -0.011189 -0.088765
v 0.307597 0.722031 -0.088765
v 0.307597 0.992361 -0.088765
v 0.307597 1.394400 -0.088765
v -0.234378 0.722031 0.669829
v -0.165107 -0.011189 0.509977
v 0.034058 0.722031 0.050377
v -0.035213 -0.011189 0.210228
v -0.169925 0.992361 0.521095
v -0.030395 0.992361 0.199111
v -0.192019 1.254273 0.572079
v -0.008301 1.254273 0.148126
v -0.127823 0.722031 0.423939
v -0.127823 -0.011189 0.423939
v -0.127823 0.992361 0.423939
v -0.127823 1.398017 0.423939
v -0.072436 -0.011189 0.296127
v -0.072437 0.722031 0.296127
v -0.072437 0.992361 0.296127
v -0.072437 1.394400 0.296127
vn 0.9443 -0.0000 0.3291
vn 1.0000 -0.0000 -0.0000
vn 0.9176 -0.0000 0.3976
vt 0.000000 0.750000
vt 1.000000 0.750000
vt 1.000000 1.000000
vt 0.000000 1.000000
vt 0.000000 0.000000
vt 0.000000 0.500000
vt 1.000000 0.000000
vt 1.000000 0.500000
s 1
f 14/1/1 13/2/1 4/3/1 3/4/1
f 14/1/1 3/4/1 6/4/1 15/1/1
f 15/1/1 6/4/1 8/4/1 16/1/1
f 5/5/1 11/6/1 12/6/1 7/5/1
f 1/5/1 9/6/1 11/6/1 5/5/1
f 1/5/1 2/7/1 10/8/1 9/6/1
f 11/6/1 15/1/1 16/1/1 12/6/1
f 9/6/1 14/1/1 15/1/1 11/6/1
f 9/6/1 10/8/1 13/2/1 14/1/1
f 30/1/2 29/2/2 20/3/2 19/4/2
f 30/1/2 19/4/2 22/4/2 31/1/2
f 31/1/2 22/4/2 24/4/2 32/1/2
f 21/5/2 27/6/2 28/6/2 23/5/2
f 17/5/2 25/6/2 27/6/2 21/5/2
f 17/5/2 18/7/2 26/8/2 25/6/2
f 27/6/2 31/1/2 32/1/2 28/6/2
f 25/6/2 30/1/2 31/1/2 27/6/2
f 25/6/2 26/8/2 29/2/2 30/1/2
f 46/1/3 45/2/3 36/3/3 35/4/3
f 46/1/3 35/4/3 38/4/3 47/1/3
f 47/1/3 38/4/3 40/4/3 48/1/3
f 37/5/3 43/6/3 44/6/3 39/5/3
f 33/5/3 41/6/3 43/6/3 37/5/3
f 33/5/3 34/7/3 42/8/3 41/6/3
f 43/6/3 47/1/3 48/1/3 44/6/3
f 41/6/3 46/1/3 47/1/3 43/6/3
f 41/6/3 42/8/3 45/2/3 46/1/3
