# Blender 4.4.3
# www.blender.org
mtllib 1.mtl
o Cylinder.026
v 0.000000 0.821124 -0.629937
v 0.000000 0.965555 -0.629937
v 0.241066 0.821124 -0.581986
v 0.241066 0.965555 -0.581986
v 0.445432 0.821124 -0.445432
v 0.445432 0.965555 -0.445432
v 0.581986 0.821124 -0.241066
v 0.581986 0.965555 -0.241066
v 0.629937 0.821124 0.000000
v 0.629937 0.965555 0.000000
v 0.581986 0.821124 0.241066
v 0.581986 0.965555 0.241066
v 0.445432 0.821124 0.445432
v 0.445432 0.965555 0.445432
v 0.241066 0.821124 0.581986
v 0.241066 0.965555 0.581986
v 0.000000 0.821124 0.629937
v 0.000000 0.965555 0.629937
v -0.241066 0.821124 0.581986
v -0.241066 0.965555 0.581986
v -0.445432 0.821124 0.445432
v -0.445432 0.965555 0.445432
v -0.581986 0.821124 0.241066
v -0.581986 0.965555 0.241066
v -0.629937 0.821124 0.000000
v -0.629937 0.965555 0.000000
v -0.581986 0.821124 -0.241066
v -0.581986 0.965555 -0.241066
v -0.445432 0.821124 -0.445432
v -0.445432 0.965555 -0.445432
v -0.241066 0.821124 -0.581986
v -0.241066 0.965555 -0.581986
vn -0.0000 -0.0000 -1.0000
vn 0.3827 -0.0000 -0.9239
vn 0.7071 -0.0000 -0.7071
vn 0.9239 -0.0000 -0.3827
vn 1.0000 -0.0000 -0.0000
vn 0.9239 -0.0000 0.3827
vn 0.7071 -0.0000 0.7071
vn 0.3827 -0.0000 0.9239
vn -0.0000 -0.0000 1.0000
vn -0.3827 -0.0000 0.9239
vn -0.7071 -0.0000 0.7071
vn -0.9239 -0.0000 0.3827
vn -1.0000 -0.0000 -0.0000
vn -0.9239 -0.0000 -0.3827
vn -0.7071 -0.0000 -0.7071
vn -0.0000 1.0000 -0.0000
vn -0.3827 -0.0000 -0.9239
vn -0.0000 -1.0000 -0.0000
vt 0.359927 0.982641
vt 0.338778 0.982641
vt 0.338778 0.949391
vt 0.359927 0.949391
vt 0.338778 0.913400
vt 0.359927 0.913400
vt 0.338778 0.880149
vt 0.359927 0.880149
vt 0.338778 0.854700
vt 0.359927 0.854700
vt 0.381076 0.982641
vt 0.359927 0.982641
vt 0.359927 0.949391
vt 0.381076 0.949391
vt 0.359927 0.913400
vt 0.381076 0.913400
vt 0.359927 0.880149
vt 0.381076 0.880149
vt 0.359927 0.854700
vt 0.381076 0.854700
vt 0.402225 0.982641
vt 0.381076 0.982641
vt 0.381076 0.957192
vt 0.402225 0.957192
vt 0.381076 0.923942
vt 0.402225 0.923942
vt 0.381076 0.887951
vt 0.402225 0.887951
vt 0.381076 0.854700
vt 0.402225 0.854700
vt 0.998294 0.979944
vt 0.977145 0.979944
vt 0.977145 0.954495
vt 0.998294 0.954495
vt 0.977145 0.921244
vt 0.998294 0.921244
vt 0.615125 0.141714
vt 0.601352 0.108463
vt 0.601352 0.072473
vt 0.615125 0.039222
vt 0.640574 0.013773
vt 0.673825 0.000000
vt 0.709815 0.000000
vt 0.743066 0.013773
vt 0.768515 0.039222
vt 0.782288 0.072473
vt 0.782288 0.108463
vt 0.768515 0.141714
vt 0.743066 0.167163
vt 0.709815 0.180936
vt 0.673825 0.180936
vt 0.640574 0.167163
vt 0.977145 0.885254
vt 0.998294 0.885254
vt 0.977145 0.852003
vt 0.998294 0.852003
vt 0.601352 0.289399
vt 0.601352 0.253409
vt 0.615125 0.220158
vt 0.640574 0.194709
vt 0.743066 0.194709
vt 0.768515 0.220158
vt 0.782288 0.253409
vt 0.782288 0.289399
vt 0.768515 0.322650
vt 0.743066 0.348099
vt 0.709815 0.361872
vt 0.673825 0.361872
vt 0.640574 0.348099
vt 0.615125 0.322650
s 1
f 1/1/1 2/2/1 4/3/2 3/4/2
f 3/4/2 4/3/2 6/5/3 5/6/3
f 5/6/3 6/5/3 8/7/4 7/8/4
f 7/8/4 8/7/4 10/9/5 9/10/5
f 9/11/5 10/12/5 12/13/6 11/14/6
f 11/14/6 12/13/6 14/15/7 13/16/7
f 13/16/7 14/15/7 16/17/8 15/18/8
f 15/18/8 16/17/8 18/19/9 17/20/9
f 17/21/9 18/22/9 20/23/10 19/24/10
f 19/24/10 20/23/10 22/25/11 21/26/11
f 21/26/11 22/25/11 24/27/12 23/28/12
f 23/28/12 24/27/12 26/29/13 25/30/13
f 25/31/13 26/32/13 28/33/14 27/34/14
f 27/34/14 28/33/14 30/35/15 29/36/15
f 4/37/16 2/38/16 32/39/16 30/40/16 28/41/16 26/42/16 24/43/16 22/44/16 20/45/16 18/46/16 16/47/16 14/48/16 12/49/16 10/50/16 8/51/16 6/52/16
f 29/36/15 30/35/15 32/53/17 31/54/17
f 31/54/17 32/53/17 2/55/1 1/56/1
f 1/57/18 3/58/18 5/59/18 7/60/18 9/51/18 11/50/18 13/61/18 15/62/18 17/63/18 19/64/18 21/65/18 23/66/18 25/67/18 27/68/18 29/69/18 31/70/18
