# Blender 4.4.3
# www.blender.org
mtllib 2.mtl
o Cube.197
v -1.304232 1.826846 0.642758
v 0.019714 1.826846 1.065204
v -1.304232 2.633367 0.642758
v 0.019714 2.633367 1.065204
v -1.157433 1.747702 0.689599
v -1.157433 2.712511 0.689599
v -0.113972 1.747702 1.022548
v -0.113972 2.712511 1.022548
v -1.315100 2.230107 0.639290
v 0.027367 2.230107 1.067646
v -1.166194 2.230107 0.717057
v -0.122733 2.230107 1.050005
v -0.634069 2.712511 0.856594
v -0.634069 1.747702 0.856594
v -0.669114 2.230107 0.966425
v -1.314927 2.110762 0.639346
v -1.313720 1.998954 0.639731
v -1.310442 1.902222 0.640777
v -0.047688 1.748958 1.043697
v -0.008766 1.757752 1.056117
v 0.010945 1.781621 1.062406
v 0.027245 2.349452 1.067607
v 0.026395 2.461259 1.067336
v 0.024087 2.557991 1.066600
v -1.226675 2.711255 0.667505
v -1.269170 2.702461 0.653946
v -1.292453 2.678592 0.646517
v -1.292453 1.781621 0.646517
v -1.269170 1.757752 0.653946
v -1.226675 1.748958 0.667505
v -0.786338 2.712511 0.808008
v -0.930035 2.712511 0.762157
v -1.056590 2.712511 0.721776
v -1.165441 2.350708 0.714697
v -1.163456 2.471309 0.708476
v -1.160650 2.591910 0.699681
v -0.481852 1.747702 0.905164
v -0.338512 1.747702 0.950901
v -0.212926 1.747702 0.990973
v 0.010945 2.678592 1.062406
v -0.008766 2.702461 1.056117
v -0.047688 2.711255 1.043697
v -0.121980 2.350708 1.047646
v -0.119995 2.471309 1.041425
v -0.117189 2.591910 1.032630
v -1.310442 2.557991 0.640777
v -1.313720 2.461259 0.639731
v -1.314927 2.349452 0.639346
v 0.024087 1.902222 1.066600
v 0.026395 1.998954 1.067336
v 0.027245 2.110762 1.067607
v -1.160650 1.868303 0.699681
v -1.163456 1.988904 0.708476
v -1.165441 2.109505 0.714697
v -0.117189 1.868303 1.032630
v -0.119995 1.988904 1.041425
v -0.121980 2.109505 1.047646
v -0.818508 2.230107 0.908830
v -0.955223 2.230107 0.841098
v -1.073154 2.230107 0.773688
v -1.230544 2.230107 0.679034
v -1.271645 2.230107 0.656938
v -1.297247 2.230107 0.645460
v 0.014088 2.230107 1.063882
v -0.008889 2.230107 1.059859
v -0.051263 2.230107 1.055320
v -0.212926 2.712511 0.990973
v -0.338512 2.712511 0.950901
v -0.481852 2.712511 0.905164
v -1.056590 1.747702 0.721776
v -0.930035 1.747702 0.762157
v -0.786338 1.747702 0.808008
v -0.229490 2.230107 1.042886
v -0.363700 2.230107 1.029842
v -0.514022 2.230107 1.005985
v -0.646937 1.868303 0.896923
v -0.658163 1.988904 0.932103
v -0.666103 2.109505 0.956987
v -0.666103 2.350708 0.956987
v -0.658163 2.471309 0.932103
v -0.646937 2.591910 0.896923
v -0.050948 2.350682 1.054324
v -0.008815 2.350498 1.059558
v 0.014037 2.350054 1.063825
v -0.050128 2.471100 1.051693
v -0.008709 2.469634 1.058735
v 0.013625 2.466074 1.063586
v -0.048988 2.591256 1.047969
v -0.008702 2.586676 1.057526
v 0.012553 2.575134 1.063093
v -1.297146 2.350054 0.645451
v -1.271523 2.350498 0.656652
v -1.230223 2.350682 0.678039
v -1.296486 2.466074 0.645555
v -1.271073 2.469634 0.655939
v -1.229360 2.471100 0.675423
v -1.294857 2.575134 0.645923
v -1.270234 2.586676 0.654995
v -1.228115 2.591256 0.671732
v -0.511258 2.350708 0.997321
v -0.361536 2.350708 1.023058
v -0.228067 2.350708 1.038424
v -0.503969 2.471309 0.974479
v -0.355829 2.471309 1.005173
v -0.224314 2.471309 1.026663
v -0.493665 2.591910 0.942184
v -0.347761 2.591910 0.979887
v -0.219008 2.591910 1.010035
v -0.493664 1.868303 0.942184
v -0.347761 1.868303 0.979887
v -0.219008 1.868303 1.010035
v -0.503969 1.988904 0.974479
v -0.355829 1.988904 1.005173
v -0.224314 1.988904 1.026663
v -0.511258 2.109505 0.997321
v -0.361536 2.109505 1.023058
v -0.228067 2.109505 1.038424
v -1.294857 1.885079 0.645923
v -1.270233 1.873537 0.654995
v -1.228115 1.868957 0.671732
v -1.296486 1.994139 0.645555
v -1.271073 1.990579 0.655938
v -1.229360 1.989114 0.675423
v -1.297146 2.110160 0.645451
v -1.271522 2.109715 0.656652
v -1.230223 2.109532 0.678039
v -0.048987 1.868957 1.047969
v -0.008702 1.873537 1.057526
v 0.012553 1.885079 1.063093
v -0.050128 1.989114 1.051693
v -0.008709 1.990579 1.058735
v 0.013625 1.994139 1.063586
v -0.050948 2.109532 1.054324
v -0.008815 2.109715 1.059558
v 0.014037 2.110160 1.063825
v -1.062672 1.868303 0.740837
v -0.939284 1.868303 0.791144
v -0.798150 1.868303 0.845029
v -1.067978 1.988904 0.757466
v -0.947352 1.988904 0.816429
v -0.808455 1.988904 0.877323
v -1.071731 2.109505 0.769227
v -0.953059 2.109505 0.834314
v -0.815743 2.109505 0.900166
v -1.071731 2.350708 0.769227
v -0.953059 2.350708 0.834314
v -0.815743 2.350708 0.900166
v -1.067978 2.471309 0.757466
v -0.947352 2.471309 0.816429
v -0.808455 2.471309 0.877323
v -1.062672 2.591910 0.740838
v -0.939284 2.591910 0.791144
v -0.798150 2.591910 0.845029
v -1.285902 1.822804 0.703340
v -1.325439 1.804374 0.723750
v -1.283050 1.759879 0.737276
v -1.255928 1.791342 0.712904
v -1.301444 1.813589 0.721734
v -1.291652 1.792423 0.724920
v -1.313024 1.772911 0.727712
v -1.271470 1.782126 0.731298
v -1.277123 1.800557 0.706142
v -1.285902 2.633642 0.703340
v -1.255928 2.665105 0.712904
v -1.283050 2.696567 0.737276
v -1.325439 2.652072 0.723750
v -1.277123 2.655890 0.706142
v -1.291652 2.664023 0.724920
v -1.271470 2.674320 0.731298
v -1.313024 2.683535 0.727712
v -1.301444 2.642857 0.721734
v -1.060210 1.697960 -0.207668
v -1.090184 1.729423 -0.217232
v -1.050647 1.729423 -0.237641
v -1.081405 1.707176 -0.214431
v -1.071994 1.711258 -0.230495
v -1.074642 1.729423 -0.235625
v -1.053448 1.707175 -0.228862
v -1.060210 2.758486 -0.207668
v -1.050647 2.727023 -0.237641
v -1.090184 2.727023 -0.217232
v -1.053448 2.749270 -0.228862
v -1.071994 2.745188 -0.230495
v -1.074642 2.727023 -0.235625
v -1.081405 2.749270 -0.214431
v -0.106018 1.822804 1.079819
v -0.135991 1.791342 1.070255
v -0.120107 1.759879 1.108349
v -0.085608 1.814549 1.119357
v -0.114797 1.800557 1.077018
v -0.112681 1.793904 1.101108
v -0.130030 1.782126 1.095510
v -0.095960 1.775630 1.116054
v -0.104001 1.818677 1.103815
v -0.106018 2.633642 1.079819
v -0.085608 2.641897 1.119357
v -0.120107 2.696567 1.108349
v -0.135991 2.665105 1.070255
v -0.104001 2.637769 1.103815
v -0.112681 2.662542 1.101108
v -0.095960 2.680816 1.116054
v -0.130030 2.674320 1.095510
v -0.114797 2.655890 1.077018
v 0.436575 1.697960 0.269928
v 0.446139 1.729423 0.239954
v 0.466548 1.729423 0.279492
v 0.443337 1.707176 0.248733
v 0.459402 1.711258 0.258144
v 0.464532 1.729423 0.255496
v 0.457769 1.707176 0.276691
v 0.436575 2.758486 0.269928
v 0.466548 2.727023 0.279492
v 0.446139 2.727023 0.239954
v 0.457769 2.749270 0.276691
v 0.459402 2.745188 0.258145
v 0.464532 2.727023 0.255496
v 0.443337 2.749271 0.248733
v -1.344890 1.697960 0.684518
v -1.312065 1.729423 0.728018
v -1.354454 1.773918 0.714492
v -1.374864 1.729423 0.674954
v -1.330458 1.707176 0.712476
v -1.361617 1.718983 0.702596
v -1.342039 1.742455 0.718454
v -1.372848 1.751670 0.698950
v -1.366085 1.707176 0.677756
v -1.354454 2.682528 0.714492
v -1.312065 2.727023 0.728018
v -1.344890 2.758486 0.684518
v -1.374864 2.727023 0.674954
v -1.342039 2.713991 0.718454
v -1.361617 2.737463 0.702596
v -1.330458 2.749270 0.712476
v -1.366085 2.749270 0.677756
v -1.372848 2.704776 0.698950
v 0.151895 2.758486 1.162114
v -0.026214 2.727023 1.138308
v 0.142331 2.715833 1.192088
v 0.181869 2.727023 1.171678
v 0.060860 2.749270 1.156419
v 0.136704 2.742310 1.180682
v 0.093119 2.723730 1.176385
v 0.166327 2.721428 1.190072
v 0.173089 2.749270 1.168877
v 0.151895 1.697960 1.162114
v 0.181869 1.729423 1.171678
v 0.142331 1.740613 1.192088
v -0.026214 1.729423 1.138308
v 0.173089 1.707176 1.168877
v 0.136704 1.714137 1.180682
v 0.166327 1.735018 1.190072
v 0.093119 1.732716 1.176385
v 0.060860 1.707176 1.156419
v -1.251985 1.822804 0.597046
v -1.222011 1.791342 0.606610
v -1.212447 1.822804 0.576636
v -1.243206 1.800557 0.599847
v -1.233795 1.804639 0.583783
v -1.215249 1.800557 0.585415
v -1.236443 1.822804 0.578652
v -1.251985 2.633642 0.597046
v -1.212447 2.633642 0.576636
v -1.222011 2.665105 0.606610
v -1.236443 2.633642 0.578652
v -1.233795 2.651807 0.583782
v -1.215249 2.655890 0.585415
v -1.243206 2.655890 0.599847
v -0.072101 2.633642 0.973524
v -0.102075 2.665105 0.963960
v -0.092511 2.633642 0.933987
v -0.080880 2.655890 0.970723
v -0.079248 2.651807 0.952177
v -0.095312 2.655890 0.942766
v -0.074117 2.633642 0.949528
v -0.072101 1.822804 0.973524
v -0.092511 1.822804 0.933987
v -0.102075 1.791342 0.963960
v -0.074117 1.822804 0.949528
v -0.079248 1.804639 0.952177
v -0.095312 1.800557 0.942766
v -0.080880 1.800557 0.970723
v 0.012186 2.472590 1.184912
v 0.016383 2.458514 1.171759
v 0.013416 2.462637 1.181060
v 0.043822 2.472590 1.085768
v 0.039625 2.458514 1.098921
v 0.042592 2.462637 1.089620
v 0.038978 2.478184 1.193461
v 0.048307 2.465179 1.181946
v 0.043836 2.468988 1.190766
v 0.070613 2.478184 1.094316
v 0.071548 2.465179 1.109107
v 0.073013 2.468988 1.099327
v 0.061691 2.494114 1.200708
v 0.075370 2.484161 1.190581
v 0.069625 2.487076 1.198995
v 0.093326 2.494114 1.101564
v 0.098612 2.484161 1.117742
v 0.098802 2.487076 1.107556
v 0.076867 2.517955 1.205551
v 0.093453 2.512568 1.196351
v 0.086857 2.514146 1.204494
v 0.108502 2.517955 1.106406
v 0.116695 2.512568 1.123512
v 0.116034 2.514146 1.113054
v 0.082196 2.546077 1.207251
v 0.099803 2.546077 1.198377
v 0.092908 2.546077 1.206424
v 0.113831 2.546077 1.108106
v 0.123045 2.546077 1.125538
v 0.122085 2.546077 1.114985
v 0.076867 2.574200 1.205551
v 0.093453 2.579587 1.196351
v 0.086857 2.578009 1.204494
v 0.108502 2.574200 1.106406
v 0.116695 2.579587 1.123512
v 0.116034 2.578009 1.113054
v 0.061691 2.598041 1.200708
v 0.075370 2.607994 1.190581
v 0.069625 2.605079 1.198995
v 0.093326 2.598041 1.101564
v 0.098612 2.607994 1.117742
v 0.098802 2.605079 1.107555
v 0.038978 2.613971 1.193461
v 0.048307 2.626976 1.181946
v 0.043836 2.623167 1.190766
v 0.070613 2.613971 1.094316
v 0.071548 2.626976 1.109107
v 0.073013 2.623167 1.099327
v 0.012186 2.619565 1.184912
v 0.016383 2.633641 1.171759
v 0.013416 2.629518 1.181060
v 0.043822 2.619565 1.085768
v 0.039625 2.633641 1.098921
v 0.042592 2.629518 1.089620
v -0.014605 2.613971 1.176364
v -0.015540 2.626976 1.161573
v -0.017005 2.623167 1.171353
v 0.017030 2.613971 1.077219
v 0.007701 2.626976 1.088734
v 0.012172 2.623167 1.079914
v -0.037318 2.598041 1.169116
v -0.042604 2.607994 1.152938
v -0.042794 2.605079 1.163125
v -0.005683 2.598041 1.069972
v -0.019362 2.607994 1.080099
v -0.013617 2.605079 1.071685
v -0.052494 2.574200 1.164274
v -0.060687 2.579587 1.147168
v -0.060026 2.578009 1.157626
v -0.020859 2.574200 1.065130
v -0.037445 2.579587 1.074329
v -0.030849 2.578009 1.066186
v -0.057823 2.546077 1.162574
v -0.067037 2.546077 1.145142
v -0.066077 2.546077 1.155695
v -0.026188 2.546077 1.063429
v -0.043795 2.546077 1.072303
v -0.036900 2.546077 1.064256
v -0.052494 2.517955 1.164274
v -0.060687 2.512568 1.147168
v -0.060026 2.514146 1.157626
v -0.020859 2.517955 1.065130
v -0.037445 2.512568 1.074329
v -0.030849 2.514146 1.066186
v -0.037318 2.494114 1.169116
v -0.042604 2.484161 1.152938
v -0.042794 2.487076 1.163125
v -0.005683 2.494114 1.069972
v -0.019362 2.484161 1.080099
v -0.013617 2.487076 1.071685
v -0.014605 2.478184 1.176364
v -0.015540 2.465179 1.161573
v -0.017005 2.468988 1.171353
v 0.017030 2.478184 1.077219
v 0.007701 2.465179 1.088734
v 0.012172 2.468988 1.079914
v 0.012186 2.227711 1.184912
v 0.016383 2.213634 1.171759
v 0.013416 2.217757 1.181060
v 0.043822 2.227711 1.085768
v 0.039625 2.213634 1.098921
v 0.042592 2.217757 1.089620
v 0.038978 2.233305 1.193461
v 0.048307 2.220300 1.181946
v 0.043836 2.224109 1.190766
v 0.070613 2.233305 1.094316
v 0.071548 2.220300 1.109107
v 0.073013 2.224109 1.099327
v 0.061691 2.249235 1.200708
v 0.075370 2.239281 1.190581
v 0.069625 2.242197 1.198995
v 0.093326 2.249235 1.101564
v 0.098612 2.239281 1.117742
v 0.098802 2.242197 1.107556
v 0.076867 2.273076 1.205551
v 0.093453 2.267689 1.196351
v 0.086857 2.269267 1.204494
v 0.108502 2.273076 1.106406
v 0.116695 2.267689 1.123512
v 0.116034 2.269267 1.113054
v 0.082196 2.301198 1.207251
v 0.099803 2.301198 1.198377
v 0.092908 2.301198 1.206424
v 0.113831 2.301198 1.108106
v 0.123045 2.301198 1.125538
v 0.122085 2.301198 1.114985
v 0.076867 2.329320 1.205551
v 0.093453 2.334707 1.196351
v 0.086857 2.333130 1.204494
v 0.108502 2.329320 1.106406
v 0.116695 2.334707 1.123512
v 0.116034 2.333130 1.113054
v 0.061691 2.353162 1.200708
v 0.075370 2.363115 1.190581
v 0.069625 2.360200 1.198995
v 0.093326 2.353162 1.101564
v 0.098612 2.363115 1.117742
v 0.098802 2.360200 1.107555
v 0.038978 2.369092 1.193461
v 0.048307 2.382097 1.181946
v 0.043836 2.378288 1.190766
v 0.070613 2.369092 1.094316
v 0.071548 2.382097 1.109107
v 0.073013 2.378288 1.099327
v 0.012186 2.374685 1.184912
v 0.016383 2.388762 1.171759
v 0.013416 2.384639 1.181060
v 0.043822 2.374685 1.085768
v 0.039625 2.388762 1.098921
v 0.042592 2.384639 1.089620
v -0.014605 2.369092 1.176364
v -0.015540 2.382097 1.161573
v -0.017005 2.378288 1.171353
v 0.017030 2.369092 1.077219
v 0.007701 2.382097 1.088734
v 0.012172 2.378288 1.079914
v -0.037318 2.353162 1.169116
v -0.042604 2.363115 1.152938
v -0.042794 2.360200 1.163125
v -0.005683 2.353162 1.069972
v -0.019362 2.363115 1.080099
v -0.013617 2.360200 1.071685
v -0.052494 2.329320 1.164274
v -0.060687 2.334707 1.147168
v -0.060026 2.333130 1.157626
v -0.020859 2.329320 1.065130
v -0.037445 2.334707 1.074329
v -0.030849 2.333130 1.066186
v -0.057823 2.301198 1.162574
v -0.067037 2.301198 1.145142
v -0.066077 2.301198 1.155695
v -0.026188 2.301198 1.063429
v -0.043795 2.301198 1.072303
v -0.036900 2.301198 1.064256
v -0.052494 2.273076 1.164274
v -0.060687 2.267689 1.147168
v -0.060026 2.269267 1.157626
v -0.020859 2.273076 1.065130
v -0.037445 2.267689 1.074329
v -0.030849 2.269267 1.066186
v -0.037318 2.249235 1.169116
v -0.042604 2.239281 1.152938
v -0.042794 2.242197 1.163125
v -0.005683 2.249235 1.069972
v -0.019362 2.239281 1.080099
v -0.013617 2.242197 1.071685
v -0.014605 2.233305 1.176364
v -0.015540 2.220300 1.161573
v -0.017005 2.224109 1.171353
v 0.017030 2.233305 1.077219
v 0.007701 2.220300 1.088734
v 0.012172 2.224109 1.079914
vn -0.3123 -0.0014 0.9500
vn -0.2928 -0.0013 0.9562
vn -0.3123 0.0014 0.9500
vn -0.2928 0.0013 0.9562
vn -0.3438 -0.0943 0.9343
vn -0.3438 0.0943 0.9343
vn -0.2596 -0.0943 0.9611
vn -0.2596 0.0943 0.9611
vn -0.3257 -0.0000 0.9455
vn -0.2740 -0.0000 0.9617
vn -0.5061 -0.0000 0.8625
vn -0.0802 -0.0000 0.9968
vn -0.2881 0.3190 0.9029
vn -0.2881 -0.3190 0.9029
vn -0.3040 -0.0000 0.9527
vn -0.3242 -0.0004 0.9460
vn -0.3206 -0.0008 0.9472
vn -0.3165 -0.0011 0.9486
vn -0.2619 -0.0450 0.9640
vn -0.2660 -0.0196 0.9638
vn -0.2738 -0.0067 0.9618
vn -0.2761 0.0004 0.9611
vn -0.2810 0.0008 0.9597
vn -0.2866 0.0011 0.9581
vn -0.3423 0.0449 0.9385
vn -0.3374 0.0193 0.9412
vn -0.3287 0.0066 0.9444
vn -0.3287 -0.0066 0.9444
vn -0.3374 -0.0193 0.9412
vn -0.3423 -0.0449 0.9385
vn -0.3079 0.2976 0.9037
vn -0.3260 0.2404 0.9143
vn -0.3389 0.1652 0.9262
vn -0.4904 0.0395 0.8706
vn -0.4465 0.0695 0.8921
vn -0.3810 0.0880 0.9204
vn -0.2724 -0.2976 0.9150
vn -0.2636 -0.2404 0.9342
vn -0.2597 -0.1652 0.9515
vn -0.2738 0.0067 0.9618
vn -0.2660 0.0196 0.9638
vn -0.2619 0.0450 0.9640
vn -0.0982 0.0395 0.9944
vn -0.1480 0.0695 0.9865
vn -0.2199 0.0879 0.9716
vn -0.3165 0.0011 0.9486
vn -0.3206 0.0008 0.9472
vn -0.3242 0.0004 0.9460
vn -0.2866 -0.0011 0.9581
vn -0.2810 -0.0008 0.9597
vn -0.2761 -0.0004 0.9611
vn -0.3810 -0.0880 0.9204
vn -0.4465 -0.0695 0.8921
vn -0.4904 -0.0395 0.8706
vn -0.2199 -0.0879 0.9716
vn -0.1480 -0.0695 0.9865
vn -0.0982 -0.0395 0.9944
vn -0.3980 -0.0000 0.9174
vn -0.4634 -0.0000 0.8861
vn -0.5000 -0.0000 0.8660
vn -0.4838 -0.0000 0.8752
vn -0.4360 -0.0000 0.8999
vn -0.3656 -0.0000 0.9308
vn -0.2263 -0.0000 0.9741
vn -0.1465 -0.0000 0.9892
vn -0.0994 -0.0000 0.9951
vn -0.2597 0.1652 0.9515
vn -0.2636 0.2404 0.9342
vn -0.2724 0.2976 0.9150
vn -0.3389 -0.1652 0.9262
vn -0.3260 -0.2404 0.9143
vn -0.3079 -0.2976 0.9037
vn -0.0911 -0.0000 0.9958
vn -0.1345 -0.0000 0.9909
vn -0.2067 -0.0000 0.9784
vn -0.2899 -0.3004 0.9087
vn -0.2949 -0.2425 0.9242
vn -0.3009 -0.1409 0.9432
vn -0.3009 0.1409 0.9432
vn -0.2949 0.2425 0.9242
vn -0.2899 0.3004 0.9087
vn -0.1158 0.0181 0.9931
vn -0.1590 0.0065 0.9873
vn -0.2322 0.0016 0.9727
vn -0.1613 0.0321 0.9864
vn -0.1932 0.0117 0.9811
vn -0.2477 0.0030 0.9688
vn -0.2270 0.0407 0.9730
vn -0.2431 0.0148 0.9699
vn -0.2682 0.0039 0.9634
vn -0.3610 0.0016 0.9326
vn -0.4260 0.0065 0.9047
vn -0.4701 0.0182 0.8825
vn -0.3490 0.0030 0.9371
vn -0.3983 0.0117 0.9172
vn -0.4315 0.0321 0.9015
vn -0.3328 0.0040 0.9430
vn -0.3571 0.0149 0.9340
vn -0.3739 0.0407 0.9266
vn -0.2127 0.1305 0.9684
vn -0.1474 0.1037 0.9836
vn -0.1080 0.0700 0.9917
vn -0.2301 0.2253 0.9467
vn -0.1830 0.1803 0.9664
vn -0.1547 0.1228 0.9803
vn -0.2570 0.2799 0.9250
vn -0.2348 0.2256 0.9455
vn -0.2222 0.1547 0.9627
vn -0.2570 -0.2799 0.9250
vn -0.2348 -0.2256 0.9455
vn -0.2222 -0.1547 0.9627
vn -0.2301 -0.2253 0.9467
vn -0.1830 -0.1803 0.9664
vn -0.1547 -0.1228 0.9803
vn -0.2127 -0.1305 0.9684
vn -0.1474 -0.1037 0.9836
vn -0.1080 -0.0700 0.9917
vn -0.3328 -0.0040 0.9430
vn -0.3571 -0.0149 0.9340
vn -0.3739 -0.0407 0.9266
vn -0.3490 -0.0030 0.9371
vn -0.3983 -0.0117 0.9172
vn -0.4315 -0.0321 0.9015
vn -0.3610 -0.0016 0.9326
vn -0.4260 -0.0065 0.9047
vn -0.4701 -0.0182 0.8825
vn -0.2270 -0.0407 0.9730
vn -0.2431 -0.0148 0.9699
vn -0.2682 -0.0039 0.9634
vn -0.1613 -0.0321 0.9864
vn -0.1932 -0.0117 0.9811
vn -0.2477 -0.0030 0.9688
vn -0.1158 -0.0181 0.9931
vn -0.1590 -0.0065 0.9873
vn -0.2322 -0.0016 0.9727
vn -0.3754 -0.1547 0.9139
vn -0.3559 -0.2256 0.9069
vn -0.3262 -0.2799 0.9029
vn -0.4398 -0.1228 0.8896
vn -0.4100 -0.1803 0.8941
vn -0.3607 -0.2253 0.9051
vn -0.4840 -0.0701 0.8722
vn -0.4488 -0.1037 0.8876
vn -0.3874 -0.1305 0.9126
vn -0.4840 0.0701 0.8722
vn -0.4488 0.1037 0.8876
vn -0.3874 0.1305 0.9126
vn -0.4398 0.1228 0.8896
vn -0.4100 0.1803 0.8941
vn -0.3607 0.2253 0.9051
vn -0.3754 0.1547 0.9139
vn -0.3559 0.2256 0.9069
vn -0.3262 0.2799 0.9029
vn 0.8459 0.1785 0.5027
vn -0.1531 0.0357 0.9876
vn -0.2661 0.1544 0.9515
vn 0.1026 0.9586 0.2655
vn 0.3686 0.1442 0.9183
vn 0.1560 0.4203 0.8939
vn -0.2178 0.0880 0.9720
vn -0.0946 0.6303 0.7706
vn 0.5687 0.6817 0.4602
vn 0.8459 -0.1785 0.5027
vn 0.1026 -0.9586 0.2655
vn -0.2661 -0.1544 0.9515
vn -0.1531 -0.0357 0.9876
vn 0.5687 -0.6817 0.4602
vn 0.1560 -0.4203 0.8939
vn -0.0946 -0.6303 0.7706
vn -0.2178 -0.0880 0.9720
vn 0.3686 -0.1442 0.9183
vn -0.1164 -0.9673 -0.2254
vn -0.8670 -0.1794 -0.4649
vn 0.1232 -0.1794 -0.9760
vn -0.6111 -0.6965 -0.3761
vn -0.3745 -0.5773 -0.7255
vn -0.4518 -0.1726 -0.8753
vn 0.0473 -0.6965 -0.7160
vn -0.1164 0.9673 -0.2254
vn 0.1232 0.1794 -0.9760
vn -0.8670 0.1794 -0.4649
vn 0.0473 0.6965 -0.7160
vn -0.3745 0.5773 -0.7255
vn -0.4518 0.1726 -0.8753
vn -0.6111 0.6965 -0.3761
vn -0.9799 0.1797 -0.0862
vn -0.2392 0.9575 0.1611
vn -0.3433 0.1355 0.9294
vn -0.4609 0.0261 0.8871
vn -0.7443 0.6666 0.0407
vn -0.6831 0.3798 0.6238
vn -0.3974 0.6016 0.6929
vn -0.3969 0.0782 0.9145
vn -0.8509 0.1197 0.5115
vn -0.9799 -0.1797 -0.0862
vn -0.4609 -0.0261 0.8871
vn -0.3433 -0.1355 0.9294
vn -0.2392 -0.9575 0.1611
vn -0.8509 -0.1197 0.5115
vn -0.6831 -0.3798 0.6238
vn -0.3969 -0.0782 0.9145
vn -0.3973 -0.6016 0.6930
vn -0.7443 -0.6666 0.0407
vn 0.2254 -0.9673 -0.1164
vn 0.4649 -0.1794 -0.8670
vn 0.9760 -0.1794 0.1232
vn 0.3761 -0.6965 -0.6111
vn 0.7255 -0.5773 -0.3745
vn 0.8753 -0.1726 -0.4518
vn 0.7160 -0.6965 0.0473
vn 0.2254 0.9673 -0.1164
vn 0.9760 0.1794 0.1232
vn 0.4649 0.1794 -0.8670
vn 0.7160 0.6965 0.0473
vn 0.7255 0.5774 -0.3745
vn 0.8753 0.1726 -0.4518
vn 0.3761 0.6965 -0.6111
vn -0.2836 -0.9395 0.1920
vn -0.3176 -0.1979 0.9273
vn -0.4864 -0.0207 0.8735
vn -0.9769 -0.2118 -0.0292
vn -0.3089 -0.6713 0.6738
vn -0.6526 -0.4326 0.6221
vn -0.4149 -0.1212 0.9017
vn -0.8632 -0.0894 0.4969
vn -0.7341 -0.6739 0.0838
vn -0.4864 0.0207 0.8735
vn -0.3176 0.1979 0.9273
vn -0.2836 0.9395 0.1920
vn -0.9769 0.2118 -0.0292
vn -0.4149 0.1212 0.9017
vn -0.6526 0.4326 0.6221
vn -0.3089 0.6713 0.6738
vn -0.7341 0.6739 0.0838
vn -0.8632 0.0894 0.4969
vn 0.0644 0.9395 0.3364
vn -0.2973 0.1957 0.9345
vn -0.1327 0.1579 0.9785
vn 0.7946 0.2591 0.5491
vn -0.2037 0.6958 0.6887
vn -0.0566 0.5814 0.8116
vn -0.2794 0.1913 0.9409
vn 0.3679 0.2362 0.8994
vn 0.4913 0.7156 0.4965
vn 0.0644 -0.9395 0.3364
vn 0.7946 -0.2590 0.5491
vn -0.1327 -0.1579 0.9785
vn -0.2973 -0.1957 0.9345
vn 0.4913 -0.7156 0.4965
vn -0.0566 -0.5814 0.8116
vn 0.3679 -0.2362 0.8994
vn -0.2794 -0.1913 0.9409
vn -0.2037 -0.6958 0.6887
vn 0.8670 0.1794 0.4649
vn 0.1164 0.9673 0.2254
vn -0.1232 0.1794 0.9760
vn 0.6111 0.6965 0.3761
vn 0.3745 0.5774 0.7255
vn -0.0473 0.6965 0.7160
vn 0.4518 0.1726 0.8753
vn 0.8670 -0.1794 0.4649
vn -0.1232 -0.1794 0.9760
vn 0.1164 -0.9673 0.2254
vn 0.4518 -0.1726 0.8753
vn 0.3745 -0.5774 0.7255
vn -0.0473 -0.6965 0.7160
vn 0.6111 -0.6965 0.3761
vn -0.9760 -0.1794 -0.1232
vn -0.2254 -0.9673 0.1164
vn -0.4649 -0.1794 0.8670
vn -0.7160 -0.6965 -0.0473
vn -0.7255 -0.5773 0.3745
vn -0.3761 -0.6965 0.6111
vn -0.8753 -0.1726 0.4518
vn -0.9760 0.1794 -0.1232
vn -0.4649 0.1794 0.8670
vn -0.2254 0.9673 0.1164
vn -0.8753 0.1726 0.4518
vn -0.7255 0.5773 0.3745
vn -0.3761 0.6965 0.6111
vn -0.7160 0.6965 -0.0473
vn -0.2969 -0.2146 0.9305
vn -0.0589 -0.9810 0.1847
vn -0.2094 -0.7249 0.6563
vn 0.2969 -0.2146 -0.9305
vn 0.0589 -0.9810 -0.1847
vn 0.2094 -0.7249 -0.6563
vn -0.2187 -0.1983 0.9554
vn 0.2987 -0.9064 0.2988
vn 0.0549 -0.6697 0.7406
vn 0.3751 -0.1983 -0.9055
vn 0.4166 -0.9064 -0.0705
vn 0.4737 -0.6697 -0.5720
vn -0.1523 -0.1518 0.9766
vn 0.6019 -0.6937 0.3955
vn 0.2789 -0.5126 0.8121
vn 0.4415 -0.1517 -0.8844
vn 0.7198 -0.6937 0.0262
vn 0.6977 -0.5126 -0.5005
vn -0.1080 -0.0821 0.9908
vn 0.8045 -0.3754 0.4602
vn 0.4286 -0.2774 0.8599
vn 0.4858 -0.0821 -0.8702
vn 0.9224 -0.3754 0.0908
vn 0.8474 -0.2774 -0.4527
vn -0.0924 -0.0000 0.9957
vn 0.8757 -0.0000 0.4829
vn 0.4812 -0.0000 0.8766
vn 0.5014 -0.0000 -0.8652
vn 0.9935 -0.0000 0.1135
vn 0.9000 -0.0000 -0.4359
vn -0.1080 0.0821 0.9908
vn 0.8045 0.3754 0.4602
vn 0.4286 0.2774 0.8599
vn 0.4858 0.0821 -0.8702
vn 0.9224 0.3754 0.0908
vn 0.8474 0.2774 -0.4527
vn -0.1523 0.1517 0.9766
vn 0.6019 0.6937 0.3955
vn 0.2789 0.5126 0.8121
vn 0.4415 0.1518 -0.8844
vn 0.7198 0.6937 0.0262
vn 0.6977 0.5126 -0.5005
vn -0.2187 0.1983 0.9554
vn 0.2987 0.9064 0.2988
vn 0.0549 0.6697 0.7406
vn 0.3751 0.1983 -0.9055
vn 0.4166 0.9064 -0.0705
vn 0.4737 0.6697 -0.5720
vn -0.2969 0.2146 0.9305
vn -0.0589 0.9810 0.1847
vn -0.2094 0.7249 0.6563
vn 0.2969 0.2146 -0.9305
vn 0.0589 0.9810 -0.1847
vn 0.2094 0.7249 -0.6563
vn -0.3751 0.1983 0.9055
vn -0.4166 0.9064 0.0705
vn -0.4737 0.6697 0.5719
vn 0.2187 0.1983 -0.9554
vn -0.2987 0.9064 -0.2988
vn -0.0549 0.6697 -0.7406
vn -0.4415 0.1518 0.8843
vn -0.7198 0.6937 -0.0262
vn -0.6977 0.5126 0.5005
vn 0.1523 0.1518 -0.9766
vn -0.6019 0.6937 -0.3955
vn -0.2789 0.5126 -0.8121
vn -0.4858 0.0821 0.8702
vn -0.9224 0.3754 -0.0908
vn -0.8474 0.2774 0.4527
vn 0.1080 0.0821 -0.9908
vn -0.8045 0.3754 -0.4602
vn -0.4286 0.2774 -0.8599
vn -0.5014 -0.0000 0.8652
vn -0.9935 -0.0000 -0.1135
vn -0.9000 -0.0000 0.4359
vn 0.0924 -0.0000 -0.9957
vn -0.8757 -0.0000 -0.4829
vn -0.4812 -0.0000 -0.8766
vn -0.4858 -0.0821 0.8702
vn -0.9224 -0.3754 -0.0908
vn -0.8474 -0.2774 0.4527
vn 0.1080 -0.0821 -0.9908
vn -0.8045 -0.3754 -0.4602
vn -0.4286 -0.2774 -0.8599
vn -0.4415 -0.1518 0.8843
vn -0.7198 -0.6937 -0.0262
vn -0.6977 -0.5126 0.5005
vn 0.1523 -0.1518 -0.9766
vn -0.6019 -0.6937 -0.3955
vn -0.2789 -0.5126 -0.8121
vn -0.3751 -0.1983 0.9055
vn -0.4166 -0.9064 0.0705
vn -0.4737 -0.6697 0.5719
vn 0.2187 -0.1983 -0.9554
vn -0.2987 -0.9064 -0.2988
vn -0.0549 -0.6697 -0.7406
vn 0.4415 -0.1518 -0.8844
vn 0.4415 0.1518 -0.8843
vt 0.654334 0.556695
vt 0.654361 0.562804
vt 0.636916 0.562782
vt 0.636702 0.556691
vt 0.654426 0.566181
vt 0.637438 0.566113
vt 0.619778 0.562729
vt 0.619107 0.556684
vt 0.621468 0.565941
vt 0.671990 0.546492
vt 0.671990 0.556695
vt 0.654330 0.546492
vt 0.671990 0.562807
vt 0.671990 0.566191
vt 0.671990 0.568210
vt 0.654514 0.568192
vt 0.638143 0.568061
vt 0.623978 0.567706
vt 0.612941 0.567034
vt 0.606319 0.565686
vt 0.602824 0.562657
vt 0.601536 0.556674
vt 0.619012 0.546489
vt 0.601352 0.546486
vt 0.636671 0.546490
vt 0.654426 0.364650
vt 0.654361 0.368724
vt 0.636916 0.368755
vt 0.637438 0.364747
vt 0.654334 0.375439
vt 0.636702 0.375442
vt 0.619778 0.368830
vt 0.621468 0.364991
vt 0.619107 0.375451
vt 0.671990 0.361872
vt 0.671990 0.364637
vt 0.654514 0.361898
vt 0.671990 0.368720
vt 0.671990 0.375439
vt 0.671990 0.386111
vt 0.654330 0.386111
vt 0.636671 0.386109
vt 0.619012 0.386107
vt 0.601352 0.386105
vt 0.601536 0.375463
vt 0.602824 0.368931
vt 0.606319 0.365352
vt 0.623978 0.362588
vt 0.612941 0.363542
vt 0.638143 0.362084
vt 0.654330 0.489962
vt 0.654330 0.511990
vt 0.636671 0.511986
vt 0.636671 0.489958
vt 0.654330 0.531287
vt 0.636671 0.531285
vt 0.619012 0.511980
vt 0.619012 0.489951
vt 0.619012 0.531281
vt 0.671990 0.466570
vt 0.671990 0.489964
vt 0.654330 0.466568
vt 0.671990 0.511991
vt 0.671990 0.531288
vt 0.601352 0.531277
vt 0.601352 0.511974
vt 0.601352 0.489943
vt 0.619012 0.466555
vt 0.601352 0.466547
vt 0.636671 0.466563
vt 0.724968 0.489951
vt 0.724968 0.511981
vt 0.707309 0.511986
vt 0.707309 0.489958
vt 0.724968 0.531281
vt 0.707309 0.531285
vt 0.689649 0.511990
vt 0.689649 0.489962
vt 0.689649 0.531287
vt 0.742627 0.466547
vt 0.742627 0.489943
vt 0.724968 0.466555
vt 0.742627 0.511974
vt 0.742627 0.531277
vt 0.742627 0.546486
vt 0.724968 0.546489
vt 0.707309 0.546490
vt 0.689649 0.546492
vt 0.689649 0.466568
vt 0.707309 0.466563
vt 0.722511 0.364991
vt 0.724202 0.368830
vt 0.707063 0.368755
vt 0.706542 0.364747
vt 0.724872 0.375451
vt 0.707278 0.375442
vt 0.689619 0.368724
vt 0.689553 0.364650
vt 0.689645 0.375439
vt 0.731038 0.363542
vt 0.737661 0.365353
vt 0.720001 0.362588
vt 0.741156 0.368931
vt 0.742443 0.375463
vt 0.742627 0.386105
vt 0.724968 0.386107
vt 0.707309 0.386109
vt 0.689649 0.386111
vt 0.689465 0.361898
vt 0.705837 0.362084
vt 0.724872 0.556684
vt 0.724202 0.562729
vt 0.707063 0.562782
vt 0.707278 0.556691
vt 0.722511 0.565941
vt 0.706542 0.566113
vt 0.689619 0.562804
vt 0.689645 0.556695
vt 0.689553 0.566181
vt 0.742443 0.556674
vt 0.741156 0.562657
vt 0.737661 0.565686
vt 0.731038 0.567034
vt 0.720001 0.567706
vt 0.705837 0.568061
vt 0.689465 0.568192
vt 0.724968 0.401609
vt 0.724968 0.421063
vt 0.707309 0.421068
vt 0.707309 0.401612
vt 0.724968 0.443151
vt 0.707309 0.443158
vt 0.689649 0.421072
vt 0.689649 0.401615
vt 0.689649 0.443163
vt 0.742627 0.401605
vt 0.742627 0.421057
vt 0.742627 0.443143
vt 0.671990 0.443164
vt 0.671990 0.421073
vt 0.671990 0.401616
vt 0.654330 0.401615
vt 0.654330 0.421072
vt 0.636671 0.421068
vt 0.636671 0.401612
vt 0.654330 0.443163
vt 0.636671 0.443158
vt 0.619012 0.421063
vt 0.619012 0.401609
vt 0.619012 0.443151
vt 0.601352 0.443143
vt 0.601352 0.421057
vt 0.601352 0.401605
vt 0.003258 0.241175
vt 0.149334 0.241175
vt 0.149334 0.471233
vt 0.003258 0.471233
vt 0.460966 0.230176
vt 0.460966 0.004149
vt 0.597945 0.002949
vt 0.597945 0.228976
vt 0.864614 0.743602
vt 0.745885 0.743602
vt 0.745885 0.571466
vt 0.864614 0.571466
vt 0.144875 0.192980
vt 0.144875 0.014234
vt 0.149334 0.009775
vt 0.149334 0.207412
vt 0.128648 0.851748
vt 0.128648 0.708188
vt 0.265635 0.707028
vt 0.265635 0.850587
vt 0.949313 0.676197
vt 0.949313 0.559514
vt 0.965634 0.559375
vt 0.965634 0.676059
vt 0.971739 0.004429
vt 0.971739 0.173549
vt 0.955420 0.173691
vt 0.955419 0.004572
vt 0.602132 0.919428
vt 0.602407 0.779343
vt 0.739297 0.777291
vt 0.739022 0.917376
vt 0.972786 0.531003
vt 0.972786 0.366033
vt 0.989093 0.365748
vt 0.989093 0.530718
vt 0.140323 0.477998
vt 0.140280 0.698478
vt 0.003404 0.700840
vt 0.003448 0.480359
vt 0.138359 0.007719
vt 0.014233 0.007719
vt 0.009773 0.003260
vt 0.142819 0.003260
vt 0.007717 0.014234
vt 0.007717 0.192980
vt 0.003258 0.207412
vt 0.003258 0.009775
vt 0.015723 0.198283
vt 0.136869 0.198283
vt 0.147696 0.233317
vt 0.004896 0.233317
vt 0.289499 0.972926
vt 0.292832 0.974547
vt 0.292750 0.977093
vt 0.289419 0.975669
vt 0.142966 0.009627
vt 0.140109 0.012483
vt 0.137010 0.010975
vt 0.141617 0.015582
vt 0.971676 0.000977
vt 0.974994 -0.000000
vt 0.975057 0.003326
vt 0.289499 0.859067
vt 0.289419 0.855561
vt 0.292751 0.854701
vt 0.292832 0.858099
vt 0.969452 0.364412
vt 0.969535 0.361872
vt 0.972868 0.363296
vt 0.009626 0.009627
vt 0.012483 0.012483
vt 0.010975 0.015582
vt 0.015582 0.010975
vt 0.140241 0.474491
vt 0.142860 0.474848
vt 0.143492 0.477557
vt 0.268827 0.850311
vt 0.268203 0.852819
vt 0.265573 0.853540
vt 0.000000 0.241175
vt 0.000598 0.238516
vt 0.003258 0.237918
vt 0.457775 0.004428
vt 0.458400 0.001921
vt 0.461029 0.001199
vt 0.149334 0.237918
vt 0.151994 0.238516
vt 0.152592 0.241175
vt 0.265573 0.703577
vt 0.268203 0.704032
vt 0.268827 0.706751
vt 0.949375 0.679648
vt 0.946050 0.680381
vt 0.945997 0.676570
vt 0.975057 0.175693
vt 0.974984 0.177994
vt 0.971676 0.176498
vt 0.142568 0.196692
vt 0.139892 0.193692
vt 0.141617 0.191023
vt 0.136265 0.195023
vt 0.945997 0.558698
vt 0.946050 0.555379
vt 0.949375 0.556561
vt 0.010024 0.196692
vt 0.012699 0.193692
vt 0.016327 0.195023
vt 0.010975 0.191023
vt 0.972868 0.534509
vt 0.969548 0.535599
vt 0.969452 0.532549
vt 0.143449 0.698037
vt 0.142815 0.700426
vt 0.140197 0.701215
vt 0.003258 0.474491
vt 0.000598 0.473893
vt 0.000000 0.471233
vt 0.602206 0.922934
vt 0.599587 0.922570
vt 0.598960 0.919859
vt 0.461029 0.233627
vt 0.458400 0.233175
vt 0.457775 0.230455
vt 0.599235 0.779774
vt 0.599872 0.777383
vt 0.602493 0.776601
vt 0.152592 0.471233
vt 0.151994 0.473893
vt 0.149334 0.474491
vt 0.000113 0.483153
vt 0.000000 0.478073
vt 0.003366 0.476853
vt 0.147426 0.005168
vt 0.150863 0.001729
vt 0.152592 0.006515
vt 0.146076 0.000000
vt 0.128587 0.854700
vt 0.125245 0.852710
vt 0.125332 0.848325
vt 0.005166 0.005168
vt 0.001729 0.001729
vt 0.006515 0.000000
vt 0.000000 0.006515
vt 0.598008 -0.000000
vt 0.601352 0.001992
vt 0.601262 0.006373
vt 0.125332 0.711168
vt 0.125245 0.706145
vt 0.128587 0.704738
vt 0.601262 0.216473
vt 0.601319 0.228119
vt 0.598008 0.232428
vt 0.003740 0.225753
vt 0.001019 0.232023
vt 0.000000 0.220362
vt 0.004077 0.236573
vt 0.003258 0.237918
vt -0.000000 0.236568
vt 0.003322 0.703577
vt 0.000000 0.698982
vt 0.000073 0.688098
vt 0.742355 0.916924
vt 0.742627 0.921144
vt 0.739096 0.920882
vt 0.148852 0.225753
vt 0.151572 0.232023
vt 0.148515 0.236573
vt 0.152592 0.220362
vt 0.273191 0.973203
vt 0.273110 0.975945
vt 0.270420 0.975248
vt 0.269859 0.972876
vt 0.952102 0.004349
vt 0.952671 0.001619
vt 0.955356 0.001120
vt 0.864614 0.568210
vt 0.867274 0.568809
vt 0.867872 0.571468
vt 0.273191 0.859343
vt 0.269859 0.859017
vt 0.270420 0.856287
vt 0.273110 0.855837
vt 0.742627 0.571468
vt 0.743225 0.568809
vt 0.745885 0.568210
vt 0.989175 0.363011
vt 0.991867 0.363708
vt 0.992427 0.366076
vt 0.965696 0.556423
vt 0.968380 0.557098
vt 0.968950 0.559597
vt 0.992427 0.531046
vt 0.991867 0.533776
vt 0.989175 0.534225
vt 0.745885 0.746861
vt 0.743225 0.746264
vt 0.742627 0.743604
vt 0.968950 0.676281
vt 0.968380 0.679010
vt 0.965696 0.679510
vt 0.867872 0.743604
vt 0.867274 0.746264
vt 0.864614 0.746861
vt 0.955356 0.176641
vt 0.952671 0.175965
vt 0.952102 0.173469
vt 0.739383 0.774549
vt 0.742627 0.778410
vt 0.414132 0.794225
vt 0.425308 0.794225
vt 0.425281 0.799205
vt 0.414104 0.799205
vt 0.595675 0.851195
vt 0.584498 0.851195
vt 0.584413 0.846417
vt 0.595590 0.846417
vt 0.584439 0.841436
vt 0.595616 0.841436
vt 0.584572 0.837008
vt 0.595749 0.837008
vt 0.425245 0.746228
vt 0.414062 0.746224
vt 0.413899 0.742717
vt 0.425082 0.742721
vt 0.413810 0.738112
vt 0.424994 0.738116
vt 0.413810 0.733109
vt 0.424994 0.733114
vt 0.413899 0.728471
vt 0.425082 0.728475
vt 0.414062 0.724903
vt 0.425245 0.724907
vt 0.869322 0.622310
vt 0.880506 0.622310
vt 0.880595 0.626912
vt 0.869411 0.626912
vt 0.880597 0.631915
vt 0.869413 0.631915
vt 0.880513 0.636556
vt 0.869329 0.636556
vt 0.413859 0.785591
vt 0.425035 0.785591
vt 0.425222 0.789444
vt 0.414046 0.789444
vt 0.595858 0.855041
vt 0.584681 0.855041
vt 0.555248 0.902070
vt 0.551369 0.900464
vt 0.548400 0.897495
vt 0.546793 0.893616
vt 0.546793 0.889417
vt 0.548400 0.885538
vt 0.551369 0.882569
vt 0.555248 0.880963
vt 0.559446 0.880963
vt 0.563325 0.882569
vt 0.566294 0.885538
vt 0.567901 0.889417
vt 0.567901 0.893616
vt 0.566294 0.897495
vt 0.563325 0.900464
vt 0.559446 0.902070
vt 0.425144 0.803628
vt 0.413968 0.803628
vt 0.412513 0.803247
vt 0.412644 0.799033
vt 0.014367 0.906194
vt 0.009600 0.906194
vt 0.009883 0.904765
vt 0.014082 0.904765
vt 0.426674 0.799033
vt 0.426544 0.803247
vt 0.554964 0.903500
vt 0.550559 0.901675
vt 0.597132 0.850907
vt 0.597307 0.854572
vt 0.005195 0.904370
vt 0.006004 0.903158
vt 0.583275 0.854572
vt 0.583101 0.850907
vt 0.559731 0.903500
vt 0.597051 0.846354
vt 0.001824 0.900999
vt 0.003035 0.900190
vt 0.583020 0.846354
vt 0.564135 0.901675
vt 0.597076 0.841607
vt -0.000000 0.896595
vt 0.001429 0.896311
vt 0.583045 0.841607
vt 0.567506 0.898304
vt 0.597203 0.837388
vt -0.000000 0.891828
vt 0.001429 0.892112
vt 0.583172 0.837388
vt 0.569330 0.893900
vt 0.426533 0.742382
vt 0.426689 0.745724
vt 0.001824 0.887423
vt 0.003035 0.888233
vt 0.412649 0.745718
vt 0.412494 0.742377
vt 0.569330 0.889133
vt 0.426449 0.737994
vt 0.005195 0.884052
vt 0.006004 0.885264
vt 0.412410 0.737988
vt 0.567506 0.884728
vt 0.426449 0.733227
vt 0.009600 0.882228
vt 0.009883 0.883658
vt 0.412410 0.733221
vt 0.564135 0.881357
vt 0.426533 0.728807
vt 0.014367 0.882228
vt 0.014082 0.883657
vt 0.412494 0.728801
vt 0.559731 0.879533
vt 0.426689 0.725407
vt 0.018771 0.884052
vt 0.017961 0.885264
vt 0.412649 0.725401
vt 0.554963 0.879533
vt 0.867956 0.627036
vt 0.867872 0.622650
vt 0.022142 0.887423
vt 0.020930 0.888233
vt 0.881912 0.622650
vt 0.881996 0.627036
vt 0.550559 0.881357
vt 0.867958 0.631803
vt 0.023967 0.891828
vt 0.022536 0.892112
vt 0.881998 0.631803
vt 0.547188 0.884728
vt 0.867878 0.636226
vt 0.023967 0.896595
vt 0.022536 0.896311
vt 0.881918 0.636226
vt 0.545364 0.889133
vt 0.412588 0.789731
vt 0.412410 0.786059
vt 0.022142 0.900999
vt 0.020930 0.900190
vt 0.426440 0.786059
vt 0.426618 0.789731
vt 0.545364 0.893900
vt 0.412670 0.794286
vt 0.018771 0.904370
vt 0.017961 0.903158
vt 0.426700 0.794286
vt 0.547188 0.898304
vt 0.584742 0.773493
vt 0.595918 0.773493
vt 0.595891 0.778473
vt 0.584714 0.778473
vt 0.880527 0.582397
vt 0.869350 0.582397
vt 0.869265 0.577620
vt 0.880442 0.577620
vt 0.869291 0.572638
vt 0.880468 0.572638
vt 0.869424 0.568210
vt 0.880601 0.568210
vt 0.595855 0.722208
vt 0.584672 0.722203
vt 0.584509 0.718696
vt 0.595692 0.718701
vt 0.584420 0.714091
vt 0.595604 0.714096
vt 0.584420 0.709089
vt 0.595604 0.709093
vt 0.584509 0.704450
vt 0.595692 0.704455
vt 0.584672 0.700882
vt 0.595855 0.700887
vt 0.869322 0.665048
vt 0.880506 0.665048
vt 0.880595 0.669650
vt 0.869411 0.669650
vt 0.880597 0.674653
vt 0.869413 0.674653
vt 0.880513 0.679294
vt 0.869329 0.679294
vt 0.584469 0.764859
vt 0.595645 0.764859
vt 0.595832 0.768712
vt 0.584656 0.768712
vt 0.880710 0.586244
vt 0.869533 0.586244
vt 0.864862 0.317700
vt 0.861893 0.314731
vt 0.860287 0.310852
vt 0.860287 0.306653
vt 0.861893 0.302775
vt 0.864862 0.299806
vt 0.868741 0.298199
vt 0.872940 0.298199
vt 0.876819 0.299806
vt 0.879788 0.302775
vt 0.881394 0.306653
vt 0.881394 0.310852
vt 0.879788 0.314731
vt 0.876819 0.317700
vt 0.872940 0.319307
vt 0.868741 0.319307
vt 0.595754 0.782896
vt 0.584578 0.782896
vt 0.583123 0.782515
vt 0.583254 0.778301
vt 0.090671 0.904370
vt 0.086267 0.906195
vt 0.085982 0.904765
vt 0.089861 0.903159
vt 0.597284 0.778301
vt 0.597154 0.782515
vt 0.864052 0.318912
vt 0.860681 0.315541
vt 0.881984 0.582109
vt 0.882159 0.585774
vt 0.081499 0.906195
vt 0.081783 0.904765
vt 0.868127 0.585774
vt 0.867953 0.582109
vt 0.868457 0.320736
vt 0.881903 0.577557
vt 0.077095 0.904370
vt 0.077904 0.903159
vt 0.867872 0.577557
vt 0.873224 0.320736
vt 0.881928 0.572809
vt 0.073724 0.900999
vt 0.074935 0.900190
vt 0.867897 0.572809
vt 0.877628 0.318912
vt 0.882055 0.568590
vt 0.071900 0.896595
vt 0.073329 0.896311
vt 0.868024 0.568590
vt 0.880999 0.315541
vt 0.597143 0.718362
vt 0.597299 0.721703
vt 0.071900 0.891828
vt 0.073329 0.892112
vt 0.583259 0.721698
vt 0.583104 0.718356
vt 0.882824 0.311136
vt 0.597059 0.713973
vt 0.073724 0.887423
vt 0.074935 0.888233
vt 0.583020 0.713968
vt 0.882824 0.306369
vt 0.597059 0.709206
vt 0.077095 0.884052
vt 0.077904 0.885265
vt 0.583020 0.709201
vt 0.880999 0.301965
vt 0.597143 0.704786
vt 0.081499 0.882228
vt 0.081783 0.883658
vt 0.583104 0.704781
vt 0.877628 0.298594
vt 0.597299 0.701386
vt 0.086267 0.882228
vt 0.085982 0.883658
vt 0.583259 0.701381
vt 0.873224 0.296769
vt 0.867956 0.669774
vt 0.867872 0.665389
vt 0.090671 0.884052
vt 0.089861 0.885265
vt 0.881912 0.665389
vt 0.881996 0.669774
vt 0.868457 0.296769
vt 0.867958 0.674541
vt 0.094042 0.887423
vt 0.092829 0.888233
vt 0.881998 0.674541
vt 0.864052 0.298594
vt 0.867878 0.678964
vt 0.095866 0.891828
vt 0.094436 0.892112
vt 0.881918 0.678964
vt 0.860681 0.301965
vt 0.583198 0.768999
vt 0.583020 0.765327
vt 0.095866 0.896595
vt 0.094436 0.896311
vt 0.597050 0.765327
vt 0.597228 0.768999
vt 0.858857 0.306369
vt 0.583280 0.773554
vt 0.094042 0.900999
vt 0.092829 0.900190
vt 0.597310 0.773554
vt 0.858857 0.311136
s 1
f 82/1/82 83/2/83 86/3/86 85/4/85
f 83/2/83 84/5/84 87/6/87 86/3/86
f 85/4/85 86/3/86 89/7/89 88/8/88
f 86/3/86 87/6/87 90/9/90 89/7/89
f 12/10/12 66/11/66 82/1/82 43/12/43
f 66/11/66 65/13/65 83/2/83 82/1/82
f 65/13/65 64/14/64 84/5/84 83/2/83
f 64/14/64 10/15/10 22/16/22 84/5/84
f 84/5/84 22/16/22 23/17/23 87/6/87
f 87/6/87 23/17/23 24/18/24 90/9/90
f 90/9/90 24/18/24 4/19/4 40/20/40
f 89/7/89 90/9/90 40/20/40 41/21/41
f 88/8/88 89/7/89 41/21/41 42/22/42
f 45/23/45 88/8/88 42/22/42 8/24/8
f 44/25/44 85/4/85 88/8/88 45/23/45
f 43/12/43 82/1/82 85/4/85 44/25/44
f 91/26/91 92/27/92 95/28/95 94/29/94
f 92/27/92 93/30/93 96/31/96 95/28/95
f 94/29/94 95/28/95 98/32/98 97/33/97
f 95/28/95 96/31/96 99/34/99 98/32/98
f 9/35/9 63/36/63 91/26/91 48/37/48
f 63/36/63 62/38/62 92/27/92 91/26/91
f 62/38/62 61/39/61 93/30/93 92/27/92
f 61/39/61 11/40/11 34/41/34 93/30/93
f 93/30/93 34/41/34 35/42/35 96/31/96
f 96/31/96 35/42/35 36/43/36 99/34/99
f 99/34/99 36/43/36 6/44/6 25/45/25
f 98/32/98 99/34/99 25/45/25 26/46/26
f 97/33/97 98/32/98 26/46/26 27/47/27
f 46/48/46 97/33/97 27/47/27 3/49/3
f 47/50/47 94/29/94 97/33/97 46/48/46
f 48/37/48 91/26/91 94/29/94 47/50/47
f 100/51/100 101/52/101 104/53/104 103/54/103
f 101/52/101 102/55/102 105/56/105 104/53/104
f 103/54/103 104/53/104 107/57/107 106/58/106
f 104/53/104 105/56/105 108/59/108 107/57/107
f 15/60/15 75/61/75 100/51/100 79/62/79
f 75/61/75 74/63/74 101/52/101 100/51/100
f 74/63/74 73/64/73 102/55/102 101/52/101
f 73/64/73 12/10/12 43/12/43 102/55/102
f 102/55/102 43/12/43 44/25/44 105/56/105
f 105/56/105 44/25/44 45/23/45 108/59/108
f 108/59/108 45/23/45 8/24/8 67/65/67
f 107/57/107 108/59/108 67/65/67 68/66/68
f 106/58/106 107/57/107 68/66/68 69/67/69
f 81/68/81 106/58/106 69/67/69 13/69/13
f 80/70/80 103/54/103 106/58/106 81/68/81
f 79/62/79 100/51/100 103/54/103 80/70/80
f 109/71/109 110/72/110 113/73/113 112/74/112
f 110/72/110 111/75/111 114/76/114 113/73/113
f 112/74/112 113/73/113 116/77/116 115/78/115
f 113/73/113 114/76/114 117/79/117 116/77/116
f 14/80/14 37/81/37 109/71/109 76/82/76
f 37/81/37 38/83/38 110/72/110 109/71/109
f 38/83/38 39/84/39 111/75/111 110/72/110
f 39/84/39 7/85/7 55/86/55 111/75/111
f 111/75/111 55/86/55 56/87/56 114/76/114
f 114/76/114 56/87/56 57/88/57 117/79/117
f 117/79/117 57/88/57 12/10/12 73/64/73
f 116/77/116 117/79/117 73/64/73 74/63/74
f 115/78/115 116/77/116 74/63/74 75/61/75
f 78/89/78 115/78/115 75/61/75 15/60/15
f 77/90/77 112/74/112 115/78/115 78/89/78
f 76/82/76 109/71/109 112/74/112 77/90/77
f 118/91/118 119/92/119 122/93/122 121/94/121
f 119/92/119 120/95/120 123/96/123 122/93/122
f 121/94/121 122/93/122 125/97/125 124/98/124
f 122/93/122 123/96/123 126/99/126 125/97/125
f 1/100/1 28/101/28 118/91/118 18/102/18
f 28/101/28 29/103/29 119/92/119 118/91/118
f 29/103/29 30/104/30 120/95/120 119/92/119
f 30/104/30 5/105/5 52/106/52 120/95/120
f 120/95/120 52/106/52 53/107/53 123/96/123
f 123/96/123 53/107/53 54/108/54 126/99/126
f 126/99/126 54/108/54 11/40/11 61/39/61
f 125/97/125 126/99/126 61/39/61 62/38/62
f 124/98/124 125/97/125 62/38/62 63/36/63
f 16/109/16 124/98/124 63/36/63 9/35/9
f 17/110/17 121/94/121 124/98/124 16/109/16
f 18/102/18 118/91/118 121/94/121 17/110/17
f 127/111/127 128/112/128 131/113/131 130/114/130
f 128/112/128 129/115/129 132/116/132 131/113/131
f 130/114/130 131/113/131 134/117/134 133/118/133
f 131/113/131 132/116/132 135/119/135 134/117/134
f 7/85/7 19/120/19 127/111/127 55/86/55
f 19/120/19 20/121/20 128/112/128 127/111/127
f 20/121/20 21/122/21 129/115/129 128/112/128
f 21/122/21 2/123/2 49/124/49 129/115/129
f 129/115/129 49/124/49 50/125/50 132/116/132
f 132/116/132 50/125/50 51/126/51 135/119/135
f 135/119/135 51/126/51 10/15/10 64/14/64
f 134/117/134 135/119/135 64/14/64 65/13/65
f 133/118/133 134/117/134 65/13/65 66/11/66
f 57/88/57 133/118/133 66/11/66 12/10/12
f 56/87/56 130/114/130 133/118/133 57/88/57
f 55/86/55 127/111/127 130/114/130 56/87/56
f 136/127/136 137/128/137 140/129/140 139/130/139
f 137/128/137 138/131/138 141/132/141 140/129/140
f 139/130/139 140/129/140 143/133/143 142/134/142
f 140/129/140 141/132/141 144/135/144 143/133/143
f 5/105/5 70/136/70 136/127/136 52/106/52
f 70/136/70 71/137/71 137/128/137 136/127/136
f 71/137/71 72/138/72 138/131/138 137/128/137
f 72/138/72 14/80/14 76/82/76 138/131/138
f 138/131/138 76/82/76 77/90/77 141/132/141
f 141/132/141 77/90/77 78/89/78 144/135/144
f 144/135/144 78/89/78 15/60/15 58/139/58
f 143/133/143 144/135/144 58/139/58 59/140/59
f 142/134/142 143/133/143 59/140/59 60/141/60
f 54/108/54 142/134/142 60/141/60 11/40/11
f 53/107/53 139/130/139 142/134/142 54/108/54
f 52/106/52 136/127/136 139/130/139 53/107/53
f 145/142/145 146/143/146 149/144/149 148/145/148
f 146/143/146 147/146/147 150/147/150 149/144/149
f 148/145/148 149/144/149 152/148/152 151/149/151
f 149/144/149 150/147/150 153/150/153 152/148/152
f 11/40/11 60/141/60 145/142/145 34/41/34
f 60/141/60 59/140/59 146/143/146 145/142/145
f 59/140/59 58/139/58 147/146/147 146/143/146
f 58/139/58 15/60/15 79/62/79 147/146/147
f 147/146/147 79/62/79 80/70/80 150/147/150
f 150/147/150 80/70/80 81/68/81 153/150/153
f 153/150/153 81/68/81 13/69/13 31/151/31
f 152/148/152 153/150/153 31/151/31 32/152/32
f 151/149/151 152/148/152 32/152/32 33/153/33
f 36/43/36 151/149/151 33/153/33 6/44/6
f 35/42/35 148/145/148 151/149/151 36/43/36
f 34/41/34 145/142/145 148/145/148 35/42/35
f 174/154/174 180/155/180 213/156/213 205/157/205
f 211/158/211 179/159/179 229/160/229 236/161/236
f 276/162/276 270/163/270 262/164/262 256/165/256
f 188/166/188 156/167/156 219/168/219 248/169/248
f 221/170/221 230/171/230 181/172/181 173/173/173
f 186/174/186 195/175/195 268/176/268 275/177/275
f 157/178/157 187/179/187 277/180/277 255/181/255
f 206/182/206 212/183/212 239/184/239 246/185/246
f 198/186/198 164/187/164 263/188/263 269/189/269
f 172/190/172 204/191/204 245/192/245 218/193/218
f 155/194/155 166/195/166 227/196/227 220/197/220
f 165/198/165 197/199/197 237/200/237 228/201/228
f 196/202/196 189/203/189 247/204/247 238/205/238
f 154/206/154 158/207/158 159/208/159 162/209/162
f 155/194/155 160/210/160 159/211/159 158/212/158
f 156/167/156 161/213/161 159/211/159 160/210/160
f 157/178/157 162/214/162 159/215/159 161/216/161
f 163/217/163 167/218/167 168/219/168 171/220/171
f 164/187/164 169/221/169 168/222/168 167/223/167
f 165/198/165 170/224/170 168/225/168 169/226/169
f 166/195/166 171/227/171 168/225/168 170/224/170
f 172/190/172 175/228/175 176/229/176 178/230/178
f 173/173/173 177/231/177 176/232/176 175/233/175
f 174/154/174 178/234/178 176/235/176 177/236/177
f 179/159/179 182/237/182 183/238/183 185/239/185
f 180/155/180 184/240/184 183/241/183 182/242/182
f 181/172/181 185/243/185 183/244/183 184/245/184
f 186/174/186 190/246/190 191/247/191 194/248/194
f 187/179/187 192/249/192 191/250/191 190/251/190
f 188/166/188 193/252/193 191/253/191 192/254/192
f 189/203/189 194/255/194 191/253/191 193/252/193
f 195/175/195 199/256/199 200/257/200 203/258/203
f 196/202/196 201/259/201 200/260/200 199/261/199
f 197/199/197 202/262/202 200/260/200 201/259/201
f 198/186/198 203/263/203 200/264/200 202/265/202
f 204/191/204 207/266/207 208/267/208 210/268/210
f 205/157/205 209/269/209 208/270/208 207/271/207
f 206/182/206 210/272/210 208/273/208 209/274/209
f 211/158/211 214/275/214 215/276/215 217/277/217
f 212/183/212 216/278/216 215/279/215 214/280/214
f 213/156/213 217/281/217 215/282/215 216/283/216
f 218/193/218 222/284/222 223/285/223 226/286/226
f 219/168/219 224/287/224 223/288/223 222/289/222
f 220/197/220 225/290/225 223/288/223 224/287/224
f 221/170/221 226/291/226 223/292/223 225/293/225
f 227/196/227 231/294/231 232/295/232 235/296/235
f 228/201/228 233/297/233 232/295/232 231/294/231
f 229/160/229 234/298/234 232/299/232 233/300/233
f 230/171/230 235/301/235 232/302/232 234/303/234
f 236/161/236 240/304/240 241/305/241 244/306/244
f 237/200/237 242/307/242 241/308/241 240/309/240
f 238/205/238 243/310/243 241/308/241 242/307/242
f 239/311/239 244/312/244 241/308/241 243/310/243
f 245/192/245 249/313/249 250/314/250 253/315/253
f 246/185/246 251/316/251 250/317/250 249/318/249
f 247/204/247 252/319/252 250/320/250 251/321/251
f 248/169/248 253/322/253 250/320/250 252/319/252
f 254/323/254 257/324/257 258/325/258 260/326/260
f 255/181/255 259/327/259 258/328/258 257/329/257
f 256/165/256 260/330/260 258/331/258 259/332/259
f 261/333/261 264/334/264 265/335/265 267/336/267
f 262/164/262 266/337/266 265/338/265 264/339/264
f 263/188/263 267/340/267 265/341/265 266/342/266
f 268/176/268 271/343/271 272/344/272 274/345/274
f 269/189/269 273/346/273 272/347/272 271/348/271
f 270/163/270 274/349/274 272/350/272 273/351/273
f 275/177/275 278/352/278 279/353/279 281/354/281
f 276/162/276 280/355/280 279/356/279 278/357/278
f 277/180/277 281/358/281 279/359/279 280/360/280
f 172/190/172 218/193/218 226/286/226 175/228/175
f 175/233/175 226/291/226 221/170/221 173/173/173
f 220/197/220 227/196/227 235/296/235 225/290/225
f 225/293/225 235/301/235 230/171/230 221/170/221
f 229/160/229 179/159/179 185/239/185 234/298/234
f 234/303/234 185/243/185 181/172/181 230/171/230
f 180/155/180 174/154/174 177/236/177 184/240/184
f 184/245/184 177/231/177 173/173/173 181/172/181
f 204/191/204 172/190/172 178/230/178 207/266/207
f 207/271/207 178/234/178 174/154/174 205/157/205
f 179/159/179 211/158/211 217/277/217 182/237/182
f 182/242/182 217/281/217 213/156/213 180/155/180
f 212/183/212 206/182/206 209/274/209 216/278/216
f 216/283/216 209/269/209 205/157/205 213/156/213
f 245/192/245 204/191/204 210/268/210 249/313/249
f 249/318/249 210/272/210 206/182/206 246/185/246
f 211/158/211 236/161/236 244/306/244 214/275/214
f 214/280/214 244/361/244 239/184/239 212/183/212
f 238/205/238 247/204/247 251/321/251 243/310/243
f 243/362/243 251/316/251 246/185/246 239/184/239
f 218/193/218 245/192/245 253/315/253 222/284/222
f 222/289/222 253/322/253 248/169/248 219/168/219
f 236/161/236 229/160/229 233/300/233 240/304/240
f 240/309/240 233/297/233 228/201/228 237/200/237
f 154/206/154 163/217/163 171/220/171 158/207/158
f 158/212/158 171/227/171 166/195/166 155/194/155
f 195/175/195 186/174/186 194/248/194 199/256/199
f 199/261/199 194/255/194 189/203/189 196/202/196
f 156/167/156 188/166/188 192/254/192 161/213/161
f 161/216/161 192/249/192 187/179/187 157/178/157
f 197/199/197 165/198/165 169/226/169 202/262/202
f 202/265/202 169/221/169 164/187/164 198/186/198
f 219/168/219 156/167/156 160/210/160 224/287/224
f 224/287/224 160/210/160 155/194/155 220/197/220
f 165/198/165 228/201/228 231/294/231 170/224/170
f 170/224/170 231/294/231 227/196/227 166/195/166
f 237/200/237 197/199/197 201/259/201 242/307/242
f 242/307/242 201/259/201 196/202/196 238/205/238
f 188/166/188 248/169/248 252/319/252 193/252/193
f 193/252/193 252/319/252 247/204/247 189/203/189
f 256/165/256 262/164/262 264/339/264 260/330/260
f 260/326/260 264/334/264 261/333/261 254/323/254
f 270/163/270 276/162/276 278/357/278 274/349/274
f 274/345/274 278/352/278 275/177/275 268/176/268
f 255/181/255 277/180/277 280/360/280 259/327/259
f 259/332/259 280/355/280 276/162/276 256/165/256
f 269/189/269 263/188/263 266/342/266 273/346/273
f 273/351/273 266/337/266 262/164/262 270/163/270
f 186/174/186 275/177/275 281/354/281 190/246/190
f 190/251/190 281/358/281 277/180/277 187/179/187
f 254/323/254 154/206/154 162/209/162 257/324/257
f 257/329/257 162/214/162 157/178/157 255/181/255
f 263/188/263 164/187/164 167/223/167 267/340/267
f 267/336/267 167/218/167 163/217/163 261/333/261
f 268/176/268 195/175/195 203/258/203 271/343/271
f 271/348/271 203/263/203 198/186/198 269/189/269
f 163/217/163 154/206/154 254/323/254 261/333/261
f 373/363/373 376/364/376 286/365/286 283/366/283
f 295/367/295 298/368/298 304/369/304 301/370/301
f 301/370/301 304/369/304 310/371/310 307/372/307
f 307/372/307 310/371/310 316/373/316 313/374/313
f 313/375/313 316/376/316 322/377/322 319/378/319
f 319/378/319 322/377/322 328/379/328 325/380/325
f 325/380/325 328/379/328 334/381/334 331/382/331
f 331/382/331 334/381/334 340/383/340 337/384/337
f 337/384/337 340/383/340 346/385/346 343/386/343
f 343/387/343 346/388/346 352/389/352 349/390/349
f 349/390/349 352/389/352 358/391/358 355/392/355
f 355/392/355 358/391/358 364/393/364 361/394/361
f 361/395/361 364/396/364 370/397/370 367/398/367
f 367/398/367 370/397/370 376/364/376 373/363/373
f 289/399/289 292/400/292 298/368/298 295/367/295
f 291/401/291 285/402/285 375/403/375 369/404/369 363/405/363 357/406/357 351/407/351 345/408/345 339/409/339 333/410/333 327/411/327 321/412/321 315/413/315 309/414/309 303/415/303 297/416/297
f 283/366/283 286/365/286 292/417/292 289/418/289
f 283/366/283 289/418/289 290/419/290 284/420/284
f 284/421/284 290/422/290 288/423/288 282/424/282
f 292/417/292 286/365/286 287/425/287 293/426/293
f 293/427/293 287/428/287 285/402/285 291/401/291
f 289/399/289 295/367/295 296/429/296 290/430/290
f 290/422/290 296/431/296 294/432/294 288/423/288
f 298/368/298 292/400/292 293/433/293 299/434/299
f 299/435/299 293/427/293 291/401/291 297/416/297
f 295/367/295 301/370/301 302/436/302 296/429/296
f 296/431/296 302/437/302 300/438/300 294/432/294
f 304/369/304 298/368/298 299/434/299 305/439/305
f 305/440/305 299/435/299 297/416/297 303/415/303
f 301/370/301 307/372/307 308/441/308 302/436/302
f 302/437/302 308/442/308 306/443/306 300/438/300
f 310/371/310 304/369/304 305/439/305 311/444/311
f 311/445/311 305/440/305 303/415/303 309/414/309
f 307/372/307 313/374/313 314/446/314 308/441/308
f 308/442/308 314/447/314 312/448/312 306/443/306
f 316/373/316 310/371/310 311/444/311 317/449/317
f 317/450/317 311/445/311 309/414/309 315/413/315
f 313/375/313 319/378/319 320/451/320 314/452/314
f 314/447/314 320/453/320 318/454/318 312/448/312
f 322/377/322 316/376/316 317/455/317 323/456/323
f 323/457/323 317/450/317 315/413/315 321/412/321
f 319/378/319 325/380/325 326/458/326 320/451/320
f 320/453/320 326/459/326 324/460/324 318/454/318
f 328/379/328 322/377/322 323/456/323 329/461/329
f 329/462/329 323/457/323 321/412/321 327/411/327
f 325/380/325 331/382/331 332/463/332 326/458/326
f 326/459/326 332/464/332 330/465/330 324/460/324
f 334/381/334 328/379/328 329/461/329 335/466/335
f 335/467/335 329/462/329 327/411/327 333/410/333
f 331/382/331 337/384/337 338/468/338 332/463/332
f 332/464/332 338/469/338 336/470/336 330/465/330
f 340/383/340 334/381/334 335/466/335 341/471/341
f 341/472/341 335/467/335 333/410/333 339/409/339
f 337/384/337 343/386/343 344/473/344 338/468/338
f 338/469/338 344/474/344 342/475/342 336/470/336
f 346/385/346 340/383/340 341/471/341 347/476/347
f 347/477/347 341/472/341 339/409/339 345/408/345
f 343/387/343 349/390/349 350/478/350 344/479/344
f 344/474/344 350/480/350 348/481/348 342/475/342
f 352/389/352 346/388/346 347/482/347 353/483/353
f 353/484/353 347/477/347 345/408/345 351/407/351
f 349/390/349 355/392/355 356/485/356 350/478/350
f 350/480/350 356/486/356 354/487/354 348/481/348
f 358/391/358 352/389/352 353/483/353 359/488/359
f 359/489/359 353/484/353 351/407/351 357/406/357
f 355/392/355 361/394/361 362/490/362 356/485/356
f 356/486/356 362/491/362 360/492/360 354/487/354
f 364/393/364 358/391/358 359/488/359 365/493/365
f 365/494/365 359/489/359 357/406/357 363/405/363
f 361/395/361 367/398/367 368/495/368 362/496/362
f 362/491/362 368/497/368 366/498/366 360/492/360
f 370/397/370 364/396/364 365/499/365 371/500/371
f 371/501/371 365/494/365 363/405/363 369/404/369
f 367/398/367 373/363/373 374/502/374 368/495/368
f 368/497/368 374/503/374 372/504/372 366/498/366
f 376/364/376 370/397/370 371/500/371 377/505/377
f 377/506/377 371/501/371 369/404/369 375/403/375
f 373/363/373 283/366/283 284/420/284 374/502/374
f 374/503/374 284/421/284 282/424/282 372/504/372
f 286/365/286 376/364/376 377/505/377 287/425/287
f 287/428/287 377/506/377 375/403/375 285/402/285
f 282/424/282 288/423/288 294/432/294 300/438/300 306/443/306 312/448/312 318/454/318 324/460/324 330/465/330 336/470/336 342/475/342 348/481/348 354/487/354 360/492/360 366/498/366 372/504/372
f 469/507/373 472/508/376 382/509/286 379/510/283
f 391/511/295 394/512/298 400/513/304 397/514/301
f 397/514/301 400/513/304 406/515/310 403/516/307
f 403/516/307 406/515/310 412/517/316 409/518/313
f 409/519/313 412/520/316 418/521/322 415/522/319
f 415/522/319 418/521/322 424/523/328 421/524/325
f 421/524/325 424/523/328 430/525/334 427/526/331
f 427/526/331 430/525/334 436/527/340 433/528/337
f 433/528/337 436/527/340 442/529/346 439/530/343
f 439/531/343 442/532/346 448/533/352 445/534/349
f 445/534/349 448/533/352 454/535/358 451/536/355
f 451/536/355 454/535/358 460/537/364 457/538/361
f 457/539/361 460/540/364 466/541/370 463/542/367
f 463/542/367 466/541/370 472/508/376 469/507/373
f 385/543/289 388/544/292 394/512/298 391/511/295
f 387/545/291 381/546/285 471/547/375 465/548/369 459/549/363 453/550/357 447/551/351 441/552/345 435/553/339 429/554/333 423/555/327 417/556/379 411/557/315 405/558/309 399/559/303 393/560/378
f 379/510/283 382/509/286 388/561/292 385/562/289
f 379/510/283 385/562/289 386/563/290 380/564/284
f 380/565/284 386/566/290 384/567/288 378/568/282
f 388/561/292 382/509/286 383/569/287 389/570/293
f 389/571/293 383/572/287 381/546/285 387/545/291
f 385/543/289 391/511/295 392/573/296 386/574/290
f 386/566/290 392/575/296 390/576/294 384/567/288
f 394/512/298 388/544/292 389/577/293 395/578/299
f 395/579/299 389/571/293 387/545/291 393/560/378
f 391/511/295 397/514/301 398/580/302 392/573/296
f 392/575/296 398/581/302 396/582/300 390/576/294
f 400/513/304 394/512/298 395/578/299 401/583/305
f 401/584/305 395/579/299 393/560/378 399/559/303
f 397/514/301 403/516/307 404/585/308 398/580/302
f 398/581/302 404/586/308 402/587/306 396/582/300
f 406/515/310 400/513/304 401/583/305 407/588/311
f 407/589/311 401/584/305 399/559/303 405/558/309
f 403/516/307 409/518/313 410/590/314 404/585/308
f 404/586/308 410/591/314 408/592/312 402/587/306
f 412/517/316 406/515/310 407/588/311 413/593/317
f 413/594/317 407/589/311 405/558/309 411/557/315
f 409/519/313 415/522/319 416/595/320 410/596/314
f 410/591/314 416/597/320 414/598/318 408/592/312
f 418/521/322 412/520/316 413/599/317 419/600/323
f 419/601/323 413/594/317 411/557/315 417/556/379
f 415/522/319 421/524/325 422/602/326 416/595/320
f 416/597/320 422/603/326 420/604/324 414/598/318
f 424/523/328 418/521/322 419/600/323 425/605/329
f 425/606/329 419/601/323 417/556/379 423/555/327
f 421/524/325 427/526/331 428/607/332 422/602/326
f 422/603/326 428/608/332 426/609/330 420/604/324
f 430/525/334 424/523/328 425/605/329 431/610/335
f 431/611/335 425/606/329 423/555/327 429/554/333
f 427/526/331 433/528/337 434/612/338 428/607/332
f 428/608/332 434/613/338 432/614/336 426/609/330
f 436/527/340 430/525/334 431/610/335 437/615/341
f 437/616/341 431/611/335 429/554/333 435/553/339
f 433/528/337 439/530/343 440/617/344 434/612/338
f 434/613/338 440/618/344 438/619/342 432/614/336
f 442/529/346 436/527/340 437/615/341 443/620/347
f 443/621/347 437/616/341 435/553/339 441/552/345
f 439/531/343 445/534/349 446/622/350 440/623/344
f 440/618/344 446/624/350 444/625/348 438/619/342
f 448/533/352 442/532/346 443/626/347 449/627/353
f 449/628/353 443/621/347 441/552/345 447/551/351
f 445/534/349 451/536/355 452/629/356 446/622/350
f 446/624/350 452/630/356 450/631/354 444/625/348
f 454/535/358 448/533/352 449/627/353 455/632/359
f 455/633/359 449/628/353 447/551/351 453/550/357
f 451/536/355 457/538/361 458/634/362 452/629/356
f 452/630/356 458/635/362 456/636/360 450/631/354
f 460/537/364 454/535/358 455/632/359 461/637/365
f 461/638/365 455/633/359 453/550/357 459/549/363
f 457/539/361 463/542/367 464/639/368 458/640/362
f 458/635/362 464/641/368 462/642/366 456/636/360
f 466/541/370 460/540/364 461/643/365 467/644/371
f 467/645/371 461/638/365 459/549/363 465/548/369
f 463/542/367 469/507/373 470/646/374 464/639/368
f 464/641/368 470/647/374 468/648/372 462/642/366
f 472/508/376 466/541/370 467/644/371 473/649/377
f 473/650/377 467/645/371 465/548/369 471/547/375
f 469/507/373 379/510/283 380/564/284 470/646/374
f 470/647/374 380/565/284 378/568/282 468/648/372
f 382/509/286 472/508/376 473/649/377 383/569/287
f 383/572/287 473/650/377 471/547/375 381/546/285
f 378/568/282 384/567/288 390/576/294 396/582/300 402/587/306 408/592/312 414/598/318 420/604/324 426/609/330 432/614/336 438/619/342 444/625/348 450/631/354 456/636/360 462/642/366 468/648/372
