# Blender 4.4.3
# www.blender.org
mtllib 3.mtl
o Cube.189
v 0.318787 0.882216 0.074296
v 0.272079 0.882216 -0.045057
v 0.275113 1.752079 0.516419
v 0.204601 1.752079 0.336998
v 0.193194 0.882216 0.124563
v 0.146487 0.882216 0.005210
v 0.125651 1.752079 0.572976
v 0.055139 1.752079 0.393554
vn 0.9067 0.2265 -0.3557
vn -0.0000 1.0000 -0.0000
vn -0.9008 -0.2523 0.3534
vn -0.0000 -1.0000 -0.0000
vn 0.3296 -0.4134 0.8488
vn -0.3384 0.3550 -0.8715
vt 0.995262 0.678622
vt 0.978105 0.686227
vt 0.969452 0.547029
vt 0.995262 0.535599
vt 0.835392 0.353879
vt 0.835392 0.325651
vt 0.858790 0.325354
vt 0.858790 0.353582
vt 0.925955 0.203208
vt 0.951824 0.214507
vt 0.943151 0.354367
vt 0.925955 0.346849
vt 0.998262 0.840044
vt 1.000000 0.847605
vt 0.980687 0.852003
vt 0.978949 0.844441
vt 0.977145 0.701429
vt 1.000000 0.696413
vt 0.201198 0.854700
vt 0.223953 0.860150
vt 0.220429 0.999572
vt 0.201198 0.994829
s 0
f 1/1/1 2/2/1 4/3/1 3/4/1
f 3/5/2 4/6/2 8/7/2 7/8/2
f 7/9/3 8/10/3 6/11/3 5/12/3
f 5/13/4 6/14/4 2/15/4 1/16/4
f 3/17/5 7/18/5 5/13/5 1/16/5
f 8/19/6 4/20/6 2/21/6 6/22/6
