# Blender 4.4.3
# www.blender.org
mtllib 4.mtl
o Cylinder.027
v 0.000000 0.864569 -0.101911
v 0.000000 3.149256 -0.101911
v 0.039000 0.864569 -0.094154
v 0.039000 3.149256 -0.094154
v 0.072062 0.864569 -0.072062
v 0.072062 3.149256 -0.072062
v 0.094154 0.864569 -0.039000
v 0.094154 3.149256 -0.039000
v 0.101911 0.864569 0.000000
v 0.101911 3.149256 0.000000
v 0.094154 0.864569 0.039000
v 0.094154 3.149256 0.039000
v 0.072062 0.864569 0.072062
v 0.072062 3.149256 0.072062
v 0.039000 0.864569 0.094154
v 0.039000 3.149256 0.094154
v 0.000000 0.864569 0.101911
v 0.000000 3.149256 0.101911
v -0.039000 0.864569 0.094154
v -0.039000 3.149256 0.094154
v -0.072062 0.864569 0.072062
v -0.072062 3.149256 0.072062
v -0.094154 0.864569 0.039000
v -0.094154 3.149256 0.039000
v -0.101911 0.864569 0.000000
v -0.101911 3.149256 0.000000
v -0.094154 0.864569 -0.039000
v -0.094154 3.149256 -0.039000
v -0.072062 0.864569 -0.072062
v -0.072062 3.149256 -0.072062
v -0.039000 0.864569 -0.094154
v -0.039000 3.149256 -0.094154
vn -0.0000 -0.0000 -1.0000
vn 0.3827 -0.0000 -0.9239
vn 0.7071 -0.0000 -0.7071
vn 0.9239 -0.0000 -0.3827
vn 1.0000 -0.0000 -0.0000
vn 0.9239 -0.0000 0.3827
vn 0.7071 -0.0000 0.7071
vn 0.3827 -0.0000 0.9239
vn -0.0000 -0.0000 1.0000
vn -0.3827 -0.0000 0.9239
vn -0.7071 -0.0000 0.7071
vn -0.9239 -0.0000 0.3827
vn -1.0000 -0.0000 -0.0000
vn -0.9239 -0.0000 -0.3827
vn -0.7071 -0.0000 -0.7071
vn -0.0000 1.0000 -0.0000
vn -0.3827 -0.0000 -0.9239
vn -0.0000 -1.0000 -0.0000
vt 0.435856 0.809033
vt 0.435856 0.474491
vt 0.441678 0.474491
vt 0.441678 0.809033
vt 0.447058 0.474491
vt 0.447058 0.809033
vt 0.451175 0.474491
vt 0.451175 0.809033
vt 0.883902 0.696413
vt 0.883902 0.361872
vt 0.889282 0.361872
vt 0.889282 0.696413
vt 0.895104 0.361872
vt 0.895104 0.696413
vt 0.900483 0.361872
vt 0.900483 0.696413
vt 0.904601 0.361872
vt 0.904601 0.696413
vt 0.904601 0.696413
vt 0.904601 0.361872
vt 0.909980 0.361872
vt 0.909980 0.696413
vt 0.915802 0.361872
vt 0.915802 0.696413
vt 0.921182 0.361872
vt 0.921182 0.696413
vt 0.925299 0.361872
vt 0.925299 0.696413
vt 0.925299 0.696413
vt 0.925299 0.361872
vt 0.930678 0.361872
vt 0.930678 0.696413
vt 0.936501 0.361872
vt 0.936501 0.696413
vt 0.941880 0.361872
vt 0.941880 0.696413
vt 0.788633 0.323813
vt 0.784516 0.319696
vt 0.782288 0.314317
vt 0.782288 0.308494
vt 0.784516 0.303115
vt 0.788633 0.298998
vt 0.794013 0.296770
vt 0.799835 0.296770
vt 0.805215 0.298998
vt 0.809332 0.303115
vt 0.811560 0.308494
vt 0.811560 0.314317
vt 0.809332 0.319696
vt 0.805215 0.323813
vt 0.799835 0.326041
vt 0.794013 0.326041
vt 0.945997 0.361872
vt 0.945997 0.696413
vt 0.430477 0.809033
vt 0.430477 0.474491
vt 0.784516 0.348968
vt 0.782288 0.343589
vt 0.782288 0.337766
vt 0.784516 0.332387
vt 0.788633 0.328270
vt 0.794013 0.326041
vt 0.799835 0.326041
vt 0.805215 0.328270
vt 0.809332 0.332387
vt 0.811560 0.337766
vt 0.811560 0.343589
vt 0.809332 0.348968
vt 0.805215 0.353085
vt 0.799835 0.355313
vt 0.794013 0.355313
vt 0.788633 0.353085
s 1
f 1/1/1 2/2/1 4/3/2 3/4/2
f 3/4/2 4/3/2 6/5/3 5/6/3
f 5/6/3 6/5/3 8/7/4 7/8/4
f 7/9/4 8/10/4 10/11/5 9/12/5
f 9/12/5 10/11/5 12/13/6 11/14/6
f 11/14/6 12/13/6 14/15/7 13/16/7
f 13/16/7 14/15/7 16/17/8 15/18/8
f 15/19/8 16/20/8 18/21/9 17/22/9
f 17/22/9 18/21/9 20/23/10 19/24/10
f 19/24/10 20/23/10 22/25/11 21/26/11
f 21/26/11 22/25/11 24/27/12 23/28/12
f 23/29/12 24/30/12 26/31/13 25/32/13
f 25/32/13 26/31/13 28/33/14 27/34/14
f 27/34/14 28/33/14 30/35/15 29/36/15
f 4/37/16 2/38/16 32/39/16 30/40/16 28/41/16 26/42/16 24/43/16 22/44/16 20/45/16 18/46/16 16/47/16 14/48/16 12/49/16 10/50/16 8/51/16 6/52/16
f 29/36/15 30/35/15 32/53/17 31/54/17
f 31/55/17 32/56/17 2/2/1 1/1/1
f 1/57/18 3/58/18 5/59/18 7/60/18 9/61/18 11/62/18 13/63/18 15/64/18 17/65/18 19/66/18 21/67/18 23/68/18 25/69/18 27/70/18 29/71/18 31/72/18
