# Blender 4.4.3
# www.blender.org
mtllib 5.mtl
o Cube.187
v -0.225105 0.882216 -0.411735
v -0.357367 0.882216 -0.272806
v 0.159166 2.099247 -0.730518
v 0.026442 2.099247 -0.590703
v -0.111377 0.882216 -0.298784
v -0.243638 0.882216 -0.159855
v 0.273659 2.099247 -0.619033
v 0.140935 2.099247 -0.479218
vn -0.7239 0.0484 -0.6882
vn -0.0000 1.0000 -0.0000
vn 0.7239 -0.0481 0.6882
vn -0.0000 -1.0000 -0.0000
vn 0.6490 -0.3784 -0.6600
vn -0.6492 0.3778 0.6602
vt 0.952102 0.192621
vt 0.926086 0.203208
vt 0.925955 0.010638
vt 0.952102 -0.000000
vt 0.858790 0.353879
vt 0.858790 0.325651
vt 0.882188 0.325354
vt 0.882188 0.353582
vt 0.904601 0.696413
vt 0.930736 0.707081
vt 0.930605 0.899736
vt 0.904601 0.889119
vt 0.835392 0.324857
vt 0.835392 0.296770
vt 0.858857 0.297266
vt 0.858857 0.325354
vt 0.930810 0.697346
vt 0.954191 0.696413
vt 0.954191 0.889119
vt 0.930736 0.889967
vt 0.945997 0.361872
vt 0.969378 0.362809
vt 0.969452 0.555379
vt 0.945997 0.554526
s 0
f 1/1/1 2/2/1 4/3/1 3/4/1
f 3/5/2 4/6/2 8/7/2 7/8/2
f 7/9/3 8/10/3 6/11/3 5/12/3
f 5/13/4 6/14/4 2/15/4 1/16/4
f 3/17/5 7/18/5 5/19/5 1/20/5
f 8/21/6 4/22/6 2/23/6 6/24/6
