# Blender 4.4.3
# www.blender.org
mtllib 6.mtl
o Cube.196
v 1.230149 1.999808 -0.329157
v 0.152419 1.999808 -1.206533
v 1.230149 2.806329 -0.329157
v 0.152419 2.806329 -1.206533
v 1.110650 1.920664 -0.426440
v 1.110650 2.885473 -0.426440
v 0.261242 1.920664 -1.117940
v 0.261242 2.885473 -1.117940
v 1.238996 2.403069 -0.321954
v 0.146189 2.403069 -1.211605
v 1.128846 2.403069 -0.448792
v 0.279439 2.403069 -1.140291
v 0.684617 2.885473 -0.773272
v 0.684617 1.920664 -0.773272
v 0.757402 2.403069 -0.862678
v 1.238855 2.283724 -0.322069
v 1.237873 2.171916 -0.322869
v 1.235204 2.075184 -0.325041
v 0.207286 1.921920 -1.161866
v 0.175601 1.930714 -1.187660
v 0.159556 1.954583 -1.200722
v 0.146287 2.522413 -1.211524
v 0.146980 2.634221 -1.210961
v 0.148859 2.730953 -1.209431
v 1.167016 2.884217 -0.380553
v 1.201608 2.875423 -0.352392
v 1.220561 2.851554 -0.336963
v 1.220561 1.954583 -0.336963
v 1.201608 1.930714 -0.352392
v 1.167016 1.921920 -0.380553
v 0.808568 2.885473 -0.672364
v 0.925542 2.885473 -0.577136
v 1.028562 2.885473 -0.493268
v 1.127283 2.523670 -0.446871
v 1.123160 2.644271 -0.441807
v 1.117332 2.764872 -0.434647
v 0.560708 1.920664 -0.874146
v 0.444025 1.920664 -0.969137
v 0.341794 1.920664 -1.052363
v 0.159556 2.851554 -1.200722
v 0.175602 2.875423 -1.187660
v 0.207286 2.884217 -1.161866
v 0.277875 2.523670 -1.138371
v 0.273752 2.644271 -1.133306
v 0.267924 2.764872 -1.126147
v 1.235204 2.730953 -0.325041
v 1.237873 2.634221 -0.322869
v 1.238856 2.522413 -0.322069
v 0.148859 2.075184 -1.209431
v 0.146980 2.171916 -1.210961
v 0.146287 2.283724 -1.211524
v 1.117332 2.041265 -0.434647
v 1.123160 2.161866 -0.441807
v 1.127283 2.282467 -0.446871
v 0.267924 2.041265 -1.126147
v 0.273752 2.161866 -1.133306
v 0.277875 2.282467 -1.138370
v 0.875382 2.403069 -0.754436
v 0.977856 2.403069 -0.641397
v 1.062964 2.403069 -0.535526
v 1.174833 2.403069 -0.389868
v 1.205006 2.403069 -0.354271
v 1.224636 2.403069 -0.334225
v 0.157171 2.403069 -1.203245
v 0.177085 2.403069 -1.191098
v 0.214863 2.403069 -1.171376
v 0.341794 2.885473 -1.052363
v 0.444025 2.885473 -0.969137
v 0.560708 2.885473 -0.874146
v 1.028562 1.920664 -0.493268
v 0.925542 1.920664 -0.577136
v 0.808568 1.920664 -0.672364
v 0.376196 2.403069 -1.094621
v 0.496339 2.403069 -1.033398
v 0.627522 2.403069 -0.956218
v 0.711343 2.041265 -0.806101
v 0.734657 2.161866 -0.834738
v 0.751147 2.282467 -0.854995
v 0.751147 2.523670 -0.854995
v 0.734657 2.644271 -0.834738
v 0.711343 2.764872 -0.806101
v 0.214206 2.523643 -1.170563
v 0.176906 2.523460 -1.190844
v 0.157198 2.523015 -1.203173
v 0.212481 2.644062 -1.168415
v 0.176506 2.642596 -1.190117
v 0.157494 2.639036 -1.202800
v 0.210057 2.764218 -1.165367
v 0.176058 2.759638 -1.188994
v 0.158311 2.748096 -1.201949
v 1.224539 2.523015 -0.334255
v 1.204787 2.523460 -0.354050
v 1.174170 2.523643 -0.389060
v 1.223962 2.639036 -0.334592
v 1.204108 2.642596 -0.353551
v 1.172410 2.644062 -0.386941
v 1.222581 2.748096 -0.335531
v 1.202981 2.759638 -0.352980
v 1.169902 2.764218 -0.383961
v 0.621780 2.523670 -0.949165
v 0.491843 2.523670 -1.027876
v 0.373240 2.523670 -1.090990
v 0.606642 2.644271 -0.930570
v 0.479991 2.644271 -1.013317
v 0.365446 2.644271 -1.081416
v 0.585241 2.764872 -0.904282
v 0.463234 2.764872 -0.992733
v 0.354426 2.764872 -1.067880
v 0.585241 2.041265 -0.904282
v 0.463234 2.041265 -0.992733
v 0.354426 2.041265 -1.067880
v 0.606642 2.161866 -0.930570
v 0.479991 2.161866 -1.013317
v 0.365446 2.161866 -1.081415
v 0.621780 2.282467 -0.949165
v 0.491843 2.282467 -1.027875
v 0.373240 2.282467 -1.090990
v 1.222581 2.058041 -0.335531
v 1.202981 2.046499 -0.352980
v 1.169902 2.041919 -0.383961
v 1.223962 2.167101 -0.334592
v 1.204108 2.163541 -0.353551
v 1.172410 2.162076 -0.386941
v 1.224539 2.283122 -0.334255
v 1.204787 2.282677 -0.354050
v 1.174170 2.282494 -0.389060
v 0.210057 2.041919 -1.165367
v 0.176058 2.046499 -1.188994
v 0.158311 2.058041 -1.201949
v 0.212481 2.162076 -1.168415
v 0.176506 2.163541 -1.190117
v 0.157494 2.167101 -1.202800
v 0.214206 2.282494 -1.170563
v 0.176906 2.282677 -1.190844
v 0.157198 2.283122 -1.203173
v 1.041194 2.041265 -0.508785
v 0.944751 2.041265 -0.600732
v 0.833101 2.041265 -0.702500
v 1.052213 2.161866 -0.522321
v 0.961508 2.161866 -0.621315
v 0.854503 2.161866 -0.728788
v 1.060007 2.282467 -0.531895
v 0.973360 2.282467 -0.635874
v 0.869640 2.282467 -0.747383
v 1.060007 2.523670 -0.531895
v 0.973360 2.523670 -0.635874
v 0.869640 2.523670 -0.747383
v 1.052213 2.644271 -0.522321
v 0.961508 2.644271 -0.621315
v 0.854503 2.644271 -0.728788
v 1.041194 2.764872 -0.508785
v 0.944751 2.764872 -0.600732
v 0.833101 2.764872 -0.702500
v 1.235245 1.995766 -0.392246
v 1.279508 1.977336 -0.396782
v 1.245002 1.932841 -0.424873
v 1.210846 1.964303 -0.412109
v 1.256437 1.986551 -0.403681
v 1.248489 1.965385 -0.410228
v 1.269402 1.945873 -0.405009
v 1.232038 1.955088 -0.423544
v 1.228099 1.973519 -0.398064
v 1.235245 2.806604 -0.392246
v 1.210846 2.838067 -0.412109
v 1.245002 2.869529 -0.424873
v 1.279508 2.825034 -0.396782
v 1.228099 2.828851 -0.398064
v 1.248489 2.836985 -0.410228
v 1.232038 2.847282 -0.423544
v 1.269402 2.856497 -0.405009
v 1.256437 2.815819 -0.403681
v 0.692013 1.870922 0.373112
v 0.716413 1.902385 0.392975
v 0.672150 1.902385 0.397511
v 0.709266 1.880138 0.387157
v 0.694632 1.884220 0.398667
v 0.695221 1.902385 0.404410
v 0.677968 1.880137 0.390365
v 0.692013 2.931448 0.373112
v 0.672150 2.899985 0.397511
v 0.716413 2.899985 0.392975
v 0.677968 2.922233 0.390365
v 0.694632 2.918150 0.398667
v 0.695221 2.899985 0.404410
v 0.709266 2.922232 0.387157
v 0.274785 1.995766 -1.174153
v 0.299184 1.964303 -1.154289
v 0.298332 1.932841 -1.195553
v 0.270249 1.987511 -1.218416
v 0.281931 1.973519 -1.168335
v 0.288772 1.966866 -1.191530
v 0.302872 1.955088 -1.179975
v 0.278675 1.948592 -1.211556
v 0.281684 1.991639 -1.197224
v 0.274785 2.806604 -1.174153
v 0.270249 2.814859 -1.218416
v 0.298332 2.869529 -1.195553
v 0.299184 2.838067 -1.154289
v 0.281684 2.810731 -1.197224
v 0.288772 2.835504 -1.191530
v 0.278675 2.853778 -1.211556
v 0.302872 2.847282 -1.179975
v 0.281931 2.828851 -1.168335
v -0.526414 1.870922 -0.618805
v -0.546277 1.902385 -0.594406
v -0.550813 1.902385 -0.638669
v -0.540459 1.880138 -0.601552
v -0.551969 1.884220 -0.616186
v -0.557712 1.902385 -0.615598
v -0.543667 1.880138 -0.632851
v -0.526414 2.931448 -0.618805
v -0.550813 2.899985 -0.638669
v -0.546277 2.899985 -0.594406
v -0.543667 2.922233 -0.632851
v -0.551969 2.918150 -0.616186
v -0.557712 2.899985 -0.615598
v -0.540459 2.922233 -0.601552
v 1.283263 1.870922 -0.353154
v 1.268621 1.902385 -0.405645
v 1.303127 1.946880 -0.377554
v 1.307663 1.902385 -0.333291
v 1.280056 1.880138 -0.384453
v 1.305443 1.891945 -0.363862
v 1.293020 1.915417 -0.385781
v 1.314562 1.924632 -0.356362
v 1.300516 1.880138 -0.339109
v 1.303127 2.855490 -0.377554
v 1.268621 2.899985 -0.405645
v 1.283263 2.931448 -0.353154
v 1.307663 2.899985 -0.333291
v 1.293020 2.886953 -0.385781
v 1.305443 2.910425 -0.363862
v 1.280056 2.922233 -0.384453
v 1.300516 2.922233 -0.339109
v 1.314562 2.877738 -0.356362
v 0.064836 2.931448 -1.345071
v 0.221900 2.899985 -1.257776
v 0.084700 2.888795 -1.369470
v 0.040437 2.899985 -1.364934
v 0.147482 2.922233 -1.306477
v 0.085765 2.915271 -1.356797
v 0.124760 2.896692 -1.336857
v 0.061629 2.894390 -1.376369
v 0.047583 2.922233 -1.359117
v 0.064836 1.870922 -1.345071
v 0.040437 1.902385 -1.364934
v 0.084700 1.913575 -1.369470
v 0.221900 1.902385 -1.257776
v 0.047583 1.880138 -1.359116
v 0.085765 1.887099 -1.356797
v 0.061629 1.907980 -1.376369
v 0.124760 1.905678 -1.336857
v 0.147482 1.880138 -1.306477
v 1.164804 1.995766 -0.305719
v 1.140404 1.964303 -0.325582
v 1.120541 1.995766 -0.301183
v 1.157657 1.973519 -0.311536
v 1.143023 1.977601 -0.300027
v 1.126359 1.973519 -0.308329
v 1.143612 1.995766 -0.294283
v 1.164804 2.806604 -0.305719
v 1.120541 2.806604 -0.301183
v 1.140404 2.838067 -0.325582
v 1.143612 2.806604 -0.294283
v 1.143023 2.824769 -0.300027
v 1.126359 2.828851 -0.308329
v 1.157657 2.828851 -0.311536
v 0.204343 2.806604 -1.087626
v 0.228743 2.838067 -1.067762
v 0.208879 2.806604 -1.043363
v 0.211490 2.828851 -1.081808
v 0.203188 2.824769 -1.065143
v 0.214697 2.828851 -1.050509
v 0.197444 2.806604 -1.064555
v 0.204343 1.995766 -1.087626
v 0.208879 1.995766 -1.043363
v 0.228743 1.964303 -1.067762
v 0.197444 1.995766 -1.064555
v 0.203188 1.977601 -1.065143
v 0.214697 1.973519 -1.050509
v 0.211490 1.973519 -1.081808
v 0.203204 2.645552 -1.315195
v 0.194488 2.631476 -1.304489
v 0.200651 2.635599 -1.312059
v 0.137501 2.645552 -1.234489
v 0.146218 2.631476 -1.245196
v 0.140054 2.635599 -1.237625
v 0.181395 2.651146 -1.332950
v 0.168501 2.638141 -1.325644
v 0.175888 2.641950 -1.332219
v 0.115692 2.651146 -1.252243
v 0.120231 2.638141 -1.266351
v 0.115291 2.641950 -1.257784
v 0.162906 2.667076 -1.348002
v 0.146471 2.657123 -1.343579
v 0.154895 2.660038 -1.349309
v 0.097203 2.667076 -1.267295
v 0.098201 2.657123 -1.284286
v 0.094298 2.660038 -1.274875
v 0.150552 2.690917 -1.358059
v 0.131751 2.685530 -1.355563
v 0.140868 2.687108 -1.360729
v 0.084850 2.690917 -1.277352
v 0.083480 2.685530 -1.296270
v 0.080271 2.687108 -1.286294
v 0.146214 2.719039 -1.361591
v 0.126581 2.719039 -1.359771
v 0.135942 2.719039 -1.364739
v 0.080511 2.719039 -1.280884
v 0.078311 2.719039 -1.300478
v 0.075345 2.719039 -1.290304
v 0.150552 2.747162 -1.358059
v 0.131751 2.752549 -1.355563
v 0.140868 2.750971 -1.360729
v 0.084850 2.747162 -1.277352
v 0.083480 2.752549 -1.296270
v 0.080271 2.750971 -1.286294
v 0.162906 2.771003 -1.348002
v 0.146471 2.780956 -1.343579
v 0.154895 2.778041 -1.349309
v 0.097203 2.771003 -1.267295
v 0.098201 2.780956 -1.284286
v 0.094298 2.778041 -1.274875
v 0.181395 2.786933 -1.332950
v 0.168501 2.799938 -1.325644
v 0.175888 2.796129 -1.332219
v 0.115692 2.786933 -1.252243
v 0.120231 2.799938 -1.266351
v 0.115291 2.796129 -1.257784
v 0.203204 2.792526 -1.315195
v 0.194488 2.806603 -1.304489
v 0.200651 2.802480 -1.312059
v 0.137501 2.792526 -1.234489
v 0.146218 2.806603 -1.245195
v 0.140054 2.802480 -1.237625
v 0.225013 2.786933 -1.297441
v 0.220475 2.799938 -1.283333
v 0.225414 2.796129 -1.291900
v 0.159310 2.786933 -1.216734
v 0.172204 2.799938 -1.224040
v 0.164817 2.796129 -1.217465
v 0.243502 2.771003 -1.282389
v 0.242505 2.780956 -1.265398
v 0.246407 2.778041 -1.274809
v 0.177799 2.771003 -1.201682
v 0.194235 2.780956 -1.206105
v 0.185810 2.778041 -1.200375
v 0.255856 2.747162 -1.272332
v 0.257225 2.752549 -1.253414
v 0.260435 2.750971 -1.263390
v 0.190153 2.747162 -1.191625
v 0.208955 2.752549 -1.194121
v 0.199838 2.750971 -1.188955
v 0.260194 2.719039 -1.268800
v 0.262394 2.719039 -1.249206
v 0.265360 2.719039 -1.259380
v 0.194491 2.719039 -1.188094
v 0.214124 2.719039 -1.189913
v 0.204763 2.719039 -1.184945
v 0.255856 2.690917 -1.272332
v 0.257225 2.685530 -1.253414
v 0.260435 2.687108 -1.263390
v 0.190153 2.690917 -1.191625
v 0.208955 2.685530 -1.194121
v 0.199838 2.687108 -1.188955
v 0.243502 2.667076 -1.282389
v 0.242505 2.657123 -1.265398
v 0.246407 2.660038 -1.274809
v 0.177799 2.667076 -1.201682
v 0.194235 2.657123 -1.206105
v 0.185810 2.660038 -1.200375
v 0.225013 2.651146 -1.297441
v 0.220475 2.638141 -1.283333
v 0.225414 2.641950 -1.291900
v 0.159310 2.651146 -1.216734
v 0.172204 2.638141 -1.224040
v 0.164817 2.641950 -1.217465
v 0.203204 2.400673 -1.315195
v 0.194488 2.386596 -1.304489
v 0.200651 2.390719 -1.312059
v 0.137501 2.400673 -1.234489
v 0.146218 2.386596 -1.245196
v 0.140054 2.390719 -1.237625
v 0.181395 2.406267 -1.332950
v 0.168501 2.393262 -1.325644
v 0.175888 2.397071 -1.332219
v 0.115692 2.406267 -1.252243
v 0.120231 2.393262 -1.266351
v 0.115291 2.397071 -1.257784
v 0.162906 2.422197 -1.348002
v 0.146471 2.412243 -1.343579
v 0.154895 2.415159 -1.349309
v 0.097203 2.422197 -1.267295
v 0.098201 2.412243 -1.284286
v 0.094298 2.415159 -1.274875
v 0.150552 2.446038 -1.358059
v 0.131751 2.440651 -1.355563
v 0.140868 2.442229 -1.360729
v 0.084850 2.446038 -1.277352
v 0.083480 2.440651 -1.296270
v 0.080271 2.442229 -1.286294
v 0.146214 2.474160 -1.361591
v 0.126581 2.474160 -1.359771
v 0.135942 2.474160 -1.364739
v 0.080511 2.474160 -1.280884
v 0.078311 2.474160 -1.300478
v 0.075345 2.474160 -1.290304
v 0.150552 2.502283 -1.358059
v 0.131751 2.507669 -1.355563
v 0.140868 2.506092 -1.360729
v 0.084850 2.502283 -1.277352
v 0.083480 2.507669 -1.296270
v 0.080271 2.506092 -1.286294
v 0.162906 2.526124 -1.348002
v 0.146471 2.536077 -1.343579
v 0.154895 2.533162 -1.349309
v 0.097203 2.526124 -1.267295
v 0.098201 2.536077 -1.284286
v 0.094298 2.533162 -1.274875
v 0.181395 2.542053 -1.332950
v 0.168501 2.555058 -1.325644
v 0.175888 2.551250 -1.332219
v 0.115692 2.542053 -1.252243
v 0.120231 2.555058 -1.266351
v 0.115291 2.551250 -1.257784
v 0.203204 2.547647 -1.315195
v 0.194488 2.561724 -1.304489
v 0.200651 2.557601 -1.312059
v 0.137501 2.547647 -1.234489
v 0.146218 2.561724 -1.245195
v 0.140054 2.557601 -1.237625
v 0.225013 2.542053 -1.297441
v 0.220475 2.555058 -1.283333
v 0.225414 2.551250 -1.291900
v 0.159310 2.542053 -1.216734
v 0.172204 2.555058 -1.224040
v 0.164817 2.551250 -1.217465
v 0.243502 2.526124 -1.282389
v 0.242505 2.536077 -1.265398
v 0.246407 2.533162 -1.274809
v 0.177799 2.526124 -1.201682
v 0.194235 2.536077 -1.206105
v 0.185810 2.533162 -1.200375
v 0.255856 2.502283 -1.272332
v 0.257225 2.507669 -1.253414
v 0.260435 2.506092 -1.263390
v 0.190153 2.502283 -1.191625
v 0.208955 2.507669 -1.194121
v 0.199838 2.506092 -1.188955
v 0.260194 2.474160 -1.268800
v 0.262394 2.474160 -1.249206
v 0.265360 2.474160 -1.259380
v 0.194491 2.474160 -1.188094
v 0.214124 2.474160 -1.189913
v 0.204763 2.474160 -1.184945
v 0.255856 2.446038 -1.272332
v 0.257225 2.440651 -1.253414
v 0.260435 2.442229 -1.263390
v 0.190153 2.446038 -1.191625
v 0.208955 2.440651 -1.194121
v 0.199838 2.442229 -1.188955
v 0.243502 2.422197 -1.282389
v 0.242505 2.412243 -1.265398
v 0.246407 2.415159 -1.274809
v 0.177799 2.422197 -1.201682
v 0.194235 2.412243 -1.206105
v 0.185810 2.415159 -1.200375
v 0.225013 2.406267 -1.297441
v 0.220475 2.393262 -1.283333
v 0.225414 2.397071 -1.291900
v 0.159310 2.406267 -1.216734
v 0.172204 2.393262 -1.224040
v 0.164817 2.397071 -1.217465
vn 0.6381 -0.0014 -0.7700
vn 0.6222 -0.0013 -0.7828
vn 0.6381 0.0014 -0.7700
vn 0.6222 0.0013 -0.7828
vn 0.6616 -0.0943 -0.7439
vn 0.6616 0.0943 -0.7439
vn 0.5931 -0.0943 -0.7996
vn 0.5931 0.0943 -0.7996
vn 0.6489 -0.0000 -0.7609
vn 0.6068 -0.0000 -0.7949
vn 0.7865 -0.0000 -0.6176
vn 0.4392 -0.0000 -0.8984
vn 0.5983 0.3190 -0.7350
vn 0.5983 -0.3190 -0.7350
vn 0.6313 -0.0000 -0.7755
vn 0.6477 -0.0004 -0.7619
vn 0.6448 -0.0008 -0.7644
vn 0.6415 -0.0011 -0.7671
vn 0.5963 -0.0450 -0.8015
vn 0.6000 -0.0196 -0.7998
vn 0.6065 -0.0067 -0.7950
vn 0.6085 0.0004 -0.7936
vn 0.6125 0.0008 -0.7905
vn 0.6171 0.0011 -0.7869
vn 0.6619 0.0449 -0.7483
vn 0.6582 0.0193 -0.7526
vn 0.6513 0.0066 -0.7588
vn 0.6513 -0.0066 -0.7588
vn 0.6582 -0.0193 -0.7526
vn 0.6618 -0.0449 -0.7483
vn 0.6170 0.2976 -0.7285
vn 0.6378 0.2404 -0.7317
vn 0.6541 0.1652 -0.7381
vn 0.7748 0.0395 -0.6309
vn 0.7418 0.0695 -0.6670
vn 0.6912 0.0880 -0.7173
vn 0.5882 -0.2976 -0.7520
vn 0.5870 -0.2404 -0.7730
vn 0.5897 -0.1652 -0.7906
vn 0.6065 0.0067 -0.7950
vn 0.6000 0.0196 -0.7998
vn 0.5963 0.0450 -0.8015
vn 0.4550 0.0395 -0.8896
vn 0.4985 0.0695 -0.8641
vn 0.5600 0.0879 -0.8238
vn 0.6415 0.0011 -0.7671
vn 0.6448 0.0008 -0.7644
vn 0.6477 0.0004 -0.7619
vn 0.6171 -0.0011 -0.7869
vn 0.6125 -0.0008 -0.7905
vn 0.6085 -0.0004 -0.7936
vn 0.6912 -0.0880 -0.7173
vn 0.7418 -0.0695 -0.6670
vn 0.7748 -0.0395 -0.6309
vn 0.5600 -0.0879 -0.8238
vn 0.4985 -0.0695 -0.8641
vn 0.4550 -0.0395 -0.8896
vn 0.7059 -0.0000 -0.7083
vn 0.7554 -0.0000 -0.6553
vn 0.7821 -0.0000 -0.6231
vn 0.7703 -0.0000 -0.6376
vn 0.7350 -0.0000 -0.6781
vn 0.6807 -0.0000 -0.7326
vn 0.5668 -0.0000 -0.8238
vn 0.4981 -0.0000 -0.8671
vn 0.4564 -0.0000 -0.8898
vn 0.5897 0.1652 -0.7906
vn 0.5870 0.2404 -0.7730
vn 0.5882 0.2976 -0.7520
vn 0.6541 -0.1652 -0.7381
vn 0.6378 -0.2404 -0.7317
vn 0.6170 -0.2976 -0.7285
vn 0.4490 -0.0000 -0.8935
vn 0.4876 -0.0000 -0.8731
vn 0.5502 -0.0000 -0.8350
vn 0.6022 -0.3004 -0.7397
vn 0.6125 -0.2425 -0.7524
vn 0.6250 -0.1409 -0.7678
vn 0.6250 0.1409 -0.7678
vn 0.6125 0.2425 -0.7524
vn 0.6022 0.3004 -0.7397
vn 0.4710 0.0181 -0.8820
vn 0.5090 0.0065 -0.8607
vn 0.5718 0.0016 -0.8204
vn 0.5108 0.0321 -0.8591
vn 0.5387 0.0117 -0.8424
vn 0.5848 0.0030 -0.8112
vn 0.5672 0.0407 -0.8226
vn 0.5810 0.0148 -0.8138
vn 0.6019 0.0039 -0.7985
vn 0.6770 0.0016 -0.7359
vn 0.7274 0.0065 -0.6862
vn 0.7602 0.0182 -0.6494
vn 0.6675 0.0030 -0.7446
vn 0.7061 0.0117 -0.7080
vn 0.7313 0.0321 -0.6813
vn 0.6546 0.0040 -0.7560
vn 0.6739 0.0149 -0.7387
vn 0.6869 0.0407 -0.7256
vn 0.5521 0.1305 -0.8235
vn 0.4969 0.1037 -0.8616
vn 0.4632 0.0700 -0.8835
vn 0.5604 0.2253 -0.7970
vn 0.5238 0.1803 -0.8326
vn 0.5025 0.1228 -0.8558
vn 0.5775 0.2799 -0.7669
vn 0.5643 0.2256 -0.7942
vn 0.5589 0.1547 -0.8147
vn 0.5775 -0.2799 -0.7669
vn 0.5643 -0.2256 -0.7942
vn 0.5589 -0.1547 -0.8147
vn 0.5604 -0.2253 -0.7970
vn 0.5238 -0.1803 -0.8326
vn 0.5025 -0.1228 -0.8558
vn 0.5521 -0.1305 -0.8235
vn 0.4969 -0.1037 -0.8616
vn 0.4632 -0.0700 -0.8835
vn 0.6546 -0.0040 -0.7560
vn 0.6739 -0.0149 -0.7387
vn 0.6869 -0.0407 -0.7256
vn 0.6675 -0.0030 -0.7446
vn 0.7061 -0.0117 -0.7080
vn 0.7313 -0.0321 -0.6813
vn 0.6770 -0.0016 -0.7359
vn 0.7274 -0.0065 -0.6862
vn 0.7602 -0.0182 -0.6494
vn 0.5672 -0.0407 -0.8226
vn 0.5810 -0.0148 -0.8138
vn 0.6019 -0.0039 -0.7985
vn 0.5108 -0.0321 -0.8591
vn 0.5387 -0.0117 -0.8424
vn 0.5848 -0.0030 -0.8112
vn 0.4710 -0.0181 -0.8820
vn 0.5090 -0.0065 -0.8607
vn 0.5718 -0.0016 -0.8204
vn 0.6836 -0.1547 -0.7133
vn 0.6629 -0.2256 -0.7139
vn 0.6338 -0.2799 -0.7211
vn 0.7347 -0.1228 -0.6672
vn 0.7086 -0.1803 -0.6822
vn 0.6667 -0.2253 -0.7105
vn 0.7695 -0.0701 -0.6348
vn 0.7423 -0.1037 -0.6620
vn 0.6943 -0.1305 -0.7078
vn 0.7695 0.0701 -0.6348
vn 0.7423 0.1037 -0.6620
vn 0.6943 0.1305 -0.7078
vn 0.7347 0.1228 -0.6672
vn 0.7086 0.1803 -0.6822
vn 0.6667 0.2253 -0.7105
vn 0.6836 0.1547 -0.7133
vn 0.6629 0.2256 -0.7139
vn 0.6338 0.2799 -0.7211
vn -0.6034 0.1785 -0.7772
vn 0.5036 0.0357 -0.8632
vn 0.5957 0.1544 -0.7883
vn 0.0016 0.9586 -0.2847
vn -0.0072 0.1442 -0.9895
vn 0.1817 0.4203 -0.8890
vn 0.5582 0.0880 -0.8250
vn 0.3698 0.6303 -0.6826
vn -0.3610 0.6817 -0.6363
vn -0.6034 -0.1785 -0.7772
vn 0.0016 -0.9586 -0.2847
vn 0.5957 -0.1544 -0.7883
vn 0.5036 -0.0357 -0.8632
vn -0.3610 -0.6817 -0.6363
vn 0.1817 -0.4203 -0.8890
vn 0.3698 -0.6303 -0.6826
vn 0.5582 -0.0880 -0.8250
vn -0.0072 -0.1442 -0.9895
vn 0.0259 -0.9673 0.2523
vn 0.6369 -0.1794 0.7498
vn -0.4716 -0.1794 0.8634
vn 0.4312 -0.6965 0.5736
vn 0.0832 -0.5773 0.8122
vn 0.1004 -0.1726 0.9799
vn -0.3059 -0.6965 0.6491
vn 0.0259 0.9673 0.2523
vn -0.4716 0.1794 0.8634
vn 0.6369 0.1794 0.7498
vn -0.3059 0.6965 0.6491
vn 0.0832 0.5773 0.8122
vn 0.1004 0.1726 0.9799
vn 0.4312 0.6965 0.5736
vn 0.8805 0.1797 0.4386
vn 0.2815 0.9575 -0.0625
vn 0.6594 0.1355 -0.7395
vn 0.7534 0.0261 -0.6571
vn 0.7076 0.6666 0.2343
vn 0.8639 0.3798 -0.3308
vn 0.6233 0.6016 -0.4996
vn 0.7039 0.0782 -0.7060
vn 0.9790 0.1197 -0.1648
vn 0.8805 -0.1797 0.4386
vn 0.7534 -0.0261 -0.6571
vn 0.6594 -0.1355 -0.7395
vn 0.2815 -0.9575 -0.0625
vn 0.9790 -0.1197 -0.1648
vn 0.8639 -0.3798 -0.3308
vn 0.7039 -0.0782 -0.7060
vn 0.6233 -0.6016 -0.4996
vn 0.7076 -0.6666 0.2343
vn -0.2523 -0.9673 0.0259
vn -0.7498 -0.1794 0.6369
vn -0.8634 -0.1794 -0.4716
vn -0.5735 -0.6965 0.4312
vn -0.8122 -0.5774 0.0832
vn -0.9799 -0.1726 0.1004
vn -0.6491 -0.6965 -0.3059
vn -0.2523 0.9673 0.0259
vn -0.8634 0.1794 -0.4716
vn -0.7498 0.1794 0.6369
vn -0.6491 0.6965 -0.3059
vn -0.8122 0.5773 0.0832
vn -0.9799 0.1726 0.1004
vn -0.5736 0.6965 0.4312
vn 0.3341 -0.9395 -0.0750
vn 0.6347 -0.1979 -0.7470
vn 0.7722 -0.0207 -0.6351
vn 0.8985 -0.2118 0.3844
vn 0.5339 -0.6713 -0.5142
vn 0.8349 -0.4326 -0.3403
vn 0.7160 -0.1212 -0.6875
vn 0.9851 -0.0894 -0.1468
vn 0.7139 -0.6739 0.1904
vn 0.7722 0.0207 -0.6351
vn 0.6347 0.1979 -0.7470
vn 0.3342 0.9395 -0.0750
vn 0.8985 0.2118 0.3844
vn 0.7160 0.1212 -0.6875
vn 0.8349 0.4326 -0.3403
vn 0.5339 0.6713 -0.5142
vn 0.7139 0.6739 0.1904
vn 0.9851 0.0894 -0.1468
vn 0.0631 0.9395 -0.3367
vn 0.6185 0.1957 -0.7611
vn 0.4814 0.1579 -0.8622
vn -0.5387 0.2590 -0.8017
vn 0.4415 0.6958 -0.5665
vn 0.3496 0.5814 -0.7347
vn 0.6042 0.1913 -0.7736
vn -0.0135 0.2362 -0.9716
vn -0.2757 0.7156 -0.6418
vn 0.0631 -0.9395 -0.3367
vn -0.5387 -0.2590 -0.8017
vn 0.4814 -0.1579 -0.8622
vn 0.6185 -0.1957 -0.7610
vn -0.2757 -0.7156 -0.6418
vn 0.3496 -0.5814 -0.7347
vn -0.0135 -0.2362 -0.9716
vn 0.6042 -0.1913 -0.7735
vn 0.4415 -0.6958 -0.5665
vn -0.6369 0.1794 -0.7498
vn -0.0259 0.9673 -0.2523
vn 0.4716 0.1794 -0.8634
vn -0.4312 0.6965 -0.5735
vn -0.0832 0.5774 -0.8122
vn 0.3059 0.6965 -0.6491
vn -0.1004 0.1726 -0.9799
vn -0.6369 -0.1794 -0.7498
vn 0.4716 -0.1794 -0.8634
vn -0.0259 -0.9673 -0.2523
vn -0.1004 -0.1726 -0.9799
vn -0.0832 -0.5774 -0.8122
vn 0.3059 -0.6965 -0.6491
vn -0.4312 -0.6965 -0.5735
vn 0.8634 -0.1794 0.4716
vn 0.2523 -0.9673 -0.0259
vn 0.7498 -0.1794 -0.6369
vn 0.6491 -0.6965 0.3059
vn 0.8122 -0.5774 -0.0832
vn 0.5735 -0.6965 -0.4312
vn 0.9799 -0.1726 -0.1004
vn 0.8634 0.1794 0.4716
vn 0.7498 0.1794 -0.6369
vn 0.2523 0.9673 -0.0259
vn 0.9799 0.1726 -0.1004
vn 0.8122 0.5774 -0.0832
vn 0.5735 0.6965 -0.4312
vn 0.6491 0.6965 0.3059
vn 0.6166 -0.2146 -0.7574
vn 0.1224 -0.9810 -0.1503
vn 0.4349 -0.7249 -0.5342
vn -0.6166 -0.2146 0.7574
vn -0.1224 -0.9810 0.1503
vn -0.4349 -0.7249 0.5342
vn 0.5529 -0.1983 -0.8093
vn -0.1688 -0.9064 -0.3873
vn 0.2198 -0.6697 -0.7094
vn -0.6803 -0.1983 0.7056
vn -0.4135 -0.9064 -0.0867
vn -0.6500 -0.6697 0.3591
vn 0.4989 -0.1518 -0.8532
vn -0.4156 -0.6937 -0.5883
vn 0.0374 -0.5126 -0.8578
vn -0.7343 -0.1518 0.6616
vn -0.6603 -0.6937 -0.2876
vn -0.8324 -0.5126 0.2106
vn 0.4629 -0.0821 -0.8826
vn -0.5805 -0.3754 -0.7225
vn -0.0844 -0.2774 -0.9570
vn -0.7704 -0.0821 0.6323
vn -0.8253 -0.3754 -0.4219
vn -0.9543 -0.2774 0.1114
vn 0.4502 -0.0000 -0.8929
vn -0.6384 -0.0000 -0.7697
vn -0.1272 -0.0000 -0.9919
vn -0.7831 -0.0000 0.6219
vn -0.8832 -0.0000 -0.4690
vn -0.9971 -0.0000 0.0766
vn 0.4629 0.0821 -0.8826
vn -0.5805 0.3754 -0.7225
vn -0.0844 0.2774 -0.9570
vn -0.7704 0.0821 0.6323
vn -0.8253 0.3754 -0.4219
vn -0.9543 0.2774 0.1114
vn 0.4989 0.1518 -0.8532
vn -0.4156 0.6937 -0.5883
vn 0.0374 0.5126 -0.8578
vn -0.7343 0.1518 0.6616
vn -0.6603 0.6937 -0.2876
vn -0.8324 0.5126 0.2106
vn 0.5529 0.1983 -0.8093
vn -0.1688 0.9064 -0.3873
vn 0.2198 0.6697 -0.7094
vn -0.6803 0.1983 0.7056
vn -0.4135 0.9064 -0.0867
vn -0.6500 0.6697 0.3591
vn 0.6166 0.2146 -0.7574
vn 0.1224 0.9810 -0.1503
vn 0.4349 0.7249 -0.5342
vn -0.6166 0.2146 0.7574
vn -0.1224 0.9810 0.1503
vn -0.4349 0.7249 0.5342
vn 0.6803 0.1983 -0.7056
vn 0.4135 0.9064 0.0867
vn 0.6500 0.6697 -0.3591
vn -0.5529 0.1983 0.8093
vn 0.1688 0.9064 0.3873
vn -0.2198 0.6697 0.7094
vn 0.7343 0.1518 -0.6616
vn 0.6603 0.6937 0.2876
vn 0.8324 0.5126 -0.2106
vn -0.4989 0.1517 0.8532
vn 0.4156 0.6937 0.5883
vn -0.0374 0.5126 0.8578
vn 0.7704 0.0821 -0.6323
vn 0.8253 0.3754 0.4219
vn 0.9543 0.2774 -0.1114
vn -0.4629 0.0821 0.8826
vn 0.5805 0.3754 0.7225
vn 0.0844 0.2774 0.9570
vn 0.7831 -0.0000 -0.6219
vn 0.8832 -0.0000 0.4690
vn 0.9971 -0.0000 -0.0766
vn -0.4502 -0.0000 0.8929
vn 0.6384 -0.0000 0.7697
vn 0.1272 -0.0000 0.9919
vn 0.7704 -0.0821 -0.6323
vn 0.8253 -0.3754 0.4219
vn 0.9543 -0.2774 -0.1114
vn -0.4629 -0.0821 0.8826
vn 0.5805 -0.3754 0.7225
vn 0.0844 -0.2774 0.9570
vn 0.7343 -0.1518 -0.6616
vn 0.6603 -0.6937 0.2876
vn 0.8324 -0.5126 -0.2106
vn -0.4989 -0.1518 0.8532
vn 0.4156 -0.6937 0.5883
vn -0.0374 -0.5126 0.8578
vn 0.6803 -0.1983 -0.7056
vn 0.4135 -0.9064 0.0867
vn 0.6500 -0.6697 -0.3591
vn -0.5529 -0.1983 0.8093
vn 0.1688 -0.9064 0.3873
vn -0.2198 -0.6697 0.7094
vt 0.654334 0.763033
vt 0.654361 0.769142
vt 0.636916 0.769120
vt 0.636702 0.763030
vt 0.654426 0.772519
vt 0.637438 0.772451
vt 0.619778 0.769067
vt 0.619107 0.763023
vt 0.621468 0.772280
vt 0.671990 0.752831
vt 0.671990 0.763034
vt 0.654330 0.752830
vt 0.671990 0.769145
vt 0.671990 0.772529
vt 0.671990 0.774549
vt 0.654514 0.774530
vt 0.638143 0.774400
vt 0.623978 0.774045
vt 0.612941 0.773373
vt 0.606319 0.772025
vt 0.602824 0.768995
vt 0.601536 0.763013
vt 0.619012 0.752827
vt 0.601352 0.752825
vt 0.636671 0.752829
vt 0.654426 0.570989
vt 0.654361 0.575063
vt 0.636916 0.575094
vt 0.637438 0.571086
vt 0.654334 0.581778
vt 0.636702 0.581781
vt 0.619778 0.575168
vt 0.621468 0.571329
vt 0.619107 0.581789
vt 0.671990 0.568210
vt 0.671990 0.570975
vt 0.654514 0.568237
vt 0.671990 0.575058
vt 0.671990 0.581777
vt 0.671990 0.592450
vt 0.654330 0.592449
vt 0.636671 0.592448
vt 0.619012 0.592446
vt 0.601352 0.592444
vt 0.601536 0.581801
vt 0.602824 0.575270
vt 0.606319 0.571691
vt 0.623978 0.568926
vt 0.612941 0.569881
vt 0.638143 0.568422
vt 0.654330 0.696301
vt 0.654330 0.718328
vt 0.636671 0.718325
vt 0.636671 0.696296
vt 0.654330 0.737626
vt 0.636671 0.737623
vt 0.619012 0.718319
vt 0.619012 0.696289
vt 0.619012 0.737620
vt 0.671990 0.672909
vt 0.671990 0.696303
vt 0.654330 0.672907
vt 0.671990 0.718330
vt 0.671990 0.737627
vt 0.601352 0.737616
vt 0.601352 0.718313
vt 0.601352 0.696281
vt 0.619012 0.672894
vt 0.601352 0.672885
vt 0.636671 0.672902
vt 0.724968 0.696289
vt 0.724968 0.718319
vt 0.707309 0.718325
vt 0.707309 0.696296
vt 0.724968 0.737620
vt 0.707309 0.737623
vt 0.689649 0.718328
vt 0.689649 0.696301
vt 0.689649 0.737626
vt 0.742627 0.672885
vt 0.742627 0.696281
vt 0.724968 0.672894
vt 0.742627 0.718313
vt 0.742627 0.737616
vt 0.742627 0.752825
vt 0.724968 0.752827
vt 0.707309 0.752829
vt 0.689649 0.752830
vt 0.689649 0.672907
vt 0.707309 0.672902
vt 0.722511 0.571329
vt 0.724202 0.575168
vt 0.707063 0.575094
vt 0.706542 0.571086
vt 0.724872 0.581789
vt 0.707278 0.581781
vt 0.689619 0.575063
vt 0.689553 0.570989
vt 0.689645 0.581778
vt 0.731038 0.569881
vt 0.737661 0.571691
vt 0.720001 0.568926
vt 0.741156 0.575270
vt 0.742443 0.581801
vt 0.742627 0.592444
vt 0.724968 0.592446
vt 0.707309 0.592448
vt 0.689649 0.592449
vt 0.689465 0.568237
vt 0.705837 0.568422
vt 0.724872 0.763023
vt 0.724201 0.769067
vt 0.707063 0.769120
vt 0.707278 0.763030
vt 0.722511 0.772280
vt 0.706542 0.772451
vt 0.689619 0.769142
vt 0.689645 0.763033
vt 0.689553 0.772519
vt 0.742443 0.763013
vt 0.741156 0.768995
vt 0.737661 0.772025
vt 0.731038 0.773373
vt 0.720001 0.774045
vt 0.705837 0.774400
vt 0.689465 0.774530
vt 0.724968 0.607948
vt 0.724968 0.627401
vt 0.707309 0.627407
vt 0.707309 0.607951
vt 0.724968 0.649490
vt 0.707309 0.649496
vt 0.689649 0.627411
vt 0.689649 0.607954
vt 0.689649 0.649501
vt 0.742627 0.607944
vt 0.742627 0.627395
vt 0.742627 0.649482
vt 0.671990 0.649503
vt 0.671990 0.627412
vt 0.671990 0.607955
vt 0.654330 0.607954
vt 0.654330 0.627411
vt 0.636671 0.627407
vt 0.636671 0.607951
vt 0.654330 0.649501
vt 0.636671 0.649496
vt 0.619012 0.627401
vt 0.619012 0.607948
vt 0.619012 0.649490
vt 0.601352 0.649482
vt 0.601352 0.627395
vt 0.601352 0.607944
vt 0.155849 0.241175
vt 0.301926 0.241175
vt 0.301926 0.471233
vt 0.155849 0.471233
vt 0.460966 0.463803
vt 0.460966 0.237776
vt 0.597945 0.236577
vt 0.597945 0.462604
vt 0.579762 0.876274
vt 0.461033 0.876274
vt 0.461033 0.704138
vt 0.579762 0.704138
vt 0.297466 0.192980
vt 0.297466 0.014234
vt 0.301926 0.009775
vt 0.301926 0.207412
vt 0.272231 0.851748
vt 0.272231 0.708188
vt 0.409217 0.707028
vt 0.409217 0.850587
vt 0.227269 0.975519
vt 0.227269 0.858835
vt 0.243590 0.858697
vt 0.243590 0.975380
vt 0.971739 0.182423
vt 0.971739 0.351543
vt 0.955420 0.351686
vt 0.955420 0.182566
vt 0.785460 0.144879
vt 0.785735 0.004794
vt 0.922625 0.002742
vt 0.922350 0.142827
vt 0.978391 0.169131
vt 0.978391 0.004161
vt 0.994698 0.003877
vt 0.994698 0.168846
vt 0.283815 0.477998
vt 0.283772 0.698478
vt 0.146897 0.700840
vt 0.146940 0.480359
vt 0.290951 0.007719
vt 0.166824 0.007719
vt 0.162365 0.003260
vt 0.295411 0.003260
vt 0.160309 0.014234
vt 0.160309 0.192980
vt 0.155849 0.207412
vt 0.155849 0.009775
vt 0.168314 0.198283
vt 0.289461 0.198283
vt 0.300287 0.233317
vt 0.157488 0.233317
vt 0.312473 0.972926
vt 0.315805 0.974547
vt 0.315724 0.977092
vt 0.312392 0.975669
vt 0.295558 0.009627
vt 0.292701 0.012483
vt 0.289602 0.010975
vt 0.294209 0.015582
vt 0.971676 0.178971
vt 0.974994 0.177994
vt 0.975057 0.181320
vt 0.312473 0.859067
vt 0.312392 0.855561
vt 0.315724 0.854700
vt 0.315805 0.858099
vt 0.975057 0.002540
vt 0.975140 0.000000
vt 0.978473 0.001424
vt 0.162217 0.009627
vt 0.165074 0.012483
vt 0.163567 0.015582
vt 0.168174 0.010975
vt 0.283733 0.474491
vt 0.286352 0.474848
vt 0.286984 0.477557
vt 0.412410 0.850311
vt 0.411785 0.852819
vt 0.409156 0.853540
vt 0.152592 0.241175
vt 0.153190 0.238516
vt 0.155849 0.237918
vt 0.457775 0.238056
vt 0.458400 0.235548
vt 0.461029 0.234827
vt 0.301926 0.237918
vt 0.304586 0.238516
vt 0.305184 0.241175
vt 0.409156 0.703577
vt 0.411785 0.704032
vt 0.412410 0.706751
vt 0.227331 0.978969
vt 0.224006 0.979702
vt 0.223953 0.975891
vt 0.975057 0.353687
vt 0.974984 0.355988
vt 0.971676 0.354492
vt 0.295160 0.196692
vt 0.292484 0.193692
vt 0.294209 0.191023
vt 0.288857 0.195023
vt 0.223953 0.858020
vt 0.224006 0.854701
vt 0.227331 0.855883
vt 0.162615 0.196692
vt 0.165291 0.193692
vt 0.168919 0.195023
vt 0.163567 0.191023
vt 0.978473 0.172638
vt 0.975153 0.173727
vt 0.975057 0.170678
vt 0.286941 0.698037
vt 0.286308 0.700426
vt 0.283689 0.701215
vt 0.155849 0.474491
vt 0.153190 0.473893
vt 0.152592 0.471233
vt 0.785534 0.148385
vt 0.782915 0.148021
vt 0.782288 0.145309
vt 0.461029 0.467255
vt 0.458400 0.466802
vt 0.457775 0.464083
vt 0.782563 0.005224
vt 0.783200 0.002834
vt 0.785821 0.002052
vt 0.305184 0.471233
vt 0.304586 0.473893
vt 0.301926 0.474491
vt 0.143605 0.483153
vt 0.143492 0.478073
vt 0.146858 0.476853
vt 0.300018 0.005168
vt 0.303455 0.001729
vt 0.305184 0.006515
vt 0.298668 0.000000
vt 0.272169 0.854700
vt 0.268827 0.852710
vt 0.268915 0.848325
vt 0.157758 0.005168
vt 0.154321 0.001729
vt 0.159107 0.000000
vt 0.152592 0.006515
vt 0.598008 0.233627
vt 0.601352 0.235619
vt 0.601263 0.240000
vt 0.268915 0.711168
vt 0.268827 0.706145
vt 0.272169 0.704738
vt 0.601263 0.450101
vt 0.601319 0.461746
vt 0.598008 0.466056
vt 0.156332 0.225753
vt 0.153611 0.232023
vt 0.152592 0.220362
vt 0.156669 0.236573
vt 0.155849 0.237918
vt 0.152592 0.236568
vt 0.146814 0.703577
vt 0.143492 0.698982
vt 0.143565 0.688098
vt 0.925683 0.142375
vt 0.925955 0.146595
vt 0.922424 0.146333
vt 0.301444 0.225753
vt 0.304164 0.232023
vt 0.301107 0.236573
vt 0.305184 0.220362
vt 0.296164 0.973203
vt 0.296084 0.975945
vt 0.293393 0.975248
vt 0.292832 0.972876
vt 0.952102 0.182343
vt 0.952671 0.179613
vt 0.955356 0.179114
vt 0.579762 0.700882
vt 0.582422 0.701481
vt 0.583020 0.704140
vt 0.296164 0.859343
vt 0.292832 0.859016
vt 0.293393 0.856286
vt 0.296084 0.855837
vt 0.457775 0.704140
vt 0.458373 0.701481
vt 0.461033 0.700882
vt 0.994780 0.001139
vt 0.997472 0.001836
vt 0.998032 0.004205
vt 0.243652 0.855744
vt 0.246336 0.856420
vt 0.246906 0.858918
vt 0.998032 0.169174
vt 0.997472 0.171904
vt 0.994780 0.172353
vt 0.461033 0.879533
vt 0.458373 0.878936
vt 0.457775 0.876275
vt 0.246906 0.975602
vt 0.246336 0.978332
vt 0.243652 0.978831
vt 0.583020 0.876275
vt 0.582422 0.878936
vt 0.579762 0.879533
vt 0.955356 0.354635
vt 0.952671 0.353960
vt 0.952102 0.351463
vt 0.922711 0.000000
vt 0.925955 0.003861
vt 0.584742 0.809567
vt 0.595918 0.809567
vt 0.595891 0.814548
vt 0.584714 0.814548
vt 0.414880 0.868888
vt 0.403702 0.868888
vt 0.403618 0.864110
vt 0.414795 0.864110
vt 0.403644 0.859128
vt 0.414821 0.859128
vt 0.403777 0.854700
vt 0.414954 0.854700
vt 0.595855 0.764859
vt 0.584672 0.764854
vt 0.584509 0.761348
vt 0.595692 0.761352
vt 0.584421 0.756742
vt 0.595604 0.756747
vt 0.584421 0.751740
vt 0.595604 0.751744
vt 0.584509 0.747101
vt 0.595692 0.747106
vt 0.584672 0.743533
vt 0.595855 0.743538
vt 0.869322 0.636556
vt 0.880506 0.636556
vt 0.880595 0.641158
vt 0.869411 0.641158
vt 0.880597 0.646161
vt 0.869413 0.646161
vt 0.880513 0.650802
vt 0.869329 0.650802
vt 0.584469 0.800933
vt 0.595645 0.800933
vt 0.595832 0.804786
vt 0.584656 0.804786
vt 0.415063 0.872734
vt 0.403886 0.872734
vt 0.579214 0.902070
vt 0.575335 0.900463
vt 0.572367 0.897495
vt 0.570760 0.893616
vt 0.570760 0.889417
vt 0.572367 0.885538
vt 0.575335 0.882569
vt 0.579214 0.880963
vt 0.583413 0.880963
vt 0.587292 0.882569
vt 0.590261 0.885538
vt 0.591867 0.889417
vt 0.591867 0.893616
vt 0.590261 0.897495
vt 0.587292 0.900463
vt 0.583413 0.902070
vt 0.595754 0.818971
vt 0.584578 0.818971
vt 0.583123 0.818590
vt 0.583254 0.814375
vt 0.038333 0.906194
vt 0.033566 0.906194
vt 0.033850 0.904765
vt 0.038048 0.904765
vt 0.597284 0.814375
vt 0.597154 0.818590
vt 0.578930 0.903500
vt 0.574526 0.901675
vt 0.416337 0.868599
vt 0.416512 0.872264
vt 0.029162 0.904370
vt 0.029971 0.903158
vt 0.402480 0.872264
vt 0.402306 0.868599
vt 0.583697 0.903500
vt 0.416256 0.864047
vt 0.025791 0.900999
vt 0.027002 0.900190
vt 0.402225 0.864047
vt 0.588102 0.901675
vt 0.416281 0.859299
vt 0.023967 0.896595
vt 0.025395 0.896311
vt 0.402250 0.859299
vt 0.591473 0.898304
vt 0.416408 0.855080
vt 0.023967 0.891828
vt 0.025395 0.892112
vt 0.402377 0.855080
vt 0.593297 0.893900
vt 0.597143 0.761013
vt 0.597299 0.764355
vt 0.025791 0.887423
vt 0.027002 0.888233
vt 0.583259 0.764349
vt 0.583104 0.761007
vt 0.593297 0.889133
vt 0.597059 0.756624
vt 0.029162 0.884052
vt 0.029971 0.885264
vt 0.583020 0.756619
vt 0.591473 0.884728
vt 0.597059 0.751857
vt 0.033566 0.882228
vt 0.033850 0.883658
vt 0.583020 0.751852
vt 0.588102 0.881357
vt 0.597143 0.747437
vt 0.038333 0.882228
vt 0.038048 0.883658
vt 0.583104 0.747432
vt 0.583697 0.879533
vt 0.597299 0.744037
vt 0.042738 0.884052
vt 0.041927 0.885264
vt 0.583259 0.744032
vt 0.578930 0.879533
vt 0.867956 0.641282
vt 0.867872 0.636896
vt 0.046109 0.887423
vt 0.044896 0.888233
vt 0.881912 0.636896
vt 0.881996 0.641282
vt 0.574526 0.881357
vt 0.867958 0.646049
vt 0.047933 0.891828
vt 0.046503 0.892112
vt 0.881998 0.646049
vt 0.571155 0.884728
vt 0.867878 0.650472
vt 0.047933 0.896595
vt 0.046503 0.896311
vt 0.881918 0.650472
vt 0.569330 0.889133
vt 0.583198 0.805073
vt 0.583020 0.801402
vt 0.046109 0.900999
vt 0.044896 0.900190
vt 0.597050 0.801402
vt 0.597228 0.805073
vt 0.569330 0.893900
vt 0.583280 0.809629
vt 0.042738 0.904370
vt 0.041927 0.903158
vt 0.597310 0.809629
vt 0.571155 0.898304
vt 0.414132 0.776187
vt 0.425308 0.776187
vt 0.425281 0.781168
vt 0.414104 0.781168
vt 0.880527 0.600431
vt 0.869350 0.600431
vt 0.869265 0.595653
vt 0.880442 0.595653
vt 0.869291 0.590671
vt 0.880468 0.590671
vt 0.869424 0.586244
vt 0.880601 0.586244
vt 0.425245 0.724903
vt 0.414062 0.724898
vt 0.413899 0.721391
vt 0.425082 0.721396
vt 0.413810 0.716786
vt 0.424994 0.716791
vt 0.413810 0.711784
vt 0.424994 0.711788
vt 0.413899 0.707145
vt 0.425082 0.707150
vt 0.414062 0.703577
vt 0.425245 0.703582
vt 0.869322 0.679294
vt 0.880506 0.679294
vt 0.880595 0.683896
vt 0.869411 0.683896
vt 0.880597 0.688899
vt 0.869413 0.688899
vt 0.880513 0.693540
vt 0.869329 0.693540
vt 0.413859 0.767554
vt 0.425035 0.767554
vt 0.425222 0.771407
vt 0.414046 0.771407
vt 0.880710 0.604277
vt 0.869533 0.604277
vt 0.873877 0.743825
vt 0.870908 0.740856
vt 0.869301 0.736977
vt 0.869301 0.732779
vt 0.870908 0.728900
vt 0.873877 0.725931
vt 0.877756 0.724324
vt 0.881954 0.724324
vt 0.885833 0.725931
vt 0.888802 0.728900
vt 0.890409 0.732779
vt 0.890409 0.736977
vt 0.888802 0.740856
vt 0.885833 0.743825
vt 0.881954 0.745432
vt 0.877756 0.745432
vt 0.425144 0.785591
vt 0.413968 0.785591
vt 0.412513 0.785210
vt 0.412644 0.780996
vt 0.114638 0.904370
vt 0.110233 0.906194
vt 0.109948 0.904765
vt 0.113827 0.903159
vt 0.426674 0.780996
vt 0.426544 0.785210
vt 0.873067 0.745037
vt 0.869696 0.741666
vt 0.881984 0.600143
vt 0.882159 0.603808
vt 0.105466 0.906194
vt 0.105750 0.904765
vt 0.868127 0.603808
vt 0.867953 0.600143
vt 0.877471 0.746861
vt 0.881903 0.595590
vt 0.101062 0.904370
vt 0.101871 0.903159
vt 0.867872 0.595590
vt 0.882239 0.746861
vt 0.881928 0.590843
vt 0.097691 0.900999
vt 0.098902 0.900190
vt 0.867897 0.590843
vt 0.886643 0.745037
vt 0.882055 0.586623
vt 0.095866 0.896595
vt 0.097295 0.896311
vt 0.868024 0.586623
vt 0.890014 0.741666
vt 0.426533 0.721057
vt 0.426689 0.724398
vt 0.095866 0.891828
vt 0.097295 0.892112
vt 0.412649 0.724393
vt 0.412494 0.721051
vt 0.891838 0.737262
vt 0.426449 0.716668
vt 0.097691 0.887423
vt 0.098902 0.888233
vt 0.412410 0.716663
vt 0.891838 0.732494
vt 0.426449 0.711901
vt 0.101062 0.884052
vt 0.101871 0.885265
vt 0.412410 0.711896
vt 0.890014 0.728090
vt 0.426533 0.707481
vt 0.105466 0.882228
vt 0.105750 0.883658
vt 0.412494 0.707476
vt 0.886643 0.724719
vt 0.426689 0.704081
vt 0.110233 0.882228
vt 0.109948 0.883658
vt 0.412649 0.704076
vt 0.882239 0.722895
vt 0.867956 0.684020
vt 0.867872 0.679635
vt 0.114638 0.884052
vt 0.113827 0.885265
vt 0.881912 0.679635
vt 0.881996 0.684020
vt 0.877471 0.722895
vt 0.867958 0.688787
vt 0.118009 0.887423
vt 0.116796 0.888233
vt 0.881998 0.688787
vt 0.873067 0.724719
vt 0.867878 0.693210
vt 0.119833 0.891828
vt 0.118403 0.892112
vt 0.881918 0.693210
vt 0.869696 0.728090
vt 0.412588 0.771694
vt 0.412410 0.768022
vt 0.119833 0.896595
vt 0.118403 0.896311
vt 0.426440 0.768022
vt 0.426618 0.771694
vt 0.867872 0.732494
vt 0.412670 0.776249
vt 0.118008 0.900999
vt 0.116796 0.900190
vt 0.426700 0.776249
vt 0.867872 0.737262
s 1
f 82/1/82 83/2/83 86/3/86 85/4/85
f 83/2/83 84/5/84 87/6/87 86/3/86
f 85/4/85 86/3/86 89/7/89 88/8/88
f 86/3/86 87/6/87 90/9/90 89/7/89
f 12/10/12 66/11/66 82/1/82 43/12/43
f 66/11/66 65/13/65 83/2/83 82/1/82
f 65/13/65 64/14/64 84/5/84 83/2/83
f 64/14/64 10/15/10 22/16/22 84/5/84
f 84/5/84 22/16/22 23/17/23 87/6/87
f 87/6/87 23/17/23 24/18/24 90/9/90
f 90/9/90 24/18/24 4/19/4 40/20/40
f 89/7/89 90/9/90 40/20/40 41/21/41
f 88/8/88 89/7/89 41/21/41 42/22/42
f 45/23/45 88/8/88 42/22/42 8/24/8
f 44/25/44 85/4/85 88/8/88 45/23/45
f 43/12/43 82/1/82 85/4/85 44/25/44
f 91/26/91 92/27/92 95/28/95 94/29/94
f 92/27/92 93/30/93 96/31/96 95/28/95
f 94/29/94 95/28/95 98/32/98 97/33/97
f 95/28/95 96/31/96 99/34/99 98/32/98
f 9/35/9 63/36/63 91/26/91 48/37/48
f 63/36/63 62/38/62 92/27/92 91/26/91
f 62/38/62 61/39/61 93/30/93 92/27/92
f 61/39/61 11/40/11 34/41/34 93/30/93
f 93/30/93 34/41/34 35/42/35 96/31/96
f 96/31/96 35/42/35 36/43/36 99/34/99
f 99/34/99 36/43/36 6/44/6 25/45/25
f 98/32/98 99/34/99 25/45/25 26/46/26
f 97/33/97 98/32/98 26/46/26 27/47/27
f 46/48/46 97/33/97 27/47/27 3/49/3
f 47/50/47 94/29/94 97/33/97 46/48/46
f 48/37/48 91/26/91 94/29/94 47/50/47
f 100/51/100 101/52/101 104/53/104 103/54/103
f 101/52/101 102/55/102 105/56/105 104/53/104
f 103/54/103 104/53/104 107/57/107 106/58/106
f 104/53/104 105/56/105 108/59/108 107/57/107
f 15/60/15 75/61/75 100/51/100 79/62/79
f 75/61/75 74/63/74 101/52/101 100/51/100
f 74/63/74 73/64/73 102/55/102 101/52/101
f 73/64/73 12/10/12 43/12/43 102/55/102
f 102/55/102 43/12/43 44/25/44 105/56/105
f 105/56/105 44/25/44 45/23/45 108/59/108
f 108/59/108 45/23/45 8/24/8 67/65/67
f 107/57/107 108/59/108 67/65/67 68/66/68
f 106/58/106 107/57/107 68/66/68 69/67/69
f 81/68/81 106/58/106 69/67/69 13/69/13
f 80/70/80 103/54/103 106/58/106 81/68/81
f 79/62/79 100/51/100 103/54/103 80/70/80
f 109/71/109 110/72/110 113/73/113 112/74/112
f 110/72/110 111/75/111 114/76/114 113/73/113
f 112/74/112 113/73/113 116/77/116 115/78/115
f 113/73/113 114/76/114 117/79/117 116/77/116
f 14/80/14 37/81/37 109/71/109 76/82/76
f 37/81/37 38/83/38 110/72/110 109/71/109
f 38/83/38 39/84/39 111/75/111 110/72/110
f 39/84/39 7/85/7 55/86/55 111/75/111
f 111/75/111 55/86/55 56/87/56 114/76/114
f 114/76/114 56/87/56 57/88/57 117/79/117
f 117/79/117 57/88/57 12/10/12 73/64/73
f 116/77/116 117/79/117 73/64/73 74/63/74
f 115/78/115 116/77/116 74/63/74 75/61/75
f 78/89/78 115/78/115 75/61/75 15/60/15
f 77/90/77 112/74/112 115/78/115 78/89/78
f 76/82/76 109/71/109 112/74/112 77/90/77
f 118/91/118 119/92/119 122/93/122 121/94/121
f 119/92/119 120/95/120 123/96/123 122/93/122
f 121/94/121 122/93/122 125/97/125 124/98/124
f 122/93/122 123/96/123 126/99/126 125/97/125
f 1/100/1 28/101/28 118/91/118 18/102/18
f 28/101/28 29/103/29 119/92/119 118/91/118
f 29/103/29 30/104/30 120/95/120 119/92/119
f 30/104/30 5/105/5 52/106/52 120/95/120
f 120/95/120 52/106/52 53/107/53 123/96/123
f 123/96/123 53/107/53 54/108/54 126/99/126
f 126/99/126 54/108/54 11/40/11 61/39/61
f 125/97/125 126/99/126 61/39/61 62/38/62
f 124/98/124 125/97/125 62/38/62 63/36/63
f 16/109/16 124/98/124 63/36/63 9/35/9
f 17/110/17 121/94/121 124/98/124 16/109/16
f 18/102/18 118/91/118 121/94/121 17/110/17
f 127/111/127 128/112/128 131/113/131 130/114/130
f 128/112/128 129/115/129 132/116/132 131/113/131
f 130/114/130 131/113/131 134/117/134 133/118/133
f 131/113/131 132/116/132 135/119/135 134/117/134
f 7/85/7 19/120/19 127/111/127 55/86/55
f 19/120/19 20/121/20 128/112/128 127/111/127
f 20/121/20 21/122/21 129/115/129 128/112/128
f 21/122/21 2/123/2 49/124/49 129/115/129
f 129/115/129 49/124/49 50/125/50 132/116/132
f 132/116/132 50/125/50 51/126/51 135/119/135
f 135/119/135 51/126/51 10/15/10 64/14/64
f 134/117/134 135/119/135 64/14/64 65/13/65
f 133/118/133 134/117/134 65/13/65 66/11/66
f 57/88/57 133/118/133 66/11/66 12/10/12
f 56/87/56 130/114/130 133/118/133 57/88/57
f 55/86/55 127/111/127 130/114/130 56/87/56
f 136/127/136 137/128/137 140/129/140 139/130/139
f 137/128/137 138/131/138 141/132/141 140/129/140
f 139/130/139 140/129/140 143/133/143 142/134/142
f 140/129/140 141/132/141 144/135/144 143/133/143
f 5/105/5 70/136/70 136/127/136 52/106/52
f 70/136/70 71/137/71 137/128/137 136/127/136
f 71/137/71 72/138/72 138/131/138 137/128/137
f 72/138/72 14/80/14 76/82/76 138/131/138
f 138/131/138 76/82/76 77/90/77 141/132/141
f 141/132/141 77/90/77 78/89/78 144/135/144
f 144/135/144 78/89/78 15/60/15 58/139/58
f 143/133/143 144/135/144 58/139/58 59/140/59
f 142/134/142 143/133/143 59/140/59 60/141/60
f 54/108/54 142/134/142 60/141/60 11/40/11
f 53/107/53 139/130/139 142/134/142 54/108/54
f 52/106/52 136/127/136 139/130/139 53/107/53
f 145/142/145 146/143/146 149/144/149 148/145/148
f 146/143/146 147/146/147 150/147/150 149/144/149
f 148/145/148 149/144/149 152/148/152 151/149/151
f 149/144/149 150/147/150 153/150/153 152/148/152
f 11/40/11 60/141/60 145/142/145 34/41/34
f 60/141/60 59/140/59 146/143/146 145/142/145
f 59/140/59 58/139/58 147/146/147 146/143/146
f 58/139/58 15/60/15 79/62/79 147/146/147
f 147/146/147 79/62/79 80/70/80 150/147/150
f 150/147/150 80/70/80 81/68/81 153/150/153
f 153/150/153 81/68/81 13/69/13 31/151/31
f 152/148/152 153/150/153 31/151/31 32/152/32
f 151/149/151 152/148/152 32/152/32 33/153/33
f 36/43/36 151/149/151 33/153/33 6/44/6
f 35/42/35 148/145/148 151/149/151 36/43/36
f 34/41/34 145/142/145 148/145/148 35/42/35
f 174/154/174 180/155/180 213/156/213 205/157/205
f 211/158/211 179/159/179 229/160/229 236/161/236
f 276/162/276 270/163/270 262/164/262 256/165/256
f 188/166/188 156/167/156 219/168/219 248/169/248
f 221/170/221 230/171/230 181/172/181 173/173/173
f 186/174/186 195/175/195 268/176/268 275/177/275
f 157/178/157 187/179/187 277/180/277 255/181/255
f 206/182/206 212/183/212 239/184/239 246/185/246
f 198/186/198 164/187/164 263/188/263 269/189/269
f 172/190/172 204/191/204 245/192/245 218/193/218
f 155/194/155 166/195/166 227/196/227 220/197/220
f 165/198/165 197/199/197 237/200/237 228/201/228
f 196/202/196 189/203/189 247/204/247 238/205/238
f 154/206/154 158/207/158 159/208/159 162/209/162
f 155/194/155 160/210/160 159/211/159 158/212/158
f 156/167/156 161/213/161 159/211/159 160/210/160
f 157/178/157 162/214/162 159/215/159 161/216/161
f 163/217/163 167/218/167 168/219/168 171/220/171
f 164/187/164 169/221/169 168/222/168 167/223/167
f 165/198/165 170/224/170 168/225/168 169/226/169
f 166/195/166 171/227/171 168/225/168 170/224/170
f 172/190/172 175/228/175 176/229/176 178/230/178
f 173/173/173 177/231/177 176/232/176 175/233/175
f 174/154/174 178/234/178 176/235/176 177/236/177
f 179/159/179 182/237/182 183/238/183 185/239/185
f 180/155/180 184/240/184 183/241/183 182/242/182
f 181/172/181 185/243/185 183/244/183 184/245/184
f 186/174/186 190/246/190 191/247/191 194/248/194
f 187/179/187 192/249/192 191/250/191 190/251/190
f 188/166/188 193/252/193 191/253/191 192/254/192
f 189/203/189 194/255/194 191/253/191 193/252/193
f 195/175/195 199/256/199 200/257/200 203/258/203
f 196/202/196 201/259/201 200/260/200 199/261/199
f 197/199/197 202/262/202 200/260/200 201/259/201
f 198/186/198 203/263/203 200/264/200 202/265/202
f 204/191/204 207/266/207 208/267/208 210/268/210
f 205/157/205 209/269/209 208/270/208 207/271/207
f 206/182/206 210/272/210 208/273/208 209/274/209
f 211/158/211 214/275/214 215/276/215 217/277/217
f 212/183/212 216/278/216 215/279/215 214/280/214
f 213/156/213 217/281/217 215/282/215 216/283/216
f 218/193/218 222/284/222 223/285/223 226/286/226
f 219/168/219 224/287/224 223/288/223 222/289/222
f 220/197/220 225/290/225 223/288/223 224/287/224
f 221/170/221 226/291/226 223/292/223 225/293/225
f 227/196/227 231/294/231 232/295/232 235/296/235
f 228/201/228 233/297/233 232/295/232 231/294/231
f 229/160/229 234/298/234 232/299/232 233/300/233
f 230/171/230 235/301/235 232/302/232 234/303/234
f 236/161/236 240/304/240 241/305/241 244/306/244
f 237/200/237 242/307/242 241/308/241 240/309/240
f 238/205/238 243/310/243 241/308/241 242/307/242
f 239/311/239 244/312/244 241/308/241 243/310/243
f 245/192/245 249/313/249 250/314/250 253/315/253
f 246/185/246 251/316/251 250/317/250 249/318/249
f 247/204/247 252/319/252 250/320/250 251/321/251
f 248/169/248 253/322/253 250/320/250 252/319/252
f 254/323/254 257/324/257 258/325/258 260/326/260
f 255/181/255 259/327/259 258/328/258 257/329/257
f 256/165/256 260/330/260 258/331/258 259/332/259
f 261/333/261 264/334/264 265/335/265 267/336/267
f 262/164/262 266/337/266 265/338/265 264/339/264
f 263/188/263 267/340/267 265/341/265 266/342/266
f 268/176/268 271/343/271 272/344/272 274/345/274
f 269/189/269 273/346/273 272/347/272 271/348/271
f 270/163/270 274/349/274 272/350/272 273/351/273
f 275/177/275 278/352/278 279/353/279 281/354/281
f 276/162/276 280/355/280 279/356/279 278/357/278
f 277/180/277 281/358/281 279/359/279 280/360/280
f 172/190/172 218/193/218 226/286/226 175/228/175
f 175/233/175 226/291/226 221/170/221 173/173/173
f 220/197/220 227/196/227 235/296/235 225/290/225
f 225/293/225 235/301/235 230/171/230 221/170/221
f 229/160/229 179/159/179 185/239/185 234/298/234
f 234/303/234 185/243/185 181/172/181 230/171/230
f 180/155/180 174/154/174 177/236/177 184/240/184
f 184/245/184 177/231/177 173/173/173 181/172/181
f 204/191/204 172/190/172 178/230/178 207/266/207
f 207/271/207 178/234/178 174/154/174 205/157/205
f 179/159/179 211/158/211 217/277/217 182/237/182
f 182/242/182 217/281/217 213/156/213 180/155/180
f 212/183/212 206/182/206 209/274/209 216/278/216
f 216/283/216 209/269/209 205/157/205 213/156/213
f 245/192/245 204/191/204 210/268/210 249/313/249
f 249/318/249 210/272/210 206/182/206 246/185/246
f 211/158/211 236/161/236 244/306/244 214/275/214
f 214/280/214 244/361/244 239/184/239 212/183/212
f 238/205/238 247/204/247 251/321/251 243/310/243
f 243/362/243 251/316/251 246/185/246 239/184/239
f 218/193/218 245/192/245 253/315/253 222/284/222
f 222/289/222 253/322/253 248/169/248 219/168/219
f 236/161/236 229/160/229 233/300/233 240/304/240
f 240/309/240 233/297/233 228/201/228 237/200/237
f 154/206/154 163/217/163 171/220/171 158/207/158
f 158/212/158 171/227/171 166/195/166 155/194/155
f 195/175/195 186/174/186 194/248/194 199/256/199
f 199/261/199 194/255/194 189/203/189 196/202/196
f 156/167/156 188/166/188 192/254/192 161/213/161
f 161/216/161 192/249/192 187/179/187 157/178/157
f 197/199/197 165/198/165 169/226/169 202/262/202
f 202/265/202 169/221/169 164/187/164 198/186/198
f 219/168/219 156/167/156 160/210/160 224/287/224
f 224/287/224 160/210/160 155/194/155 220/197/220
f 165/198/165 228/201/228 231/294/231 170/224/170
f 170/224/170 231/294/231 227/196/227 166/195/166
f 237/200/237 197/199/197 201/259/201 242/307/242
f 242/307/242 201/259/201 196/202/196 238/205/238
f 188/166/188 248/169/248 252/319/252 193/252/193
f 193/252/193 252/319/252 247/204/247 189/203/189
f 256/165/256 262/164/262 264/339/264 260/330/260
f 260/326/260 264/334/264 261/333/261 254/323/254
f 270/163/270 276/162/276 278/357/278 274/349/274
f 274/345/274 278/352/278 275/177/275 268/176/268
f 255/181/255 277/180/277 280/360/280 259/327/259
f 259/332/259 280/355/280 276/162/276 256/165/256
f 269/189/269 263/188/263 266/342/266 273/346/273
f 273/351/273 266/337/266 262/164/262 270/163/270
f 186/174/186 275/177/275 281/354/281 190/246/190
f 190/251/190 281/358/281 277/180/277 187/179/187
f 254/323/254 154/206/154 162/209/162 257/324/257
f 257/329/257 162/214/162 157/178/157 255/181/255
f 263/188/263 164/187/164 167/223/167 267/340/267
f 267/336/267 167/218/167 163/217/163 261/333/261
f 268/176/268 195/175/195 203/258/203 271/343/271
f 271/348/271 203/263/203 198/186/198 269/189/269
f 163/217/163 154/206/154 254/323/254 261/333/261
f 373/363/373 376/364/376 286/365/286 283/366/283
f 295/367/295 298/368/298 304/369/304 301/370/301
f 301/370/301 304/369/304 310/371/310 307/372/307
f 307/372/307 310/371/310 316/373/316 313/374/313
f 313/375/313 316/376/316 322/377/322 319/378/319
f 319/378/319 322/377/322 328/379/328 325/380/325
f 325/380/325 328/379/328 334/381/334 331/382/331
f 331/382/331 334/381/334 340/383/340 337/384/337
f 337/384/337 340/383/340 346/385/346 343/386/343
f 343/387/343 346/388/346 352/389/352 349/390/349
f 349/390/349 352/389/352 358/391/358 355/392/355
f 355/392/355 358/391/358 364/393/364 361/394/361
f 361/395/361 364/396/364 370/397/370 367/398/367
f 367/398/367 370/397/370 376/364/376 373/363/373
f 289/399/289 292/400/292 298/368/298 295/367/295
f 291/401/291 285/402/285 375/403/375 369/404/369 363/405/363 357/406/357 351/407/351 345/408/345 339/409/339 333/410/333 327/411/327 321/412/321 315/413/315 309/414/309 303/415/303 297/416/297
f 283/366/283 286/365/286 292/417/292 289/418/289
f 283/366/283 289/418/289 290/419/290 284/420/284
f 284/421/284 290/422/290 288/423/288 282/424/282
f 292/417/292 286/365/286 287/425/287 293/426/293
f 293/427/293 287/428/287 285/402/285 291/401/291
f 289/399/289 295/367/295 296/429/296 290/430/290
f 290/422/290 296/431/296 294/432/294 288/423/288
f 298/368/298 292/400/292 293/433/293 299/434/299
f 299/435/299 293/427/293 291/401/291 297/416/297
f 295/367/295 301/370/301 302/436/302 296/429/296
f 296/431/296 302/437/302 300/438/300 294/432/294
f 304/369/304 298/368/298 299/434/299 305/439/305
f 305/440/305 299/435/299 297/416/297 303/415/303
f 301/370/301 307/372/307 308/441/308 302/436/302
f 302/437/302 308/442/308 306/443/306 300/438/300
f 310/371/310 304/369/304 305/439/305 311/444/311
f 311/445/311 305/440/305 303/415/303 309/414/309
f 307/372/307 313/374/313 314/446/314 308/441/308
f 308/442/308 314/447/314 312/448/312 306/443/306
f 316/373/316 310/371/310 311/444/311 317/449/317
f 317/450/317 311/445/311 309/414/309 315/413/315
f 313/375/313 319/378/319 320/451/320 314/452/314
f 314/447/314 320/453/320 318/454/318 312/448/312
f 322/377/322 316/376/316 317/455/317 323/456/323
f 323/457/323 317/450/317 315/413/315 321/412/321
f 319/378/319 325/380/325 326/458/326 320/451/320
f 320/453/320 326/459/326 324/460/324 318/454/318
f 328/379/328 322/377/322 323/456/323 329/461/329
f 329/462/329 323/457/323 321/412/321 327/411/327
f 325/380/325 331/382/331 332/463/332 326/458/326
f 326/459/326 332/464/332 330/465/330 324/460/324
f 334/381/334 328/379/328 329/461/329 335/466/335
f 335/467/335 329/462/329 327/411/327 333/410/333
f 331/382/331 337/384/337 338/468/338 332/463/332
f 332/464/332 338/469/338 336/470/336 330/465/330
f 340/383/340 334/381/334 335/466/335 341/471/341
f 341/472/341 335/467/335 333/410/333 339/409/339
f 337/384/337 343/386/343 344/473/344 338/468/338
f 338/469/338 344/474/344 342/475/342 336/470/336
f 346/385/346 340/383/340 341/471/341 347/476/347
f 347/477/347 341/472/341 339/409/339 345/408/345
f 343/387/343 349/390/349 350/478/350 344/479/344
f 344/474/344 350/480/350 348/481/348 342/475/342
f 352/389/352 346/388/346 347/482/347 353/483/353
f 353/484/353 347/477/347 345/408/345 351/407/351
f 349/390/349 355/392/355 356/485/356 350/478/350
f 350/480/350 356/486/356 354/487/354 348/481/348
f 358/391/358 352/389/352 353/483/353 359/488/359
f 359/489/359 353/484/353 351/407/351 357/406/357
f 355/392/355 361/394/361 362/490/362 356/485/356
f 356/486/356 362/491/362 360/492/360 354/487/354
f 364/393/364 358/391/358 359/488/359 365/493/365
f 365/494/365 359/489/359 357/406/357 363/405/363
f 361/395/361 367/398/367 368/495/368 362/496/362
f 362/491/362 368/497/368 366/498/366 360/492/360
f 370/397/370 364/396/364 365/499/365 371/500/371
f 371/501/371 365/494/365 363/405/363 369/404/369
f 367/398/367 373/363/373 374/502/374 368/495/368
f 368/497/368 374/503/374 372/504/372 366/498/366
f 376/364/376 370/397/370 371/500/371 377/505/377
f 377/506/377 371/501/371 369/404/369 375/403/375
f 373/363/373 283/366/283 284/420/284 374/502/374
f 374/503/374 284/421/284 282/424/282 372/504/372
f 286/365/286 376/364/376 377/505/377 287/425/287
f 287/428/287 377/506/377 375/403/375 285/402/285
f 282/424/282 288/423/288 294/432/294 300/438/300 306/443/306 312/448/312 318/454/318 324/460/324 330/465/330 336/470/336 342/475/342 348/481/348 354/487/354 360/492/360 366/498/366 372/504/372
f 469/507/373 472/508/376 382/509/286 379/510/283
f 391/511/295 394/512/298 400/513/304 397/514/301
f 397/514/301 400/513/304 406/515/310 403/516/307
f 403/516/307 406/515/310 412/517/316 409/518/313
f 409/519/313 412/520/316 418/521/322 415/522/319
f 415/522/319 418/521/322 424/523/328 421/524/325
f 421/524/325 424/523/328 430/525/334 427/526/331
f 427/526/331 430/525/334 436/527/340 433/528/337
f 433/528/337 436/527/340 442/529/346 439/530/343
f 439/531/343 442/532/346 448/533/352 445/534/349
f 445/534/349 448/533/352 454/535/358 451/536/355
f 451/536/355 454/535/358 460/537/364 457/538/361
f 457/539/361 460/540/364 466/541/370 463/542/367
f 463/542/367 466/541/370 472/508/376 469/507/373
f 385/543/289 388/544/292 394/512/298 391/511/295
f 387/545/291 381/546/285 471/547/375 465/548/369 459/549/363 453/550/357 447/551/351 441/552/345 435/553/339 429/554/333 423/555/327 417/556/321 411/557/315 405/558/309 399/559/303 393/560/297
f 379/510/283 382/509/286 388/561/292 385/562/289
f 379/510/283 385/562/289 386/563/290 380/564/284
f 380/565/284 386/566/290 384/567/288 378/568/282
f 388/561/292 382/509/286 383/569/287 389/570/293
f 389/571/293 383/572/287 381/546/285 387/545/291
f 385/543/289 391/511/295 392/573/296 386/574/290
f 386/566/290 392/575/296 390/576/294 384/567/288
f 394/512/298 388/544/292 389/577/293 395/578/299
f 395/579/299 389/571/293 387/545/291 393/560/297
f 391/511/295 397/514/301 398/580/302 392/573/296
f 392/575/296 398/581/302 396/582/300 390/576/294
f 400/513/304 394/512/298 395/578/299 401/583/305
f 401/584/305 395/579/299 393/560/297 399/559/303
f 397/514/301 403/516/307 404/585/308 398/580/302
f 398/581/302 404/586/308 402/587/306 396/582/300
f 406/515/310 400/513/304 401/583/305 407/588/311
f 407/589/311 401/584/305 399/559/303 405/558/309
f 403/516/307 409/518/313 410/590/314 404/585/308
f 404/586/308 410/591/314 408/592/312 402/587/306
f 412/517/316 406/515/310 407/588/311 413/593/317
f 413/594/317 407/589/311 405/558/309 411/557/315
f 409/519/313 415/522/319 416/595/320 410/596/314
f 410/591/314 416/597/320 414/598/318 408/592/312
f 418/521/322 412/520/316 413/599/317 419/600/323
f 419/601/323 413/594/317 411/557/315 417/556/321
f 415/522/319 421/524/325 422/602/326 416/595/320
f 416/597/320 422/603/326 420/604/324 414/598/318
f 424/523/328 418/521/322 419/600/323 425/605/329
f 425/606/329 419/601/323 417/556/321 423/555/327
f 421/524/325 427/526/331 428/607/332 422/602/326
f 422/603/326 428/608/332 426/609/330 420/604/324
f 430/525/334 424/523/328 425/605/329 431/610/335
f 431/611/335 425/606/329 423/555/327 429/554/333
f 427/526/331 433/528/337 434/612/338 428/607/332
f 428/608/332 434/613/338 432/614/336 426/609/330
f 436/527/340 430/525/334 431/610/335 437/615/341
f 437/616/341 431/611/335 429/554/333 435/553/339
f 433/528/337 439/530/343 440/617/344 434/612/338
f 434/613/338 440/618/344 438/619/342 432/614/336
f 442/529/346 436/527/340 437/615/341 443/620/347
f 443/621/347 437/616/341 435/553/339 441/552/345
f 439/531/343 445/534/349 446/622/350 440/623/344
f 440/618/344 446/624/350 444/625/348 438/619/342
f 448/533/352 442/532/346 443/626/347 449/627/353
f 449/628/353 443/621/347 441/552/345 447/551/351
f 445/534/349 451/536/355 452/629/356 446/622/350
f 446/624/350 452/630/356 450/631/354 444/625/348
f 454/535/358 448/533/352 449/627/353 455/632/359
f 455/633/359 449/628/353 447/551/351 453/550/357
f 451/536/355 457/538/361 458/634/362 452/629/356
f 452/630/356 458/635/362 456/636/360 450/631/354
f 460/537/364 454/535/358 455/632/359 461/637/365
f 461/638/365 455/633/359 453/550/357 459/549/363
f 457/539/361 463/542/367 464/639/368 458/640/362
f 458/635/362 464/641/368 462/642/366 456/636/360
f 466/541/370 460/540/364 461/643/365 467/644/371
f 467/645/371 461/638/365 459/549/363 465/548/369
f 463/542/367 469/507/373 470/646/374 464/639/368
f 464/641/368 470/647/374 468/648/372 462/642/366
f 472/508/376 466/541/370 467/644/371 473/649/377
f 473/650/377 467/645/371 465/548/369 471/547/375
f 469/507/373 379/510/283 380/564/284 470/646/374
f 470/647/374 380/565/284 378/568/282 468/648/372
f 382/509/286 472/508/376 473/649/377 383/569/287
f 383/572/287 473/650/377 471/547/375 381/546/285
f 378/568/282 384/567/288 390/576/294 396/582/300 402/587/306 408/592/312 414/598/318 420/604/324 426/609/330 432/614/336 438/619/342 444/625/348 450/631/354 456/636/360 462/642/366 468/648/372
