# Blender 4.4.3
# www.blender.org
mtllib 7.mtl
o Cube.194
v 0.009371 2.696604 0.720608
v 0.009371 3.149820 0.720608
v 0.083505 2.696604 0.590735
v 0.083505 3.149820 0.590735
v 0.139244 2.696604 0.794742
v 0.139244 3.149820 0.794742
v 0.213378 2.696604 0.664869
v 0.213378 3.149820 0.664869
vn -0.8685 -0.0000 -0.4957
vn 0.4957 -0.0000 -0.8685
vn 0.8685 -0.0000 0.4957
vn -0.4957 -0.0000 0.8685
vn -0.0000 -1.0000 -0.0000
vn -0.0000 1.0000 -0.0000
vt 0.457775 0.945897
vt 0.457775 0.879533
vt 0.479672 0.879533
vt 0.479672 0.945897
vt 0.501570 0.879533
vt 0.501570 0.945897
vt 0.523467 0.879533
vt 0.523467 0.945897
vt 0.545364 0.879533
vt 0.545364 0.945897
vt 0.764524 0.897985
vt 0.764524 0.919882
vt 0.742627 0.919882
vt 0.742627 0.897985
vt 0.786421 0.897985
vt 0.786421 0.919882
vt 0.764524 0.919882
vt 0.764524 0.897985
s 0
f 1/1/1 2/2/1 4/3/1 3/4/1
f 3/4/2 4/3/2 8/5/2 7/6/2
f 7/6/3 8/5/3 6/7/3 5/8/3
f 5/8/4 6/7/4 2/9/4 1/10/4
f 3/11/5 7/12/5 5/13/5 1/14/5
f 8/15/6 4/16/6 2/17/6 6/18/6
