# Blender 4.4.3
# www.blender.org
mtllib 8.mtl
o Cube.198
v -0.668684 3.190472 -0.368975
v 0.044179 3.190472 0.823970
v -0.668684 3.996992 -0.368975
v 0.044179 3.996992 0.823970
v -0.589641 3.111327 -0.236701
v -0.589641 4.076137 -0.236701
v -0.027802 3.111327 0.703512
v -0.027802 4.076137 0.703512
v -0.674535 3.593732 -0.378768
v 0.048300 3.593732 0.830866
v -0.614382 3.593732 -0.221917
v -0.052543 3.593732 0.718297
v -0.307842 4.076137 0.234877
v -0.307842 3.111327 0.234877
v -0.406806 3.593732 0.294014
v -0.674442 3.474387 -0.378613
v -0.673792 3.362580 -0.377524
v -0.672027 3.265847 -0.374571
v 0.007887 3.112583 0.763237
v 0.028845 3.121377 0.798309
v 0.039458 3.145246 0.816069
v 0.048235 3.713077 0.830757
v 0.047777 3.824884 0.829990
v 0.046534 3.921616 0.827911
v -0.626924 4.074881 -0.299093
v -0.649805 4.066087 -0.337383
v -0.662341 4.042218 -0.358362
v -0.662341 3.145246 -0.358362
v -0.649805 3.121377 -0.337383
v -0.626924 3.112583 -0.299093
v -0.389830 4.076137 0.097675
v -0.467202 4.076137 -0.031804
v -0.535344 4.076137 -0.145837
v -0.612256 3.714333 -0.223188
v -0.606651 3.834934 -0.226537
v -0.598726 3.955535 -0.231273
v -0.225883 3.111327 0.372033
v -0.148703 3.111327 0.501190
v -0.081083 3.111327 0.614349
v 0.039458 4.042218 0.816069
v 0.028845 4.066087 0.798309
v 0.007887 4.074881 0.763237
v -0.050417 3.714333 0.717026
v -0.044811 3.834934 0.713677
v -0.036887 3.955535 0.708941
v -0.672027 3.921616 -0.374571
v -0.673792 3.824884 -0.377524
v -0.674442 3.713077 -0.378613
v 0.046534 3.265847 0.827911
v 0.047777 3.362580 0.829990
v 0.048235 3.474387 0.830757
v -0.598726 3.231928 -0.231273
v -0.606651 3.352530 -0.226537
v -0.612256 3.473131 -0.223188
v -0.036887 3.231928 0.708941
v -0.044811 3.352530 0.713677
v -0.050417 3.473131 0.717026
v -0.480675 3.593732 0.151961
v -0.538332 3.593732 0.010701
v -0.582120 3.593732 -0.117885
v -0.637455 3.593732 -0.293011
v -0.653641 3.593732 -0.336778
v -0.665236 3.593732 -0.362328
v 0.040837 3.593732 0.819256
v 0.026276 3.593732 0.801032
v -0.002485 3.593732 0.769584
v -0.081083 4.076137 0.614349
v -0.148703 4.076137 0.501190
v -0.225883 4.076137 0.372033
v -0.535344 3.111327 -0.145837
v -0.467202 3.111327 -0.031804
v -0.389829 3.111327 0.097675
v -0.127859 3.593732 0.642301
v -0.219833 3.593732 0.543695
v -0.316728 3.593732 0.426319
v -0.344181 3.231928 0.256591
v -0.375880 3.352530 0.275534
v -0.398301 3.473131 0.288932
v -0.398301 3.714333 0.288932
v -0.375880 3.834934 0.275534
v -0.344181 3.955535 0.256591
v -0.001589 3.714307 0.769045
v 0.026530 3.714124 0.800855
v 0.040837 3.713679 0.819179
v 0.000766 3.834725 0.767616
v 0.027155 3.833259 0.800309
v 0.040686 3.829700 0.818727
v 0.004086 3.954881 0.765580
v 0.027960 3.950301 0.799407
v 0.040209 3.938759 0.817648
v -0.665154 3.713679 -0.362267
v -0.653359 3.714124 -0.336911
v -0.636556 3.714307 -0.293544
v -0.664728 3.829700 -0.361752
v -0.652550 3.833259 -0.337149
v -0.634177 3.834725 -0.294934
v -0.663751 3.938759 -0.360398
v -0.651297 3.950301 -0.337300
v -0.630801 3.954881 -0.296877
v -0.308921 3.714333 0.421654
v -0.213720 3.714333 0.540042
v -0.123839 3.714333 0.639899
v -0.288339 3.834934 0.409354
v -0.197605 3.834934 0.530412
v -0.113241 3.834934 0.633566
v -0.259240 3.955535 0.391966
v -0.174821 3.955535 0.516797
v -0.098258 3.955535 0.624613
v -0.259240 3.231928 0.391966
v -0.174821 3.231928 0.516797
v -0.098258 3.231928 0.624613
v -0.288339 3.352530 0.409354
v -0.197605 3.352530 0.530412
v -0.113241 3.352530 0.633566
v -0.308921 3.473131 0.421654
v -0.213720 3.473131 0.540042
v -0.123839 3.473131 0.639899
v -0.663751 3.248705 -0.360398
v -0.651297 3.237163 -0.337300
v -0.630801 3.232583 -0.296877
v -0.664728 3.357764 -0.361752
v -0.652550 3.354204 -0.337149
v -0.634177 3.352739 -0.294934
v -0.665154 3.473785 -0.362267
v -0.653359 3.473340 -0.336911
v -0.636556 3.473157 -0.293544
v 0.004086 3.232583 0.765580
v 0.027960 3.237163 0.799407
v 0.040209 3.248705 0.817648
v 0.000766 3.352739 0.767616
v 0.027155 3.354204 0.800309
v 0.040686 3.357764 0.818727
v -0.001589 3.473157 0.769045
v 0.026530 3.473340 0.800855
v 0.040837 3.473785 0.819179
v -0.552519 3.231928 -0.135574
v -0.493320 3.231928 -0.016197
v -0.423187 3.231928 0.117608
v -0.567502 3.352530 -0.126620
v -0.516104 3.352530 -0.002582
v -0.452286 3.352530 0.134997
v -0.578100 3.473131 -0.120288
v -0.532219 3.473131 0.007048
v -0.472868 3.473131 0.147296
v -0.578100 3.714333 -0.120288
v -0.532219 3.714333 0.007048
v -0.472868 3.714333 0.147296
v -0.567502 3.834934 -0.126620
v -0.516104 3.834934 -0.002582
v -0.452286 3.834934 0.134997
v -0.552519 3.955535 -0.135574
v -0.493320 3.955535 -0.016197
v -0.423187 3.955535 0.117608
v -0.695040 3.186429 -0.311429
v -0.738187 3.167999 -0.322298
v -0.715363 3.123504 -0.284103
v -0.678901 3.154967 -0.284422
v -0.718864 3.177214 -0.307928
v -0.713634 3.156049 -0.299058
v -0.731502 3.136536 -0.311111
v -0.702725 3.145751 -0.280920
v -0.690313 3.164182 -0.303519
v -0.695040 3.997267 -0.311429
v -0.678901 4.028730 -0.284422
v -0.715363 4.060193 -0.284103
v -0.738187 4.015698 -0.322298
v -0.690313 4.019515 -0.303519
v -0.713634 4.027648 -0.299058
v -0.702725 4.037945 -0.280920
v -0.731502 4.047160 -0.311111
v -0.718864 4.006483 -0.307928
v 0.077106 3.061586 -0.844968
v 0.060967 3.093048 -0.871976
v 0.104113 3.093048 -0.861107
v 0.065694 3.070801 -0.864066
v 0.083381 3.074883 -0.869879
v 0.084791 3.093048 -0.875478
v 0.096203 3.070801 -0.856380
v 0.077106 4.122111 -0.844968
v 0.104113 4.090649 -0.861107
v 0.060967 4.090649 -0.871976
v 0.096203 4.112896 -0.856380
v 0.083381 4.108813 -0.869879
v 0.084791 4.090649 -0.875478
v 0.065694 4.112896 -0.864066
v -0.059745 3.186429 0.751709
v -0.075884 3.154967 0.724701
v -0.089190 3.123504 0.763770
v -0.070614 3.178175 0.794856
v -0.064472 3.164182 0.743799
v -0.078830 3.157529 0.763257
v -0.088131 3.145751 0.747578
v -0.076188 3.139255 0.785529
v -0.074116 3.182302 0.771031
v -0.059745 3.997267 0.751709
v -0.070614 4.005522 0.794856
v -0.089190 4.060193 0.763770
v -0.075884 4.028730 0.724701
v -0.074116 4.001395 0.771031
v -0.078831 4.026168 0.763257
v -0.076188 4.044441 0.785529
v -0.088131 4.037945 0.747578
v -0.064472 4.019515 0.743799
v 0.883032 3.061586 0.503715
v 0.910040 3.093048 0.487576
v 0.899171 3.093048 0.530723
v 0.902129 3.070801 0.492303
v 0.907943 3.074883 0.509990
v 0.913541 3.093048 0.511400
v 0.894444 3.070801 0.522812
v 0.883032 4.122111 0.503715
v 0.899171 4.090649 0.530723
v 0.910040 4.090649 0.487576
v 0.894444 4.112896 0.522812
v 0.907943 4.108813 0.509990
v 0.913541 4.090649 0.511400
v 0.902129 4.112896 0.492303
v -0.726802 3.061586 -0.364581
v -0.730985 3.093048 -0.310247
v -0.753809 3.137543 -0.348442
v -0.742941 3.093048 -0.391589
v -0.734487 3.070801 -0.334072
v -0.751305 3.082608 -0.362101
v -0.747124 3.106081 -0.337255
v -0.757311 3.115296 -0.372267
v -0.738214 3.070801 -0.383679
v -0.753809 4.046154 -0.348442
v -0.730985 4.090649 -0.310247
v -0.726802 4.122111 -0.364581
v -0.742941 4.090649 -0.391589
v -0.747124 4.077616 -0.337255
v -0.751305 4.101089 -0.362101
v -0.734487 4.112896 -0.334072
v -0.738214 4.112896 -0.383679
v -0.757311 4.068401 -0.372267
v 0.079125 4.122111 0.984102
v -0.038634 4.090649 0.848373
v 0.052117 4.079458 1.000241
v 0.095264 4.090649 1.011110
v 0.014652 4.112896 0.919580
v 0.055448 4.105935 0.987967
v 0.025619 4.087356 0.955898
v 0.071439 4.085053 1.014611
v 0.090537 4.112896 1.003199
v 0.079125 3.061586 0.984102
v 0.095264 3.093048 1.011110
v 0.052117 3.104239 1.000241
v -0.038634 3.093048 0.848373
v 0.090537 3.070801 1.003199
v 0.055448 3.077762 0.987967
v 0.071439 3.098644 1.014611
v 0.025619 3.096341 0.955898
v 0.014652 3.070801 0.919580
v -0.599263 3.186429 -0.368663
v -0.583124 3.154967 -0.341655
v -0.556116 3.186429 -0.357794
v -0.594536 3.164182 -0.360752
v -0.576849 3.168264 -0.366565
v -0.564026 3.164182 -0.353067
v -0.575438 3.186429 -0.372164
v -0.599263 3.997267 -0.368663
v -0.556116 3.997267 -0.357794
v -0.583124 4.028730 -0.341655
v -0.575438 3.997267 -0.372164
v -0.576848 4.015432 -0.366566
v -0.564026 4.019515 -0.353067
v -0.594536 4.019515 -0.360752
v 0.036032 3.997267 0.694476
v 0.019893 4.028730 0.667468
v 0.046901 3.997267 0.651329
v 0.031305 4.019515 0.686565
v 0.044804 4.015432 0.673743
v 0.038990 4.019515 0.656056
v 0.050402 3.997267 0.675153
v 0.036032 3.186429 0.694476
v 0.046901 3.186429 0.651329
v 0.019893 3.154967 0.667468
v 0.050402 3.186429 0.675153
v 0.044804 3.168264 0.673743
v 0.038990 3.164182 0.656056
v 0.031305 3.164182 0.686565
v -0.040694 3.836216 0.908724
v -0.028842 3.822139 0.901642
v -0.037222 3.826262 0.906650
v 0.048641 3.836216 0.855341
v 0.036789 3.822139 0.862423
v 0.045170 3.826262 0.857415
v -0.026268 3.841810 0.932865
v -0.011653 3.828804 0.930407
v -0.020843 3.832613 0.934060
v 0.063066 3.841810 0.879482
v 0.053978 3.828804 0.891188
v 0.061549 3.832613 0.884826
v -0.014039 3.857739 0.953330
v 0.002918 3.847786 0.954793
v -0.006957 3.850701 0.957298
v 0.075296 3.857739 0.899947
v 0.068550 3.847786 0.915573
v 0.075435 3.850701 0.908063
v -0.005867 3.881580 0.967005
v 0.012655 3.876194 0.971087
v 0.002321 3.877771 0.972825
v 0.083467 3.881580 0.913622
v 0.078287 3.876194 0.931867
v 0.084713 3.877771 0.923590
v -0.002998 3.909703 0.971807
v 0.016074 3.909703 0.976808
v 0.005579 3.909703 0.978277
v 0.086337 3.909703 0.918423
v 0.081706 3.909703 0.937589
v 0.087971 3.909703 0.929042
v -0.005867 3.937825 0.967005
v 0.012655 3.943212 0.971087
v 0.002321 3.941634 0.972825
v 0.083467 3.937825 0.913622
v 0.078287 3.943212 0.931867
v 0.084713 3.941634 0.923590
v -0.014039 3.961666 0.953330
v 0.002918 3.971620 0.954793
v -0.006957 3.968704 0.957298
v 0.075296 3.961666 0.899947
v 0.068550 3.971620 0.915573
v 0.075435 3.968704 0.908063
v -0.026268 3.977596 0.932865
v -0.011653 3.990601 0.930407
v -0.020843 3.986792 0.934060
v 0.063066 3.977596 0.879482
v 0.053978 3.990601 0.891188
v 0.061549 3.986792 0.884826
v -0.040694 3.983190 0.908724
v -0.028842 3.997267 0.901642
v -0.037222 3.993144 0.906650
v 0.048641 3.983190 0.855341
v 0.036789 3.997267 0.862423
v 0.045170 3.993144 0.857415
v -0.055119 3.977596 0.884584
v -0.046031 3.990601 0.872878
v -0.053602 3.986792 0.879240
v 0.034215 3.977596 0.831201
v 0.019601 3.990601 0.833658
v 0.028790 3.986792 0.830005
v -0.067349 3.961666 0.864118
v -0.060603 3.971620 0.848492
v -0.067488 3.968704 0.856002
v 0.021986 3.961666 0.810735
v 0.005029 3.971620 0.809273
v 0.014904 3.968704 0.806768
v -0.075520 3.937825 0.850444
v -0.070340 3.943212 0.832198
v -0.076766 3.941634 0.840476
v 0.013814 3.937825 0.797061
v -0.004708 3.943212 0.792979
v 0.005626 3.941634 0.791241
v -0.078389 3.909703 0.845642
v -0.073759 3.909703 0.826476
v -0.080024 3.909703 0.835023
v 0.010945 3.909703 0.792259
v -0.008127 3.909703 0.787257
v 0.002368 3.909703 0.785789
v -0.075520 3.881580 0.850444
v -0.070340 3.876194 0.832198
v -0.076766 3.877771 0.840476
v 0.013814 3.881580 0.797061
v -0.004708 3.876194 0.792979
v 0.005626 3.877771 0.791241
v -0.067349 3.857739 0.864118
v -0.060603 3.847786 0.848492
v -0.067488 3.850701 0.856002
v 0.021986 3.857739 0.810735
v 0.005029 3.847786 0.809273
v 0.014904 3.850701 0.806768
v -0.055119 3.841810 0.884584
v -0.046031 3.828804 0.872878
v -0.053602 3.832613 0.879240
v 0.034215 3.841810 0.831201
v 0.019601 3.828804 0.833658
v 0.028790 3.832613 0.830005
v -0.040694 3.591336 0.908724
v -0.028842 3.577260 0.901642
v -0.037222 3.581383 0.906650
v 0.048641 3.591336 0.855341
v 0.036789 3.577260 0.862423
v 0.045170 3.581383 0.857415
v -0.026268 3.596930 0.932865
v -0.011653 3.583925 0.930407
v -0.020843 3.587734 0.934060
v 0.063066 3.596930 0.879482
v 0.053978 3.583925 0.891188
v 0.061549 3.587734 0.884826
v -0.014039 3.612860 0.953330
v 0.002918 3.602907 0.954793
v -0.006957 3.605822 0.957298
v 0.075296 3.612860 0.899947
v 0.068550 3.602907 0.915573
v 0.075435 3.605822 0.908063
v -0.005867 3.636701 0.967005
v 0.012655 3.631314 0.971087
v 0.002321 3.632892 0.972825
v 0.083467 3.636701 0.913622
v 0.078287 3.631314 0.931867
v 0.084713 3.632892 0.923590
v -0.002998 3.664824 0.971807
v 0.016074 3.664824 0.976808
v 0.005579 3.664824 0.978277
v 0.086337 3.664824 0.918423
v 0.081706 3.664824 0.937589
v 0.087971 3.664824 0.929042
v -0.005867 3.692946 0.967005
v 0.012655 3.698333 0.971087
v 0.002321 3.696755 0.972825
v 0.083467 3.692946 0.913622
v 0.078287 3.698333 0.931867
v 0.084713 3.696755 0.923590
v -0.014039 3.716787 0.953330
v 0.002918 3.726740 0.954793
v -0.006957 3.723825 0.957298
v 0.075296 3.716787 0.899947
v 0.068550 3.726740 0.915573
v 0.075435 3.723825 0.908063
v -0.026268 3.732717 0.932865
v -0.011653 3.745722 0.930407
v -0.020843 3.741913 0.934060
v 0.063066 3.732717 0.879482
v 0.053978 3.745722 0.891188
v 0.061549 3.741913 0.884826
v -0.040694 3.738311 0.908724
v -0.028842 3.752387 0.901642
v -0.037222 3.748264 0.906650
v 0.048641 3.738311 0.855341
v 0.036789 3.752387 0.862423
v 0.045170 3.748264 0.857415
v -0.055119 3.732717 0.884584
v -0.046031 3.745722 0.872878
v -0.053602 3.741913 0.879240
v 0.034215 3.732717 0.831201
v 0.019601 3.745722 0.833658
v 0.028790 3.741913 0.830005
v -0.067349 3.716787 0.864118
v -0.060603 3.726740 0.848492
v -0.067488 3.723825 0.856002
v 0.021986 3.716787 0.810735
v 0.005029 3.726740 0.809273
v 0.014904 3.723825 0.806768
v -0.075520 3.692946 0.850444
v -0.070340 3.698333 0.832198
v -0.076766 3.696755 0.840476
v 0.013814 3.692946 0.797061
v -0.004708 3.698333 0.792979
v 0.005626 3.696755 0.791241
v -0.078389 3.664824 0.845642
v -0.073759 3.664824 0.826476
v -0.080024 3.664824 0.835023
v 0.010945 3.664824 0.792259
v -0.008127 3.664824 0.787257
v 0.002368 3.664824 0.785789
v -0.075520 3.636701 0.850444
v -0.070340 3.631314 0.832198
v -0.076766 3.632892 0.840476
v 0.013814 3.636701 0.797061
v -0.004708 3.631314 0.792979
v 0.005626 3.632892 0.791241
v -0.067349 3.612860 0.864118
v -0.060603 3.602907 0.848492
v -0.067488 3.605822 0.856002
v 0.021986 3.612860 0.810735
v 0.005029 3.602907 0.809273
v 0.014904 3.605822 0.806768
v -0.055119 3.596930 0.884584
v -0.046031 3.583925 0.872878
v -0.053602 3.587734 0.879240
v 0.034215 3.596930 0.831201
v 0.019601 3.583925 0.833658
v 0.028790 3.587734 0.830005
vn -0.8628 -0.0014 0.5055
vn -0.8524 -0.0013 0.5230
vn -0.8628 0.0014 0.5055
vn -0.8524 0.0013 0.5230
vn -0.8761 -0.0943 0.4729
vn -0.8761 0.0943 0.4729
vn -0.8307 -0.0943 0.5487
vn -0.8307 0.0943 0.5487
vn -0.8699 -0.0000 0.4932
vn -0.8419 -0.0000 0.5396
vn -0.9502 -0.0000 0.3116
vn -0.7198 -0.0000 0.6941
vn -0.8136 0.3190 0.4862
vn -0.8136 -0.3190 0.4862
vn -0.8584 -0.0000 0.5130
vn -0.8691 -0.0004 0.4946
vn -0.8672 -0.0008 0.4979
vn -0.8651 -0.0011 0.5016
vn -0.8344 -0.0450 0.5493
vn -0.8373 -0.0196 0.5465
vn -0.8418 -0.0067 0.5398
vn -0.8431 0.0004 0.5377
vn -0.8458 0.0008 0.5334
vn -0.8489 0.0011 0.5285
vn -0.8778 0.0449 0.4770
vn -0.8758 0.0193 0.4822
vn -0.8715 0.0066 0.4904
vn -0.8715 -0.0066 0.4904
vn -0.8758 -0.0193 0.4822
vn -0.8778 -0.0449 0.4770
vn -0.8289 0.2976 0.4737
vn -0.8495 0.2404 0.4696
vn -0.8670 0.1652 0.4700
vn -0.9438 0.0395 0.3280
vn -0.9251 0.0695 0.3732
vn -0.8948 0.0880 0.4377
vn -0.8098 -0.2976 0.5056
vn -0.8159 -0.2404 0.5258
vn -0.8244 -0.1652 0.5414
vn -0.8418 0.0067 0.5398
vn -0.8373 0.0196 0.5465
vn -0.8344 0.0450 0.5493
vn -0.7317 0.0395 0.6804
vn -0.7639 0.0695 0.6416
vn -0.8079 0.0879 0.5828
vn -0.8651 0.0011 0.5016
vn -0.8672 0.0008 0.4979
vn -0.8691 0.0004 0.4946
vn -0.8489 -0.0011 0.5285
vn -0.8458 -0.0008 0.5334
vn -0.8431 -0.0004 0.5377
vn -0.8948 -0.0880 0.4377
vn -0.9251 -0.0695 0.3732
vn -0.9438 -0.0395 0.3280
vn -0.8079 -0.0879 0.5828
vn -0.7639 -0.0695 0.6416
vn -0.7317 -0.0395 0.6804
vn -0.9055 -0.0000 0.4243
vn -0.9339 -0.0000 0.3575
vn -0.9480 -0.0000 0.3182
vn -0.9419 -0.0000 0.3359
vn -0.9225 -0.0000 0.3860
vn -0.8901 -0.0000 0.4558
vn -0.8143 -0.0000 0.5804
vn -0.7645 -0.0000 0.6446
vn -0.7331 -0.0000 0.6802
vn -0.8244 0.1652 0.5414
vn -0.8159 0.2404 0.5258
vn -0.8098 0.2976 0.5056
vn -0.8670 -0.1652 0.4700
vn -0.8495 -0.2404 0.4696
vn -0.8289 -0.2976 0.4737
vn -0.7274 -0.0000 0.6862
vn -0.7567 -0.0000 0.6538
vn -0.8025 -0.0000 0.5966
vn -0.8188 -0.3004 0.4893
vn -0.8328 -0.2425 0.4977
vn -0.8498 -0.1409 0.5078
vn -0.8498 0.1409 0.5078
vn -0.8328 0.2425 0.4977
vn -0.8188 0.3004 0.4893
vn -0.7441 0.0181 0.6678
vn -0.7726 0.0065 0.6349
vn -0.8178 0.0016 0.5754
vn -0.7737 0.0321 0.6327
vn -0.7942 0.0117 0.6075
vn -0.8269 0.0030 0.5624
vn -0.8142 0.0407 0.5791
vn -0.8242 0.0148 0.5661
vn -0.8387 0.0039 0.5447
vn -0.8878 0.0016 0.4602
vn -0.9181 0.0065 0.3962
vn -0.9364 0.0182 0.3504
vn -0.8819 0.0030 0.4715
vn -0.9056 0.0117 0.4239
vn -0.9202 0.0321 0.3902
vn -0.8736 0.0040 0.4867
vn -0.8858 0.0149 0.4638
vn -0.8936 0.0407 0.4471
vn -0.8003 0.1305 0.5852
vn -0.7615 0.1037 0.6398
vn -0.7373 0.0700 0.6719
vn -0.7991 0.2253 0.5574
vn -0.7768 0.1803 0.6033
vn -0.7648 0.1228 0.6324
vn -0.8048 0.2799 0.5233
vn -0.8018 0.2256 0.5534
vn -0.8037 0.1547 0.5745
vn -0.8048 -0.2799 0.5233
vn -0.8018 -0.2256 0.5534
vn -0.8037 -0.1547 0.5746
vn -0.7991 -0.2253 0.5574
vn -0.7768 -0.1803 0.6033
vn -0.7648 -0.1228 0.6324
vn -0.8003 -0.1305 0.5852
vn -0.7615 -0.1037 0.6398
vn -0.7373 -0.0700 0.6719
vn -0.8736 -0.0040 0.4867
vn -0.8858 -0.0149 0.4638
vn -0.8936 -0.0407 0.4471
vn -0.8819 -0.0030 0.4715
vn -0.9056 -0.0117 0.4239
vn -0.9202 -0.0321 0.3902
vn -0.8878 -0.0016 0.4602
vn -0.9181 -0.0065 0.3962
vn -0.9364 -0.0182 0.3504
vn -0.8142 -0.0407 0.5791
vn -0.8242 -0.0148 0.5661
vn -0.8387 -0.0039 0.5447
vn -0.7737 -0.0321 0.6327
vn -0.7942 -0.0117 0.6075
vn -0.8269 -0.0030 0.5624
vn -0.7441 -0.0181 0.6678
vn -0.7726 -0.0065 0.6349
vn -0.8178 -0.0016 0.5754
vn -0.8863 -0.1547 0.4366
vn -0.8670 -0.2256 0.4442
vn -0.8421 -0.2799 0.4609
vn -0.9185 -0.1228 0.3758
vn -0.8991 -0.1803 0.3989
vn -0.8694 -0.2253 0.4398
vn -0.9401 -0.0701 0.3335
vn -0.9239 -0.1037 0.3683
vn -0.8944 -0.1305 0.4278
vn -0.9401 0.0701 0.3335
vn -0.9239 0.1037 0.3683
vn -0.8944 0.1305 0.4278
vn -0.9185 0.1228 0.3758
vn -0.8991 0.1803 0.3989
vn -0.8694 0.2253 0.4398
vn -0.8863 0.1547 0.4366
vn -0.8670 0.2256 0.4442
vn -0.8421 0.2799 0.4609
vn 0.3014 0.1785 0.9367
vn -0.7684 0.0357 0.6390
vn -0.8292 0.1544 0.5371
vn -0.0988 0.9586 0.2670
vn -0.3315 0.1442 0.9324
vn -0.4747 0.4203 0.7733
vn -0.8066 0.0880 0.5845
vn -0.5809 0.6303 0.5151
vn 0.1217 0.6817 0.7214
vn 0.3014 -0.1785 0.9367
vn -0.0988 -0.9586 0.2670
vn -0.8292 -0.1544 0.5371
vn -0.7684 -0.0357 0.6390
vn 0.1217 -0.6817 0.7214
vn -0.4747 -0.4203 0.7733
vn -0.5809 -0.6303 0.5151
vn -0.8066 -0.0880 0.5845
vn -0.3315 -0.1442 0.9324
vn 0.0620 -0.9673 -0.2460
vn -0.3422 -0.1794 -0.9223
vn 0.7383 -0.1794 -0.6501
vn -0.2091 -0.6965 -0.6864
vn 0.1994 -0.5773 -0.7918
vn 0.2406 -0.1726 -0.9552
vn 0.5094 -0.6965 -0.5054
vn 0.0620 0.9673 -0.2460
vn 0.7383 0.1794 -0.6502
vn -0.3422 0.1794 -0.9223
vn 0.5094 0.6965 -0.5054
vn 0.1995 0.5774 -0.7918
vn 0.2406 0.1726 -0.9552
vn -0.2091 0.6965 -0.6864
vn -0.6776 0.1797 -0.7132
vn -0.2859 0.9575 -0.0375
vn -0.8725 0.1355 0.4695
vn -0.9326 0.0261 0.3599
vn -0.5849 0.6666 -0.4621
vn -0.9249 0.3798 0.0155
vn -0.7565 0.6016 0.2565
vn -0.9028 0.0782 0.4229
vn -0.9764 0.1197 -0.1798
vn -0.6776 -0.1797 -0.7132
vn -0.9326 -0.0261 0.3599
vn -0.8725 -0.1355 0.4695
vn -0.2859 -0.9575 -0.0375
vn -0.9764 -0.1197 -0.1798
vn -0.9249 -0.3798 0.0155
vn -0.9028 -0.0782 0.4229
vn -0.7565 -0.6016 0.2565
vn -0.5849 -0.6666 -0.4621
vn 0.2460 -0.9673 0.0620
vn 0.9223 -0.1794 -0.3422
vn 0.6502 -0.1794 0.7383
vn 0.6864 -0.6965 -0.2091
vn 0.7918 -0.5773 0.1994
vn 0.9552 -0.1726 0.2406
vn 0.5054 -0.6965 0.5094
vn 0.2460 0.9673 0.0620
vn 0.6502 0.1794 0.7383
vn 0.9223 0.1794 -0.3422
vn 0.5054 0.6965 0.5094
vn 0.7918 0.5774 0.1994
vn 0.9552 0.1726 0.2406
vn 0.6864 0.6965 -0.2091
vn -0.3397 -0.9395 -0.0437
vn -0.8519 -0.1979 0.4850
vn -0.9428 -0.0207 0.3328
vn -0.7130 -0.2118 -0.6684
vn -0.6775 -0.6713 0.3007
vn -0.9009 -0.4326 0.0344
vn -0.9079 -0.1212 0.4013
vn -0.9760 -0.0894 -0.1988
vn -0.6058 -0.6739 -0.4230
vn -0.9428 0.0207 0.3328
vn -0.8519 0.1979 0.4850
vn -0.3396 0.9395 -0.0437
vn -0.7130 0.2118 -0.6684
vn -0.9079 0.1212 0.4013
vn -0.9009 0.4326 0.0344
vn -0.6775 0.6713 0.3007
vn -0.6058 0.6739 -0.4230
vn -0.9760 0.0894 -0.1988
vn -0.1744 0.9395 0.2948
vn -0.8414 0.1957 0.5038
vn -0.7471 0.1579 0.6456
vn 0.2322 0.2591 0.9375
vn -0.6086 0.6958 0.3815
vn -0.5797 0.5814 0.5709
vn -0.8322 0.1913 0.5204
vn -0.3195 0.2362 0.9177
vn 0.0397 0.7156 0.6974
vn -0.1744 -0.9395 0.2948
vn 0.2322 -0.2590 0.9375
vn -0.7471 -0.1579 0.6457
vn -0.8414 -0.1957 0.5038
vn 0.0397 -0.7156 0.6974
vn -0.5797 -0.5814 0.5709
vn -0.3195 -0.2362 0.9177
vn -0.8322 -0.1913 0.5204
vn -0.6086 -0.6958 0.3815
vn 0.3422 0.1794 0.9223
vn -0.0620 0.9673 0.2460
vn -0.7383 0.1794 0.6501
vn 0.2091 0.6965 0.6864
vn -0.1995 0.5774 0.7918
vn -0.5094 0.6965 0.5054
vn -0.2406 0.1726 0.9552
vn 0.3422 -0.1794 0.9223
vn -0.7383 -0.1794 0.6502
vn -0.0620 -0.9673 0.2460
vn -0.2406 -0.1726 0.9552
vn -0.1995 -0.5773 0.7918
vn -0.5094 -0.6965 0.5054
vn 0.2091 -0.6965 0.6864
vn -0.6502 -0.1794 -0.7383
vn -0.2460 -0.9673 -0.0620
vn -0.9223 -0.1794 0.3422
vn -0.5054 -0.6965 -0.5094
vn -0.7918 -0.5774 -0.1994
vn -0.6864 -0.6965 0.2091
vn -0.9552 -0.1726 -0.2406
vn -0.6502 0.1794 -0.7383
vn -0.9223 0.1794 0.3422
vn -0.2460 0.9673 -0.0620
vn -0.9552 0.1726 -0.2406
vn -0.7918 0.5774 -0.1994
vn -0.6864 0.6965 0.2091
vn -0.5054 0.6965 -0.5094
vn -0.8384 -0.2146 0.5010
vn -0.1664 -0.9810 0.0994
vn -0.5913 -0.7249 0.3534
vn 0.8384 -0.2146 -0.5010
vn 0.1664 -0.9810 -0.0994
vn 0.5913 -0.7249 -0.3534
vn -0.7963 -0.1983 0.5715
vn 0.0262 -0.9064 0.4217
vn -0.4490 -0.6697 0.5915
vn 0.8805 -0.1983 -0.4305
vn 0.3590 -0.9064 0.2228
vn 0.7336 -0.6697 -0.1152
vn -0.7606 -0.1518 0.6313
vn 0.1894 -0.6937 0.6949
vn -0.3284 -0.5126 0.7934
vn 0.9163 -0.1518 -0.3707
vn 0.5222 -0.6937 0.4960
vn 0.8543 -0.5126 0.0866
vn -0.7367 -0.0821 0.6712
vn 0.2985 -0.3754 0.8775
vn -0.2478 -0.2774 0.9282
vn 0.9401 -0.0821 -0.3308
vn 0.6313 -0.3754 0.6786
vn 0.9349 -0.2774 0.2215
vn -0.7283 -0.0000 0.6852
vn 0.3368 -0.0000 0.9416
vn -0.2195 -0.0000 0.9756
vn 0.9485 -0.0000 -0.3168
vn 0.6696 -0.0000 0.7427
vn 0.9632 -0.0000 0.2689
vn -0.7367 0.0821 0.6712
vn 0.2985 0.3754 0.8775
vn -0.2478 0.2774 0.9282
vn 0.9401 0.0821 -0.3308
vn 0.6313 0.3754 0.6786
vn 0.9349 0.2774 0.2215
vn -0.7606 0.1518 0.6313
vn 0.1894 0.6937 0.6949
vn -0.3284 0.5126 0.7934
vn 0.9163 0.1518 -0.3707
vn 0.5222 0.6937 0.4960
vn 0.8543 0.5126 0.0866
vn -0.7963 0.1983 0.5715
vn 0.0262 0.9064 0.4217
vn -0.4490 0.6697 0.5915
vn 0.8805 0.1983 -0.4305
vn 0.3590 0.9064 0.2228
vn 0.7336 0.6697 -0.1152
vn -0.8384 0.2146 0.5010
vn -0.1664 0.9810 0.0994
vn -0.5913 0.7249 0.3534
vn 0.8384 0.2146 -0.5010
vn 0.1664 0.9810 -0.0994
vn 0.5913 0.7249 -0.3534
vn -0.8805 0.1983 0.4305
vn -0.3590 0.9064 -0.2228
vn -0.7336 0.6697 0.1152
vn 0.7963 0.1983 -0.5715
vn -0.0262 0.9064 -0.4217
vn 0.4490 0.6697 -0.5915
vn -0.9163 0.1518 0.3707
vn -0.5222 0.6937 -0.4960
vn -0.8543 0.5126 -0.0866
vn 0.7606 0.1518 -0.6313
vn -0.1894 0.6937 -0.6949
vn 0.3284 0.5126 -0.7934
vn -0.9401 0.0821 0.3308
vn -0.6313 0.3754 -0.6786
vn -0.9349 0.2774 -0.2215
vn 0.7367 0.0821 -0.6712
vn -0.2985 0.3754 -0.8775
vn 0.2478 0.2774 -0.9282
vn -0.9485 -0.0000 0.3168
vn -0.6696 -0.0000 -0.7427
vn -0.9632 -0.0000 -0.2689
vn 0.7283 -0.0000 -0.6852
vn -0.3368 -0.0000 -0.9416
vn 0.2195 -0.0000 -0.9756
vn -0.9401 -0.0821 0.3308
vn -0.6313 -0.3754 -0.6786
vn -0.9349 -0.2774 -0.2215
vn 0.7367 -0.0821 -0.6712
vn -0.2985 -0.3754 -0.8775
vn 0.2478 -0.2774 -0.9282
vn -0.9163 -0.1518 0.3707
vn -0.5222 -0.6937 -0.4960
vn -0.8543 -0.5126 -0.0866
vn 0.7606 -0.1518 -0.6313
vn -0.1894 -0.6937 -0.6949
vn 0.3284 -0.5126 -0.7934
vn -0.8805 -0.1983 0.4305
vn -0.3590 -0.9064 -0.2228
vn -0.7336 -0.6697 0.1152
vn 0.7963 -0.1983 -0.5715
vn -0.0262 -0.9064 -0.4217
vn 0.4490 -0.6697 -0.5915
vt 0.795609 0.556695
vt 0.795636 0.562804
vt 0.778191 0.562782
vt 0.777977 0.556691
vt 0.795701 0.566181
vt 0.778713 0.566113
vt 0.761053 0.562729
vt 0.760382 0.556684
vt 0.762743 0.565941
vt 0.813265 0.546492
vt 0.813265 0.556695
vt 0.795605 0.546492
vt 0.813265 0.562807
vt 0.813265 0.566190
vt 0.813265 0.568210
vt 0.795789 0.568192
vt 0.779418 0.568061
vt 0.765253 0.567706
vt 0.754216 0.567034
vt 0.747594 0.565686
vt 0.744099 0.562657
vt 0.742811 0.556674
vt 0.760287 0.546489
vt 0.742627 0.546486
vt 0.777946 0.546490
vt 0.795701 0.364650
vt 0.795636 0.368724
vt 0.778191 0.368755
vt 0.778713 0.364747
vt 0.795609 0.375439
vt 0.777977 0.375442
vt 0.761053 0.368830
vt 0.762743 0.364991
vt 0.760382 0.375451
vt 0.813265 0.361872
vt 0.813265 0.364637
vt 0.795789 0.361898
vt 0.813265 0.368720
vt 0.813265 0.375438
vt 0.813265 0.386111
vt 0.795605 0.386111
vt 0.777946 0.386109
vt 0.760287 0.386107
vt 0.742627 0.386105
vt 0.742811 0.375463
vt 0.744099 0.368931
vt 0.747594 0.365352
vt 0.765253 0.362587
vt 0.754216 0.363542
vt 0.779418 0.362084
vt 0.795605 0.489962
vt 0.795605 0.511990
vt 0.777946 0.511986
vt 0.777946 0.489958
vt 0.795605 0.531287
vt 0.777946 0.531285
vt 0.760287 0.511980
vt 0.760287 0.489951
vt 0.760287 0.531281
vt 0.813265 0.466570
vt 0.813265 0.489964
vt 0.795605 0.466568
vt 0.813265 0.511991
vt 0.813265 0.531288
vt 0.742627 0.531277
vt 0.742627 0.511974
vt 0.742627 0.489943
vt 0.760287 0.466555
vt 0.742627 0.466547
vt 0.777946 0.466563
vt 0.866243 0.489951
vt 0.866243 0.511980
vt 0.848584 0.511986
vt 0.848584 0.489958
vt 0.866243 0.531281
vt 0.848584 0.531285
vt 0.830924 0.511990
vt 0.830924 0.489962
vt 0.830924 0.531287
vt 0.883902 0.466547
vt 0.883902 0.489943
vt 0.866243 0.466555
vt 0.883902 0.511974
vt 0.883902 0.531277
vt 0.883902 0.546486
vt 0.866243 0.546489
vt 0.848584 0.546490
vt 0.830924 0.546492
vt 0.830924 0.466568
vt 0.848584 0.466563
vt 0.863786 0.364991
vt 0.865476 0.368830
vt 0.848338 0.368755
vt 0.847817 0.364747
vt 0.866147 0.375451
vt 0.848553 0.375442
vt 0.830894 0.368724
vt 0.830828 0.364650
vt 0.830920 0.375439
vt 0.872313 0.363542
vt 0.878936 0.365352
vt 0.861276 0.362587
vt 0.882431 0.368931
vt 0.883718 0.375463
vt 0.883902 0.386105
vt 0.866243 0.386107
vt 0.848584 0.386109
vt 0.830924 0.386111
vt 0.830740 0.361898
vt 0.847112 0.362084
vt 0.866147 0.556684
vt 0.865476 0.562729
vt 0.848338 0.562782
vt 0.848553 0.556691
vt 0.863786 0.565941
vt 0.847817 0.566113
vt 0.830894 0.562804
vt 0.830920 0.556695
vt 0.830828 0.566181
vt 0.883718 0.556674
vt 0.882431 0.562657
vt 0.878936 0.565686
vt 0.872313 0.567034
vt 0.861276 0.567706
vt 0.847112 0.568061
vt 0.830740 0.568192
vt 0.866243 0.401609
vt 0.866243 0.421063
vt 0.848584 0.421068
vt 0.848584 0.401612
vt 0.866243 0.443151
vt 0.848584 0.443158
vt 0.830924 0.421072
vt 0.830924 0.401615
vt 0.830924 0.443163
vt 0.883902 0.401605
vt 0.883902 0.421057
vt 0.883902 0.443143
vt 0.813265 0.443164
vt 0.813265 0.421073
vt 0.813265 0.401616
vt 0.795605 0.401615
vt 0.795605 0.421072
vt 0.777946 0.421068
vt 0.777946 0.401612
vt 0.795605 0.443163
vt 0.777946 0.443158
vt 0.760287 0.421063
vt 0.760287 0.401609
vt 0.760287 0.443151
vt 0.742627 0.443143
vt 0.742627 0.421057
vt 0.742627 0.401605
vt 0.308441 0.241175
vt 0.454518 0.241175
vt 0.454518 0.471233
vt 0.308441 0.471233
vt 0.460966 0.697430
vt 0.460966 0.471403
vt 0.597945 0.470204
vt 0.597945 0.696231
vt 0.121987 0.878968
vt 0.003258 0.878968
vt 0.003258 0.706833
vt 0.121987 0.706833
vt 0.450058 0.192980
vt 0.450058 0.014234
vt 0.454518 0.009775
vt 0.454518 0.207412
vt 0.746031 0.895032
vt 0.746031 0.751473
vt 0.883017 0.750312
vt 0.883017 0.893872
vt 0.250222 0.975519
vt 0.250222 0.858835
vt 0.266543 0.858697
vt 0.266543 0.975380
vt 0.973827 0.700842
vt 0.973827 0.869962
vt 0.957508 0.870105
vt 0.957508 0.700985
vt 0.785460 0.293264
vt 0.785735 0.153179
vt 0.922625 0.151127
vt 0.922350 0.291212
vt 0.978391 0.347125
vt 0.978391 0.182156
vt 0.994698 0.181871
vt 0.994698 0.346841
vt 0.427307 0.477998
vt 0.427264 0.698478
vt 0.290389 0.700840
vt 0.290432 0.480359
vt 0.443543 0.007719
vt 0.319416 0.007719
vt 0.314956 0.003260
vt 0.448002 0.003260
vt 0.312901 0.014234
vt 0.312901 0.192980
vt 0.308441 0.207412
vt 0.308441 0.009775
vt 0.320906 0.198283
vt 0.442053 0.198283
vt 0.452879 0.233317
vt 0.310080 0.233317
vt 0.335446 0.972926
vt 0.338778 0.974547
vt 0.338697 0.977092
vt 0.335366 0.975669
vt 0.448150 0.009627
vt 0.445293 0.012483
vt 0.442193 0.010975
vt 0.446800 0.015582
vt 0.973764 0.697390
vt 0.977083 0.696413
vt 0.977145 0.699739
vt 0.335446 0.859067
vt 0.335366 0.855561
vt 0.338697 0.854700
vt 0.338778 0.858099
vt 0.975057 0.180535
vt 0.975140 0.177994
vt 0.978473 0.179418
vt 0.314809 0.009627
vt 0.317666 0.012483
vt 0.316158 0.015582
vt 0.320765 0.010975
vt 0.427226 0.474491
vt 0.429844 0.474848
vt 0.430477 0.477557
vt 0.886210 0.893595
vt 0.885585 0.896104
vt 0.882956 0.896824
vt 0.305184 0.241175
vt 0.305781 0.238516
vt 0.308441 0.237918
vt 0.457775 0.471683
vt 0.458400 0.469176
vt 0.461029 0.468454
vt 0.454518 0.237918
vt 0.457177 0.238516
vt 0.457775 0.241175
vt 0.882956 0.746861
vt 0.885585 0.747316
vt 0.886210 0.750035
vt 0.250284 0.978969
vt 0.246958 0.979702
vt 0.246906 0.975891
vt 0.977145 0.872106
vt 0.977073 0.874408
vt 0.973764 0.872911
vt 0.447752 0.196692
vt 0.445076 0.193692
vt 0.446800 0.191023
vt 0.441448 0.195023
vt 0.246906 0.858020
vt 0.246958 0.854701
vt 0.250284 0.855883
vt 0.315207 0.196692
vt 0.317883 0.193692
vt 0.321510 0.195023
vt 0.316158 0.191023
vt 0.978473 0.350632
vt 0.975153 0.351721
vt 0.975057 0.348672
vt 0.430433 0.698037
vt 0.429800 0.700426
vt 0.427181 0.701215
vt 0.308441 0.474491
vt 0.305781 0.473893
vt 0.305184 0.471233
vt 0.785534 0.296770
vt 0.782915 0.296405
vt 0.782288 0.293694
vt 0.461029 0.700882
vt 0.458400 0.700429
vt 0.457775 0.697710
vt 0.782563 0.153609
vt 0.783200 0.151219
vt 0.785821 0.150436
vt 0.457775 0.471233
vt 0.457177 0.473893
vt 0.454518 0.474491
vt 0.287098 0.483153
vt 0.286984 0.478073
vt 0.290350 0.476853
vt 0.452609 0.005168
vt 0.456046 0.001729
vt 0.457775 0.006515
vt 0.451260 0.000000
vt 0.745969 0.897985
vt 0.742627 0.895994
vt 0.742715 0.891609
vt 0.310349 0.005168
vt 0.306912 0.001729
vt 0.311699 0.000000
vt 0.305184 0.006515
vt 0.598008 0.467255
vt 0.601352 0.469247
vt 0.601263 0.473627
vt 0.742715 0.754453
vt 0.742627 0.749429
vt 0.745969 0.748022
vt 0.601263 0.683728
vt 0.601319 0.695374
vt 0.598008 0.699683
vt 0.308923 0.225753
vt 0.306203 0.232023
vt 0.305184 0.220362
vt 0.309260 0.236573
vt 0.308441 0.237918
vt 0.305184 0.236568
vt 0.290306 0.703577
vt 0.286984 0.698982
vt 0.287057 0.688098
vt 0.925683 0.290759
vt 0.925955 0.294979
vt 0.922424 0.294718
vt 0.454035 0.225753
vt 0.456756 0.232023
vt 0.453698 0.236573
vt 0.457775 0.220362
vt 0.319138 0.973203
vt 0.319057 0.975945
vt 0.316366 0.975248
vt 0.315805 0.972876
vt 0.954190 0.700762
vt 0.954759 0.698032
vt 0.957444 0.697533
vt 0.121987 0.703577
vt 0.124647 0.704176
vt 0.125245 0.706835
vt 0.319138 0.859343
vt 0.315805 0.859016
vt 0.316366 0.856286
vt 0.319057 0.855837
vt 0.000000 0.706835
vt 0.000598 0.704176
vt 0.003258 0.703577
vt 0.994780 0.179134
vt 0.997471 0.179830
vt 0.998032 0.182199
vt 0.266604 0.855744
vt 0.269289 0.856420
vt 0.269859 0.858918
vt 0.998032 0.347168
vt 0.997471 0.349898
vt 0.994780 0.350347
vt 0.003258 0.882228
vt 0.000598 0.881631
vt -0.000000 0.878970
vt 0.269859 0.975602
vt 0.269289 0.978332
vt 0.266604 0.978831
vt 0.125245 0.878970
vt 0.124647 0.881631
vt 0.121987 0.882228
vt 0.957444 0.873054
vt 0.954759 0.872379
vt 0.954190 0.869882
vt 0.922711 0.148385
vt 0.925955 0.152246
vt 0.584742 0.827604
vt 0.595918 0.827604
vt 0.595891 0.832585
vt 0.584714 0.832585
vt 0.595675 0.869228
vt 0.584498 0.869228
vt 0.584413 0.864451
vt 0.595590 0.864451
vt 0.584439 0.859469
vt 0.595616 0.859469
vt 0.584572 0.855041
vt 0.595749 0.855041
vt 0.425245 0.767554
vt 0.414062 0.767549
vt 0.413899 0.764042
vt 0.425082 0.764047
vt 0.413810 0.759437
vt 0.424994 0.759442
vt 0.413810 0.754435
vt 0.424994 0.754439
vt 0.413899 0.749796
vt 0.425082 0.749801
vt 0.414062 0.746228
vt 0.425245 0.746233
vt 0.869322 0.650802
vt 0.880506 0.650802
vt 0.880595 0.655404
vt 0.869411 0.655404
vt 0.880597 0.660407
vt 0.869413 0.660407
vt 0.880513 0.665048
vt 0.869329 0.665048
vt 0.584469 0.818971
vt 0.595645 0.818971
vt 0.595832 0.822824
vt 0.584656 0.822824
vt 0.595858 0.873074
vt 0.584681 0.873074
vt 0.892072 0.347891
vt 0.888193 0.346284
vt 0.885224 0.343315
vt 0.883617 0.339436
vt 0.883617 0.335238
vt 0.885224 0.331359
vt 0.888193 0.328390
vt 0.892072 0.326783
vt 0.896270 0.326783
vt 0.900149 0.328390
vt 0.903118 0.331359
vt 0.904725 0.335238
vt 0.904725 0.339436
vt 0.903118 0.343315
vt 0.900149 0.346284
vt 0.896270 0.347891
vt 0.595754 0.837008
vt 0.584578 0.837008
vt 0.583123 0.836627
vt 0.583254 0.832413
vt 0.062300 0.906194
vt 0.057533 0.906194
vt 0.057816 0.904765
vt 0.062015 0.904765
vt 0.597284 0.832413
vt 0.597154 0.836627
vt 0.891787 0.349320
vt 0.887383 0.347496
vt 0.597132 0.868940
vt 0.597307 0.872605
vt 0.053128 0.904370
vt 0.053937 0.903158
vt 0.583275 0.872605
vt 0.583101 0.868940
vt 0.896555 0.349320
vt 0.597051 0.864387
vt 0.049757 0.900999
vt 0.050969 0.900190
vt 0.583020 0.864387
vt 0.900959 0.347496
vt 0.597076 0.859640
vt 0.047933 0.896595
vt 0.049362 0.896311
vt 0.583045 0.859640
vt 0.904330 0.344125
vt 0.597203 0.855421
vt 0.047933 0.891828
vt 0.049362 0.892112
vt 0.583172 0.855421
vt 0.906154 0.339720
vt 0.426533 0.763708
vt 0.426689 0.767049
vt 0.049757 0.887423
vt 0.050969 0.888233
vt 0.412649 0.767044
vt 0.412494 0.763702
vt 0.906154 0.334953
vt 0.426449 0.759319
vt 0.053128 0.884052
vt 0.053937 0.885264
vt 0.412410 0.759314
vt 0.904330 0.330549
vt 0.426449 0.754552
vt 0.057533 0.882228
vt 0.057816 0.883658
vt 0.412410 0.754547
vt 0.900959 0.327178
vt 0.426533 0.750132
vt 0.062300 0.882228
vt 0.062015 0.883658
vt 0.412494 0.750127
vt 0.896555 0.325354
vt 0.426689 0.746732
vt 0.066704 0.884052
vt 0.065894 0.885264
vt 0.412649 0.746727
vt 0.891787 0.325354
vt 0.867956 0.655528
vt 0.867872 0.651143
vt 0.070075 0.887423
vt 0.068863 0.888233
vt 0.881912 0.651143
vt 0.881996 0.655528
vt 0.887383 0.327178
vt 0.867958 0.660295
vt 0.071900 0.891828
vt 0.070469 0.892112
vt 0.881998 0.660295
vt 0.884012 0.330549
vt 0.867878 0.664718
vt 0.071900 0.896595
vt 0.070469 0.896311
vt 0.881918 0.664718
vt 0.882188 0.334953
vt 0.583198 0.823111
vt 0.583020 0.819439
vt 0.070075 0.900999
vt 0.068863 0.900190
vt 0.597050 0.819439
vt 0.597228 0.823111
vt 0.882188 0.339720
vt 0.583280 0.827666
vt 0.066704 0.904370
vt 0.065894 0.903158
vt 0.597310 0.827666
vt 0.884012 0.344125
vt 0.584742 0.791530
vt 0.595918 0.791530
vt 0.595891 0.796511
vt 0.584714 0.796511
vt 0.880527 0.618464
vt 0.869350 0.618464
vt 0.869265 0.613686
vt 0.880442 0.613686
vt 0.869291 0.608704
vt 0.880468 0.608704
vt 0.869424 0.604277
vt 0.880601 0.604277
vt 0.595855 0.743533
vt 0.584672 0.743529
vt 0.584509 0.740022
vt 0.595692 0.740026
vt 0.584420 0.735417
vt 0.595604 0.735421
vt 0.584420 0.730414
vt 0.595604 0.730419
vt 0.584509 0.725776
vt 0.595692 0.725780
vt 0.584672 0.722208
vt 0.595855 0.722212
vt 0.403675 0.872734
vt 0.414859 0.872734
vt 0.414948 0.877336
vt 0.403764 0.877336
vt 0.414950 0.882338
vt 0.403766 0.882338
vt 0.414866 0.886980
vt 0.403682 0.886980
vt 0.584469 0.782896
vt 0.595645 0.782896
vt 0.595832 0.786749
vt 0.584656 0.786749
vt 0.880710 0.622310
vt 0.869533 0.622310
vt 0.873877 0.719858
vt 0.870908 0.716890
vt 0.869301 0.713011
vt 0.869301 0.708812
vt 0.870908 0.704933
vt 0.873877 0.701964
vt 0.877756 0.700358
vt 0.881954 0.700358
vt 0.885833 0.701964
vt 0.888802 0.704933
vt 0.890409 0.708812
vt 0.890409 0.713011
vt 0.888802 0.716890
vt 0.885833 0.719858
vt 0.881954 0.721465
vt 0.877756 0.721465
vt 0.595754 0.800933
vt 0.584578 0.800933
vt 0.583123 0.800552
vt 0.583254 0.796338
vt 0.901595 0.318912
vt 0.897191 0.320736
vt 0.896906 0.319307
vt 0.900785 0.317700
vt 0.597284 0.796338
vt 0.597154 0.800552
vt 0.873067 0.721070
vt 0.869696 0.717699
vt 0.881984 0.618176
vt 0.882159 0.621841
vt 0.892423 0.320736
vt 0.892707 0.319307
vt 0.868127 0.621841
vt 0.867953 0.618176
vt 0.877471 0.722895
vt 0.881903 0.613623
vt 0.888019 0.318912
vt 0.888828 0.317700
vt 0.867872 0.613623
vt 0.882239 0.722895
vt 0.881928 0.608876
vt 0.884648 0.315541
vt 0.885859 0.314731
vt 0.867897 0.608876
vt 0.886643 0.721070
vt 0.882055 0.604657
vt 0.882824 0.311136
vt 0.884253 0.310852
vt 0.868024 0.604657
vt 0.890014 0.717699
vt 0.597143 0.739687
vt 0.597299 0.743029
vt 0.882824 0.306369
vt 0.884253 0.306654
vt 0.583259 0.743023
vt 0.583104 0.739682
vt 0.891838 0.713295
vt 0.597059 0.735299
vt 0.884648 0.301965
vt 0.885859 0.302775
vt 0.583020 0.735293
vt 0.891838 0.708528
vt 0.597059 0.730532
vt 0.888019 0.298594
vt 0.888828 0.299806
vt 0.583020 0.730526
vt 0.890014 0.704123
vt 0.597143 0.726112
vt 0.892423 0.296769
vt 0.892707 0.298199
vt 0.583104 0.726106
vt 0.886643 0.700752
vt 0.597299 0.722712
vt 0.897191 0.296769
vt 0.896906 0.298199
vt 0.583259 0.722706
vt 0.882239 0.698928
vt 0.402309 0.877460
vt 0.402225 0.873074
vt 0.901595 0.298594
vt 0.900785 0.299806
vt 0.416265 0.873074
vt 0.416349 0.877460
vt 0.877471 0.698928
vt 0.402311 0.882227
vt 0.904966 0.301965
vt 0.903753 0.302775
vt 0.416351 0.882227
vt 0.873067 0.700752
vt 0.402231 0.886649
vt 0.906790 0.306369
vt 0.905360 0.306654
vt 0.416271 0.886649
vt 0.869696 0.704123
vt 0.583198 0.787036
vt 0.583020 0.783364
vt 0.906790 0.311136
vt 0.905360 0.310853
vt 0.597050 0.783364
vt 0.597228 0.787036
vt 0.867872 0.708528
vt 0.583280 0.791592
vt 0.904966 0.315541
vt 0.903753 0.314732
vt 0.597310 0.791592
vt 0.867872 0.713295
s 1
f 82/1/82 83/2/83 86/3/86 85/4/85
f 83/2/83 84/5/84 87/6/87 86/3/86
f 85/4/85 86/3/86 89/7/89 88/8/88
f 86/3/86 87/6/87 90/9/90 89/7/89
f 12/10/12 66/11/66 82/1/82 43/12/43
f 66/11/66 65/13/65 83/2/83 82/1/82
f 65/13/65 64/14/64 84/5/84 83/2/83
f 64/14/64 10/15/10 22/16/22 84/5/84
f 84/5/84 22/16/22 23/17/23 87/6/87
f 87/6/87 23/17/23 24/18/24 90/9/90
f 90/9/90 24/18/24 4/19/4 40/20/40
f 89/7/89 90/9/90 40/20/40 41/21/41
f 88/8/88 89/7/89 41/21/41 42/22/42
f 45/23/45 88/8/88 42/22/42 8/24/8
f 44/25/44 85/4/85 88/8/88 45/23/45
f 43/12/43 82/1/82 85/4/85 44/25/44
f 91/26/91 92/27/92 95/28/95 94/29/94
f 92/27/92 93/30/93 96/31/96 95/28/95
f 94/29/94 95/28/95 98/32/98 97/33/97
f 95/28/95 96/31/96 99/34/99 98/32/98
f 9/35/9 63/36/63 91/26/91 48/37/48
f 63/36/63 62/38/62 92/27/92 91/26/91
f 62/38/62 61/39/61 93/30/93 92/27/92
f 61/39/61 11/40/11 34/41/34 93/30/93
f 93/30/93 34/41/34 35/42/35 96/31/96
f 96/31/96 35/42/35 36/43/36 99/34/99
f 99/34/99 36/43/36 6/44/6 25/45/25
f 98/32/98 99/34/99 25/45/25 26/46/26
f 97/33/97 98/32/98 26/46/26 27/47/27
f 46/48/46 97/33/97 27/47/27 3/49/3
f 47/50/47 94/29/94 97/33/97 46/48/46
f 48/37/48 91/26/91 94/29/94 47/50/47
f 100/51/100 101/52/101 104/53/104 103/54/103
f 101/52/101 102/55/102 105/56/105 104/53/104
f 103/54/103 104/53/104 107/57/107 106/58/106
f 104/53/104 105/56/105 108/59/108 107/57/107
f 15/60/15 75/61/75 100/51/100 79/62/79
f 75/61/75 74/63/74 101/52/101 100/51/100
f 74/63/74 73/64/73 102/55/102 101/52/101
f 73/64/73 12/10/12 43/12/43 102/55/102
f 102/55/102 43/12/43 44/25/44 105/56/105
f 105/56/105 44/25/44 45/23/45 108/59/108
f 108/59/108 45/23/45 8/24/8 67/65/67
f 107/57/107 108/59/108 67/65/67 68/66/68
f 106/58/106 107/57/107 68/66/68 69/67/69
f 81/68/81 106/58/106 69/67/69 13/69/13
f 80/70/80 103/54/103 106/58/106 81/68/81
f 79/62/79 100/51/100 103/54/103 80/70/80
f 109/71/109 110/72/110 113/73/113 112/74/112
f 110/72/110 111/75/111 114/76/114 113/73/113
f 112/74/112 113/73/113 116/77/116 115/78/115
f 113/73/113 114/76/114 117/79/117 116/77/116
f 14/80/14 37/81/37 109/71/109 76/82/76
f 37/81/37 38/83/38 110/72/110 109/71/109
f 38/83/38 39/84/39 111/75/111 110/72/110
f 39/84/39 7/85/7 55/86/55 111/75/111
f 111/75/111 55/86/55 56/87/56 114/76/114
f 114/76/114 56/87/56 57/88/57 117/79/117
f 117/79/117 57/88/57 12/10/12 73/64/73
f 116/77/116 117/79/117 73/64/73 74/63/74
f 115/78/115 116/77/116 74/63/74 75/61/75
f 78/89/78 115/78/115 75/61/75 15/60/15
f 77/90/77 112/74/112 115/78/115 78/89/78
f 76/82/76 109/71/109 112/74/112 77/90/77
f 118/91/118 119/92/119 122/93/122 121/94/121
f 119/92/119 120/95/120 123/96/123 122/93/122
f 121/94/121 122/93/122 125/97/125 124/98/124
f 122/93/122 123/96/123 126/99/126 125/97/125
f 1/100/1 28/101/28 118/91/118 18/102/18
f 28/101/28 29/103/29 119/92/119 118/91/118
f 29/103/29 30/104/30 120/95/120 119/92/119
f 30/104/30 5/105/5 52/106/52 120/95/120
f 120/95/120 52/106/52 53/107/53 123/96/123
f 123/96/123 53/107/53 54/108/54 126/99/126
f 126/99/126 54/108/54 11/40/11 61/39/61
f 125/97/125 126/99/126 61/39/61 62/38/62
f 124/98/124 125/97/125 62/38/62 63/36/63
f 16/109/16 124/98/124 63/36/63 9/35/9
f 17/110/17 121/94/121 124/98/124 16/109/16
f 18/102/18 118/91/118 121/94/121 17/110/17
f 127/111/127 128/112/128 131/113/131 130/114/130
f 128/112/128 129/115/129 132/116/132 131/113/131
f 130/114/130 131/113/131 134/117/134 133/118/133
f 131/113/131 132/116/132 135/119/135 134/117/134
f 7/85/7 19/120/19 127/111/127 55/86/55
f 19/120/19 20/121/20 128/112/128 127/111/127
f 20/121/20 21/122/21 129/115/129 128/112/128
f 21/122/21 2/123/2 49/124/49 129/115/129
f 129/115/129 49/124/49 50/125/50 132/116/132
f 132/116/132 50/125/50 51/126/51 135/119/135
f 135/119/135 51/126/51 10/15/10 64/14/64
f 134/117/134 135/119/135 64/14/64 65/13/65
f 133/118/133 134/117/134 65/13/65 66/11/66
f 57/88/57 133/118/133 66/11/66 12/10/12
f 56/87/56 130/114/130 133/118/133 57/88/57
f 55/86/55 127/111/127 130/114/130 56/87/56
f 136/127/136 137/128/137 140/129/140 139/130/139
f 137/128/137 138/131/138 141/132/141 140/129/140
f 139/130/139 140/129/140 143/133/143 142/134/142
f 140/129/140 141/132/141 144/135/144 143/133/143
f 5/105/5 70/136/70 136/127/136 52/106/52
f 70/136/70 71/137/71 137/128/137 136/127/136
f 71/137/71 72/138/72 138/131/138 137/128/137
f 72/138/72 14/80/14 76/82/76 138/131/138
f 138/131/138 76/82/76 77/90/77 141/132/141
f 141/132/141 77/90/77 78/89/78 144/135/144
f 144/135/144 78/89/78 15/60/15 58/139/58
f 143/133/143 144/135/144 58/139/58 59/140/59
f 142/134/142 143/133/143 59/140/59 60/141/60
f 54/108/54 142/134/142 60/141/60 11/40/11
f 53/107/53 139/130/139 142/134/142 54/108/54
f 52/106/52 136/127/136 139/130/139 53/107/53
f 145/142/145 146/143/146 149/144/149 148/145/148
f 146/143/146 147/146/147 150/147/150 149/144/149
f 148/145/148 149/144/149 152/148/152 151/149/151
f 149/144/149 150/147/150 153/150/153 152/148/152
f 11/40/11 60/141/60 145/142/145 34/41/34
f 60/141/60 59/140/59 146/143/146 145/142/145
f 59/140/59 58/139/58 147/146/147 146/143/146
f 58/139/58 15/60/15 79/62/79 147/146/147
f 147/146/147 79/62/79 80/70/80 150/147/150
f 150/147/150 80/70/80 81/68/81 153/150/153
f 153/150/153 81/68/81 13/69/13 31/151/31
f 152/148/152 153/150/153 31/151/31 32/152/32
f 151/149/151 152/148/152 32/152/32 33/153/33
f 36/43/36 151/149/151 33/153/33 6/44/6
f 35/42/35 148/145/148 151/149/151 36/43/36
f 34/41/34 145/142/145 148/145/148 35/42/35
f 174/154/174 180/155/180 213/156/213 205/157/205
f 211/158/211 179/159/179 229/160/229 236/161/236
f 276/162/276 270/163/270 262/164/262 256/165/256
f 188/166/188 156/167/156 219/168/219 248/169/248
f 221/170/221 230/171/230 181/172/181 173/173/173
f 186/174/186 195/175/195 268/176/268 275/177/275
f 157/178/157 187/179/187 277/180/277 255/181/255
f 206/182/206 212/183/212 239/184/239 246/185/246
f 198/186/198 164/187/164 263/188/263 269/189/269
f 172/190/172 204/191/204 245/192/245 218/193/218
f 155/194/155 166/195/166 227/196/227 220/197/220
f 165/198/165 197/199/197 237/200/237 228/201/228
f 196/202/196 189/203/189 247/204/247 238/205/238
f 154/206/154 158/207/158 159/208/159 162/209/162
f 155/194/155 160/210/160 159/211/159 158/212/158
f 156/167/156 161/213/161 159/211/159 160/210/160
f 157/178/157 162/214/162 159/215/159 161/216/161
f 163/217/163 167/218/167 168/219/168 171/220/171
f 164/187/164 169/221/169 168/222/168 167/223/167
f 165/198/165 170/224/170 168/225/168 169/226/169
f 166/195/166 171/227/171 168/225/168 170/224/170
f 172/190/172 175/228/175 176/229/176 178/230/178
f 173/173/173 177/231/177 176/232/176 175/233/175
f 174/154/174 178/234/178 176/235/176 177/236/177
f 179/159/179 182/237/182 183/238/183 185/239/185
f 180/155/180 184/240/184 183/241/183 182/242/182
f 181/172/181 185/243/185 183/244/183 184/245/184
f 186/174/186 190/246/190 191/247/191 194/248/194
f 187/179/187 192/249/192 191/250/191 190/251/190
f 188/166/188 193/252/193 191/253/191 192/254/192
f 189/203/189 194/255/194 191/253/191 193/252/193
f 195/175/195 199/256/199 200/257/200 203/258/203
f 196/202/196 201/259/201 200/260/200 199/261/199
f 197/199/197 202/262/202 200/260/200 201/259/201
f 198/186/198 203/263/203 200/264/200 202/265/202
f 204/191/204 207/266/207 208/267/208 210/268/210
f 205/157/205 209/269/209 208/270/208 207/271/207
f 206/182/206 210/272/210 208/273/208 209/274/209
f 211/158/211 214/275/214 215/276/215 217/277/217
f 212/183/212 216/278/216 215/279/215 214/280/214
f 213/156/213 217/281/217 215/282/215 216/283/216
f 218/193/218 222/284/222 223/285/223 226/286/226
f 219/168/219 224/287/224 223/288/223 222/289/222
f 220/197/220 225/290/225 223/288/223 224/287/224
f 221/170/221 226/291/226 223/292/223 225/293/225
f 227/196/227 231/294/231 232/295/232 235/296/235
f 228/201/228 233/297/233 232/295/232 231/294/231
f 229/160/229 234/298/234 232/299/232 233/300/233
f 230/171/230 235/301/235 232/302/232 234/303/234
f 236/161/236 240/304/240 241/305/241 244/306/244
f 237/200/237 242/307/242 241/308/241 240/309/240
f 238/205/238 243/310/243 241/308/241 242/307/242
f 239/311/239 244/312/244 241/308/241 243/310/243
f 245/192/245 249/313/249 250/314/250 253/315/253
f 246/185/246 251/316/251 250/317/250 249/318/249
f 247/204/247 252/319/252 250/320/250 251/321/251
f 248/169/248 253/322/253 250/320/250 252/319/252
f 254/323/254 257/324/257 258/325/258 260/326/260
f 255/181/255 259/327/259 258/328/258 257/329/257
f 256/165/256 260/330/260 258/331/258 259/332/259
f 261/333/261 264/334/264 265/335/265 267/336/267
f 262/164/262 266/337/266 265/338/265 264/339/264
f 263/188/263 267/340/267 265/341/265 266/342/266
f 268/176/268 271/343/271 272/344/272 274/345/274
f 269/189/269 273/346/273 272/347/272 271/348/271
f 270/163/270 274/349/274 272/350/272 273/351/273
f 275/177/275 278/352/278 279/353/279 281/354/281
f 276/162/276 280/355/280 279/356/279 278/357/278
f 277/180/277 281/358/281 279/359/279 280/360/280
f 172/190/172 218/193/218 226/286/226 175/228/175
f 175/233/175 226/291/226 221/170/221 173/173/173
f 220/197/220 227/196/227 235/296/235 225/290/225
f 225/293/225 235/301/235 230/171/230 221/170/221
f 229/160/229 179/159/179 185/239/185 234/298/234
f 234/303/234 185/243/185 181/172/181 230/171/230
f 180/155/180 174/154/174 177/236/177 184/240/184
f 184/245/184 177/231/177 173/173/173 181/172/181
f 204/191/204 172/190/172 178/230/178 207/266/207
f 207/271/207 178/234/178 174/154/174 205/157/205
f 179/159/179 211/158/211 217/277/217 182/237/182
f 182/242/182 217/281/217 213/156/213 180/155/180
f 212/183/212 206/182/206 209/274/209 216/278/216
f 216/283/216 209/269/209 205/157/205 213/156/213
f 245/192/245 204/191/204 210/268/210 249/313/249
f 249/318/249 210/272/210 206/182/206 246/185/246
f 211/158/211 236/161/236 244/306/244 214/275/214
f 214/280/214 244/361/244 239/184/239 212/183/212
f 238/205/238 247/204/247 251/321/251 243/310/243
f 243/362/243 251/316/251 246/185/246 239/184/239
f 218/193/218 245/192/245 253/315/253 222/284/222
f 222/289/222 253/322/253 248/169/248 219/168/219
f 236/161/236 229/160/229 233/300/233 240/304/240
f 240/309/240 233/297/233 228/201/228 237/200/237
f 154/206/154 163/217/163 171/220/171 158/207/158
f 158/212/158 171/227/171 166/195/166 155/194/155
f 195/175/195 186/174/186 194/248/194 199/256/199
f 199/261/199 194/255/194 189/203/189 196/202/196
f 156/167/156 188/166/188 192/254/192 161/213/161
f 161/216/161 192/249/192 187/179/187 157/178/157
f 197/199/197 165/198/165 169/226/169 202/262/202
f 202/265/202 169/221/169 164/187/164 198/186/198
f 219/168/219 156/167/156 160/210/160 224/287/224
f 224/287/224 160/210/160 155/194/155 220/197/220
f 165/198/165 228/201/228 231/294/231 170/224/170
f 170/224/170 231/294/231 227/196/227 166/195/166
f 237/200/237 197/199/197 201/259/201 242/307/242
f 242/307/242 201/259/201 196/202/196 238/205/238
f 188/166/188 248/169/248 252/319/252 193/252/193
f 193/252/193 252/319/252 247/204/247 189/203/189
f 256/165/256 262/164/262 264/339/264 260/330/260
f 260/326/260 264/334/264 261/333/261 254/323/254
f 270/163/270 276/162/276 278/357/278 274/349/274
f 274/345/274 278/352/278 275/177/275 268/176/268
f 255/181/255 277/180/277 280/360/280 259/327/259
f 259/332/259 280/355/280 276/162/276 256/165/256
f 269/189/269 263/188/263 266/342/266 273/346/273
f 273/351/273 266/337/266 262/164/262 270/163/270
f 186/174/186 275/177/275 281/354/281 190/246/190
f 190/251/190 281/358/281 277/180/277 187/179/187
f 254/323/254 154/206/154 162/209/162 257/324/257
f 257/329/257 162/214/162 157/178/157 255/181/255
f 263/188/263 164/187/164 167/223/167 267/340/267
f 267/336/267 167/218/167 163/217/163 261/333/261
f 268/176/268 195/175/195 203/258/203 271/343/271
f 271/348/271 203/263/203 198/186/198 269/189/269
f 163/217/163 154/206/154 254/323/254 261/333/261
f 373/363/373 376/364/376 286/365/286 283/366/283
f 295/367/295 298/368/298 304/369/304 301/370/301
f 301/370/301 304/369/304 310/371/310 307/372/307
f 307/372/307 310/371/310 316/373/316 313/374/313
f 313/375/313 316/376/316 322/377/322 319/378/319
f 319/378/319 322/377/322 328/379/328 325/380/325
f 325/380/325 328/379/328 334/381/334 331/382/331
f 331/382/331 334/381/334 340/383/340 337/384/337
f 337/384/337 340/383/340 346/385/346 343/386/343
f 343/387/343 346/388/346 352/389/352 349/390/349
f 349/390/349 352/389/352 358/391/358 355/392/355
f 355/392/355 358/391/358 364/393/364 361/394/361
f 361/395/361 364/396/364 370/397/370 367/398/367
f 367/398/367 370/397/370 376/364/376 373/363/373
f 289/399/289 292/400/292 298/368/298 295/367/295
f 291/401/291 285/402/285 375/403/375 369/404/369 363/405/363 357/406/357 351/407/351 345/408/345 339/409/339 333/410/333 327/411/327 321/412/321 315/413/315 309/414/309 303/415/303 297/416/297
f 283/366/283 286/365/286 292/417/292 289/418/289
f 283/366/283 289/418/289 290/419/290 284/420/284
f 284/421/284 290/422/290 288/423/288 282/424/282
f 292/417/292 286/365/286 287/425/287 293/426/293
f 293/427/293 287/428/287 285/402/285 291/401/291
f 289/399/289 295/367/295 296/429/296 290/430/290
f 290/422/290 296/431/296 294/432/294 288/423/288
f 298/368/298 292/400/292 293/433/293 299/434/299
f 299/435/299 293/427/293 291/401/291 297/416/297
f 295/367/295 301/370/301 302/436/302 296/429/296
f 296/431/296 302/437/302 300/438/300 294/432/294
f 304/369/304 298/368/298 299/434/299 305/439/305
f 305/440/305 299/435/299 297/416/297 303/415/303
f 301/370/301 307/372/307 308/441/308 302/436/302
f 302/437/302 308/442/308 306/443/306 300/438/300
f 310/371/310 304/369/304 305/439/305 311/444/311
f 311/445/311 305/440/305 303/415/303 309/414/309
f 307/372/307 313/374/313 314/446/314 308/441/308
f 308/442/308 314/447/314 312/448/312 306/443/306
f 316/373/316 310/371/310 311/444/311 317/449/317
f 317/450/317 311/445/311 309/414/309 315/413/315
f 313/375/313 319/378/319 320/451/320 314/452/314
f 314/447/314 320/453/320 318/454/318 312/448/312
f 322/377/322 316/376/316 317/455/317 323/456/323
f 323/457/323 317/450/317 315/413/315 321/412/321
f 319/378/319 325/380/325 326/458/326 320/451/320
f 320/453/320 326/459/326 324/460/324 318/454/318
f 328/379/328 322/377/322 323/456/323 329/461/329
f 329/462/329 323/457/323 321/412/321 327/411/327
f 325/380/325 331/382/331 332/463/332 326/458/326
f 326/459/326 332/464/332 330/465/330 324/460/324
f 334/381/334 328/379/328 329/461/329 335/466/335
f 335/467/335 329/462/329 327/411/327 333/410/333
f 331/382/331 337/384/337 338/468/338 332/463/332
f 332/464/332 338/469/338 336/470/336 330/465/330
f 340/383/340 334/381/334 335/466/335 341/471/341
f 341/472/341 335/467/335 333/410/333 339/409/339
f 337/384/337 343/386/343 344/473/344 338/468/338
f 338/469/338 344/474/344 342/475/342 336/470/336
f 346/385/346 340/383/340 341/471/341 347/476/347
f 347/477/347 341/472/341 339/409/339 345/408/345
f 343/387/343 349/390/349 350/478/350 344/479/344
f 344/474/344 350/480/350 348/481/348 342/475/342
f 352/389/352 346/388/346 347/482/347 353/483/353
f 353/484/353 347/477/347 345/408/345 351/407/351
f 349/390/349 355/392/355 356/485/356 350/478/350
f 350/480/350 356/486/356 354/487/354 348/481/348
f 358/391/358 352/389/352 353/483/353 359/488/359
f 359/489/359 353/484/353 351/407/351 357/406/357
f 355/392/355 361/394/361 362/490/362 356/485/356
f 356/486/356 362/491/362 360/492/360 354/487/354
f 364/393/364 358/391/358 359/488/359 365/493/365
f 365/494/365 359/489/359 357/406/357 363/405/363
f 361/395/361 367/398/367 368/495/368 362/496/362
f 362/491/362 368/497/368 366/498/366 360/492/360
f 370/397/370 364/396/364 365/499/365 371/500/371
f 371/501/371 365/494/365 363/405/363 369/404/369
f 367/398/367 373/363/373 374/502/374 368/495/368
f 368/497/368 374/503/374 372/504/372 366/498/366
f 376/364/376 370/397/370 371/500/371 377/505/377
f 377/506/377 371/501/371 369/404/369 375/403/375
f 373/363/373 283/366/283 284/420/284 374/502/374
f 374/503/374 284/421/284 282/424/282 372/504/372
f 286/365/286 376/364/376 377/505/377 287/425/287
f 287/428/287 377/506/377 375/403/375 285/402/285
f 282/424/282 288/423/288 294/432/294 300/438/300 306/443/306 312/448/312 318/454/318 324/460/324 330/465/330 336/470/336 342/475/342 348/481/348 354/487/354 360/492/360 366/498/366 372/504/372
f 469/507/373 472/508/376 382/509/286 379/510/283
f 391/511/295 394/512/298 400/513/304 397/514/301
f 397/514/301 400/513/304 406/515/310 403/516/307
f 403/516/307 406/515/310 412/517/316 409/518/313
f 409/519/313 412/520/316 418/521/322 415/522/319
f 415/522/319 418/521/322 424/523/328 421/524/325
f 421/524/325 424/523/328 430/525/334 427/526/331
f 427/526/331 430/525/334 436/527/340 433/528/337
f 433/528/337 436/527/340 442/529/346 439/530/343
f 439/531/343 442/532/346 448/533/352 445/534/349
f 445/534/349 448/533/352 454/535/358 451/536/355
f 451/536/355 454/535/358 460/537/364 457/538/361
f 457/539/361 460/540/364 466/541/370 463/542/367
f 463/542/367 466/541/370 472/508/376 469/507/373
f 385/543/289 388/544/292 394/512/298 391/511/295
f 387/545/291 381/546/285 471/547/375 465/548/369 459/549/363 453/550/357 447/551/351 441/552/345 435/553/339 429/554/333 423/555/327 417/556/321 411/557/315 405/558/309 399/559/303 393/560/297
f 379/510/283 382/509/286 388/561/292 385/562/289
f 379/510/283 385/562/289 386/563/290 380/564/284
f 380/565/284 386/566/290 384/567/288 378/568/282
f 388/561/292 382/509/286 383/569/287 389/570/293
f 389/571/293 383/572/287 381/546/285 387/545/291
f 385/543/289 391/511/295 392/573/296 386/574/290
f 386/566/290 392/575/296 390/576/294 384/567/288
f 394/512/298 388/544/292 389/577/293 395/578/299
f 395/579/299 389/571/293 387/545/291 393/560/297
f 391/511/295 397/514/301 398/580/302 392/573/296
f 392/575/296 398/581/302 396/582/300 390/576/294
f 400/513/304 394/512/298 395/578/299 401/583/305
f 401/584/305 395/579/299 393/560/297 399/559/303
f 397/514/301 403/516/307 404/585/308 398/580/302
f 398/581/302 404/586/308 402/587/306 396/582/300
f 406/515/310 400/513/304 401/583/305 407/588/311
f 407/589/311 401/584/305 399/559/303 405/558/309
f 403/516/307 409/518/313 410/590/314 404/585/308
f 404/586/308 410/591/314 408/592/312 402/587/306
f 412/517/316 406/515/310 407/588/311 413/593/317
f 413/594/317 407/589/311 405/558/309 411/557/315
f 409/519/313 415/522/319 416/595/320 410/596/314
f 410/591/314 416/597/320 414/598/318 408/592/312
f 418/521/322 412/520/316 413/599/317 419/600/323
f 419/601/323 413/594/317 411/557/315 417/556/321
f 415/522/319 421/524/325 422/602/326 416/595/320
f 416/597/320 422/603/326 420/604/324 414/598/318
f 424/523/328 418/521/322 419/600/323 425/605/329
f 425/606/329 419/601/323 417/556/321 423/555/327
f 421/524/325 427/526/331 428/607/332 422/602/326
f 422/603/326 428/608/332 426/609/330 420/604/324
f 430/525/334 424/523/328 425/605/329 431/610/335
f 431/611/335 425/606/329 423/555/327 429/554/333
f 427/526/331 433/528/337 434/612/338 428/607/332
f 428/608/332 434/613/338 432/614/336 426/609/330
f 436/527/340 430/525/334 431/610/335 437/615/341
f 437/616/341 431/611/335 429/554/333 435/553/339
f 433/528/337 439/530/343 440/617/344 434/612/338
f 434/613/338 440/618/344 438/619/342 432/614/336
f 442/529/346 436/527/340 437/615/341 443/620/347
f 443/621/347 437/616/341 435/553/339 441/552/345
f 439/531/343 445/534/349 446/622/350 440/623/344
f 440/618/344 446/624/350 444/625/348 438/619/342
f 448/533/352 442/532/346 443/626/347 449/627/353
f 449/628/353 443/621/347 441/552/345 447/551/351
f 445/534/349 451/536/355 452/629/356 446/622/350
f 446/624/350 452/630/356 450/631/354 444/625/348
f 454/535/358 448/533/352 449/627/353 455/632/359
f 455/633/359 449/628/353 447/551/351 453/550/357
f 451/536/355 457/538/361 458/634/362 452/629/356
f 452/630/356 458/635/362 456/636/360 450/631/354
f 460/537/364 454/535/358 455/632/359 461/637/365
f 461/638/365 455/633/359 453/550/357 459/549/363
f 457/539/361 463/542/367 464/639/368 458/640/362
f 458/635/362 464/641/368 462/642/366 456/636/360
f 466/541/370 460/540/364 461/643/365 467/644/371
f 467/645/371 461/638/365 459/549/363 465/548/369
f 463/542/367 469/507/373 470/646/374 464/639/368
f 464/641/368 470/647/374 468/648/372 462/642/366
f 472/508/376 466/541/370 467/644/371 473/649/377
f 473/650/377 467/645/371 465/548/369 471/547/375
f 469/507/373 379/510/283 380/564/284 470/646/374
f 470/647/374 380/565/284 378/568/282 468/648/372
f 382/509/286 472/508/376 473/649/377 383/569/287
f 383/572/287 473/650/377 471/547/375 381/546/285
f 378/568/282 384/567/288 390/576/294 396/582/300 402/587/306 408/592/312 414/598/318 420/604/324 426/609/330 432/614/336 438/619/342 444/625/348 450/631/354 456/636/360 462/642/366 468/648/372
